<svg width="1270" height="990" viewBox="0 0 1270 990" fill="none" xmlns="http://www.w3.org/2000/svg">
<path d="M96.7734 858.29C128.359 902.205 620.837 1104.45 786.352 681.789C870.476 466.97 764.24 108.293 1155.41 -17" stroke="white" stroke-width="2" stroke-dasharray="15 15"/>
<path d="M635.429 910.588V898.952H637.184V904.009H642.985V898.952H644.747V910.588H642.985V905.514H637.184V910.588H635.429ZM650.843 910.764C650.025 910.764 649.311 910.577 648.701 910.202C648.091 909.827 647.618 909.302 647.281 908.628C646.944 907.954 646.775 907.166 646.775 906.264C646.775 905.359 646.944 904.567 647.281 903.889C647.618 903.211 648.091 902.685 648.701 902.31C649.311 901.935 650.025 901.747 650.843 901.747C651.661 901.747 652.375 901.935 652.985 902.31C653.595 902.685 654.069 903.211 654.406 903.889C654.743 904.567 654.911 905.359 654.911 906.264C654.911 907.166 654.743 907.954 654.406 908.628C654.069 909.302 653.595 909.827 652.985 910.202C652.375 910.577 651.661 910.764 650.843 910.764ZM650.849 909.338C651.379 909.338 651.819 909.198 652.167 908.918C652.516 908.637 652.773 908.264 652.94 907.798C653.11 907.332 653.196 906.819 653.196 906.259C653.196 905.702 653.11 905.19 652.94 904.724C652.773 904.255 652.516 903.878 652.167 903.594C651.819 903.31 651.379 903.168 650.849 903.168C650.315 903.168 649.872 903.31 649.519 903.594C649.171 903.878 648.911 904.255 648.741 904.724C648.574 905.19 648.491 905.702 648.491 906.259C648.491 906.819 648.574 907.332 648.741 907.798C648.911 908.264 649.171 908.637 649.519 908.918C649.872 909.198 650.315 909.338 650.849 909.338ZM663.977 901.861L660.812 910.588H658.994L655.823 901.861H657.647L659.858 908.577H659.948L662.153 901.861H663.977ZM669.038 910.764C668.178 910.764 667.438 910.581 666.816 910.213C666.199 909.842 665.722 909.321 665.384 908.651C665.051 907.976 664.884 907.187 664.884 906.281C664.884 905.387 665.051 904.599 665.384 903.918C665.722 903.236 666.191 902.704 666.794 902.321C667.4 901.939 668.108 901.747 668.919 901.747C669.411 901.747 669.888 901.829 670.35 901.992C670.813 902.154 671.227 902.41 671.595 902.759C671.962 903.107 672.252 903.56 672.464 904.117C672.676 904.67 672.782 905.342 672.782 906.134V906.736H665.845V905.463H671.117C671.117 905.016 671.027 904.62 670.845 904.276C670.663 903.927 670.407 903.653 670.078 903.452C669.752 903.251 669.369 903.151 668.93 903.151C668.453 903.151 668.036 903.268 667.68 903.503C667.328 903.734 667.055 904.037 666.862 904.412C666.672 904.783 666.578 905.187 666.578 905.622V906.617C666.578 907.2 666.68 907.696 666.884 908.105C667.093 908.514 667.383 908.827 667.754 909.043C668.125 909.255 668.559 909.361 669.055 909.361C669.377 909.361 669.67 909.315 669.936 909.224C670.201 909.13 670.43 908.99 670.623 908.804C670.816 908.618 670.964 908.389 671.066 908.117L672.674 908.406C672.545 908.88 672.314 909.295 671.981 909.651C671.652 910.003 671.237 910.278 670.737 910.474C670.241 910.668 669.674 910.764 669.038 910.764ZM674.667 910.588V901.861H676.309V903.247H676.4C676.559 902.778 676.84 902.408 677.241 902.139C677.646 901.867 678.105 901.73 678.616 901.73C678.722 901.73 678.847 901.734 678.991 901.742C679.139 901.749 679.254 901.759 679.338 901.77V903.395C679.269 903.376 679.148 903.355 678.974 903.332C678.8 903.306 678.625 903.293 678.451 903.293C678.05 903.293 677.692 903.378 677.377 903.548C677.067 903.715 676.821 903.948 676.639 904.247C676.457 904.543 676.366 904.88 676.366 905.259V910.588H674.667ZM688.718 910.764C687.9 910.764 687.186 910.577 686.576 910.202C685.966 909.827 685.493 909.302 685.156 908.628C684.819 907.954 684.65 907.166 684.65 906.264C684.65 905.359 684.819 904.567 685.156 903.889C685.493 903.211 685.966 902.685 686.576 902.31C687.186 901.935 687.9 901.747 688.718 901.747C689.536 901.747 690.25 901.935 690.86 902.31C691.47 902.685 691.944 903.211 692.281 903.889C692.618 904.567 692.786 905.359 692.786 906.264C692.786 907.166 692.618 907.954 692.281 908.628C691.944 909.302 691.47 909.827 690.86 910.202C690.25 910.577 689.536 910.764 688.718 910.764ZM688.724 909.338C689.254 909.338 689.694 909.198 690.042 908.918C690.391 908.637 690.648 908.264 690.815 907.798C690.985 907.332 691.071 906.819 691.071 906.259C691.071 905.702 690.985 905.19 690.815 904.724C690.648 904.255 690.391 903.878 690.042 903.594C689.694 903.31 689.254 903.168 688.724 903.168C688.19 903.168 687.747 903.31 687.394 903.594C687.046 903.878 686.786 904.255 686.616 904.724C686.449 905.19 686.366 905.702 686.366 906.259C686.366 906.819 686.449 907.332 686.616 907.798C686.786 908.264 687.046 908.637 687.394 908.918C687.747 909.198 688.19 909.338 688.724 909.338ZM696.382 905.406V910.588H694.683V901.861H696.313V903.281H696.421C696.622 902.819 696.937 902.448 697.365 902.168C697.796 901.887 698.34 901.747 698.995 901.747C699.59 901.747 700.111 901.872 700.558 902.122C701.005 902.368 701.351 902.736 701.598 903.224C701.844 903.713 701.967 904.317 701.967 905.037V910.588H700.268V905.242C700.268 904.609 700.103 904.115 699.774 903.759C699.444 903.399 698.991 903.219 698.416 903.219C698.022 903.219 697.671 903.304 697.365 903.474C697.062 903.645 696.821 903.895 696.643 904.224C696.469 904.55 696.382 904.944 696.382 905.406ZM708.48 910.588V901.861H710.179V910.588H708.48ZM709.338 900.514C709.042 900.514 708.788 900.416 708.576 900.219C708.368 900.018 708.264 899.779 708.264 899.503C708.264 899.223 708.368 898.984 708.576 898.787C708.788 898.586 709.042 898.486 709.338 898.486C709.633 898.486 709.885 898.586 710.093 898.787C710.305 898.984 710.411 899.223 710.411 899.503C710.411 899.779 710.305 900.018 710.093 900.219C709.885 900.416 709.633 900.514 709.338 900.514ZM712.464 910.588V901.861H714.095V903.281H714.203C714.384 902.8 714.682 902.425 715.095 902.156C715.508 901.884 716.002 901.747 716.578 901.747C717.161 901.747 717.65 901.884 718.044 902.156C718.441 902.429 718.735 902.804 718.924 903.281H719.015C719.224 902.815 719.555 902.444 720.009 902.168C720.464 901.887 721.006 901.747 721.634 901.747C722.426 901.747 723.072 901.995 723.572 902.492C724.076 902.988 724.328 903.736 724.328 904.736V910.588H722.629V904.895C722.629 904.304 722.468 903.876 722.146 903.611C721.824 903.346 721.439 903.213 720.992 903.213C720.439 903.213 720.009 903.384 719.703 903.724C719.396 904.062 719.242 904.495 719.242 905.026V910.588H717.549V904.787C717.549 904.314 717.402 903.933 717.106 903.645C716.811 903.357 716.426 903.213 715.953 903.213C715.631 903.213 715.333 903.298 715.061 903.469C714.792 903.635 714.574 903.868 714.407 904.168C714.244 904.467 714.163 904.814 714.163 905.207V910.588H712.464ZM729.144 910.781C728.591 910.781 728.091 910.679 727.644 910.474C727.197 910.266 726.843 909.965 726.582 909.571C726.324 909.177 726.196 908.694 726.196 908.122C726.196 907.63 726.29 907.224 726.48 906.906C726.669 906.588 726.925 906.336 727.247 906.151C727.569 905.965 727.929 905.825 728.326 905.73C728.724 905.635 729.129 905.564 729.542 905.514C730.065 905.454 730.489 905.404 730.815 905.367C731.141 905.325 731.377 905.259 731.525 905.168C731.673 905.077 731.747 904.929 731.747 904.724V904.685C731.747 904.189 731.607 903.804 731.326 903.531C731.05 903.259 730.637 903.122 730.088 903.122C729.516 903.122 729.065 903.249 728.735 903.503C728.41 903.753 728.184 904.031 728.059 904.338L726.463 903.974C726.652 903.444 726.929 903.016 727.292 902.69C727.66 902.361 728.082 902.122 728.559 901.974C729.036 901.823 729.538 901.747 730.065 901.747C730.413 901.747 730.783 901.789 731.173 901.872C731.567 901.952 731.934 902.099 732.275 902.315C732.62 902.531 732.902 902.84 733.122 903.242C733.341 903.639 733.451 904.156 733.451 904.793V910.588H731.792V909.395H731.724C731.614 909.615 731.449 909.831 731.23 910.043C731.01 910.255 730.728 910.431 730.383 910.571C730.038 910.711 729.625 910.781 729.144 910.781ZM729.514 909.418C729.983 909.418 730.385 909.325 730.718 909.139C731.055 908.954 731.311 908.711 731.485 908.412C731.663 908.109 731.752 907.785 731.752 907.44V906.315C731.692 906.376 731.574 906.433 731.4 906.486C731.23 906.535 731.035 906.579 730.815 906.617C730.595 906.651 730.381 906.683 730.173 906.713C729.965 906.74 729.79 906.762 729.65 906.781C729.321 906.823 729.019 906.893 728.747 906.992C728.478 907.09 728.262 907.232 728.099 907.418C727.94 907.599 727.86 907.842 727.86 908.145C727.86 908.565 728.016 908.884 728.326 909.099C728.637 909.312 729.033 909.418 729.514 909.418ZM739.373 914.043C738.68 914.043 738.083 913.952 737.583 913.77C737.087 913.588 736.682 913.348 736.367 913.048C736.053 912.749 735.818 912.421 735.663 912.065L737.123 911.463C737.225 911.63 737.362 911.806 737.532 911.992C737.706 912.181 737.941 912.342 738.237 912.474C738.536 912.607 738.92 912.673 739.39 912.673C740.034 912.673 740.566 912.516 740.987 912.202C741.407 911.891 741.617 911.395 741.617 910.713V908.997H741.509C741.407 909.183 741.259 909.389 741.066 909.617C740.877 909.844 740.616 910.041 740.282 910.207C739.949 910.374 739.515 910.457 738.981 910.457C738.292 910.457 737.67 910.296 737.117 909.974C736.568 909.649 736.133 909.17 735.811 908.537C735.492 907.901 735.333 907.118 735.333 906.19C735.333 905.262 735.491 904.467 735.805 903.804C736.123 903.141 736.559 902.634 737.112 902.281C737.665 901.925 738.292 901.747 738.992 901.747C739.534 901.747 739.972 901.838 740.305 902.02C740.638 902.198 740.898 902.406 741.083 902.645C741.273 902.884 741.419 903.094 741.521 903.276H741.646V901.861H743.311V910.781C743.311 911.531 743.136 912.147 742.788 912.628C742.439 913.109 741.968 913.465 741.373 913.696C740.782 913.927 740.116 914.043 739.373 914.043ZM739.356 909.048C739.845 909.048 740.258 908.935 740.595 908.707C740.936 908.476 741.193 908.147 741.367 907.719C741.545 907.287 741.634 906.77 741.634 906.168C741.634 905.581 741.547 905.064 741.373 904.617C741.199 904.17 740.943 903.821 740.606 903.571C740.269 903.317 739.852 903.19 739.356 903.19C738.845 903.19 738.419 903.323 738.078 903.588C737.737 903.849 737.479 904.206 737.305 904.656C737.134 905.107 737.049 905.611 737.049 906.168C737.049 906.74 737.136 907.242 737.311 907.673C737.485 908.105 737.742 908.442 738.083 908.685C738.428 908.927 738.852 909.048 739.356 909.048ZM749.35 910.764C748.491 910.764 747.75 910.581 747.129 910.213C746.511 909.842 746.034 909.321 745.697 908.651C745.364 907.976 745.197 907.187 745.197 906.281C745.197 905.387 745.364 904.599 745.697 903.918C746.034 903.236 746.504 902.704 747.106 902.321C747.712 901.939 748.42 901.747 749.231 901.747C749.724 901.747 750.201 901.829 750.663 901.992C751.125 902.154 751.54 902.41 751.907 902.759C752.275 903.107 752.564 903.56 752.777 904.117C752.989 904.67 753.095 905.342 753.095 906.134V906.736H746.157V905.463H751.43C751.43 905.016 751.339 904.62 751.157 904.276C750.975 903.927 750.72 903.653 750.39 903.452C750.064 903.251 749.682 903.151 749.242 903.151C748.765 903.151 748.349 903.268 747.992 903.503C747.64 903.734 747.367 904.037 747.174 904.412C746.985 904.783 746.89 905.187 746.89 905.622V906.617C746.89 907.2 746.992 907.696 747.197 908.105C747.405 908.514 747.695 908.827 748.066 909.043C748.438 909.255 748.871 909.361 749.367 909.361C749.689 909.361 749.983 909.315 750.248 909.224C750.513 909.13 750.742 908.99 750.936 908.804C751.129 908.618 751.277 908.389 751.379 908.117L752.987 908.406C752.858 908.88 752.627 909.295 752.294 909.651C751.964 910.003 751.549 910.278 751.049 910.474C750.553 910.668 749.987 910.764 749.35 910.764ZM761.519 903.992L759.98 904.264C759.915 904.067 759.813 903.88 759.673 903.702C759.536 903.524 759.351 903.378 759.116 903.264C758.881 903.151 758.588 903.094 758.235 903.094C757.754 903.094 757.353 903.202 757.031 903.418C756.709 903.63 756.548 903.904 756.548 904.242C756.548 904.533 756.656 904.768 756.872 904.946C757.088 905.124 757.436 905.27 757.917 905.384L759.304 905.702C760.107 905.887 760.705 906.173 761.099 906.56C761.493 906.946 761.69 907.448 761.69 908.065C761.69 908.588 761.538 909.054 761.235 909.463C760.936 909.868 760.518 910.187 759.98 910.418C759.446 910.649 758.826 910.764 758.122 910.764C757.144 910.764 756.347 910.556 755.73 910.139C755.112 909.719 754.733 909.122 754.593 908.349L756.235 908.099C756.338 908.528 756.548 908.851 756.866 909.071C757.184 909.287 757.599 909.395 758.11 909.395C758.667 909.395 759.112 909.279 759.446 909.048C759.779 908.814 759.946 908.528 759.946 908.19C759.946 907.918 759.843 907.689 759.639 907.503C759.438 907.317 759.129 907.177 758.713 907.082L757.235 906.759C756.421 906.573 755.819 906.278 755.429 905.872C755.042 905.467 754.849 904.954 754.849 904.332C754.849 903.817 754.993 903.367 755.281 902.98C755.569 902.594 755.966 902.293 756.474 902.077C756.982 901.857 757.563 901.747 758.218 901.747C759.161 901.747 759.904 901.952 760.446 902.361C760.987 902.766 761.345 903.31 761.519 903.992ZM645.782 920.861V922.224H640.85V920.861H645.782ZM642.202 929.588V919.849C642.202 919.304 642.321 918.851 642.56 918.492C642.799 918.128 643.115 917.857 643.509 917.679C643.903 917.497 644.331 917.406 644.793 917.406C645.134 917.406 645.425 917.435 645.668 917.492C645.91 917.545 646.09 917.594 646.208 917.639L645.81 919.014C645.73 918.992 645.628 918.965 645.503 918.935C645.378 918.901 645.227 918.884 645.049 918.884C644.636 918.884 644.34 918.986 644.162 919.19C643.988 919.395 643.901 919.69 643.901 920.077V929.588H642.202ZM650.867 929.764C650.049 929.764 649.335 929.577 648.725 929.202C648.115 928.827 647.641 928.302 647.304 927.628C646.967 926.954 646.799 926.166 646.799 925.264C646.799 924.359 646.967 923.567 647.304 922.889C647.641 922.211 648.115 921.685 648.725 921.31C649.335 920.935 650.049 920.747 650.867 920.747C651.685 920.747 652.399 920.935 653.009 921.31C653.619 921.685 654.092 922.211 654.429 922.889C654.766 923.567 654.935 924.359 654.935 925.264C654.935 926.166 654.766 926.954 654.429 927.628C654.092 928.302 653.619 928.827 653.009 929.202C652.399 929.577 651.685 929.764 650.867 929.764ZM650.872 928.338C651.403 928.338 651.842 928.198 652.191 927.918C652.539 927.637 652.797 927.264 652.963 926.798C653.134 926.332 653.219 925.819 653.219 925.259C653.219 924.702 653.134 924.19 652.963 923.724C652.797 923.255 652.539 922.878 652.191 922.594C651.842 922.31 651.403 922.168 650.872 922.168C650.338 922.168 649.895 922.31 649.543 922.594C649.194 922.878 648.935 923.255 648.764 923.724C648.598 924.19 648.514 924.702 648.514 925.259C648.514 925.819 648.598 926.332 648.764 926.798C648.935 927.264 649.194 927.637 649.543 927.918C649.895 928.198 650.338 928.338 650.872 928.338ZM656.831 929.588V920.861H658.473V922.247H658.564C658.723 921.778 659.004 921.408 659.405 921.139C659.81 920.867 660.269 920.73 660.78 920.73C660.886 920.73 661.011 920.734 661.155 920.742C661.303 920.749 661.418 920.759 661.502 920.77V922.395C661.433 922.376 661.312 922.355 661.138 922.332C660.964 922.306 660.79 922.293 660.615 922.293C660.214 922.293 659.856 922.378 659.541 922.548C659.231 922.715 658.985 922.948 658.803 923.247C658.621 923.543 658.53 923.88 658.53 924.259V929.588H656.831ZM667.206 929.588V920.861H668.837V922.281H668.945C669.127 921.8 669.424 921.425 669.837 921.156C670.25 920.884 670.744 920.747 671.32 920.747C671.903 920.747 672.392 920.884 672.786 921.156C673.183 921.429 673.477 921.804 673.666 922.281H673.757C673.966 921.815 674.297 921.444 674.752 921.168C675.206 920.887 675.748 920.747 676.377 920.747C677.168 920.747 677.814 920.995 678.314 921.492C678.818 921.988 679.07 922.736 679.07 923.736V929.588H677.371V923.895C677.371 923.304 677.21 922.876 676.888 922.611C676.566 922.346 676.182 922.213 675.735 922.213C675.182 922.213 674.752 922.384 674.445 922.724C674.138 923.062 673.985 923.495 673.985 924.026V929.588H672.291V923.787C672.291 923.314 672.144 922.933 671.848 922.645C671.553 922.357 671.168 922.213 670.695 922.213C670.373 922.213 670.076 922.298 669.803 922.469C669.534 922.635 669.316 922.868 669.149 923.168C668.987 923.467 668.905 923.814 668.905 924.207V929.588H667.206ZM685.023 929.764C684.205 929.764 683.491 929.577 682.881 929.202C682.271 928.827 681.798 928.302 681.46 927.628C681.123 926.954 680.955 926.166 680.955 925.264C680.955 924.359 681.123 923.567 681.46 922.889C681.798 922.211 682.271 921.685 682.881 921.31C683.491 920.935 684.205 920.747 685.023 920.747C685.841 920.747 686.555 920.935 687.165 921.31C687.775 921.685 688.248 922.211 688.585 922.889C688.923 923.567 689.091 924.359 689.091 925.264C689.091 926.166 688.923 926.954 688.585 927.628C688.248 928.302 687.775 928.827 687.165 929.202C686.555 929.577 685.841 929.764 685.023 929.764ZM685.029 928.338C685.559 928.338 685.998 928.198 686.347 927.918C686.695 927.637 686.953 927.264 687.12 926.798C687.29 926.332 687.375 925.819 687.375 925.259C687.375 924.702 687.29 924.19 687.12 923.724C686.953 923.255 686.695 922.878 686.347 922.594C685.998 922.31 685.559 922.168 685.029 922.168C684.495 922.168 684.051 922.31 683.699 922.594C683.351 922.878 683.091 923.255 682.921 923.724C682.754 924.19 682.671 924.702 682.671 925.259C682.671 925.819 682.754 926.332 682.921 926.798C683.091 927.264 683.351 927.637 683.699 927.918C684.051 928.198 684.495 928.338 685.029 928.338ZM690.987 929.588V920.861H692.63V922.247H692.72C692.88 921.778 693.16 921.408 693.561 921.139C693.967 920.867 694.425 920.73 694.936 920.73C695.042 920.73 695.167 920.734 695.311 920.742C695.459 920.749 695.575 920.759 695.658 920.77V922.395C695.59 922.376 695.469 922.355 695.294 922.332C695.12 922.306 694.946 922.293 694.772 922.293C694.37 922.293 694.012 922.378 693.698 922.548C693.387 922.715 693.141 922.948 692.959 923.247C692.777 923.543 692.686 923.88 692.686 924.259V929.588H690.987ZM700.577 929.764C699.717 929.764 698.977 929.581 698.355 929.213C697.738 928.842 697.261 928.321 696.924 927.651C696.59 926.976 696.424 926.187 696.424 925.281C696.424 924.387 696.59 923.599 696.924 922.918C697.261 922.236 697.73 921.704 698.333 921.321C698.939 920.939 699.647 920.747 700.458 920.747C700.95 920.747 701.427 920.829 701.889 920.992C702.352 921.154 702.766 921.41 703.134 921.759C703.501 922.107 703.791 922.56 704.003 923.117C704.215 923.67 704.321 924.342 704.321 925.134V925.736H697.384V924.463H702.657C702.657 924.016 702.566 923.62 702.384 923.276C702.202 922.927 701.946 922.653 701.617 922.452C701.291 922.251 700.908 922.151 700.469 922.151C699.992 922.151 699.575 922.268 699.219 922.503C698.867 922.734 698.594 923.037 698.401 923.412C698.211 923.783 698.117 924.187 698.117 924.622V925.617C698.117 926.2 698.219 926.696 698.424 927.105C698.632 927.514 698.922 927.827 699.293 928.043C699.664 928.255 700.098 928.361 700.594 928.361C700.916 928.361 701.21 928.315 701.475 928.224C701.74 928.13 701.969 927.99 702.162 927.804C702.355 927.618 702.503 927.389 702.605 927.117L704.213 927.406C704.085 927.88 703.853 928.295 703.52 928.651C703.191 929.003 702.776 929.278 702.276 929.474C701.78 929.668 701.213 929.764 700.577 929.764ZM713.708 929.759C713.003 929.759 712.374 929.579 711.821 929.219C711.272 928.855 710.84 928.338 710.526 927.668C710.215 926.993 710.06 926.185 710.06 925.242C710.06 924.298 710.217 923.492 710.532 922.821C710.85 922.151 711.285 921.637 711.838 921.281C712.391 920.925 713.018 920.747 713.719 920.747C714.261 920.747 714.696 920.838 715.026 921.02C715.359 921.198 715.617 921.406 715.799 921.645C715.984 921.884 716.128 922.094 716.23 922.276H716.333V917.952H718.032V929.588H716.372V928.23H716.23C716.128 928.416 715.98 928.628 715.787 928.867C715.598 929.105 715.336 929.314 715.003 929.492C714.67 929.67 714.238 929.759 713.708 929.759ZM714.083 928.31C714.571 928.31 714.984 928.181 715.321 927.923C715.662 927.662 715.92 927.3 716.094 926.838C716.272 926.376 716.361 925.838 716.361 925.224C716.361 924.618 716.274 924.088 716.1 923.634C715.925 923.179 715.67 922.825 715.333 922.571C714.996 922.317 714.579 922.19 714.083 922.19C713.571 922.19 713.145 922.323 712.804 922.588C712.463 922.853 712.206 923.215 712.032 923.673C711.861 924.132 711.776 924.649 711.776 925.224C711.776 925.808 711.863 926.332 712.037 926.798C712.211 927.264 712.469 927.634 712.81 927.906C713.155 928.175 713.579 928.31 714.083 928.31ZM724.218 929.764C723.358 929.764 722.617 929.581 721.996 929.213C721.379 928.842 720.901 928.321 720.564 927.651C720.231 926.976 720.064 926.187 720.064 925.281C720.064 924.387 720.231 923.599 720.564 922.918C720.901 922.236 721.371 921.704 721.973 921.321C722.579 920.939 723.288 920.747 724.098 920.747C724.591 920.747 725.068 920.829 725.53 920.992C725.992 921.154 726.407 921.41 726.774 921.759C727.142 922.107 727.432 922.56 727.644 923.117C727.856 923.67 727.962 924.342 727.962 925.134V925.736H721.024V924.463H726.297C726.297 924.016 726.206 923.62 726.024 923.276C725.843 922.927 725.587 922.653 725.257 922.452C724.932 922.251 724.549 922.151 724.11 922.151C723.632 922.151 723.216 922.268 722.86 922.503C722.507 922.734 722.235 923.037 722.041 923.412C721.852 923.783 721.757 924.187 721.757 924.622V925.617C721.757 926.2 721.86 926.696 722.064 927.105C722.273 927.514 722.562 927.827 722.933 928.043C723.305 928.255 723.738 928.361 724.235 928.361C724.557 928.361 724.85 928.315 725.115 928.224C725.38 928.13 725.61 927.99 725.803 927.804C725.996 927.618 726.144 927.389 726.246 927.117L727.854 927.406C727.725 927.88 727.494 928.295 727.161 928.651C726.831 929.003 726.416 929.278 725.916 929.474C725.42 929.668 724.854 929.764 724.218 929.764ZM733.921 920.861V922.224H729.154V920.861H733.921ZM730.432 918.77H732.131V927.026C732.131 927.355 732.18 927.603 732.279 927.77C732.377 927.933 732.504 928.045 732.659 928.105C732.818 928.162 732.991 928.19 733.176 928.19C733.313 928.19 733.432 928.181 733.534 928.162C733.637 928.143 733.716 928.128 733.773 928.117L734.08 929.52C733.981 929.558 733.841 929.596 733.659 929.634C733.478 929.675 733.25 929.698 732.978 929.702C732.531 929.709 732.114 929.63 731.728 929.463C731.341 929.296 731.029 929.039 730.79 928.69C730.551 928.342 730.432 927.904 730.432 927.378V918.77ZM738.34 929.781C737.787 929.781 737.287 929.679 736.84 929.474C736.393 929.266 736.039 928.965 735.777 928.571C735.52 928.177 735.391 927.694 735.391 927.122C735.391 926.63 735.486 926.224 735.675 925.906C735.864 925.588 736.12 925.336 736.442 925.151C736.764 924.965 737.124 924.825 737.522 924.73C737.919 924.635 738.325 924.564 738.737 924.514C739.26 924.454 739.684 924.404 740.01 924.367C740.336 924.325 740.573 924.259 740.72 924.168C740.868 924.077 740.942 923.929 740.942 923.724V923.685C740.942 923.189 740.802 922.804 740.522 922.531C740.245 922.259 739.832 922.122 739.283 922.122C738.711 922.122 738.26 922.249 737.931 922.503C737.605 922.753 737.38 923.031 737.255 923.338L735.658 922.974C735.847 922.444 736.124 922.016 736.487 921.69C736.855 921.361 737.277 921.122 737.755 920.974C738.232 920.823 738.734 920.747 739.26 920.747C739.609 920.747 739.978 920.789 740.368 920.872C740.762 920.952 741.13 921.099 741.47 921.315C741.815 921.531 742.097 921.84 742.317 922.242C742.537 922.639 742.647 923.156 742.647 923.793V929.588H740.987V928.395H740.919C740.809 928.615 740.645 928.831 740.425 929.043C740.205 929.255 739.923 929.431 739.578 929.571C739.234 929.711 738.821 929.781 738.34 929.781ZM738.709 928.418C739.179 928.418 739.58 928.325 739.914 928.139C740.251 927.954 740.506 927.711 740.681 927.412C740.859 927.109 740.948 926.785 740.948 926.44V925.315C740.887 925.376 740.77 925.433 740.595 925.486C740.425 925.535 740.23 925.579 740.01 925.617C739.791 925.651 739.576 925.683 739.368 925.713C739.16 925.74 738.986 925.762 738.845 925.781C738.516 925.823 738.215 925.893 737.942 925.992C737.673 926.09 737.457 926.232 737.294 926.418C737.135 926.599 737.056 926.842 737.056 927.145C737.056 927.565 737.211 927.884 737.522 928.099C737.832 928.312 738.228 928.418 738.709 928.418ZM744.909 929.588V920.861H746.608V929.588H744.909ZM745.767 919.514C745.472 919.514 745.218 919.416 745.006 919.219C744.798 919.018 744.693 918.779 744.693 918.503C744.693 918.223 744.798 917.984 745.006 917.787C745.218 917.586 745.472 917.486 745.767 917.486C746.063 917.486 746.315 917.586 746.523 917.787C746.735 917.984 746.841 918.223 746.841 918.503C746.841 918.779 746.735 919.018 746.523 919.219C746.315 919.416 746.063 919.514 745.767 919.514ZM750.593 917.952V929.588H748.894V917.952H750.593ZM759.418 922.992L757.878 923.264C757.814 923.067 757.711 922.88 757.571 922.702C757.435 922.524 757.249 922.378 757.014 922.264C756.78 922.151 756.486 922.094 756.134 922.094C755.653 922.094 755.251 922.202 754.929 922.418C754.607 922.63 754.446 922.904 754.446 923.242C754.446 923.533 754.554 923.768 754.77 923.946C754.986 924.124 755.335 924.27 755.816 924.384L757.202 924.702C758.005 924.887 758.603 925.173 758.997 925.56C759.391 925.946 759.588 926.448 759.588 927.065C759.588 927.588 759.437 928.054 759.134 928.463C758.835 928.868 758.416 929.187 757.878 929.418C757.344 929.649 756.725 929.764 756.02 929.764C755.043 929.764 754.246 929.556 753.628 929.139C753.011 928.719 752.632 928.122 752.492 927.349L754.134 927.099C754.236 927.528 754.446 927.851 754.764 928.071C755.083 928.287 755.497 928.395 756.009 928.395C756.566 928.395 757.011 928.279 757.344 928.048C757.677 927.814 757.844 927.528 757.844 927.19C757.844 926.918 757.742 926.689 757.537 926.503C757.336 926.317 757.028 926.177 756.611 926.082L755.134 925.759C754.319 925.573 753.717 925.278 753.327 924.872C752.941 924.467 752.747 923.954 752.747 923.332C752.747 922.817 752.891 922.367 753.179 921.98C753.467 921.594 753.865 921.293 754.372 921.077C754.88 920.857 755.461 920.747 756.117 920.747C757.06 920.747 757.802 920.952 758.344 921.361C758.886 921.766 759.244 922.31 759.418 922.992Z" fill="white"/>
<ellipse cx="624.657" cy="887.837" rx="8.01" ry="8.1024" fill="white"/>
</svg>
