<svg width="1918" height="1101" viewBox="0 0 1918 1101" fill="none" xmlns="http://www.w3.org/2000/svg">
<path d="M1116.53 937V925.364H1118.28V930.42H1124.09V925.364H1125.85V937H1124.09V931.926H1118.28V937H1116.53ZM1131.94 937.176C1131.13 937.176 1130.41 936.989 1129.8 936.614C1129.19 936.239 1128.72 935.714 1128.38 935.04C1128.04 934.366 1127.88 933.578 1127.88 932.676C1127.88 931.771 1128.04 930.979 1128.38 930.301C1128.72 929.623 1129.19 929.097 1129.8 928.722C1130.41 928.347 1131.13 928.159 1131.94 928.159C1132.76 928.159 1133.48 928.347 1134.09 928.722C1134.7 929.097 1135.17 929.623 1135.51 930.301C1135.84 930.979 1136.01 931.771 1136.01 932.676C1136.01 933.578 1135.84 934.366 1135.51 935.04C1135.17 935.714 1134.7 936.239 1134.09 936.614C1133.48 936.989 1132.76 937.176 1131.94 937.176ZM1131.95 935.75C1132.48 935.75 1132.92 935.61 1133.27 935.33C1133.62 935.049 1133.87 934.676 1134.04 934.21C1134.21 933.744 1134.3 933.231 1134.3 932.67C1134.3 932.114 1134.21 931.602 1134.04 931.136C1133.87 930.667 1133.62 930.29 1133.27 930.006C1132.92 929.722 1132.48 929.58 1131.95 929.58C1131.41 929.58 1130.97 929.722 1130.62 930.006C1130.27 930.29 1130.01 930.667 1129.84 931.136C1129.67 931.602 1129.59 932.114 1129.59 932.67C1129.59 933.231 1129.67 933.744 1129.84 934.21C1130.01 934.676 1130.27 935.049 1130.62 935.33C1130.97 935.61 1131.41 935.75 1131.95 935.75ZM1145.08 928.273L1141.91 937H1140.09L1136.92 928.273H1138.75L1140.96 934.989H1141.05L1143.25 928.273H1145.08ZM1150.14 937.176C1149.28 937.176 1148.54 936.992 1147.92 936.625C1147.3 936.254 1146.82 935.733 1146.48 935.062C1146.15 934.388 1145.98 933.598 1145.98 932.693C1145.98 931.799 1146.15 931.011 1146.48 930.33C1146.82 929.648 1147.29 929.116 1147.89 928.733C1148.5 928.35 1149.21 928.159 1150.02 928.159C1150.51 928.159 1150.99 928.241 1151.45 928.403C1151.91 928.566 1152.33 928.822 1152.69 929.17C1153.06 929.519 1153.35 929.972 1153.56 930.528C1153.78 931.081 1153.88 931.754 1153.88 932.545V933.148H1146.94V931.875H1152.22C1152.22 931.428 1152.13 931.032 1151.94 930.688C1151.76 930.339 1151.51 930.064 1151.18 929.864C1150.85 929.663 1150.47 929.562 1150.03 929.562C1149.55 929.562 1149.14 929.68 1148.78 929.915C1148.43 930.146 1148.15 930.449 1147.96 930.824C1147.77 931.195 1147.68 931.598 1147.68 932.034V933.028C1147.68 933.612 1147.78 934.108 1147.98 934.517C1148.19 934.926 1148.48 935.239 1148.85 935.455C1149.22 935.667 1149.66 935.773 1150.15 935.773C1150.48 935.773 1150.77 935.727 1151.04 935.636C1151.3 935.542 1151.53 935.402 1151.72 935.216C1151.92 935.03 1152.06 934.801 1152.17 934.528L1153.77 934.818C1153.65 935.292 1153.41 935.706 1153.08 936.062C1152.75 936.415 1152.34 936.689 1151.84 936.886C1151.34 937.08 1150.77 937.176 1150.14 937.176ZM1155.77 937V928.273H1157.41V929.659H1157.5C1157.66 929.189 1157.94 928.82 1158.34 928.551C1158.75 928.278 1159.2 928.142 1159.72 928.142C1159.82 928.142 1159.95 928.146 1160.09 928.153C1160.24 928.161 1160.35 928.17 1160.44 928.182V929.807C1160.37 929.788 1160.25 929.767 1160.07 929.744C1159.9 929.718 1159.73 929.705 1159.55 929.705C1159.15 929.705 1158.79 929.79 1158.48 929.96C1158.17 930.127 1157.92 930.36 1157.74 930.659C1157.56 930.955 1157.47 931.292 1157.47 931.67V937H1155.77ZM1169.82 937.176C1169 937.176 1168.29 936.989 1167.68 936.614C1167.07 936.239 1166.59 935.714 1166.26 935.04C1165.92 934.366 1165.75 933.578 1165.75 932.676C1165.75 931.771 1165.92 930.979 1166.26 930.301C1166.59 929.623 1167.07 929.097 1167.68 928.722C1168.29 928.347 1169 928.159 1169.82 928.159C1170.64 928.159 1171.35 928.347 1171.96 928.722C1172.57 929.097 1173.04 929.623 1173.38 930.301C1173.72 930.979 1173.89 931.771 1173.89 932.676C1173.89 933.578 1173.72 934.366 1173.38 935.04C1173.04 935.714 1172.57 936.239 1171.96 936.614C1171.35 936.989 1170.64 937.176 1169.82 937.176ZM1169.82 935.75C1170.35 935.75 1170.79 935.61 1171.14 935.33C1171.49 935.049 1171.75 934.676 1171.91 934.21C1172.09 933.744 1172.17 933.231 1172.17 932.67C1172.17 932.114 1172.09 931.602 1171.91 931.136C1171.75 930.667 1171.49 930.29 1171.14 930.006C1170.79 929.722 1170.35 929.58 1169.82 929.58C1169.29 929.58 1168.85 929.722 1168.49 930.006C1168.15 930.29 1167.89 930.667 1167.72 931.136C1167.55 931.602 1167.47 932.114 1167.47 932.67C1167.47 933.231 1167.55 933.744 1167.72 934.21C1167.89 934.676 1168.15 935.049 1168.49 935.33C1168.85 935.61 1169.29 935.75 1169.82 935.75ZM1177.48 931.818V937H1175.78V928.273H1177.41V929.693H1177.52C1177.72 929.231 1178.04 928.86 1178.46 928.58C1178.9 928.299 1179.44 928.159 1180.1 928.159C1180.69 928.159 1181.21 928.284 1181.66 928.534C1182.1 928.78 1182.45 929.148 1182.7 929.636C1182.94 930.125 1183.07 930.729 1183.07 931.449V937H1181.37V931.653C1181.37 931.021 1181.2 930.527 1180.87 930.17C1180.54 929.811 1180.09 929.631 1179.52 929.631C1179.12 929.631 1178.77 929.716 1178.46 929.886C1178.16 930.057 1177.92 930.307 1177.74 930.636C1177.57 930.962 1177.48 931.356 1177.48 931.818ZM1189.58 937V928.273H1191.28V937H1189.58ZM1190.44 926.926C1190.14 926.926 1189.89 926.828 1189.68 926.631C1189.47 926.43 1189.36 926.191 1189.36 925.915C1189.36 925.634 1189.47 925.396 1189.68 925.199C1189.89 924.998 1190.14 924.898 1190.44 924.898C1190.73 924.898 1190.98 924.998 1191.19 925.199C1191.41 925.396 1191.51 925.634 1191.51 925.915C1191.51 926.191 1191.41 926.43 1191.19 926.631C1190.98 926.828 1190.73 926.926 1190.44 926.926ZM1193.56 937V928.273H1195.19V929.693H1195.3C1195.48 929.212 1195.78 928.837 1196.19 928.568C1196.61 928.295 1197.1 928.159 1197.68 928.159C1198.26 928.159 1198.75 928.295 1199.14 928.568C1199.54 928.841 1199.83 929.216 1200.02 929.693H1200.12C1200.32 929.227 1200.65 928.856 1201.11 928.58C1201.56 928.299 1202.11 928.159 1202.73 928.159C1203.53 928.159 1204.17 928.407 1204.67 928.903C1205.18 929.4 1205.43 930.148 1205.43 931.148V937H1203.73V931.307C1203.73 930.716 1203.57 930.288 1203.25 930.023C1202.92 929.758 1202.54 929.625 1202.09 929.625C1201.54 929.625 1201.11 929.795 1200.8 930.136C1200.5 930.473 1200.34 930.907 1200.34 931.438V937H1198.65V931.199C1198.65 930.725 1198.5 930.345 1198.21 930.057C1197.91 929.769 1197.53 929.625 1197.05 929.625C1196.73 929.625 1196.43 929.71 1196.16 929.881C1195.89 930.047 1195.67 930.28 1195.51 930.58C1195.34 930.879 1195.26 931.225 1195.26 931.619V937H1193.56ZM1210.24 937.193C1209.69 937.193 1209.19 937.091 1208.74 936.886C1208.3 936.678 1207.94 936.377 1207.68 935.983C1207.42 935.589 1207.3 935.106 1207.3 934.534C1207.3 934.042 1207.39 933.636 1207.58 933.318C1207.77 933 1208.02 932.748 1208.35 932.562C1208.67 932.377 1209.03 932.237 1209.43 932.142C1209.82 932.047 1210.23 931.975 1210.64 931.926C1211.16 931.866 1211.59 931.816 1211.91 931.778C1212.24 931.737 1212.48 931.67 1212.62 931.58C1212.77 931.489 1212.85 931.341 1212.85 931.136V931.097C1212.85 930.6 1212.71 930.216 1212.43 929.943C1212.15 929.67 1211.74 929.534 1211.19 929.534C1210.62 929.534 1210.16 929.661 1209.84 929.915C1209.51 930.165 1209.28 930.443 1209.16 930.75L1207.56 930.386C1207.75 929.856 1208.03 929.428 1208.39 929.102C1208.76 928.773 1209.18 928.534 1209.66 928.386C1210.14 928.235 1210.64 928.159 1211.16 928.159C1211.51 928.159 1211.88 928.201 1212.27 928.284C1212.67 928.364 1213.03 928.511 1213.38 928.727C1213.72 928.943 1214 929.252 1214.22 929.653C1214.44 930.051 1214.55 930.568 1214.55 931.205V937H1212.89V935.807H1212.82C1212.71 936.027 1212.55 936.242 1212.33 936.455C1212.11 936.667 1211.83 936.843 1211.48 936.983C1211.14 937.123 1210.73 937.193 1210.24 937.193ZM1210.61 935.83C1211.08 935.83 1211.48 935.737 1211.82 935.551C1212.16 935.366 1212.41 935.123 1212.59 934.824C1212.76 934.521 1212.85 934.197 1212.85 933.852V932.727C1212.79 932.788 1212.67 932.845 1212.5 932.898C1212.33 932.947 1212.13 932.991 1211.91 933.028C1211.7 933.062 1211.48 933.095 1211.27 933.125C1211.06 933.152 1210.89 933.174 1210.75 933.193C1210.42 933.235 1210.12 933.305 1209.85 933.403C1209.58 933.502 1209.36 933.644 1209.2 933.83C1209.04 934.011 1208.96 934.254 1208.96 934.557C1208.96 934.977 1209.12 935.295 1209.43 935.511C1209.74 935.723 1210.13 935.83 1210.61 935.83ZM1220.47 940.455C1219.78 940.455 1219.18 940.364 1218.68 940.182C1218.19 940 1217.78 939.759 1217.47 939.46C1217.15 939.161 1216.92 938.833 1216.76 938.477L1218.22 937.875C1218.33 938.042 1218.46 938.218 1218.63 938.403C1218.81 938.593 1219.04 938.754 1219.34 938.886C1219.64 939.019 1220.02 939.085 1220.49 939.085C1221.13 939.085 1221.67 938.928 1222.09 938.614C1222.51 938.303 1222.72 937.807 1222.72 937.125V935.409H1222.61C1222.51 935.595 1222.36 935.801 1222.17 936.028C1221.98 936.256 1221.72 936.453 1221.38 936.619C1221.05 936.786 1220.62 936.869 1220.08 936.869C1219.39 936.869 1218.77 936.708 1218.22 936.386C1217.67 936.061 1217.23 935.581 1216.91 934.949C1216.59 934.312 1216.43 933.53 1216.43 932.602C1216.43 931.674 1216.59 930.879 1216.9 930.216C1217.22 929.553 1217.66 929.045 1218.21 928.693C1218.76 928.337 1219.39 928.159 1220.09 928.159C1220.63 928.159 1221.07 928.25 1221.4 928.432C1221.74 928.61 1222 928.818 1222.18 929.057C1222.37 929.295 1222.52 929.506 1222.62 929.688H1222.75V928.273H1224.41V937.193C1224.41 937.943 1224.24 938.559 1223.89 939.04C1223.54 939.521 1223.07 939.877 1222.47 940.108C1221.88 940.339 1221.22 940.455 1220.47 940.455ZM1220.46 935.46C1220.94 935.46 1221.36 935.347 1221.69 935.119C1222.04 934.888 1222.29 934.559 1222.47 934.131C1222.65 933.699 1222.73 933.182 1222.73 932.58C1222.73 931.992 1222.65 931.475 1222.47 931.028C1222.3 930.581 1222.04 930.233 1221.71 929.983C1221.37 929.729 1220.95 929.602 1220.46 929.602C1219.94 929.602 1219.52 929.735 1219.18 930C1218.84 930.261 1218.58 930.617 1218.4 931.068C1218.23 931.519 1218.15 932.023 1218.15 932.58C1218.15 933.152 1218.24 933.653 1218.41 934.085C1218.58 934.517 1218.84 934.854 1219.18 935.097C1219.53 935.339 1219.95 935.46 1220.46 935.46ZM1230.45 937.176C1229.59 937.176 1228.85 936.992 1228.23 936.625C1227.61 936.254 1227.13 935.733 1226.8 935.062C1226.46 934.388 1226.3 933.598 1226.3 932.693C1226.3 931.799 1226.46 931.011 1226.8 930.33C1227.13 929.648 1227.6 929.116 1228.21 928.733C1228.81 928.35 1229.52 928.159 1230.33 928.159C1230.82 928.159 1231.3 928.241 1231.76 928.403C1232.22 928.566 1232.64 928.822 1233.01 929.17C1233.37 929.519 1233.66 929.972 1233.88 930.528C1234.09 931.081 1234.19 931.754 1234.19 932.545V933.148H1227.26V931.875H1232.53C1232.53 931.428 1232.44 931.032 1232.26 930.688C1232.08 930.339 1231.82 930.064 1231.49 929.864C1231.16 929.663 1230.78 929.562 1230.34 929.562C1229.87 929.562 1229.45 929.68 1229.09 929.915C1228.74 930.146 1228.47 930.449 1228.27 930.824C1228.08 931.195 1227.99 931.598 1227.99 932.034V933.028C1227.99 933.612 1228.09 934.108 1228.3 934.517C1228.51 934.926 1228.79 935.239 1229.17 935.455C1229.54 935.667 1229.97 935.773 1230.47 935.773C1230.79 935.773 1231.08 935.727 1231.35 935.636C1231.61 935.542 1231.84 935.402 1232.04 935.216C1232.23 935.03 1232.38 934.801 1232.48 934.528L1234.09 934.818C1233.96 935.292 1233.73 935.706 1233.39 936.062C1233.06 936.415 1232.65 936.689 1232.15 936.886C1231.65 937.08 1231.09 937.176 1230.45 937.176ZM1242.62 930.403L1241.08 930.676C1241.02 930.479 1240.91 930.292 1240.77 930.114C1240.64 929.936 1240.45 929.79 1240.22 929.676C1239.98 929.562 1239.69 929.506 1239.34 929.506C1238.85 929.506 1238.45 929.614 1238.13 929.83C1237.81 930.042 1237.65 930.316 1237.65 930.653C1237.65 930.945 1237.76 931.18 1237.97 931.358C1238.19 931.536 1238.54 931.682 1239.02 931.795L1240.4 932.114C1241.21 932.299 1241.8 932.585 1242.2 932.972C1242.59 933.358 1242.79 933.86 1242.79 934.477C1242.79 935 1242.64 935.466 1242.34 935.875C1242.04 936.28 1241.62 936.598 1241.08 936.83C1240.55 937.061 1239.93 937.176 1239.22 937.176C1238.24 937.176 1237.45 936.968 1236.83 936.551C1236.21 936.131 1235.83 935.534 1235.69 934.761L1237.34 934.511C1237.44 934.939 1237.65 935.263 1237.97 935.483C1238.28 935.699 1238.7 935.807 1239.21 935.807C1239.77 935.807 1240.21 935.691 1240.55 935.46C1240.88 935.225 1241.05 934.939 1241.05 934.602C1241.05 934.33 1240.94 934.1 1240.74 933.915C1240.54 933.729 1240.23 933.589 1239.81 933.494L1238.34 933.17C1237.52 932.985 1236.92 932.689 1236.53 932.284C1236.14 931.879 1235.95 931.366 1235.95 930.744C1235.95 930.229 1236.09 929.778 1236.38 929.392C1236.67 929.006 1237.07 928.705 1237.57 928.489C1238.08 928.269 1238.66 928.159 1239.32 928.159C1240.26 928.159 1241 928.364 1241.55 928.773C1242.09 929.178 1242.45 929.722 1242.62 930.403ZM1126.88 947.273V948.636H1121.95V947.273H1126.88ZM1123.3 956V946.261C1123.3 945.716 1123.42 945.263 1123.66 944.903C1123.9 944.54 1124.21 944.269 1124.61 944.091C1125 943.909 1125.43 943.818 1125.89 943.818C1126.23 943.818 1126.53 943.847 1126.77 943.903C1127.01 943.956 1127.19 944.006 1127.31 944.051L1126.91 945.426C1126.83 945.403 1126.73 945.377 1126.6 945.347C1126.48 945.312 1126.33 945.295 1126.15 945.295C1125.74 945.295 1125.44 945.398 1125.26 945.602C1125.09 945.807 1125 946.102 1125 946.489V956H1123.3ZM1131.97 956.176C1131.15 956.176 1130.43 955.989 1129.82 955.614C1129.21 955.239 1128.74 954.714 1128.4 954.04C1128.07 953.366 1127.9 952.578 1127.9 951.676C1127.9 950.771 1128.07 949.979 1128.4 949.301C1128.74 948.623 1129.21 948.097 1129.82 947.722C1130.43 947.347 1131.15 947.159 1131.97 947.159C1132.78 947.159 1133.5 947.347 1134.11 947.722C1134.72 948.097 1135.19 948.623 1135.53 949.301C1135.87 949.979 1136.03 950.771 1136.03 951.676C1136.03 952.578 1135.87 953.366 1135.53 954.04C1135.19 954.714 1134.72 955.239 1134.11 955.614C1133.5 955.989 1132.78 956.176 1131.97 956.176ZM1131.97 954.75C1132.5 954.75 1132.94 954.61 1133.29 954.33C1133.64 954.049 1133.9 953.676 1134.06 953.21C1134.23 952.744 1134.32 952.231 1134.32 951.67C1134.32 951.114 1134.23 950.602 1134.06 950.136C1133.9 949.667 1133.64 949.29 1133.29 949.006C1132.94 948.722 1132.5 948.58 1131.97 948.58C1131.44 948.58 1131 948.722 1130.64 949.006C1130.29 949.29 1130.03 949.667 1129.86 950.136C1129.7 950.602 1129.61 951.114 1129.61 951.67C1129.61 952.231 1129.7 952.744 1129.86 953.21C1130.03 953.676 1130.29 954.049 1130.64 954.33C1131 954.61 1131.44 954.75 1131.97 954.75ZM1137.93 956V947.273H1139.57V948.659H1139.66C1139.82 948.189 1140.1 947.82 1140.5 947.551C1140.91 947.278 1141.37 947.142 1141.88 947.142C1141.99 947.142 1142.11 947.146 1142.25 947.153C1142.4 947.161 1142.52 947.17 1142.6 947.182V948.807C1142.53 948.788 1142.41 948.767 1142.24 948.744C1142.06 948.718 1141.89 948.705 1141.72 948.705C1141.31 948.705 1140.96 948.79 1140.64 948.96C1140.33 949.127 1140.08 949.36 1139.9 949.659C1139.72 949.955 1139.63 950.292 1139.63 950.67V956H1137.93ZM1148.31 956V947.273H1149.94V948.693H1150.04C1150.23 948.212 1150.52 947.837 1150.94 947.568C1151.35 947.295 1151.84 947.159 1152.42 947.159C1153 947.159 1153.49 947.295 1153.89 947.568C1154.28 947.841 1154.58 948.216 1154.77 948.693H1154.86C1155.07 948.227 1155.4 947.856 1155.85 947.58C1156.31 947.299 1156.85 947.159 1157.48 947.159C1158.27 947.159 1158.91 947.407 1159.41 947.903C1159.92 948.4 1160.17 949.148 1160.17 950.148V956H1158.47V950.307C1158.47 949.716 1158.31 949.288 1157.99 949.023C1157.67 948.758 1157.28 948.625 1156.83 948.625C1156.28 948.625 1155.85 948.795 1155.54 949.136C1155.24 949.473 1155.08 949.907 1155.08 950.438V956H1153.39V950.199C1153.39 949.725 1153.24 949.345 1152.95 949.057C1152.65 948.769 1152.27 948.625 1151.79 948.625C1151.47 948.625 1151.18 948.71 1150.9 948.881C1150.63 949.047 1150.42 949.28 1150.25 949.58C1150.09 949.879 1150 950.225 1150 950.619V956H1148.31ZM1166.12 956.176C1165.3 956.176 1164.59 955.989 1163.98 955.614C1163.37 955.239 1162.9 954.714 1162.56 954.04C1162.22 953.366 1162.05 952.578 1162.05 951.676C1162.05 950.771 1162.22 949.979 1162.56 949.301C1162.9 948.623 1163.37 948.097 1163.98 947.722C1164.59 947.347 1165.3 947.159 1166.12 947.159C1166.94 947.159 1167.66 947.347 1168.26 947.722C1168.87 948.097 1169.35 948.623 1169.69 949.301C1170.02 949.979 1170.19 950.771 1170.19 951.676C1170.19 952.578 1170.02 953.366 1169.69 954.04C1169.35 954.714 1168.87 955.239 1168.26 955.614C1167.66 955.989 1166.94 956.176 1166.12 956.176ZM1166.13 954.75C1166.66 954.75 1167.1 954.61 1167.45 954.33C1167.8 954.049 1168.05 953.676 1168.22 953.21C1168.39 952.744 1168.48 952.231 1168.48 951.67C1168.48 951.114 1168.39 950.602 1168.22 950.136C1168.05 949.667 1167.8 949.29 1167.45 949.006C1167.1 948.722 1166.66 948.58 1166.13 948.58C1165.59 948.58 1165.15 948.722 1164.8 949.006C1164.45 949.29 1164.19 949.667 1164.02 950.136C1163.85 950.602 1163.77 951.114 1163.77 951.67C1163.77 952.231 1163.85 952.744 1164.02 953.21C1164.19 953.676 1164.45 954.049 1164.8 954.33C1165.15 954.61 1165.59 954.75 1166.13 954.75ZM1172.09 956V947.273H1173.73V948.659H1173.82C1173.98 948.189 1174.26 947.82 1174.66 947.551C1175.07 947.278 1175.52 947.142 1176.04 947.142C1176.14 947.142 1176.27 947.146 1176.41 947.153C1176.56 947.161 1176.67 947.17 1176.76 947.182V948.807C1176.69 948.788 1176.57 948.767 1176.39 948.744C1176.22 948.718 1176.05 948.705 1175.87 948.705C1175.47 948.705 1175.11 948.79 1174.8 948.96C1174.49 949.127 1174.24 949.36 1174.06 949.659C1173.88 949.955 1173.79 950.292 1173.79 950.67V956H1172.09ZM1181.68 956.176C1180.82 956.176 1180.08 955.992 1179.46 955.625C1178.84 955.254 1178.36 954.733 1178.02 954.062C1177.69 953.388 1177.52 952.598 1177.52 951.693C1177.52 950.799 1177.69 950.011 1178.02 949.33C1178.36 948.648 1178.83 948.116 1179.43 947.733C1180.04 947.35 1180.75 947.159 1181.56 947.159C1182.05 947.159 1182.53 947.241 1182.99 947.403C1183.45 947.566 1183.87 947.822 1184.23 948.17C1184.6 948.519 1184.89 948.972 1185.1 949.528C1185.32 950.081 1185.42 950.754 1185.42 951.545V952.148H1178.48V950.875H1183.76C1183.76 950.428 1183.67 950.032 1183.48 949.688C1183.3 949.339 1183.05 949.064 1182.72 948.864C1182.39 948.663 1182.01 948.562 1181.57 948.562C1181.09 948.562 1180.67 948.68 1180.32 948.915C1179.97 949.146 1179.69 949.449 1179.5 949.824C1179.31 950.195 1179.22 950.598 1179.22 951.034V952.028C1179.22 952.612 1179.32 953.108 1179.52 953.517C1179.73 953.926 1180.02 954.239 1180.39 954.455C1180.76 954.667 1181.2 954.773 1181.69 954.773C1182.02 954.773 1182.31 954.727 1182.57 954.636C1182.84 954.542 1183.07 954.402 1183.26 954.216C1183.46 954.03 1183.6 953.801 1183.71 953.528L1185.31 953.818C1185.18 954.292 1184.95 954.706 1184.62 955.062C1184.29 955.415 1183.88 955.689 1183.38 955.886C1182.88 956.08 1182.31 956.176 1181.68 956.176ZM1194.81 956.17C1194.1 956.17 1193.47 955.991 1192.92 955.631C1192.37 955.267 1191.94 954.75 1191.63 954.08C1191.32 953.405 1191.16 952.597 1191.16 951.653C1191.16 950.71 1191.32 949.903 1191.63 949.233C1191.95 948.562 1192.39 948.049 1192.94 947.693C1193.49 947.337 1194.12 947.159 1194.82 947.159C1195.36 947.159 1195.8 947.25 1196.13 947.432C1196.46 947.61 1196.72 947.818 1196.9 948.057C1197.08 948.295 1197.23 948.506 1197.33 948.688H1197.43V944.364H1199.13V956H1197.47V954.642H1197.33C1197.23 954.828 1197.08 955.04 1196.89 955.278C1196.7 955.517 1196.44 955.725 1196.1 955.903C1195.77 956.081 1195.34 956.17 1194.81 956.17ZM1195.18 954.722C1195.67 954.722 1196.08 954.593 1196.42 954.335C1196.76 954.074 1197.02 953.712 1197.19 953.25C1197.37 952.788 1197.46 952.25 1197.46 951.636C1197.46 951.03 1197.37 950.5 1197.2 950.045C1197.03 949.591 1196.77 949.237 1196.43 948.983C1196.1 948.729 1195.68 948.602 1195.18 948.602C1194.67 948.602 1194.25 948.735 1193.9 949C1193.56 949.265 1193.31 949.627 1193.13 950.085C1192.96 950.544 1192.88 951.061 1192.88 951.636C1192.88 952.22 1192.96 952.744 1193.14 953.21C1193.31 953.676 1193.57 954.045 1193.91 954.318C1194.25 954.587 1194.68 954.722 1195.18 954.722ZM1205.32 956.176C1204.46 956.176 1203.72 955.992 1203.1 955.625C1202.48 955.254 1202 954.733 1201.66 954.062C1201.33 953.388 1201.16 952.598 1201.16 951.693C1201.16 950.799 1201.33 950.011 1201.66 949.33C1202 948.648 1202.47 948.116 1203.07 947.733C1203.68 947.35 1204.39 947.159 1205.2 947.159C1205.69 947.159 1206.17 947.241 1206.63 947.403C1207.09 947.566 1207.51 947.822 1207.87 948.17C1208.24 948.519 1208.53 948.972 1208.74 949.528C1208.96 950.081 1209.06 950.754 1209.06 951.545V952.148H1202.12V950.875H1207.4C1207.4 950.428 1207.31 950.032 1207.12 949.688C1206.94 949.339 1206.69 949.064 1206.36 948.864C1206.03 948.663 1205.65 948.562 1205.21 948.562C1204.73 948.562 1204.32 948.68 1203.96 948.915C1203.61 949.146 1203.33 949.449 1203.14 949.824C1202.95 950.195 1202.86 950.598 1202.86 951.034V952.028C1202.86 952.612 1202.96 953.108 1203.16 953.517C1203.37 953.926 1203.66 954.239 1204.03 954.455C1204.4 954.667 1204.84 954.773 1205.33 954.773C1205.66 954.773 1205.95 954.727 1206.22 954.636C1206.48 954.542 1206.71 954.402 1206.9 954.216C1207.1 954.03 1207.24 953.801 1207.35 953.528L1208.95 953.818C1208.83 954.292 1208.59 954.706 1208.26 955.062C1207.93 955.415 1207.52 955.689 1207.02 955.886C1206.52 956.08 1205.95 956.176 1205.32 956.176ZM1215.02 947.273V948.636H1210.25V947.273H1215.02ZM1211.53 945.182H1213.23V953.438C1213.23 953.767 1213.28 954.015 1213.38 954.182C1213.48 954.345 1213.6 954.456 1213.76 954.517C1213.92 954.574 1214.09 954.602 1214.28 954.602C1214.41 954.602 1214.53 954.593 1214.63 954.574C1214.74 954.555 1214.82 954.54 1214.87 954.528L1215.18 955.932C1215.08 955.97 1214.94 956.008 1214.76 956.045C1214.58 956.087 1214.35 956.11 1214.08 956.114C1213.63 956.121 1213.21 956.042 1212.83 955.875C1212.44 955.708 1212.13 955.451 1211.89 955.102C1211.65 954.754 1211.53 954.316 1211.53 953.79V945.182ZM1219.44 956.193C1218.89 956.193 1218.39 956.091 1217.94 955.886C1217.49 955.678 1217.14 955.377 1216.88 954.983C1216.62 954.589 1216.49 954.106 1216.49 953.534C1216.49 953.042 1216.59 952.636 1216.77 952.318C1216.96 952 1217.22 951.748 1217.54 951.562C1217.86 951.377 1218.22 951.237 1218.62 951.142C1219.02 951.047 1219.42 950.975 1219.84 950.926C1220.36 950.866 1220.78 950.816 1221.11 950.778C1221.44 950.737 1221.67 950.67 1221.82 950.58C1221.97 950.489 1222.04 950.341 1222.04 950.136V950.097C1222.04 949.6 1221.9 949.216 1221.62 948.943C1221.34 948.67 1220.93 948.534 1220.38 948.534C1219.81 948.534 1219.36 948.661 1219.03 948.915C1218.7 949.165 1218.48 949.443 1218.35 949.75L1216.76 949.386C1216.95 948.856 1217.22 948.428 1217.59 948.102C1217.95 947.773 1218.38 947.534 1218.85 947.386C1219.33 947.235 1219.83 947.159 1220.36 947.159C1220.71 947.159 1221.08 947.201 1221.47 947.284C1221.86 947.364 1222.23 947.511 1222.57 947.727C1222.92 947.943 1223.2 948.252 1223.42 948.653C1223.64 949.051 1223.75 949.568 1223.75 950.205V956H1222.09V954.807H1222.02C1221.91 955.027 1221.74 955.242 1221.52 955.455C1221.31 955.667 1221.02 955.843 1220.68 955.983C1220.33 956.123 1219.92 956.193 1219.44 956.193ZM1219.81 954.83C1220.28 954.83 1220.68 954.737 1221.01 954.551C1221.35 954.366 1221.61 954.123 1221.78 953.824C1221.96 953.521 1222.05 953.197 1222.05 952.852V951.727C1221.99 951.788 1221.87 951.845 1221.7 951.898C1221.52 951.947 1221.33 951.991 1221.11 952.028C1220.89 952.062 1220.68 952.095 1220.47 952.125C1220.26 952.152 1220.09 952.174 1219.95 952.193C1219.62 952.235 1219.31 952.305 1219.04 952.403C1218.77 952.502 1218.56 952.644 1218.39 952.83C1218.24 953.011 1218.16 953.254 1218.16 953.557C1218.16 953.977 1218.31 954.295 1218.62 954.511C1218.93 954.723 1219.33 954.83 1219.81 954.83ZM1226.01 956V947.273H1227.71V956H1226.01ZM1226.87 945.926C1226.57 945.926 1226.32 945.828 1226.11 945.631C1225.9 945.43 1225.79 945.191 1225.79 944.915C1225.79 944.634 1225.9 944.396 1226.11 944.199C1226.32 943.998 1226.57 943.898 1226.87 943.898C1227.16 943.898 1227.41 943.998 1227.62 944.199C1227.83 944.396 1227.94 944.634 1227.94 944.915C1227.94 945.191 1227.83 945.43 1227.62 945.631C1227.41 945.828 1227.16 945.926 1226.87 945.926ZM1231.69 944.364V956H1229.99V944.364H1231.69ZM1240.52 949.403L1238.98 949.676C1238.91 949.479 1238.81 949.292 1238.67 949.114C1238.53 948.936 1238.35 948.79 1238.11 948.676C1237.88 948.562 1237.59 948.506 1237.23 948.506C1236.75 948.506 1236.35 948.614 1236.03 948.83C1235.71 949.042 1235.55 949.316 1235.55 949.653C1235.55 949.945 1235.65 950.18 1235.87 950.358C1236.09 950.536 1236.43 950.682 1236.92 950.795L1238.3 951.114C1239.1 951.299 1239.7 951.585 1240.1 951.972C1240.49 952.358 1240.69 952.86 1240.69 953.477C1240.69 954 1240.54 954.466 1240.23 954.875C1239.93 955.28 1239.52 955.598 1238.98 955.83C1238.44 956.061 1237.82 956.176 1237.12 956.176C1236.14 956.176 1235.35 955.968 1234.73 955.551C1234.11 955.131 1233.73 954.534 1233.59 953.761L1235.23 953.511C1235.34 953.939 1235.55 954.263 1235.86 954.483C1236.18 954.699 1236.6 954.807 1237.11 954.807C1237.67 954.807 1238.11 954.691 1238.44 954.46C1238.78 954.225 1238.94 953.939 1238.94 953.602C1238.94 953.33 1238.84 953.1 1238.64 952.915C1238.44 952.729 1238.13 952.589 1237.71 952.494L1236.23 952.17C1235.42 951.985 1234.82 951.689 1234.43 951.284C1234.04 950.879 1233.85 950.366 1233.85 949.744C1233.85 949.229 1233.99 948.778 1234.28 948.392C1234.57 948.006 1234.96 947.705 1235.47 947.489C1235.98 947.269 1236.56 947.159 1237.22 947.159C1238.16 947.159 1238.9 947.364 1239.44 947.773C1239.99 948.178 1240.34 948.722 1240.52 949.403Z" fill="white"/>
<path d="M1 916.5C43.6667 982.333 817.5 1351 1188 806C1376.31 529 1238 98 1917 1" stroke="white" stroke-width="2" stroke-dasharray="15 15"/>
<circle cx="1091.18" cy="922.177" r="8.17708" fill="white"/>
</svg>
