<svg width="17" height="18" viewBox="0 0 17 18" fill="none" xmlns="http://www.w3.org/2000/svg">
<circle cx="8.5" cy="8.96387" r="8.5" fill="#EF7024"/>
<g clip-path="url(#clip0_264_295)">
<path d="M7.29457 13.1086L6.53514 11.8295L5.09621 11.5098L5.23611 10.0309L4.25684 8.91172L5.23611 7.79255L5.09621 6.31365L6.53514 5.99389L7.29457 4.71484L8.65356 5.29441L10.0126 4.71484L10.772 5.99389L12.2109 6.31365L12.071 7.79255L13.0503 8.91172L12.071 10.0309L12.2109 11.5098L10.772 11.8295L10.0126 13.1086L8.65356 12.529L7.29457 13.1086ZM8.23388 10.3307L10.4922 8.07235L9.93261 7.49278L8.23388 9.19151L7.37452 8.35214L6.81493 8.91172L8.23388 10.3307ZM7.63432 12.0894L8.65356 11.6497L9.69279 12.0894L10.2524 11.1301L11.3516 10.8703L11.2516 9.7511L11.9911 8.91172L11.2516 8.05236L11.3516 6.93319L10.2524 6.69337L9.6728 5.73409L8.65356 6.17376L7.61434 5.73409L7.05475 6.69337L5.95557 6.93319L6.0555 8.05236L5.31605 8.91172L6.0555 9.7511L5.95557 10.8902L7.05475 11.1301L7.63432 12.0894Z" fill="white"/>
</g>
<defs>
<clipPath id="clip0_264_295">
<rect width="9.59286" height="9.59286" fill="white" transform="translate(3.40625 3.86426)"/>
</clipPath>
</defs>
</svg>
