<svg width="11" height="11" viewBox="0 0 11 11" fill="none" xmlns="http://www.w3.org/2000/svg">
<path d="M6.63664 4.46071H4.47825C4.41464 4.46071 4.35364 4.48598 4.30867 4.53096C4.26369 4.57593 4.23843 4.63693 4.23843 4.70054V7.25863M4.23843 9.25714H6.63664H4.23843ZM4.23843 9.25714V7.25863V9.25714ZM4.23843 9.25714H2.08003C2.01643 9.25714 1.95543 9.23188 1.91045 9.1869C1.86548 9.14193 1.84021 9.08093 1.84021 9.01732V7.49845C1.84021 7.43485 1.86548 7.37385 1.91045 7.32887C1.95543 7.2839 2.01643 7.25863 2.08003 7.25863H4.23843V9.25714ZM6.63664 9.25714V4.46071V9.25714ZM6.63664 9.25714H8.79503C8.85864 9.25714 8.91964 9.23188 8.96461 9.1869C9.00959 9.14193 9.03486 9.08093 9.03486 9.01732V2.30232C9.03486 2.23872 9.00959 2.17772 8.96461 2.13274C8.91964 2.08777 8.85864 2.0625 8.79503 2.0625H6.87646C6.81286 2.0625 6.75186 2.08777 6.70688 2.13274C6.66191 2.17772 6.63664 2.23872 6.63664 2.30232V4.46071V9.25714Z" stroke="white" stroke-width="0.559699"/>
</svg>
