<svg width="395" height="361" viewBox="0 0 395 361" fill="none" xmlns="http://www.w3.org/2000/svg">
<g clip-path="url(#clip0_475_156)">
<path d="M30.453 311.612C40.1673 327.574 192.288 401.485 244.081 248.41C270.405 170.609 238.019 40.4211 359.236 -4.5587" stroke="white" stroke-width="2" stroke-dasharray="15 15"/>
<path d="M193.754 325.878C195.123 325.883 196.237 324.572 196.243 322.949C196.249 321.327 195.145 320.007 193.776 320.002C192.407 319.997 191.292 321.308 191.286 322.931C191.28 324.553 192.385 325.873 193.754 325.878Z" fill="white"/>
<g filter="url(#filter0_d_475_156)">
<path d="M196.913 336.862L196.947 327.911L198.304 327.916L198.289 331.806L202.776 331.823L202.791 327.933L204.154 327.938L204.12 336.889L202.757 336.884L202.772 332.981L198.285 332.964L198.27 336.867L196.913 336.862ZM208.835 337.042C208.202 337.04 207.65 336.894 207.18 336.604C206.709 336.313 206.345 335.908 206.086 335.389C205.827 334.869 205.699 334.263 205.701 333.569C205.704 332.873 205.837 332.264 206.1 331.743C206.362 331.223 206.73 330.82 207.203 330.533C207.675 330.246 208.228 330.104 208.861 330.106C209.494 330.108 210.045 330.255 210.516 330.545C210.987 330.836 211.352 331.242 211.611 331.764C211.869 332.287 211.997 332.896 211.994 333.592C211.992 334.286 211.86 334.892 211.597 335.409C211.334 335.927 210.966 336.329 210.493 336.616C210.02 336.903 209.468 337.044 208.835 337.042ZM208.844 335.945C209.254 335.947 209.594 335.84 209.864 335.626C210.135 335.411 210.335 335.125 210.465 334.767C210.598 334.409 210.666 334.014 210.668 333.584C210.67 333.155 210.604 332.761 210.474 332.402C210.347 332.041 210.149 331.75 209.88 331.531C209.611 331.311 209.271 331.201 208.861 331.199C208.448 331.198 208.105 331.305 207.832 331.523C207.562 331.74 207.359 332.03 207.227 332.39C207.096 332.748 207.03 333.141 207.029 333.57C207.027 334.001 207.09 334.396 207.218 334.754C207.348 335.113 207.548 335.401 207.816 335.618C208.088 335.835 208.431 335.944 208.844 335.945ZM219.02 330.232L216.546 336.936L215.14 336.93L212.713 330.208L214.123 330.213L215.814 335.386L215.884 335.386L217.609 330.227L219.02 330.232ZM222.908 337.095C222.243 337.092 221.671 336.95 221.191 336.665C220.715 336.377 220.348 335.975 220.088 335.459C219.833 334.939 219.706 334.331 219.708 333.634C219.711 332.947 219.842 332.341 220.102 331.818C220.365 331.295 220.73 330.887 221.197 330.594C221.667 330.302 222.215 330.156 222.842 330.159C223.223 330.16 223.592 330.224 223.949 330.351C224.306 330.477 224.626 330.675 224.909 330.945C225.192 331.213 225.415 331.563 225.578 331.992C225.74 332.418 225.82 332.935 225.818 333.544L225.816 334.007L220.45 333.987L220.454 333.008L224.532 333.023C224.533 332.679 224.465 332.375 224.325 332.109C224.185 331.84 223.988 331.629 223.734 331.473C223.482 331.318 223.186 331.24 222.847 331.239C222.478 331.237 222.155 331.326 221.879 331.506C221.606 331.682 221.394 331.915 221.244 332.203C221.096 332.487 221.022 332.798 221.021 333.132L221.018 333.898C221.016 334.346 221.093 334.728 221.25 335.043C221.411 335.359 221.634 335.6 221.92 335.767C222.207 335.932 222.542 336.014 222.926 336.016C223.175 336.017 223.401 335.982 223.607 335.913C223.813 335.841 223.99 335.734 224.14 335.592C224.29 335.449 224.405 335.274 224.485 335.065L225.728 335.292C225.627 335.656 225.447 335.974 225.188 336.247C224.933 336.517 224.611 336.727 224.223 336.877C223.839 337.025 223.4 337.097 222.908 337.095ZM227.263 336.976L227.288 330.263L228.558 330.268L228.554 331.334L228.625 331.334C228.749 330.974 228.967 330.69 229.278 330.484C229.592 330.276 229.948 330.172 230.343 330.174C230.425 330.174 230.522 330.177 230.633 330.184C230.747 330.19 230.836 330.198 230.901 330.206L230.897 331.456C230.843 331.442 230.75 331.425 230.615 331.407C230.481 331.386 230.345 331.376 230.211 331.375C229.901 331.374 229.624 331.439 229.379 331.568C229.139 331.696 228.948 331.875 228.807 332.104C228.665 332.331 228.594 332.59 228.592 332.882L228.577 336.981L227.263 336.976ZM238.131 337.152C237.498 337.15 236.946 337.004 236.475 336.714C236.005 336.423 235.64 336.018 235.382 335.499C235.123 334.979 234.995 334.373 234.997 333.679C235 332.983 235.133 332.374 235.395 331.853C235.658 331.333 236.025 330.93 236.498 330.643C236.971 330.356 237.524 330.214 238.157 330.216C238.789 330.218 239.341 330.365 239.812 330.655C240.283 330.946 240.648 331.351 240.906 331.874C241.165 332.397 241.293 333.006 241.29 333.702C241.288 334.396 241.155 335.002 240.893 335.519C240.63 336.037 240.262 336.439 239.789 336.726C239.316 337.013 238.763 337.154 238.131 337.152ZM238.139 336.055C238.549 336.057 238.89 335.95 239.16 335.736C239.431 335.521 239.631 335.235 239.761 334.877C239.894 334.519 239.962 334.124 239.964 333.694C239.965 333.265 239.9 332.871 239.77 332.512C239.642 332.151 239.445 331.86 239.175 331.641C238.907 331.421 238.567 331.311 238.157 331.309C237.744 331.308 237.401 331.415 237.127 331.633C236.857 331.85 236.655 332.14 236.522 332.5C236.392 332.858 236.326 333.251 236.324 333.68C236.323 334.111 236.386 334.505 236.513 334.864C236.644 335.223 236.844 335.511 237.112 335.728C237.384 335.945 237.726 336.054 238.139 336.055ZM244.074 333.053L244.059 337.039L242.745 337.034L242.77 330.321L244.031 330.326L244.027 331.418L244.11 331.418C244.267 331.064 244.512 330.779 244.844 330.565C245.178 330.35 245.599 330.244 246.106 330.246C246.566 330.248 246.969 330.345 247.314 330.539C247.659 330.729 247.925 331.013 248.115 331.39C248.304 331.766 248.397 332.231 248.395 332.785L248.379 337.055L247.065 337.05L247.08 332.938C247.082 332.451 246.956 332.071 246.703 331.796C246.448 331.518 246.098 331.378 245.654 331.376C245.349 331.375 245.077 331.44 244.84 331.57C244.605 331.7 244.418 331.892 244.279 332.144C244.144 332.395 244.075 332.697 244.074 333.053ZM253.417 337.074L253.442 330.361L254.756 330.366L254.731 337.079L253.417 337.074ZM254.11 329.327C253.881 329.327 253.684 329.25 253.521 329.098C253.361 328.943 253.281 328.759 253.282 328.547C253.283 328.331 253.364 328.148 253.525 327.997C253.69 327.843 253.886 327.767 254.115 327.767C254.344 327.768 254.538 327.846 254.698 328.001C254.862 328.153 254.943 328.337 254.942 328.553C254.942 328.765 254.859 328.949 254.694 329.103C254.533 329.254 254.338 329.328 254.11 329.327ZM256.498 337.086L256.524 330.373L257.785 330.377L257.781 331.47L257.865 331.47C258.006 331.101 258.237 330.813 258.558 330.607C258.878 330.399 259.26 330.295 259.706 330.297C260.157 330.299 260.535 330.405 260.839 330.616C261.145 330.827 261.371 331.116 261.516 331.484L261.587 331.484C261.75 331.126 262.007 330.842 262.359 330.631C262.711 330.416 263.131 330.31 263.617 330.312C264.229 330.314 264.728 330.507 265.114 330.89C265.502 331.273 265.695 331.849 265.692 332.619L265.675 337.12L264.361 337.115L264.377 332.736C264.379 332.281 264.256 331.952 264.007 331.747C263.759 331.542 263.462 331.439 263.116 331.437C262.688 331.436 262.355 331.566 262.117 331.827C261.879 332.086 261.759 332.418 261.757 332.827L261.741 337.105L260.432 337.1L260.448 332.638C260.45 332.274 260.337 331.981 260.109 331.758C259.882 331.536 259.584 331.424 259.218 331.423C258.969 331.422 258.738 331.486 258.528 331.617C258.319 331.744 258.15 331.923 258.02 332.153C257.893 332.382 257.829 332.649 257.828 332.951L257.813 337.091L256.498 337.086ZM269.399 337.283C268.972 337.281 268.585 337.201 268.24 337.042C267.895 336.881 267.622 336.648 267.421 336.344C267.223 336.041 267.125 335.669 267.127 335.229C267.128 334.85 267.202 334.538 267.35 334.294C267.497 334.05 267.696 333.857 267.946 333.716C268.195 333.573 268.474 333.467 268.781 333.395C269.089 333.323 269.403 333.269 269.723 333.232C270.127 333.188 270.455 333.15 270.708 333.123C270.96 333.091 271.143 333.041 271.257 332.972C271.372 332.902 271.43 332.789 271.43 332.631L271.431 332.601C271.432 332.219 271.325 331.923 271.108 331.712C270.895 331.502 270.576 331.395 270.152 331.394C269.709 331.392 269.36 331.489 269.104 331.683C268.852 331.874 268.676 332.088 268.579 332.323L267.345 332.039C267.493 331.632 267.709 331.303 267.99 331.053C268.276 330.801 268.603 330.619 268.972 330.506C269.342 330.392 269.73 330.335 270.138 330.336C270.407 330.337 270.693 330.37 270.995 330.435C271.299 330.498 271.583 330.612 271.846 330.779C272.112 330.947 272.329 331.185 272.498 331.495C272.666 331.801 272.75 332.199 272.748 332.689L272.731 337.147L271.448 337.142L271.452 336.224L271.399 336.224C271.313 336.393 271.185 336.558 271.015 336.721C270.844 336.883 270.626 337.018 270.358 337.125C270.091 337.231 269.772 337.284 269.399 337.283ZM269.69 336.235C270.052 336.237 270.364 336.166 270.622 336.024C270.883 335.883 271.082 335.697 271.217 335.467C271.356 335.234 271.425 334.986 271.426 334.72L271.43 333.855C271.383 333.902 271.292 333.945 271.157 333.985C271.025 334.023 270.874 334.056 270.704 334.084C270.534 334.11 270.368 334.134 270.207 334.156C270.046 334.177 269.911 334.193 269.802 334.207C269.548 334.238 269.314 334.291 269.103 334.367C268.895 334.441 268.728 334.55 268.601 334.693C268.477 334.831 268.415 335.018 268.414 335.251C268.413 335.574 268.532 335.82 268.772 335.986C269.012 336.151 269.318 336.234 269.69 336.235ZM277.302 339.821C276.766 339.819 276.305 339.748 275.918 339.606C275.535 339.465 275.223 339.279 274.98 339.047C274.738 338.816 274.557 338.563 274.438 338.289L275.569 337.83C275.648 337.959 275.753 338.095 275.884 338.238C276.018 338.384 276.199 338.509 276.428 338.611C276.659 338.714 276.956 338.766 277.319 338.768C277.817 338.77 278.229 338.65 278.556 338.41C278.882 338.172 279.045 337.791 279.047 337.266L279.052 335.946L278.969 335.946C278.889 336.089 278.774 336.247 278.624 336.422C278.477 336.596 278.275 336.747 278.016 336.873C277.758 337.001 277.422 337.063 277.009 337.062C276.476 337.06 275.996 336.934 275.569 336.685C275.145 336.433 274.81 336.064 274.563 335.576C274.318 335.086 274.197 334.483 274.2 333.769C274.203 333.055 274.327 332.444 274.572 331.935C274.82 331.426 275.158 331.037 275.587 330.767C276.016 330.495 276.501 330.36 277.043 330.362C277.462 330.364 277.801 330.435 278.058 330.576C278.315 330.714 278.515 330.874 278.658 331.059C278.804 331.243 278.916 331.405 278.995 331.545L279.091 331.546L279.095 330.457L280.383 330.462L280.357 337.324C280.355 337.901 280.218 338.374 279.948 338.743C279.676 339.112 279.311 339.384 278.85 339.56C278.392 339.736 277.877 339.824 277.302 339.821ZM277.303 335.979C277.682 335.981 278.001 335.895 278.263 335.72C278.527 335.544 278.727 335.291 278.863 334.963C279.002 334.631 279.072 334.233 279.074 333.77C279.075 333.319 279.01 332.921 278.876 332.577C278.743 332.232 278.546 331.963 278.286 331.77C278.026 331.573 277.704 331.474 277.32 331.473C276.925 331.472 276.595 331.573 276.331 331.775C276.066 331.975 275.865 332.249 275.73 332.595C275.596 332.941 275.529 333.329 275.527 333.757C275.526 334.197 275.591 334.583 275.726 334.915C275.859 335.248 276.057 335.508 276.32 335.696C276.586 335.883 276.914 335.978 277.303 335.979ZM285.029 337.328C284.364 337.326 283.792 337.183 283.312 336.898C282.835 336.611 282.468 336.209 282.209 335.692C281.954 335.172 281.827 334.565 281.829 333.868C281.832 333.18 281.963 332.574 282.223 332.051C282.485 331.528 282.851 331.12 283.317 330.827C283.787 330.535 284.335 330.389 284.963 330.392C285.344 330.393 285.713 330.458 286.07 330.584C286.426 330.71 286.747 330.908 287.03 331.178C287.313 331.447 287.535 331.796 287.699 332.225C287.861 332.651 287.941 333.168 287.939 333.777L287.937 334.241L282.57 334.22L282.574 333.241L286.653 333.257C286.654 332.913 286.585 332.608 286.445 332.343C286.305 332.074 286.109 331.862 285.854 331.707C285.603 331.551 285.307 331.473 284.967 331.472C284.598 331.47 284.276 331.559 283.999 331.739C283.726 331.916 283.514 332.148 283.364 332.436C283.217 332.721 283.142 333.031 283.141 333.366L283.138 334.131C283.136 334.579 283.214 334.961 283.371 335.277C283.531 335.592 283.754 335.833 284.04 336.001C284.328 336.165 284.662 336.248 285.046 336.249C285.295 336.25 285.522 336.215 285.728 336.146C285.933 336.075 286.11 335.968 286.261 335.825C286.411 335.683 286.526 335.507 286.606 335.298L287.849 335.525C287.747 335.889 287.568 336.208 287.309 336.481C287.053 336.75 286.731 336.961 286.344 337.11C285.959 337.258 285.521 337.33 285.029 337.328ZM294.461 332.154L293.269 332.359C293.22 332.207 293.141 332.063 293.034 331.926C292.928 331.789 292.786 331.676 292.604 331.587C292.423 331.5 292.196 331.455 291.923 331.454C291.551 331.453 291.241 331.535 290.991 331.7C290.741 331.862 290.616 332.072 290.615 332.332C290.614 332.556 290.697 332.737 290.864 332.875C291.03 333.012 291.299 333.125 291.671 333.215L292.743 333.463C293.363 333.608 293.825 333.83 294.128 334.128C294.432 334.427 294.583 334.813 294.581 335.288C294.58 335.69 294.461 336.048 294.225 336.362C293.993 336.673 293.669 336.917 293.252 337.093C292.838 337.269 292.358 337.356 291.814 337.354C291.057 337.351 290.441 337.188 289.965 336.866C289.488 336.541 289.197 336.081 289.091 335.486L290.362 335.298C290.44 335.628 290.602 335.878 290.847 336.048C291.092 336.215 291.413 336.299 291.808 336.301C292.239 336.302 292.584 336.214 292.843 336.037C293.101 335.858 293.231 335.639 293.232 335.379C293.233 335.17 293.154 334.993 292.996 334.85C292.841 334.706 292.603 334.597 292.281 334.523L291.139 334.27C290.51 334.125 290.045 333.896 289.745 333.583C289.447 333.27 289.299 332.875 289.301 332.396C289.302 332 289.415 331.655 289.639 331.358C289.863 331.062 290.17 330.831 290.564 330.667C290.958 330.499 291.407 330.416 291.914 330.418C292.643 330.421 293.217 330.58 293.635 330.897C294.053 331.21 294.328 331.629 294.461 332.154ZM204.891 344.794L204.887 345.843L201.072 345.828L201.076 344.78L204.891 344.794ZM202.097 351.497L202.125 344.005C202.127 343.586 202.22 343.238 202.406 342.963C202.592 342.683 202.837 342.476 203.142 342.34C203.447 342.201 203.779 342.132 204.136 342.134C204.4 342.135 204.625 342.158 204.813 342.202C205 342.244 205.139 342.282 205.23 342.317L204.918 343.374C204.856 343.356 204.777 343.335 204.681 343.312C204.584 343.285 204.468 343.272 204.33 343.271C204.01 343.27 203.781 343.348 203.643 343.504C203.508 343.661 203.44 343.888 203.438 344.186L203.411 351.502L202.097 351.497ZM208.799 351.657C208.166 351.655 207.614 351.509 207.143 351.219C206.673 350.929 206.308 350.523 206.049 350.004C205.79 349.484 205.662 348.878 205.665 348.184C205.668 347.488 205.8 346.879 206.063 346.359C206.325 345.838 206.693 345.435 207.166 345.148C207.639 344.861 208.192 344.719 208.825 344.721C209.457 344.724 210.009 344.87 210.48 345.161C210.951 345.451 211.315 345.857 211.574 346.379C211.832 346.902 211.961 347.511 211.958 348.208C211.956 348.901 211.823 349.507 211.56 350.025C211.297 350.542 210.93 350.945 210.457 351.231C209.984 351.518 209.431 351.66 208.799 351.657ZM208.807 350.56C209.217 350.562 209.557 350.456 209.828 350.241C210.098 350.026 210.299 349.74 210.428 349.382C210.562 349.024 210.629 348.63 210.631 348.199C210.632 347.77 210.568 347.376 210.437 347.017C210.31 346.656 210.112 346.365 209.843 346.146C209.574 345.926 209.235 345.816 208.824 345.814C208.411 345.813 208.068 345.921 207.795 346.138C207.524 346.356 207.323 346.645 207.189 347.005C207.06 347.363 206.993 347.757 206.992 348.185C206.99 348.616 207.053 349.011 207.181 349.37C207.311 349.729 207.511 350.016 207.78 350.234C208.051 350.45 208.394 350.559 208.807 350.56ZM213.412 351.539L213.437 344.826L214.707 344.831L214.703 345.897L214.774 345.897C214.898 345.537 215.117 345.253 215.428 345.048C215.742 344.84 216.097 344.735 216.492 344.737C216.574 344.737 216.671 344.741 216.782 344.747C216.897 344.753 216.986 344.761 217.051 344.77L217.046 346.02C216.993 346.005 216.899 345.988 216.765 345.97C216.63 345.95 216.495 345.939 216.36 345.939C216.05 345.938 215.773 346.002 215.529 346.132C215.288 346.259 215.097 346.438 214.956 346.667C214.814 346.895 214.743 347.153 214.742 347.445L214.726 351.544L213.412 351.539ZM221.437 351.569L221.462 344.856L222.724 344.861L222.72 345.953L222.803 345.954C222.945 345.584 223.176 345.297 223.496 345.091C223.817 344.883 224.199 344.779 224.645 344.781C225.096 344.782 225.474 344.889 225.777 345.1C226.084 345.311 226.31 345.6 226.455 345.967L226.525 345.968C226.688 345.61 226.945 345.325 227.298 345.114C227.65 344.9 228.07 344.794 228.556 344.795C229.168 344.798 229.667 344.99 230.052 345.374C230.441 345.757 230.633 346.333 230.631 347.102L230.614 351.604L229.3 351.599L229.316 347.22C229.318 346.765 229.194 346.435 228.946 346.231C228.698 346.026 228.401 345.922 228.055 345.921C227.628 345.92 227.295 346.05 227.056 346.31C226.818 346.57 226.698 346.902 226.697 347.311L226.681 351.589L225.37 351.584L225.387 347.122C225.388 346.758 225.276 346.465 225.048 346.242C224.82 346.02 224.523 345.908 224.157 345.907C223.908 345.906 223.678 345.97 223.466 346.101C223.258 346.228 223.089 346.406 222.958 346.637C222.832 346.866 222.768 347.133 222.767 347.435L222.751 351.574L221.437 351.569ZM235.218 351.756C234.585 351.754 234.033 351.608 233.563 351.318C233.092 351.028 232.728 350.623 232.468 350.103C232.209 349.584 232.082 348.977 232.084 348.283C232.087 347.587 232.219 346.978 232.482 346.458C232.745 345.937 233.112 345.534 233.585 345.247C234.058 344.961 234.611 344.818 235.244 344.82C235.877 344.823 236.428 344.97 236.899 345.26C237.37 345.55 237.734 345.956 237.993 346.478C238.252 347.001 238.38 347.611 238.377 348.307C238.375 349.001 238.242 349.606 237.979 350.124C237.716 350.641 237.349 351.044 236.876 351.33C236.403 351.617 235.85 351.759 235.218 351.756ZM235.227 350.66C235.636 350.661 235.976 350.555 236.247 350.34C236.517 350.125 236.718 349.839 236.848 349.481C236.981 349.123 237.048 348.729 237.05 348.298C237.052 347.87 236.987 347.475 236.857 347.117C236.729 346.755 236.531 346.465 236.263 346.245C235.993 346.026 235.654 345.915 235.244 345.914C234.831 345.912 234.487 346.02 234.214 346.237C233.944 346.455 233.742 346.744 233.609 347.104C233.479 347.462 233.413 347.856 233.412 348.284C233.41 348.715 233.473 349.11 233.6 349.469C233.731 349.828 233.931 350.116 234.199 350.333C234.47 350.549 234.813 350.658 235.227 350.66ZM239.831 351.638L239.857 344.925L241.127 344.93L241.123 345.996L241.193 345.997C241.318 345.636 241.536 345.353 241.847 345.147C242.161 344.939 242.516 344.835 242.911 344.836C242.993 344.836 243.09 344.84 243.201 344.846C243.316 344.852 243.406 344.86 243.47 344.869L243.465 346.119C243.413 346.104 243.319 346.088 243.184 346.069C243.049 346.049 242.915 346.039 242.78 346.038C242.469 346.037 242.192 346.101 241.949 346.231C241.708 346.359 241.517 346.537 241.375 346.767C241.233 346.994 241.162 347.253 241.161 347.544L241.145 351.643L239.831 351.638ZM247.249 351.802C246.583 351.799 246.011 351.656 245.531 351.371C245.055 351.084 244.688 350.682 244.429 350.166C244.173 349.646 244.047 349.038 244.049 348.341C244.052 347.654 244.182 347.048 244.443 346.525C244.705 346.001 245.07 345.593 245.537 345.301C246.007 345.009 246.555 344.863 247.183 344.865C247.563 344.867 247.932 344.931 248.289 345.058C248.646 345.184 248.966 345.382 249.249 345.651C249.532 345.92 249.755 346.27 249.918 346.699C250.08 347.125 250.16 347.642 250.158 348.251L250.156 348.714L244.79 348.694L244.794 347.715L248.873 347.73C248.874 347.386 248.805 347.081 248.665 346.816C248.525 346.547 248.328 346.336 248.074 346.18C247.823 346.025 247.527 345.947 247.187 345.945C246.818 345.944 246.495 346.033 246.219 346.212C245.946 346.389 245.734 346.621 245.584 346.909C245.436 347.194 245.362 347.505 245.361 347.839L245.358 348.605C245.356 349.053 245.434 349.435 245.591 349.75C245.751 350.065 245.974 350.307 246.26 350.474C246.547 350.638 246.882 350.721 247.266 350.723C247.515 350.723 247.742 350.689 247.948 350.62C248.153 350.548 248.33 350.441 248.48 350.299C248.63 350.156 248.745 349.98 248.825 349.771L250.068 349.998C249.967 350.363 249.787 350.681 249.528 350.954C249.273 351.224 248.951 351.434 248.564 351.584C248.179 351.731 247.74 351.804 247.249 351.802ZM257.405 351.836C256.86 351.834 256.374 351.694 255.947 351.415C255.524 351.134 255.191 350.735 254.95 350.218C254.711 349.698 254.594 349.076 254.597 348.351C254.599 347.625 254.723 347.005 254.969 346.49C255.217 345.975 255.554 345.581 255.983 345.309C256.412 345.037 256.898 344.902 257.44 344.904C257.859 344.905 258.195 344.977 258.45 345.118C258.707 345.255 258.906 345.416 259.046 345.601C259.188 345.785 259.299 345.947 259.378 346.087L259.457 346.088L259.47 342.761L260.784 342.766L260.75 351.717L259.466 351.712L259.47 350.668L259.36 350.667C259.281 350.81 259.166 350.973 259.016 351.156C258.869 351.338 258.666 351.498 258.408 351.634C258.15 351.77 257.815 351.837 257.405 351.836ZM257.699 350.722C258.077 350.724 258.397 350.626 258.658 350.428C258.923 350.229 259.123 349.951 259.259 349.596C259.398 349.241 259.469 348.828 259.47 348.355C259.472 347.889 259.406 347.481 259.273 347.131C259.139 346.781 258.943 346.508 258.683 346.312C258.423 346.115 258.101 346.016 257.717 346.015C257.321 346.013 256.991 346.114 256.727 346.317C256.462 346.52 256.262 346.798 256.126 347.15C255.993 347.502 255.926 347.9 255.924 348.342C255.922 348.791 255.988 349.194 256.121 349.553C256.254 349.912 256.453 350.198 256.716 350.408C256.982 350.616 257.31 350.721 257.699 350.722ZM265.535 351.87C264.869 351.868 264.297 351.725 263.817 351.44C263.341 351.153 262.973 350.751 262.714 350.234C262.459 349.714 262.332 349.107 262.334 348.41C262.337 347.722 262.468 347.117 262.728 346.594C262.991 346.07 263.356 345.662 263.822 345.369C264.292 345.077 264.841 344.932 265.468 344.934C265.849 344.935 266.218 345 266.575 345.127C266.932 345.252 267.252 345.451 267.535 345.72C267.818 345.989 268.041 346.338 268.204 346.767C268.366 347.193 268.446 347.71 268.444 348.32L268.442 348.783L263.076 348.763L263.079 347.783L267.158 347.799C267.159 347.455 267.09 347.15 266.95 346.885C266.811 346.616 266.614 346.404 266.359 346.249C266.108 346.093 265.812 346.015 265.473 346.014C265.103 346.013 264.781 346.101 264.505 346.281C264.231 346.458 264.02 346.69 263.869 346.978C263.722 347.263 263.647 347.573 263.646 347.908L263.643 348.673C263.641 349.122 263.72 349.503 263.876 349.819C264.037 350.134 264.259 350.376 264.546 350.543C264.833 350.707 265.167 350.79 265.552 350.791C265.801 350.792 266.028 350.758 266.233 350.688C266.438 350.617 266.616 350.51 266.766 350.367C266.916 350.225 267.031 350.049 267.111 349.84L268.354 350.067C268.253 350.431 268.073 350.75 267.814 351.023C267.558 351.293 267.236 351.503 266.849 351.652C266.465 351.8 266.026 351.872 265.535 351.87ZM273.065 345.05L273.061 346.099L269.374 346.085L269.378 345.036L273.065 345.05ZM270.373 343.432L271.687 343.437L271.663 349.787C271.662 350.04 271.699 350.231 271.775 350.36C271.851 350.486 271.949 350.572 272.068 350.619C272.191 350.663 272.325 350.685 272.468 350.686C272.574 350.686 272.666 350.679 272.745 350.665C272.825 350.651 272.886 350.639 272.93 350.631L273.163 351.711C273.087 351.74 272.978 351.769 272.837 351.798C272.697 351.829 272.521 351.846 272.31 351.848C271.965 351.852 271.642 351.79 271.344 351.661C271.045 351.531 270.805 351.332 270.621 351.063C270.437 350.795 270.346 350.458 270.348 350.053L270.373 343.432ZM276.458 351.924C276.03 351.923 275.643 351.843 275.298 351.684C274.953 351.523 274.68 351.29 274.479 350.986C274.281 350.682 274.183 350.31 274.184 349.871C274.186 349.492 274.26 349.18 274.407 348.936C274.555 348.692 274.753 348.499 275.003 348.357C275.253 348.215 275.531 348.109 275.839 348.037C276.147 347.965 276.461 347.911 276.78 347.874C277.185 347.829 277.513 347.792 277.765 347.765C278.017 347.733 278.201 347.683 278.315 347.614C278.429 347.544 278.487 347.43 278.488 347.273L278.488 347.243C278.489 346.861 278.382 346.565 278.166 346.354C277.953 346.144 277.634 346.037 277.209 346.036C276.767 346.034 276.418 346.13 276.162 346.325C275.909 346.516 275.735 346.729 275.637 346.965L274.403 346.681C274.551 346.273 274.766 345.945 275.048 345.695C275.333 345.443 275.66 345.261 276.031 345.148C276.4 345.033 276.788 344.976 277.195 344.978C277.465 344.979 277.751 345.012 278.052 345.077C278.356 345.14 278.641 345.254 278.903 345.421C279.169 345.588 279.387 345.827 279.556 346.137C279.725 346.443 279.808 346.841 279.806 347.331L279.79 351.788L278.506 351.784L278.509 350.866L278.456 350.866C278.371 351.035 278.243 351.2 278.072 351.363C277.902 351.525 277.683 351.66 277.416 351.766C277.149 351.873 276.83 351.926 276.458 351.924ZM276.747 350.877C277.11 350.878 277.421 350.808 277.68 350.666C277.941 350.525 278.139 350.338 278.275 350.109C278.414 349.876 278.484 349.627 278.485 349.362L278.488 348.497C278.44 348.543 278.35 348.587 278.214 348.627C278.083 348.664 277.932 348.698 277.761 348.726C277.592 348.752 277.425 348.776 277.264 348.798C277.104 348.818 276.969 348.835 276.86 348.849C276.605 348.88 276.372 348.933 276.161 349.009C275.952 349.083 275.785 349.192 275.658 349.335C275.535 349.473 275.473 349.66 275.472 349.893C275.471 350.216 275.59 350.462 275.83 350.628C276.069 350.793 276.375 350.876 276.747 350.877ZM281.539 351.795L281.564 345.082L282.879 345.087L282.853 351.8L281.539 351.795ZM282.232 344.048C282.004 344.048 281.808 343.971 281.644 343.819C281.484 343.664 281.403 343.48 281.404 343.268C281.405 343.052 281.487 342.869 281.648 342.718C281.813 342.564 282.01 342.488 282.238 342.488C282.467 342.489 282.661 342.567 282.822 342.722C282.985 342.874 283.066 343.058 283.066 343.274C283.065 343.486 282.982 343.67 282.818 343.824C282.656 343.975 282.461 344.049 282.232 344.048ZM285.969 342.861L285.936 351.812L284.622 351.807L284.655 342.856L285.969 342.861ZM292.781 346.763L291.589 346.968C291.54 346.816 291.461 346.672 291.353 346.535C291.248 346.398 291.105 346.285 290.923 346.196C290.743 346.109 290.515 346.064 290.243 346.063C289.871 346.062 289.56 346.144 289.31 346.309C289.061 346.471 288.935 346.681 288.934 346.941C288.933 347.165 289.016 347.346 289.183 347.484C289.349 347.621 289.619 347.735 289.991 347.824L291.062 348.072C291.682 348.217 292.144 348.439 292.448 348.738C292.751 349.036 292.902 349.422 292.9 349.897C292.899 350.299 292.781 350.657 292.545 350.971C292.313 351.282 291.988 351.526 291.571 351.702C291.157 351.878 290.678 351.965 290.133 351.963C289.377 351.96 288.761 351.798 288.284 351.475C287.808 351.15 287.517 350.69 287.411 350.095L288.682 349.907C288.759 350.238 288.921 350.487 289.166 350.657C289.412 350.824 289.732 350.908 290.128 350.91C290.559 350.911 290.904 350.823 291.162 350.647C291.42 350.467 291.55 350.248 291.551 349.988C291.552 349.779 291.474 349.602 291.316 349.459C291.161 349.315 290.923 349.206 290.601 349.132L289.459 348.879C288.829 348.734 288.365 348.505 288.064 348.192C287.767 347.879 287.618 347.484 287.62 347.006C287.621 346.609 287.734 346.264 287.958 345.967C288.182 345.671 288.49 345.44 288.883 345.276C289.277 345.108 289.727 345.025 290.234 345.027C290.963 345.03 291.537 345.19 291.955 345.506C292.373 345.819 292.648 346.238 292.781 346.763Z" fill="white"/>
</g>
</g>
<defs>
<filter id="filter0_d_475_156" x="192.913" y="327.767" width="105.668" height="32.1952" filterUnits="userSpaceOnUse" color-interpolation-filters="sRGB">
<feFlood flood-opacity="0" result="BackgroundImageFix"/>
<feColorMatrix in="SourceAlpha" type="matrix" values="0 0 0 0 0 0 0 0 0 0 0 0 0 0 0 0 0 0 127 0" result="hardAlpha"/>
<feOffset dy="4"/>
<feGaussianBlur stdDeviation="2"/>
<feComposite in2="hardAlpha" operator="out"/>
<feColorMatrix type="matrix" values="0 0 0 0 0 0 0 0 0 0 0 0 0 0 0 0 0 0 0.25 0"/>
<feBlend mode="normal" in2="BackgroundImageFix" result="effect1_dropShadow_475_156"/>
<feBlend mode="normal" in="SourceGraphic" in2="effect1_dropShadow_475_156" result="shape"/>
</filter>
<clipPath id="clip0_475_156">
<rect width="393" height="359" fill="white" transform="translate(1.67529 0.26355) rotate(0.215105)"/>
</clipPath>
</defs>
</svg>
