<svg width="174" height="107" viewBox="0 0 174 107" fill="none" xmlns="http://www.w3.org/2000/svg">
<path d="M35.972 97.6691L35.3667 94.47H30.8131L30.2078 97.6691H26.2882L30.179 77.4946H36.1449L39.8339 97.6691H35.972ZM33.0323 81.2413L31.9082 87.9565L31.2742 91.3862H34.8768L34.2139 87.9565L33.0899 81.2413H33.0323ZM50.5044 97.6691L45.1149 86.5155L44.9708 86.5731L45.1437 89.974V97.6691H41.5123V77.4946H44.4232L49.7262 89.0806L49.8703 89.0229L49.5533 85.478V77.4946H53.1847V97.6691H50.5044ZM64.5394 97.6691L63.9342 94.47H59.3805L58.7752 97.6691H54.8556L58.7464 77.4946H64.7123L68.4014 97.6691H64.5394ZM61.5997 81.2413L60.4757 87.9565L59.8416 91.3862H63.4442L62.7813 87.9565L61.6573 81.2413H61.5997ZM70.0797 97.6691V77.4946H74.0282V94.3259H80.0229V97.6691H70.0797ZM86.7671 97.6691H82.5593V90.9539L78.2938 77.4946H82.2135L84.0004 83.6334L84.6056 87.1784H84.7209L85.3261 83.6334L87.113 77.4946H91.0326L86.7671 90.9539V97.6691ZM95.6838 80.9531H91.3318V77.4946H103.955V80.9531H99.6034V97.6691H95.6838V80.9531ZM105.627 97.6691V77.4946H109.576V97.6691H105.627ZM117.945 94.3259H123.018V97.6691H115.697C114.429 96.4779 113.468 94.9696 112.815 93.1443C112.162 91.319 111.835 89.4456 111.835 87.5242C111.835 85.5836 112.2 83.7199 112.93 81.933C113.66 80.1461 114.746 78.6667 116.187 77.4946H123.018V80.9531H117.945C117.426 81.5487 116.975 82.5094 116.591 83.8352C116.225 85.1609 116.043 86.429 116.043 87.6395C116.043 88.85 116.225 90.1181 116.591 91.4439C116.975 92.7696 117.426 93.7303 117.945 94.3259ZM126.976 77.4946H133.893V80.9531H128.36L128.273 81.126L132.885 89.5417C133.826 91.2325 134.297 92.5198 134.297 93.4037C134.297 95.3443 133.653 96.7661 132.366 97.6691H124.728V94.3259H130.694L130.781 94.153L125.593 84.8439C124.844 83.4989 124.469 82.4038 124.469 81.5583C124.469 79.5601 125.305 78.2055 126.976 77.4946Z" fill="#282830"/>
<path d="M26.7057 61.8838H31.2485C31.7778 61.2075 32.116 60.4283 32.263 59.5462C32.41 58.6347 32.4835 56.8116 32.4835 54.0771V36.1262H38.5259V52.0042C38.5259 53.9742 38.4818 55.5032 38.3936 56.5911C38.3348 57.6791 38.1584 58.914 37.8644 60.296C37.3057 62.9129 35.909 65.1476 33.6743 67H26.7057V61.8838ZM42.503 67V36.1262H58.3369V41.4189H48.5455V48.7845H57.2783V53.9007H48.5455V61.8838H58.5133V67H42.503ZM66.9123 41.4189H60.2523V36.1262H79.5705V41.4189H72.9106V67H66.9123V41.4189ZM92.0155 36.1262H102.601V41.4189H94.1325L94.0002 41.6835L101.057 54.5623C102.498 57.1498 103.218 59.1198 103.218 60.4724C103.218 63.4422 102.233 65.618 100.263 67H88.5753V61.8838H97.7051L97.8374 61.6191L89.8984 47.3731C88.7517 45.3148 88.1783 43.6388 88.1783 42.3451C88.1783 39.2871 89.4574 37.2141 92.0155 36.1262ZM106.292 67V36.1262H112.335V49.1373H112.555L118.068 36.1262H124.287L117.848 50.8574L124.596 67H117.892L112.643 53.5037H112.335V67H106.292ZM126.708 67V36.1262H132.751V67H126.708Z" fill="#282830"/>
</svg>
