<svg width="850" height="495" viewBox="0 0 850 495" fill="none" xmlns="http://www.w3.org/2000/svg">
<rect x="0.5" y="0.5" width="849" height="494" fill="#F9CA47"/>
<path d="M144.522 208.22C133.134 141.484 178.111 78.168 244.981 66.8C311.851 55.431 375.293 100.315 386.681 167.051C398.07 233.787 353.093 297.103 286.222 308.472C219.352 319.841 155.911 274.956 144.522 208.22Z" fill="url(#paint0_linear_472_21)"/>
<path d="M667.811 449.236C667.811 449.236 772.204 110.29 639.73 96.579C512.181 83.381 533.646 237.209 431.36 271.845C329.073 306.481 126.037 302.43 170.676 454.497L667.811 449.236Z" fill="url(#paint1_linear_472_21)"/>
<path d="M300.998 421.284C300.998 421.284 303.23 379.472 305.934 347.926C308.638 316.381 312.746 271.833 283.437 272.143C249.956 272.498 267.096 381.868 300.998 421.284Z" fill="url(#paint2_linear_472_21)"/>
<path d="M283.437 272.143C284.343 357.748 293.843 398.576 300.885 421.286" stroke="#343947" stroke-width="0.420503" stroke-miterlimit="10"/>
<path d="M292.154 421.039C282.99 407.37 275.54 392.632 269.971 377.154C262.154 354.001 248.467 335.321 237.263 341.3C224.841 347.834 239.237 382.186 256.014 399.339C275.86 419.492 292.154 421.039 292.154 421.039Z" fill="url(#paint3_linear_472_21)"/>
<path d="M292.154 421.038C275.417 407.64 255.63 384.501 237.262 341.232" stroke="#343947" stroke-width="0.420503" stroke-miterlimit="10"/>
<path d="M305.729 420.556C308.816 411.892 310.77 402.868 311.543 393.706C312.724 378.896 315.723 360.244 324.806 361.664C333.889 363.083 334.111 383.987 331.14 394.652C329.379 400.729 326.136 406.276 321.701 410.796C317.267 415.316 311.779 418.669 305.729 420.556Z" fill="url(#paint4_linear_472_21)"/>
<path d="M305.728 420.556C320.558 403.679 325.702 379.89 324.829 361.664" stroke="#343947" stroke-width="0.420503" stroke-miterlimit="10"/>
<path d="M310.47 453.017L285.649 453.28L275.924 421.21L319.514 420.748L310.47 453.017Z" fill="#343947"/>
<path d="M445.365 144.972L458.83 144.83C458.647 143.792 458.545 142.742 458.524 141.688C458.469 136.498 460.483 131.499 464.121 127.79C467.759 124.081 472.725 121.967 477.925 121.912C479.311 121.902 480.695 122.032 482.055 122.298C483.371 116.518 486.6 111.349 491.221 107.626C495.842 103.903 501.586 101.843 507.524 101.779C510.996 101.742 514.441 102.389 517.662 103.682C520.883 104.976 523.817 106.89 526.296 109.316C528.774 111.743 530.749 114.633 532.108 117.822C533.466 121.01 534.181 124.435 534.212 127.9C534.484 127.897 534.733 127.895 535.028 127.891C536.987 127.871 538.93 128.235 540.748 128.964C542.565 129.693 544.221 130.772 545.621 132.14C547.021 133.507 548.137 135.137 548.905 136.935C549.674 138.733 550.08 140.665 550.101 142.619C550.083 143.052 550.042 143.482 549.979 143.91L557.187 143.834C559.919 143.811 562.548 144.871 564.498 146.78C566.447 148.689 567.559 151.292 567.588 154.018C567.616 156.742 566.56 159.366 564.65 161.313C562.74 163.259 560.134 164.369 557.405 164.398L445.583 165.582C442.854 165.61 440.224 164.556 438.274 162.65C436.324 160.745 435.212 158.144 435.183 155.42C435.163 154.066 435.41 152.722 435.911 151.464C436.412 150.206 437.157 149.059 438.102 148.088C439.048 147.118 440.177 146.343 441.423 145.808C442.669 145.274 444.008 144.99 445.365 144.972Z" fill="#FFE4A1"/>
<path d="M168.587 182.202L179.672 182.084C179.5 181.228 179.408 180.358 179.395 179.485C179.373 177.371 179.768 175.273 180.559 173.312C181.35 171.35 182.52 169.563 184.003 168.054C185.486 166.544 187.253 165.341 189.203 164.513C191.152 163.685 193.246 163.249 195.365 163.23C196.507 163.224 197.648 163.333 198.769 163.556C199.846 158.803 202.498 154.553 206.295 151.49C210.093 148.428 214.815 146.734 219.696 146.682C222.546 146.649 225.374 147.177 228.019 148.236C230.664 149.295 233.073 150.864 235.11 152.854C237.146 154.844 238.769 157.215 239.886 159.831C241.003 162.448 241.592 165.258 241.619 168.102L242.299 168.095C245.551 168.061 248.684 169.317 251.008 171.588C253.333 173.859 254.658 176.958 254.692 180.204C254.682 180.568 254.648 180.932 254.59 181.291L260.507 181.229C261.619 181.214 262.723 181.418 263.756 181.83C264.789 182.242 265.73 182.853 266.526 183.629C267.322 184.404 267.957 185.329 268.394 186.35C268.831 187.37 269.062 188.467 269.074 189.577C269.088 190.689 268.883 191.793 268.469 192.825C268.055 193.858 267.44 194.798 266.661 195.593C265.881 196.388 264.952 197.021 263.927 197.456C262.901 197.891 261.8 198.119 260.685 198.128L168.766 199.101C167.65 199.113 166.543 198.904 165.508 198.486C164.473 198.069 163.531 197.451 162.737 196.669C161.942 195.886 161.311 194.955 160.879 193.928C160.447 192.9 160.224 191.798 160.221 190.684C160.209 188.454 161.083 186.31 162.65 184.72C164.218 183.131 166.353 182.225 168.587 182.202Z" fill="#FFE4A1"/>
<path d="M445.499 112.594C447.286 113.205 448.913 114.208 450.26 115.529C451.608 116.85 452.643 118.455 453.287 120.227C453.9 118.441 454.904 116.814 456.228 115.465C457.551 114.116 459.159 113.08 460.936 112.431C459.144 111.824 457.511 110.823 456.159 109.502C454.807 108.181 453.77 106.573 453.124 104.798C452.52 106.585 451.521 108.213 450.201 109.563C448.881 110.912 447.274 111.948 445.499 112.594Z" fill="white"/>
<path d="M699.378 238.147C701.165 238.753 702.792 239.752 704.14 241.069C705.488 242.386 706.522 243.988 707.167 245.758C707.779 243.974 708.784 242.35 710.108 241.005C711.431 239.66 713.04 238.628 714.815 237.984C713.026 237.373 711.396 236.37 710.044 235.05C708.693 233.729 707.654 232.124 707.004 230.351C706.397 232.137 705.397 233.764 704.077 235.113C702.758 236.462 701.152 237.499 699.378 238.147Z" fill="white"/>
<path d="M154.071 340.076C155.861 340.687 157.491 341.69 158.843 343.01C160.194 344.331 161.233 345.936 161.883 347.709C162.491 345.92 163.494 344.291 164.818 342.942C166.142 341.592 167.752 340.557 169.531 339.913C167.738 339.309 166.104 338.309 164.751 336.987C163.399 335.666 162.362 334.057 161.72 332.28C161.112 334.068 160.109 335.698 158.785 337.047C157.461 338.396 155.85 339.432 154.071 340.076Z" fill="white"/>
<path d="M417.311 146.106C408.122 146.204 400.594 138.848 400.497 129.677C400.399 120.507 407.77 112.994 416.959 112.896C426.148 112.799 433.676 120.155 433.773 129.325C433.87 138.496 426.5 146.009 417.311 146.106Z" fill="white"/>
<path d="M504.124 450.968L621.998 449.721C626.737 449.551 631.264 447.717 634.78 444.542C638.297 441.368 640.578 437.056 641.221 432.367L673.519 161.767C673.855 159.619 673.711 157.424 673.096 155.339C672.482 153.253 671.412 151.33 669.965 149.706C668.517 148.082 666.728 146.797 664.724 145.945C662.721 145.093 660.553 144.694 658.377 144.777L540.389 146.026C535.649 146.199 531.122 148.034 527.602 151.207C524.083 154.381 521.796 158.691 521.144 163.379L488.868 433.98C488.53 436.137 488.677 438.342 489.298 440.436C489.919 442.53 490.998 444.459 492.458 446.086C493.919 447.712 495.723 448.993 497.74 449.838C499.758 450.682 501.938 451.068 504.124 450.968Z" fill="url(#paint5_linear_472_21)"/>
<path d="M490.818 451.109L608.828 449.86C613.567 449.69 618.093 447.856 621.61 444.682C625.127 441.507 627.407 437.195 628.051 432.507L660.349 161.906C660.685 159.758 660.541 157.563 659.926 155.478C659.312 153.393 658.242 151.469 656.795 149.845C655.347 148.221 653.558 146.937 651.554 146.085C649.55 145.233 647.383 144.834 645.206 144.916L527.219 146.165C522.48 146.335 517.953 148.169 514.437 151.344C510.92 154.518 508.639 158.83 507.996 163.518L475.698 434.119C475.362 436.265 475.506 438.458 476.119 440.542C476.733 442.625 477.8 444.548 479.245 446.171C480.69 447.795 482.477 449.08 484.477 449.933C486.478 450.787 488.643 451.189 490.818 451.109Z" fill="url(#paint6_linear_472_21)"/>
<path d="M628.073 432.507L660.349 161.906" stroke="white" stroke-width="0.457068" stroke-linecap="round" stroke-linejoin="round"/>
<path d="M526.428 152.87L549.912 152.622C551.33 152.569 552.733 152.93 553.949 153.661C555.164 154.391 556.14 155.46 556.757 156.735L557.453 158.198C558.069 159.476 559.044 160.548 560.259 161.282C561.474 162.016 562.878 162.382 564.298 162.334L604.103 161.913C605.667 161.87 607.199 161.46 608.574 160.714C609.949 159.968 611.128 158.908 612.015 157.621L613.065 156.139C613.946 154.864 615.115 153.814 616.477 153.072C617.84 152.331 619.358 151.919 620.909 151.871L644.393 151.622C645.734 151.569 647.07 151.813 648.305 152.338C649.54 152.862 650.642 153.654 651.534 154.655C652.425 155.656 653.082 156.843 653.458 158.128C653.834 159.414 653.92 160.767 653.708 162.089L621.41 432.69C621.014 435.578 619.611 438.233 617.446 440.189C615.281 442.145 612.494 443.275 609.576 443.381L491.565 444.63C490.224 444.684 488.888 444.439 487.654 443.915C486.419 443.39 485.316 442.599 484.425 441.598C483.534 440.596 482.876 439.41 482.5 438.124C482.124 436.839 482.039 435.486 482.25 434.163L514.526 163.562C514.932 160.667 516.348 158.008 518.525 156.052C520.702 154.097 523.501 152.97 526.428 152.87Z" fill="url(#paint7_linear_472_21)"/>
<path d="M571.295 157.26L598.496 156.972C598.818 156.966 599.126 156.845 599.366 156.631C599.605 156.416 599.759 156.123 599.799 155.805C599.825 155.657 599.817 155.506 599.776 155.362C599.736 155.219 599.663 155.086 599.564 154.974C599.464 154.862 599.341 154.774 599.203 154.716C599.065 154.658 598.916 154.631 598.766 154.639L571.565 154.927C571.24 154.933 570.928 155.058 570.689 155.277C570.449 155.496 570.297 155.795 570.262 156.117C570.24 156.263 570.251 156.411 570.293 156.552C570.336 156.693 570.409 156.823 570.508 156.932C570.606 157.042 570.728 157.128 570.864 157.184C571 157.241 571.147 157.267 571.295 157.26Z" fill="#343947"/>
<path d="M659.488 228.388C660.115 228.363 660.714 228.121 661.181 227.703C661.648 227.285 661.955 226.718 662.048 226.099L665.796 194.632C665.836 194.348 665.813 194.058 665.729 193.784C665.645 193.509 665.502 193.256 665.31 193.043C665.117 192.829 664.881 192.66 664.616 192.547C664.351 192.435 664.065 192.382 663.777 192.391C663.149 192.412 662.548 192.653 662.08 193.071C661.612 193.49 661.306 194.06 661.217 194.681L657.469 226.147C657.425 226.432 657.445 226.723 657.527 227C657.61 227.276 657.753 227.531 657.946 227.746C658.139 227.96 658.378 228.129 658.645 228.24C658.911 228.351 659.199 228.402 659.488 228.388Z" fill="#343947"/>
<path d="M654.427 270.683C655.055 270.663 655.656 270.422 656.124 270.003C656.592 269.584 656.898 269.015 656.987 268.394L660.757 236.905C660.797 236.62 660.774 236.331 660.69 236.056C660.606 235.781 660.463 235.528 660.271 235.315C660.078 235.101 659.841 234.932 659.577 234.82C659.312 234.707 659.026 234.654 658.738 234.663C658.11 234.684 657.509 234.925 657.041 235.343C656.573 235.762 656.267 236.332 656.178 236.953L652.408 268.442C652.368 268.726 652.391 269.016 652.475 269.291C652.559 269.565 652.702 269.818 652.894 270.032C653.087 270.245 653.323 270.414 653.588 270.527C653.853 270.639 654.139 270.693 654.427 270.683Z" fill="#343947"/>
<path d="M609.62 443.268L491.61 444.517C490.269 444.57 488.933 444.326 487.698 443.801C486.463 443.277 485.36 442.485 484.469 441.484C483.578 440.483 482.921 439.296 482.545 438.011C482.169 436.725 482.083 435.372 482.294 434.05L488.23 384.37C508.768 360.667 566.347 298.132 607.988 291.198C624.123 288.493 632.665 294.399 637.177 300.912L621.454 432.577C621.059 435.464 619.655 438.12 617.49 440.075C615.325 442.031 612.538 443.162 609.62 443.268Z" fill="url(#paint8_linear_472_21)"/>
<path d="M640.262 172.571L629.132 172.689" stroke="#343947" stroke-width="0.484492" stroke-miterlimit="10"/>
<path d="M639.866 175.811L628.758 175.929" stroke="#343947" stroke-width="0.484492" stroke-miterlimit="10"/>
<path d="M639.492 179.073L628.362 179.191" stroke="#343947" stroke-width="0.484492" stroke-miterlimit="10"/>
<path opacity="0.2" d="M283.696 275.172L519.557 272.676L521.262 433.773L285.401 436.269L283.696 275.172Z" fill="black"/>
<path d="M288.471 270.167L524.333 267.671L526.038 428.767L290.176 431.264L288.471 270.167Z" fill="url(#paint9_linear_472_21)"/>
<path d="M461.952 287.766L524.539 287.104L526.039 428.79L463.452 429.452L461.952 287.766Z" fill="#6582DB"/>
<path d="M288.471 270.167L524.333 267.671L524.539 287.104L288.677 289.6L288.471 270.167Z" fill="#83B9F7"/>
<path d="M511.674 277.511L501.768 277.616" stroke="white" stroke-width="1.77342" stroke-linecap="round" stroke-linejoin="round"/>
<path d="M490.185 277.738L480.279 277.843" stroke="white" stroke-width="1.77342" stroke-linecap="round" stroke-linejoin="round"/>
<path d="M468.672 277.966L458.767 278.071" stroke="white" stroke-width="1.77342" stroke-linecap="round" stroke-linejoin="round"/>
<path opacity="0.2" d="M369.395 311.937L444.199 311.145C445.749 311.122 447.226 310.49 448.31 309.385C449.394 308.28 449.996 306.792 449.986 305.246C449.978 304.48 449.819 303.722 449.517 303.017C449.216 302.312 448.778 301.673 448.229 301.137C447.681 300.601 447.031 300.178 446.319 299.892C445.606 299.606 444.844 299.463 444.076 299.471L369.271 300.263C368.502 300.268 367.742 300.425 367.034 300.725C366.326 301.025 365.685 301.462 365.147 302.01C364.609 302.558 364.185 303.207 363.9 303.92C363.614 304.633 363.473 305.394 363.484 306.162C363.492 306.928 363.652 307.686 363.953 308.391C364.255 309.096 364.692 309.735 365.241 310.271C365.79 310.807 366.439 311.23 367.152 311.516C367.864 311.802 368.626 311.945 369.395 311.937Z" stroke="black" stroke-width="0.383937" stroke-miterlimit="10"/>
<path d="M513.781 296.675L504.215 296.776" stroke="white" stroke-width="0.484492" stroke-miterlimit="10"/>
<path d="M513.821 300.453L504.255 300.554" stroke="white" stroke-width="0.484492" stroke-miterlimit="10"/>
<path d="M513.861 304.254L504.295 304.355" stroke="white" stroke-width="0.484492" stroke-miterlimit="10"/>
<path opacity="0.2" d="M476.583 324.943L510.585 324.583C511.045 324.59 511.502 324.505 511.929 324.333C512.356 324.162 512.744 323.906 513.07 323.582C513.396 323.258 513.654 322.872 513.828 322.447C514.003 322.022 514.09 321.566 514.085 321.107C514.069 320.203 513.698 319.341 513.05 318.709C512.403 318.076 511.532 317.723 510.626 317.727L476.624 318.087C475.714 318.097 474.845 318.465 474.206 319.112C473.567 319.759 473.211 320.631 473.214 321.54C473.223 322.432 473.58 323.287 474.208 323.922C474.837 324.557 475.689 324.923 476.583 324.943Z" fill="black"/>
<path opacity="0.2" d="M476.795 345.009L510.797 344.649C511.705 344.64 512.572 344.271 513.207 343.623C513.842 342.976 514.194 342.103 514.184 341.197C514.175 340.289 513.806 339.422 513.157 338.784C512.509 338.147 511.635 337.791 510.725 337.795L476.723 338.155C475.809 338.164 474.936 338.536 474.297 339.187C473.658 339.839 473.304 340.718 473.314 341.63C473.318 342.08 473.412 342.525 473.59 342.939C473.768 343.353 474.026 343.728 474.35 344.042C474.673 344.357 475.056 344.604 475.476 344.77C475.895 344.936 476.344 345.017 476.795 345.009Z" fill="black"/>
<path opacity="0.2" d="M477.008 365.098L511.01 364.738C511.916 364.723 512.779 364.352 513.413 363.706C514.047 363.06 514.4 362.19 514.397 361.286C514.387 360.378 514.018 359.511 513.37 358.873C512.722 358.236 511.847 357.88 510.937 357.884L476.935 358.244C476.021 358.253 475.149 358.625 474.51 359.277C473.87 359.928 473.516 360.807 473.526 361.719C473.542 362.627 473.917 363.492 474.569 364.125C475.221 364.758 476.098 365.108 477.008 365.098Z" fill="black"/>
<path d="M302.407 308.12C299.178 308.155 296.531 305.569 296.497 302.346C296.463 299.122 299.054 296.481 302.284 296.447C305.514 296.413 308.16 298.998 308.194 302.222C308.228 305.445 305.637 308.086 302.407 308.12Z" fill="#FF005D"/>
<path d="M421.253 330.054L431.997 329.94L432.633 390.048L421.889 390.162L421.253 330.054Z" fill="url(#paint10_linear_472_21)"/>
<path d="M399.561 364.719L410.306 364.605L410.578 390.282L399.833 390.396L399.561 364.719Z" fill="url(#paint11_linear_472_21)"/>
<path d="M377.346 347.804L388.091 347.69L388.544 390.493L377.799 390.606L377.346 347.804Z" fill="url(#paint12_linear_472_21)"/>
<path d="M355.452 363.308L366.196 363.194L366.488 390.749L355.743 390.862L355.452 363.308Z" fill="url(#paint13_linear_472_21)"/>
<path opacity="0.2" d="M339.217 401.671L449.407 400.505C450.333 400.495 451.092 401.236 451.102 402.161L451.11 402.93C451.12 403.855 450.377 404.612 449.451 404.622L339.261 405.788C338.334 405.798 337.575 405.056 337.566 404.132L337.558 403.363C337.548 402.438 338.291 401.681 339.217 401.671Z" fill="black"/>
<path opacity="0.2" d="M339.357 414.905L449.547 413.738C450.473 413.729 451.232 414.47 451.242 415.395L451.25 416.164C451.26 417.089 450.517 417.846 449.591 417.856L339.401 419.022C338.474 419.032 337.715 418.29 337.706 417.366L337.698 416.597C337.688 415.672 338.431 414.914 339.357 414.905Z" fill="black"/>
<path opacity="0.2" d="M302.489 315.812L303.554 416.438" stroke="black" stroke-width="0.383937" stroke-miterlimit="10"/>
<path opacity="0.2" d="M336.719 324.093L450.263 322.891L450.972 389.854L337.427 391.056L336.719 324.093Z" stroke="black" stroke-width="0.383937" stroke-miterlimit="10"/>
<path d="M461.952 287.766L463.321 417.033" stroke="#343947" stroke-width="0.383937" stroke-miterlimit="10"/>
<path d="M510.582 287.84L304.959 290.016" stroke="#343947" stroke-width="0.383937" stroke-miterlimit="10"/>
<path style="mix-blend-mode:multiply" opacity="0.3" d="M557.558 180.981L569.453 171.805C570.019 171.373 570.448 170.788 570.69 170.12C570.932 169.451 570.977 168.728 570.819 168.035C569.868 163.885 569.822 159.58 570.685 155.411C571.976 149.302 575.157 143.75 579.777 139.541C584.398 135.331 590.227 132.675 596.44 131.948C600.923 131.437 605.463 131.95 609.717 133.446C613.972 134.942 617.831 137.384 621.002 140.586C624.173 143.788 626.574 147.667 628.024 151.931C629.474 156.194 629.934 160.731 629.37 165.198C628.555 171.585 625.685 177.535 621.192 182.156C616.7 186.777 610.826 189.819 604.454 190.824C599.478 191.608 594.384 191.113 589.653 189.386C584.922 187.658 580.711 184.755 577.417 180.952C576.997 180.493 576.469 180.147 575.881 179.944C575.293 179.741 574.663 179.687 574.049 179.788L558.092 182.22C557.946 182.225 557.802 182.186 557.679 182.108C557.556 182.03 557.459 181.916 557.401 181.782C557.343 181.649 557.327 181.5 557.355 181.357C557.383 181.214 557.454 181.083 557.558 180.981Z" fill="url(#paint14_linear_472_21)"/>
<path d="M561.343 180.941L573.239 171.765C573.8 171.329 574.226 170.744 574.468 170.077C574.71 169.41 574.757 168.688 574.605 167.995C573.645 163.846 573.6 159.539 574.471 155.371C575.762 149.262 578.942 143.71 583.563 139.501C588.184 135.291 594.012 132.635 600.226 131.908C604.708 131.396 609.247 131.908 613.501 133.405C617.755 134.901 621.612 137.343 624.782 140.546C627.952 143.749 630.35 147.628 631.797 151.892C633.244 156.156 633.701 160.692 633.133 165.158C632.318 171.545 629.448 177.495 624.955 182.116C620.463 186.737 614.589 189.779 608.217 190.785C603.241 191.564 598.148 191.067 593.418 189.34C588.688 187.613 584.476 184.712 581.18 180.912C580.761 180.452 580.233 180.105 579.645 179.901C579.056 179.698 578.426 179.645 577.812 179.748L561.969 182.179C561.815 182.206 561.657 182.182 561.518 182.113C561.379 182.043 561.265 181.93 561.195 181.792C561.125 181.653 561.102 181.495 561.128 181.342C561.155 181.189 561.23 181.048 561.343 180.941Z" fill="white"/>
<path d="M592.541 149.048C598.061 147.927 603.539 153.593 603.539 153.593C603.539 153.593 608.896 147.812 614.438 148.817C619.98 149.821 623.02 156.373 619.598 162.926C615.731 170.32 603.892 178.432 603.892 178.432C603.892 178.432 591.794 170.573 587.862 163.261C584.121 156.785 586.976 150.171 592.541 149.048Z" fill="#FF005D"/>
<path style="mix-blend-mode:multiply" opacity="0.6" d="M603.539 153.593L603.802 178.478C603.802 178.478 591.704 170.619 587.772 163.308C584.212 156.829 587.067 150.215 592.632 149.093C598.197 147.97 603.539 153.593 603.539 153.593Z" fill="url(#paint15_linear_472_21)"/>
<path d="M599.219 424.417L598.354 434.834L591.032 443.464L609.62 443.267L613.585 436.596C614.498 435.07 614.909 433.296 614.76 431.524C614.612 429.752 613.91 428.071 612.755 426.718L608.163 421.291L599.219 424.417Z" fill="url(#paint16_linear_472_21)"/>
<path d="M507.181 225.701L511.567 224.546L510.454 202.951L506.068 204.129L507.181 225.701Z" fill="#343947"/>
<path d="M478.753 225.799L515.633 203.869L512.163 190.941L469.242 190.378L478.753 225.799Z" fill="#6582DB"/>
<path d="M506.291 190.868L512.163 190.942L515.633 203.869L510.609 206.864L506.291 190.868Z" fill="#343947"/>
<path d="M471.698 208.681C469.068 198.906 467.957 190.709 469.214 190.372C470.472 190.035 473.623 197.686 476.252 207.461C478.881 217.235 479.992 225.433 478.735 225.769C477.477 226.106 474.327 218.456 471.698 208.681Z" fill="#343947"/>
<path d="M459.719 194.529L447.876 193.726" stroke="#6582DB" stroke-width="0.685602" stroke-linecap="round" stroke-linejoin="round"/>
<path d="M461.89 202.628L450.566 203.676" stroke="#6582DB" stroke-width="0.685602" stroke-linecap="round" stroke-linejoin="round"/>
<path d="M464.084 210.75L453.233 213.647" stroke="#6582DB" stroke-width="0.685602" stroke-linecap="round" stroke-linejoin="round"/>
<path d="M466.256 218.872L455.923 223.619" stroke="#6582DB" stroke-width="0.685602" stroke-linecap="round" stroke-linejoin="round"/>
<path d="M468.45 226.971L458.59 233.592" stroke="#6582DB" stroke-width="0.685602" stroke-linecap="round" stroke-linejoin="round"/>
<path d="M503.633 428.122L501.635 434.229L499.597 449.455L484.338 447.15L462.613 446.566L462.565 442.041L487.352 434.245L491.266 427.053L503.633 428.122Z" fill="white"/>
<path d="M543.883 268.414C543.883 268.414 516.133 336.855 512.457 353.614C508.78 370.373 488.708 429.547 488.708 429.547L504.462 429.38C504.462 429.38 531.51 388.798 529.307 362.757L558.956 298.097C558.956 298.097 564.838 344.009 570.252 362.89C575.666 381.77 597.32 427.13 597.32 427.13L609.349 421.98C609.349 421.98 598.842 363.13 588.832 353.371C588.832 353.371 587.14 287.776 579.654 268.035L543.883 268.414Z" fill="#1A4B59"/>
<path d="M529.33 362.757L497.798 429.451" stroke="#2E849E" stroke-width="0.457068" stroke-miterlimit="10"/>
<path d="M581.061 281.053L583.37 355.692C583.37 355.692 604.657 396.305 604.949 423.927" stroke="#2E849E" stroke-width="0.457068" stroke-miterlimit="10"/>
<path style="mix-blend-mode:multiply" opacity="0.3" d="M534.673 291.386C537.013 285.501 543.883 268.414 543.883 268.414L579.654 268.035C581.356 272.542 583.879 288.105 585.027 295.921L554.132 283.6C552.941 283.129 551.632 283.045 550.39 283.358C549.148 283.672 548.037 284.368 547.214 285.348L541.124 292.607L534.673 291.386Z" fill="url(#paint17_linear_472_21)"/>
<path style="mix-blend-mode:multiply" opacity="0.3" d="M528.83 373.351L502.019 389.178C506.583 374.853 510.943 360.576 512.457 353.614C513.235 350.076 515.1 344.219 517.52 337.18L554.597 293.256C554.821 292.983 555.117 292.778 555.451 292.664C555.786 292.551 556.146 292.534 556.49 292.615C556.834 292.697 557.148 292.873 557.396 293.124C557.644 293.376 557.816 293.692 557.893 294.036L558.865 298.098L529.216 362.758C529.508 366.292 529.378 369.848 528.83 373.351Z" fill="url(#paint18_linear_472_21)"/>
<path d="M549.875 176.899C550.244 176.249 550.48 175.531 550.57 174.789C550.659 174.047 550.601 173.294 550.397 172.575C550.193 171.855 549.849 171.183 549.383 170.597C548.918 170.011 548.34 169.524 547.684 169.162C542.805 166.567 538.436 169.26 530.993 166.511C523.551 163.761 516.662 161.911 512.883 168.965C509.104 176.019 513.482 182.76 523.028 185.034C532.574 187.309 544.365 200.352 544.365 200.352L547.861 194.433C547.861 194.433 558.352 181.018 549.875 176.899Z" fill="#343947"/>
<path d="M535.427 180.627C536.719 182.89 538.389 184.915 540.365 186.616C540.365 186.616 540.863 182.289 544.25 183.068C547.636 183.846 545.269 189.437 543.834 190.9L547.862 194.546L554.064 208.598L539.133 213.757L535.401 201.669C535.185 200.98 534.753 200.379 534.169 199.953C533.585 199.528 532.88 199.3 532.157 199.305L527.827 199.351C527.02 199.363 526.233 199.1 525.597 198.604C524.961 198.109 524.514 197.412 524.329 196.627L522.456 188.796L518.829 188.835L522.196 177.124C522.196 177.124 526.499 180.993 535.427 180.627Z" fill="#FF9C87"/>
<path d="M555.957 205.365L546.613 205.057L545.975 209.046L541.028 210.727L536.568 209.145L535.575 213.817L537.233 271.924L580.959 271.461L555.957 205.365Z" fill="white"/>
<path d="M545.975 209.046L549.614 210.139L548.469 215.49L543.324 215.545L540.692 213.242L541.028 210.727L545.975 209.046Z" fill="#FF005D"/>
<path d="M548.469 215.49L561.581 256.982L557.404 264.99L550.123 258.212L543.324 215.545L548.469 215.49Z" fill="#FF005D"/>
<path style="mix-blend-mode:multiply" opacity="0.6" d="M548.469 215.49L561.581 256.982L557.404 264.99L550.123 258.212L543.324 215.545L548.469 215.49Z" fill="url(#paint19_linear_472_21)"/>
<path d="M535.605 212.391C535.605 212.391 527.651 214.851 524.949 218.726C522.247 222.601 510.166 246.44 510.166 246.44L510.484 229.4L503.813 228.837C503.813 228.837 491.098 259.063 503.375 264.567C515.653 270.07 530.338 241.656 530.338 241.656L534.059 267.658L527.39 280.195C527.39 280.195 532.963 288.372 538.609 288.448L543.98 273.3L535.605 212.391Z" fill="#1A4B59"/>
<path d="M618.604 270.383L619.884 275.642C618.447 278.225 617.392 281.003 616.752 283.888C616.09 287.741 615.314 291.528 615.999 291.996C616.684 292.463 618.694 285.315 620.463 285.364C622.232 285.413 621.744 295.012 622.973 295.497C624.202 295.981 628.284 289.671 628.214 289.468C628.144 289.265 627.853 276.711 627.801 276.169C627.75 275.626 623.856 267.568 623.856 267.568L618.604 270.383Z" fill="#FF9C87"/>
<path d="M511.885 228.932C513.029 228.266 513.988 227.325 514.677 226.196C515.365 225.067 515.761 223.785 515.83 222.465C515.919 218.075 511.224 215.726 506.518 218.74C501.812 221.754 500.888 230.859 503.851 232.343C506.813 233.828 511.243 232.491 511.885 228.932Z" fill="#FF9C87"/>
<path style="mix-blend-mode:multiply" opacity="0.3" d="M526.737 199.181L543.834 190.9L547.862 194.546C544.81 198.602 540.727 201.77 536.035 203.721L535.401 201.691C535.185 201.003 534.753 200.401 534.169 199.976C533.585 199.55 532.88 199.323 532.157 199.327L527.827 199.373C527.456 199.369 527.087 199.304 526.737 199.181Z" fill="url(#paint20_linear_472_21)"/>
<path d="M556.216 204.163L569.039 274.053L575.798 289.344L594.376 279.622L580.825 258.747L576.774 225.168L603.713 244.975L617.861 272.993L624.797 268.621C622.373 254.681 616.59 241.538 607.944 230.325C599.299 219.113 588.051 210.166 575.17 204.257C571.956 202.758 568.364 202.26 564.862 202.828L556.216 204.163Z" fill="#1A4B59"/>
<path d="M575.268 207.016L576.624 223.813" stroke="#2E849E" stroke-width="0.457068" stroke-miterlimit="10"/>
<path d="M575.021 260.867L583.731 271.997" stroke="#2E849E" stroke-width="0.457068" stroke-miterlimit="10"/>
<path style="mix-blend-mode:multiply" opacity="0.3" d="M515.269 261.59C510.697 258.041 519.575 240.05 524.356 231.289C524.561 230.92 524.873 230.621 525.251 230.433C525.63 230.244 526.057 230.175 526.475 230.235C526.894 230.294 527.285 230.479 527.596 230.765C527.906 231.051 528.123 231.425 528.216 231.836L530.361 241.678C530.361 241.678 523.516 254.715 515.269 261.59Z" fill="url(#paint21_linear_472_21)"/>
<path d="M666.204 417.419C666.204 417.419 663.11 375.663 659.716 344.182C656.322 312.701 651.318 268.25 680.605 267.94C714.108 267.585 699.287 377.294 666.204 417.419Z" fill="url(#paint22_linear_472_21)"/>
<path d="M680.605 267.94C681.511 353.544 672.877 394.565 666.204 417.419" stroke="#343947" stroke-width="0.420503" stroke-miterlimit="10"/>
<path d="M675.041 416.986C683.926 403.13 691.07 388.237 696.313 372.642C703.616 349.328 716.927 330.363 728.255 336.103C740.79 342.374 727.124 377.022 710.737 394.526C691.322 415.094 675.041 416.986 675.041 416.986Z" fill="url(#paint23_linear_472_21)"/>
<path d="M675.041 416.986C691.491 403.237 710.784 379.683 728.254 336.035" stroke="#343947" stroke-width="0.420503" stroke-miterlimit="10"/>
<path d="M661.46 416.791C658.19 408.195 656.045 399.214 655.078 390.07C653.607 375.288 650.191 356.704 641.14 358.316C632.089 359.927 632.31 380.831 635.505 391.431C637.393 397.47 640.752 402.948 645.282 407.374C649.811 411.799 655.37 415.035 661.46 416.791Z" fill="url(#paint24_linear_472_21)"/>
<path d="M661.459 416.791C646.276 400.231 640.63 376.557 641.14 358.316" stroke="#343947" stroke-width="0.420503" stroke-miterlimit="10"/>
<path d="M657.429 449.345L682.25 449.083L691.294 416.814L647.703 417.275L657.429 449.345Z" fill="#343947"/>
<path style="mix-blend-mode:multiply" opacity="0.2" d="M317.016 259.616L425.528 258.467C427.933 258.442 430.229 257.464 431.911 255.749C433.594 254.034 434.525 251.722 434.499 249.322C434.474 246.922 433.494 244.63 431.776 242.951C430.057 241.272 427.741 240.343 425.336 240.369L316.824 241.517C314.419 241.543 312.123 242.521 310.441 244.236C308.758 245.951 307.827 248.262 307.853 250.662C307.878 253.062 308.858 255.354 310.576 257.033C312.294 258.712 314.611 259.641 317.016 259.616Z" fill="url(#paint25_linear_472_21)"/>
<path d="M320.351 238.471L428.886 237.322C433.844 237.27 437.905 241.238 437.957 246.186L437.958 246.208C438.01 251.156 434.033 255.21 429.076 255.262L320.541 256.411C315.583 256.463 311.522 252.495 311.469 247.547V247.525C311.417 242.577 315.393 238.523 320.351 238.471Z" fill="url(#paint26_linear_472_21)"/>
<path d="M320.374 238.471L331.912 238.349C336.869 238.296 340.931 242.265 340.983 247.212V247.235C341.036 252.183 337.059 256.236 332.101 256.288L320.563 256.411C315.606 256.463 311.544 252.495 311.492 247.547V247.524C311.439 242.577 315.416 238.523 320.374 238.471Z" fill="#6582DB"/>
<path d="M327.858 249.478C325.805 249.5 324.123 247.856 324.101 245.807C324.08 243.758 325.727 242.079 327.78 242.058C329.833 242.036 331.515 243.679 331.537 245.728C331.558 247.777 329.911 249.456 327.858 249.478Z" stroke="white" stroke-width="0.438785" stroke-linecap="round" stroke-linejoin="round"/>
<path d="M320.978 252.741L325.217 248.42" stroke="white" stroke-width="0.438785" stroke-linecap="round" stroke-linejoin="round"/>
<path d="M185.684 415.944L246.706 415.298L267.498 364.148L163.837 365.245L185.684 415.944Z" fill="#6582DB"/>
<path style="mix-blend-mode:multiply" opacity="0.2" d="M163.837 365.245L267.43 364.149L257.2 389.326C232.785 387.322 186.294 381.479 169.858 379.39L163.837 365.245Z" fill="url(#paint27_linear_472_21)"/>
<path d="M187.939 436.26L256.623 435.533C264.081 435.454 270.168 430.095 270.099 423.58C270.035 417.54 264.769 412.618 258.052 411.965L284.146 347.75C285.26 344.995 287.168 342.631 289.628 340.958C292.088 339.285 294.99 338.377 297.966 338.35L336.072 337.946C336.943 337.937 337.776 337.583 338.386 336.961C338.995 336.339 339.333 335.501 339.324 334.631C339.322 334.199 339.235 333.77 339.067 333.372C338.899 332.973 338.653 332.611 338.344 332.307C338.036 332.003 337.67 331.764 337.268 331.602C336.866 331.44 336.435 331.359 336.002 331.363L297.897 331.766C293.616 331.806 289.444 333.111 285.906 335.516C282.368 337.921 279.625 341.319 278.022 345.28L250.071 414.063C249.864 414.566 249.786 415.112 249.843 415.652C249.901 416.193 250.091 416.711 250.399 417.159C250.709 417.601 251.122 417.961 251.602 418.209C252.083 418.456 252.616 418.583 253.157 418.578L256.444 418.543C260.207 418.503 263.428 420.868 263.458 423.718C263.488 426.569 260.317 428.978 256.554 429.018L187.87 429.745C187.436 429.746 187.008 429.833 186.608 430.001C186.208 430.169 185.846 430.414 185.541 430.722C185.237 431.03 184.997 431.395 184.834 431.797C184.672 432.198 184.591 432.627 184.595 433.06C184.622 433.924 184.987 434.743 185.613 435.341C186.238 435.939 187.073 436.269 187.939 436.26Z" fill="white"/>
<path d="M256.52 453.588C252.426 453.632 249.072 450.355 249.029 446.269C248.986 442.184 252.27 438.837 256.363 438.793C260.457 438.75 263.811 442.027 263.854 446.112C263.897 450.198 260.614 453.545 256.52 453.588Z" fill="#343947"/>
<path d="M189.921 454.293C185.827 454.337 182.473 451.06 182.43 446.974C182.387 442.889 185.67 439.541 189.764 439.498C193.858 439.455 197.212 442.732 197.255 446.817C197.298 450.903 194.015 454.25 189.921 454.293Z" fill="#343947"/>
<path d="M263.101 374.964L168.439 375.966L163.837 365.245L267.498 364.148L263.101 374.964Z" fill="white"/>
<path style="mix-blend-mode:multiply" opacity="0.2" d="M297.897 331.766L336.002 331.363C336.435 331.359 336.866 331.44 337.268 331.602C337.67 331.764 338.036 332.003 338.344 332.307C338.653 332.611 338.899 332.973 339.067 333.372C339.235 333.77 339.322 334.199 339.324 334.631C339.333 335.501 338.995 336.339 338.386 336.961C337.776 337.583 336.943 337.937 336.072 337.946L297.966 338.35C295.69 338.377 293.448 338.917 291.41 339.93C289.371 340.943 287.589 342.402 286.194 344.198L283.448 337.44C287.394 333.829 292.543 331.807 297.897 331.766Z" fill="url(#paint28_linear_472_21)"/>
<path style="mix-blend-mode:multiply" opacity="0.2" d="M213.394 333.045C193.664 333.254 177.5 317.461 177.292 297.77C177.083 278.079 192.909 261.947 212.639 261.739C232.37 261.53 248.533 277.323 248.742 297.014C248.95 316.705 233.124 332.837 213.394 333.045Z" fill="url(#paint29_linear_472_21)"/>
<path d="M182.613 302.753C178.093 283.585 189.998 264.388 209.204 259.876C228.411 255.363 247.646 267.243 252.167 286.411C256.687 305.579 244.782 324.776 225.576 329.289C206.369 333.801 187.134 321.921 182.613 302.753Z" fill="white"/>
<path d="M193.248 288.868C193.394 288.102 193.805 287.412 194.409 286.917C195.013 286.423 195.771 286.156 196.552 286.163L208.906 286.032L208.153 281.244C207.782 279.046 208.025 276.789 208.855 274.72C209.218 273.676 209.831 272.736 210.641 271.983C211.451 271.229 212.433 270.684 213.502 270.395C213.678 270.36 213.86 270.364 214.035 270.407C214.209 270.45 214.372 270.531 214.512 270.644C214.652 270.757 214.765 270.899 214.843 271.061C214.921 271.222 214.963 271.399 214.965 271.579L215.01 275.832C215.027 277.218 215.324 278.586 215.883 279.855C216.441 281.125 217.251 282.268 218.262 283.218C220.489 285.298 222.482 287.614 224.207 290.124L229.217 290.071L229.424 309.662C225.268 310.795 220.988 311.418 216.68 311.517L202.83 311.663C202.049 311.687 201.285 311.436 200.671 310.954C200.057 310.473 199.631 309.792 199.469 309.029C199.389 308.57 199.409 308.1 199.529 307.65C199.649 307.2 199.866 306.781 200.164 306.423C200.462 306.064 200.835 305.775 201.256 305.575C201.677 305.375 202.137 305.268 202.604 305.263L200.337 305.287C199.558 305.316 198.794 305.07 198.18 304.592C197.565 304.114 197.139 303.435 196.976 302.675C196.893 302.217 196.91 301.745 197.027 301.294C197.144 300.843 197.358 300.423 197.654 300.062C197.95 299.702 198.321 299.41 198.741 299.207C199.161 299.004 199.621 298.894 200.088 298.886L198.297 298.905C197.522 298.929 196.764 298.68 196.154 298.203C195.544 297.726 195.121 297.05 194.959 296.293C194.875 295.836 194.892 295.366 195.009 294.916C195.126 294.466 195.341 294.047 195.637 293.688C195.933 293.329 196.305 293.039 196.725 292.839C197.145 292.638 197.605 292.532 198.071 292.527L196.484 292.544C196.018 292.551 195.555 292.458 195.129 292.269C194.703 292.08 194.323 291.802 194.015 291.452C193.707 291.102 193.479 290.69 193.347 290.244C193.215 289.798 193.181 289.328 193.248 288.868Z" fill="#FF9A87"/>
<path d="M198.885 292.36L206.343 292.281" stroke="#D17E6F" stroke-width="0.420503" stroke-miterlimit="10"/>
<path d="M200.835 298.856L206.412 298.797" stroke="#D17E6F" stroke-width="0.420503" stroke-miterlimit="10"/>
<path d="M202.604 305.285L206.48 305.29" stroke="#D17E6F" stroke-width="0.420503" stroke-miterlimit="10"/>
<path d="M229.216 287.899L241.434 287.77L241.691 312.044L229.473 312.173L229.216 287.899Z" fill="#3358CC"/>
<path style="mix-blend-mode:multiply" opacity="0.2" d="M224.842 290.117L229.217 290.071L229.424 309.662C227.989 310.074 226.532 310.407 225.059 310.659L224.842 290.117Z" fill="url(#paint30_linear_472_21)"/>
<path d="M214.641 339.435C214.651 340.377 215.035 341.277 215.71 341.936C216.384 342.595 217.293 342.959 218.237 342.949C218.711 342.956 219.182 342.868 219.621 342.69C220.06 342.512 220.459 342.248 220.794 341.913C221.129 341.578 221.393 341.179 221.57 340.741C221.747 340.302 221.835 339.832 221.826 339.359C221.816 338.423 221.434 337.529 220.764 336.875C220.094 336.22 219.191 335.857 218.253 335.867C217.78 335.86 217.31 335.947 216.871 336.124C216.432 336.3 216.032 336.562 215.696 336.894C215.36 337.227 215.093 337.622 214.912 338.059C214.731 338.495 214.638 338.963 214.641 339.435Z" fill="white"/>
<path d="M214.775 352.104C214.791 353.042 215.178 353.936 215.851 354.59C216.525 355.244 217.431 355.605 218.371 355.595C218.843 355.603 219.312 355.515 219.749 355.339C220.187 355.162 220.585 354.9 220.92 354.567C221.254 354.235 221.519 353.839 221.697 353.403C221.876 352.967 221.966 352.499 221.96 352.028C221.968 351.549 221.878 351.074 221.695 350.631C221.512 350.188 221.241 349.787 220.899 349.452C220.556 349.117 220.148 348.855 219.7 348.682C219.253 348.509 218.775 348.429 218.295 348.447C217.822 348.452 217.355 348.551 216.92 348.738C216.486 348.925 216.093 349.197 215.766 349.538C215.438 349.878 215.181 350.281 215.011 350.721C214.841 351.162 214.761 351.632 214.775 352.104Z" fill="white"/>
<path style="mix-blend-mode:multiply" opacity="0.2" d="M326.167 209.653L393.741 208.938L402.873 163.545L335.276 164.26L326.167 209.653Z" fill="url(#paint31_linear_472_21)"/>
<path d="M329.892 206.039L397.489 205.323L406.621 159.953L339.024 160.669L329.892 206.039Z" fill="#D18100"/>
<path d="M355.708 188.321L329.892 206.038" stroke="#FFCA44" stroke-width="0.411361" stroke-miterlimit="10"/>
<path d="M397.489 205.323L379.38 188.704" stroke="#FFCA44" stroke-width="0.411361" stroke-miterlimit="10"/>
<path d="M355.09 183.441L337.668 167.425" stroke="#FFCA44" stroke-width="0.411361" stroke-miterlimit="10"/>
<path d="M405.241 166.71L380.686 183.577" stroke="#FFCA44" stroke-width="0.411361" stroke-miterlimit="10"/>
<path d="M361.945 173.617C361.233 174.176 360.592 174.821 360.039 175.537C359.517 176.205 359.061 176.922 358.678 177.678C358.309 178.407 358.006 179.168 357.773 179.951C357.532 180.745 357.336 181.539 357.164 182.355L356.97 183.33C356.905 183.644 356.863 183.962 356.844 184.282C356.717 184.839 356.709 185.416 356.821 185.976C356.932 186.536 357.16 187.067 357.49 187.533C357.859 187.958 358.324 188.29 358.847 188.501C359.369 188.711 359.934 188.795 360.496 188.746C361.156 188.73 361.811 188.624 362.442 188.431C363.11 188.201 363.729 187.849 364.268 187.393L364.404 187.392C364.44 187.378 364.48 187.377 364.517 187.391C364.646 187.682 364.832 187.945 365.064 188.164C365.296 188.383 365.569 188.554 365.868 188.666C366.537 188.871 367.235 188.963 367.934 188.938C368.72 188.936 369.495 188.75 370.195 188.394C370.859 188.046 371.453 187.58 371.949 187.018C372.449 186.426 372.861 185.767 373.175 185.059C373.483 184.329 373.71 183.568 373.854 182.789C374.017 182.046 374.085 181.285 374.057 180.525C374.065 179.858 373.934 179.197 373.673 178.583C373.42 178.026 373.015 177.552 372.503 177.215C371.883 176.833 371.161 176.651 370.434 176.694C369.91 176.693 369.389 176.783 368.895 176.959C368.398 177.156 367.935 177.428 367.521 177.766C367.504 177.776 367.484 177.781 367.464 177.782C367.444 177.782 367.425 177.777 367.408 177.767C367.447 177.686 367.467 177.596 367.466 177.506C367.465 177.416 367.443 177.327 367.402 177.247C367.344 177.178 367.27 177.124 367.187 177.09C367.104 177.055 367.014 177.041 366.924 177.048L365.337 177.065C365.121 177.055 364.91 177.13 364.75 177.275C364.592 177.412 364.483 177.595 364.438 177.798L363.008 184.013C362.919 184.499 362.705 184.953 362.387 185.332C362.23 185.527 362.031 185.683 361.804 185.787C361.577 185.892 361.328 185.942 361.078 185.934C360.864 185.968 360.644 185.93 360.454 185.825C360.264 185.721 360.115 185.556 360.029 185.357C359.886 184.932 359.881 184.473 360.015 184.045L360.661 180.78C360.955 179.591 361.449 178.462 362.122 177.438C362.678 176.609 363.405 175.907 364.254 175.38C365.114 174.882 366.054 174.535 367.031 174.355C368.138 174.154 369.259 174.052 370.383 174.048C372.209 173.886 374.024 174.453 375.433 175.623C376.031 176.294 376.47 177.09 376.719 177.953C376.967 178.816 377.019 179.723 376.869 180.608C376.784 181.415 376.656 182.217 376.486 183.011C376.27 184.008 376.097 184.825 375.899 185.415C375.355 187.475 374.099 189.277 372.354 190.504C370.608 191.731 368.485 192.304 366.358 192.123C365.333 192.137 364.308 192.065 363.295 191.906C362.345 191.73 361.467 191.284 360.765 190.621L360.4 190.353C360.257 190.262 360.091 190.217 359.922 190.222L357.655 190.246C357.441 190.247 357.234 190.321 357.068 190.456C356.905 190.598 356.795 190.79 356.756 191.002C356.71 191.15 356.711 191.308 356.761 191.455C357.209 192.119 357.767 192.703 358.412 193.18C359.068 193.644 359.78 194.025 360.532 194.311C361.317 194.606 362.133 194.81 362.964 194.919C363.837 195.027 364.716 195.078 365.596 195.072C367.124 195.075 368.647 194.876 370.124 194.481C371.477 194.102 372.763 193.516 373.937 192.744C375.099 191.936 376.109 190.93 376.92 189.771C377.815 188.484 378.482 187.054 378.893 185.542C379.144 184.7 379.347 183.844 379.501 182.979C379.63 182.321 379.737 181.686 379.821 181.052C379.911 180.46 379.958 179.862 379.96 179.263C379.999 178.675 379.993 178.085 379.942 177.499C379.838 176.897 379.672 176.307 379.447 175.739C379.138 174.95 378.685 174.226 378.109 173.604C377.552 173.001 376.885 172.509 376.144 172.154C375.383 171.772 374.571 171.498 373.733 171.342C372.835 171.17 371.923 171.089 371.01 171.1C367.788 170.871 364.586 171.76 361.945 173.617ZM366.354 185.335C366.104 184.603 366.096 183.81 366.33 183.073C366.418 182.681 366.528 182.295 366.658 181.915C366.78 181.555 366.96 181.217 367.191 180.914C367.422 180.619 367.713 180.377 368.045 180.204C368.414 180.008 368.827 179.91 369.244 179.92C370.763 179.904 371.295 180.939 370.886 183.025C370.801 183.402 370.691 183.773 370.558 184.137C370.429 184.503 370.233 184.843 369.979 185.138C369.759 185.44 369.476 185.69 369.148 185.871C368.796 186.066 368.398 186.164 367.995 186.155C367.671 186.195 367.342 186.139 367.05 185.993C366.758 185.847 366.516 185.618 366.354 185.335Z" fill="#FFE4A1"/>
<path d="M427.852 167.444L414.115 167.589" stroke="white" stroke-width="0.914136" stroke-linecap="round" stroke-linejoin="round"/>
<path d="M425.849 177.42L412.112 177.565" stroke="white" stroke-width="0.914136" stroke-linecap="round" stroke-linejoin="round"/>
<path d="M423.846 187.374L410.109 187.519" stroke="white" stroke-width="0.914136" stroke-linecap="round" stroke-linejoin="round"/>
<path d="M421.843 197.35L408.106 197.495" stroke="white" stroke-width="0.914136" stroke-linecap="round" stroke-linejoin="round"/>
<path style="mix-blend-mode:multiply" opacity="0.2" d="M211.615 233.513L274.882 232.843L283.991 187.451L220.747 188.12L211.615 233.513Z" fill="url(#paint32_linear_472_21)"/>
<path d="M215.069 229.947L278.336 229.277L287.445 183.885L224.201 184.554L215.069 229.947Z" fill="#FF005D"/>
<path d="M308.699 191.398L294.962 191.543" stroke="white" stroke-width="0.914136" stroke-linecap="round" stroke-linejoin="round"/>
<path d="M306.696 201.352L292.959 201.497" stroke="white" stroke-width="0.914136" stroke-linecap="round" stroke-linejoin="round"/>
<path d="M304.693 211.328L290.956 211.473" stroke="white" stroke-width="0.914136" stroke-linecap="round" stroke-linejoin="round"/>
<path d="M302.69 221.304L288.954 221.45" stroke="white" stroke-width="0.914136" stroke-linecap="round" stroke-linejoin="round"/>
<path d="M260.608 199.396L257.637 214.269C257.554 214.724 257.37 215.153 257.099 215.528C256.827 215.902 256.476 216.211 256.07 216.432C255.664 216.653 255.213 216.781 254.751 216.806C254.289 216.831 253.827 216.753 253.4 216.577L241.33 209.283C239.755 208.327 240.272 205.788 242.234 204.749L257.298 197.191C259.169 196.244 261.019 197.468 260.608 199.396Z" fill="white"/>
<path d="M760.841 448.251L80.2524 455.454" stroke="#343947" stroke-width="0.420503" stroke-miterlimit="10"/>
<rect x="0.5" y="0.5" width="849" height="494" stroke="black"/>
<defs>
<linearGradient id="paint0_linear_472_21" x1="154.216" y1="52.514" x2="370.801" y2="319.962" gradientUnits="userSpaceOnUse">
<stop stop-color="#FF8CB6"/>
<stop offset="1" stop-color="#FFCA44"/>
</linearGradient>
<linearGradient id="paint1_linear_472_21" x1="432.706" y1="41.301" x2="437.691" y2="512.375" gradientUnits="userSpaceOnUse">
<stop stop-color="#FF8CB6"/>
<stop offset="1" stop-color="#FFCA44"/>
</linearGradient>
<linearGradient id="paint2_linear_472_21" x1="301.77" y1="408.606" x2="272.336" y2="224.121" gradientUnits="userSpaceOnUse">
<stop stop-color="#5EC778"/>
<stop offset="1" stop-color="#FFCA44"/>
</linearGradient>
<linearGradient id="paint3_linear_472_21" x1="279.497" y1="409.679" x2="202.566" y2="296.865" gradientUnits="userSpaceOnUse">
<stop stop-color="#5EC778"/>
<stop offset="1" stop-color="#FFCA44"/>
</linearGradient>
<linearGradient id="paint4_linear_472_21" x1="315.345" y1="414.503" x2="335.553" y2="332.818" gradientUnits="userSpaceOnUse">
<stop stop-color="#5EC778"/>
<stop offset="1" stop-color="#FFCA44"/>
</linearGradient>
<linearGradient id="paint5_linear_472_21" x1="579.529" y1="136.267" x2="582.426" y2="410.025" gradientUnits="userSpaceOnUse">
<stop offset="0.38" stop-color="#6D6960"/>
<stop offset="1" stop-color="#343947"/>
</linearGradient>
<linearGradient id="paint6_linear_472_21" x1="565.707" y1="79.104" x2="567.592" y2="257.235" gradientUnits="userSpaceOnUse">
<stop offset="0.38" stop-color="#6D6960"/>
<stop offset="1" stop-color="#343947"/>
</linearGradient>
<linearGradient id="paint7_linear_472_21" x1="712.034" y1="296.477" x2="427.775" y2="299.486" gradientUnits="userSpaceOnUse">
<stop stop-color="white"/>
<stop offset="0.05" stop-color="#FFFAEE"/>
<stop offset="0.19" stop-color="#FFEEC4"/>
<stop offset="0.3" stop-color="#FFE7AB"/>
<stop offset="0.37" stop-color="#FFE4A1"/>
<stop offset="1" stop-color="#277085"/>
</linearGradient>
<linearGradient id="paint8_linear_472_21" x1="561.432" y1="283.523" x2="557.477" y2="477.396" gradientUnits="userSpaceOnUse">
<stop stop-color="white"/>
<stop offset="0.05" stop-color="#FFFAEE"/>
<stop offset="0.19" stop-color="#FFEEC4"/>
<stop offset="0.3" stop-color="#FFE7AB"/>
<stop offset="0.37" stop-color="#FFE4A1"/>
<stop offset="1" stop-color="#277085"/>
</linearGradient>
<linearGradient id="paint9_linear_472_21" x1="406.95" y1="321.743" x2="406.249" y2="255.526" gradientUnits="userSpaceOnUse">
<stop stop-color="white"/>
<stop offset="0.14" stop-color="#F8FBFF"/>
<stop offset="0.35" stop-color="#E4F0FD"/>
<stop offset="0.61" stop-color="#C4DDFB"/>
<stop offset="0.89" stop-color="#97C4F8"/>
<stop offset="1" stop-color="#83B9F7"/>
</linearGradient>
<linearGradient id="paint10_linear_472_21" x1="427.264" y1="388.273" x2="426.691" y2="334.091" gradientUnits="userSpaceOnUse">
<stop stop-color="#FF8CB6"/>
<stop offset="1" stop-color="#FFCA44"/>
</linearGradient>
<linearGradient id="paint11_linear_472_21" x1="405.208" y1="388.506" x2="404.635" y2="334.325" gradientUnits="userSpaceOnUse">
<stop stop-color="#FF8CB6"/>
<stop offset="1" stop-color="#FFCA44"/>
</linearGradient>
<linearGradient id="paint12_linear_472_21" x1="383.152" y1="388.74" x2="382.579" y2="334.558" gradientUnits="userSpaceOnUse">
<stop stop-color="#FF8CB6"/>
<stop offset="1" stop-color="#FFCA44"/>
</linearGradient>
<linearGradient id="paint13_linear_472_21" x1="361.096" y1="388.973" x2="360.523" y2="334.792" gradientUnits="userSpaceOnUse">
<stop stop-color="#FF8CB6"/>
<stop offset="1" stop-color="#FFCA44"/>
</linearGradient>
<linearGradient id="paint14_linear_472_21" x1="629.599" y1="161.145" x2="557.061" y2="161.913" gradientUnits="userSpaceOnUse">
<stop stop-color="white"/>
<stop offset="0.12" stop-color="#DADADA"/>
<stop offset="0.45" stop-color="#7E7E7E"/>
<stop offset="0.71" stop-color="#3A3A3A"/>
<stop offset="0.9" stop-color="#101010"/>
<stop offset="1"/>
</linearGradient>
<linearGradient id="paint15_linear_472_21" x1="578.755" y1="163.878" x2="612.327" y2="163.523" gradientUnits="userSpaceOnUse">
<stop stop-color="white"/>
<stop offset="0.12" stop-color="#DADADA"/>
<stop offset="0.45" stop-color="#7E7E7E"/>
<stop offset="0.71" stop-color="#3A3A3A"/>
<stop offset="0.9" stop-color="#101010"/>
<stop offset="1"/>
</linearGradient>
<linearGradient id="paint16_linear_472_21" x1="602.809" y1="427.321" x2="603.066" y2="451.663" gradientUnits="userSpaceOnUse">
<stop stop-color="white"/>
<stop offset="1" stop-color="#343947"/>
</linearGradient>
<linearGradient id="paint17_linear_472_21" x1="561.452" y1="317.551" x2="557.427" y2="257.342" gradientUnits="userSpaceOnUse">
<stop stop-color="white"/>
<stop offset="0.12" stop-color="#DADADA"/>
<stop offset="0.45" stop-color="#7E7E7E"/>
<stop offset="0.71" stop-color="#3A3A3A"/>
<stop offset="0.9" stop-color="#101010"/>
<stop offset="1"/>
</linearGradient>
<linearGradient id="paint18_linear_472_21" x1="519.4" y1="360.622" x2="560.366" y2="302.438" gradientUnits="userSpaceOnUse">
<stop stop-color="white"/>
<stop offset="0.12" stop-color="#DADADA"/>
<stop offset="0.45" stop-color="#7E7E7E"/>
<stop offset="0.71" stop-color="#3A3A3A"/>
<stop offset="0.9" stop-color="#101010"/>
<stop offset="1"/>
</linearGradient>
<linearGradient id="paint19_linear_472_21" x1="551.574" y1="236.793" x2="547.407" y2="216.471" gradientUnits="userSpaceOnUse">
<stop stop-color="white"/>
<stop offset="0.12" stop-color="#DADADA"/>
<stop offset="0.45" stop-color="#7E7E7E"/>
<stop offset="0.71" stop-color="#3A3A3A"/>
<stop offset="0.9" stop-color="#101010"/>
<stop offset="1"/>
</linearGradient>
<linearGradient id="paint20_linear_472_21" x1="538.057" y1="182.749" x2="536.891" y2="204.821" gradientUnits="userSpaceOnUse">
<stop stop-color="white"/>
<stop offset="0.12" stop-color="#DADADA"/>
<stop offset="0.45" stop-color="#7E7E7E"/>
<stop offset="0.71" stop-color="#3A3A3A"/>
<stop offset="0.9" stop-color="#101010"/>
<stop offset="1"/>
</linearGradient>
<linearGradient id="paint21_linear_472_21" x1="515.666" y1="258.418" x2="531.596" y2="228.244" gradientUnits="userSpaceOnUse">
<stop stop-color="white"/>
<stop offset="0.12" stop-color="#DADADA"/>
<stop offset="0.45" stop-color="#7E7E7E"/>
<stop offset="0.71" stop-color="#3A3A3A"/>
<stop offset="0.9" stop-color="#101010"/>
<stop offset="1"/>
</linearGradient>
<linearGradient id="paint22_linear_472_21" x1="665.186" y1="404.76" x2="690.687" y2="219.693" gradientUnits="userSpaceOnUse">
<stop stop-color="#5EC778"/>
<stop offset="1" stop-color="#FFCA44"/>
</linearGradient>
<linearGradient id="paint23_linear_472_21" x1="687.455" y1="405.361" x2="761.98" y2="290.921" gradientUnits="userSpaceOnUse">
<stop stop-color="#5EC778"/>
<stop offset="1" stop-color="#FFCA44"/>
</linearGradient>
<linearGradient id="paint24_linear_472_21" x1="651.74" y1="410.943" x2="629.785" y2="329.704" gradientUnits="userSpaceOnUse">
<stop stop-color="#5EC778"/>
<stop offset="1" stop-color="#FFCA44"/>
</linearGradient>
<linearGradient id="paint25_linear_472_21" x1="410.54" y1="249.666" x2="284.052" y2="251.005" gradientUnits="userSpaceOnUse">
<stop stop-color="white"/>
<stop offset="0.12" stop-color="#DADADA"/>
<stop offset="0.45" stop-color="#7E7E7E"/>
<stop offset="0.71" stop-color="#3A3A3A"/>
<stop offset="0.9" stop-color="#101010"/>
<stop offset="1"/>
</linearGradient>
<linearGradient id="paint26_linear_472_21" x1="414.088" y1="246.461" x2="287.6" y2="247.8" gradientUnits="userSpaceOnUse">
<stop offset="0.3" stop-color="white"/>
<stop offset="0.63" stop-color="#BDDAFB"/>
<stop offset="0.88" stop-color="#93C2F8"/>
<stop offset="1" stop-color="#83B9F7"/>
</linearGradient>
<linearGradient id="paint27_linear_472_21" x1="215.568" y1="356.304" x2="216.023" y2="399.31" gradientUnits="userSpaceOnUse">
<stop stop-color="white"/>
<stop offset="0.12" stop-color="#DADADA"/>
<stop offset="0.45" stop-color="#7E7E7E"/>
<stop offset="0.71" stop-color="#3A3A3A"/>
<stop offset="0.9" stop-color="#101010"/>
<stop offset="1"/>
</linearGradient>
<linearGradient id="paint28_linear_472_21" x1="239.795" y1="338.468" x2="320.539" y2="337.613" gradientUnits="userSpaceOnUse">
<stop stop-color="white"/>
<stop offset="0.12" stop-color="#DADADA"/>
<stop offset="0.45" stop-color="#7E7E7E"/>
<stop offset="0.71" stop-color="#3A3A3A"/>
<stop offset="0.9" stop-color="#101010"/>
<stop offset="1"/>
</linearGradient>
<linearGradient id="paint29_linear_472_21" x1="248.719" y1="297.014" x2="177.292" y2="297.77" gradientUnits="userSpaceOnUse">
<stop stop-color="white"/>
<stop offset="0.12" stop-color="#DADADA"/>
<stop offset="0.45" stop-color="#7E7E7E"/>
<stop offset="0.71" stop-color="#3A3A3A"/>
<stop offset="0.9" stop-color="#101010"/>
<stop offset="1"/>
</linearGradient>
<linearGradient id="paint30_linear_472_21" x1="214.705" y1="300.496" x2="230.006" y2="300.334" gradientUnits="userSpaceOnUse">
<stop stop-color="white"/>
<stop offset="0.12" stop-color="#DADADA"/>
<stop offset="0.45" stop-color="#7E7E7E"/>
<stop offset="0.71" stop-color="#3A3A3A"/>
<stop offset="0.9" stop-color="#101010"/>
<stop offset="1"/>
</linearGradient>
<linearGradient id="paint31_linear_472_21" x1="403.112" y1="186.19" x2="325.928" y2="187.007" gradientUnits="userSpaceOnUse">
<stop stop-color="white"/>
<stop offset="0.12" stop-color="#DADADA"/>
<stop offset="0.45" stop-color="#7E7E7E"/>
<stop offset="0.71" stop-color="#3A3A3A"/>
<stop offset="0.9" stop-color="#101010"/>
<stop offset="1"/>
</linearGradient>
<linearGradient id="paint32_linear_472_21" x1="284.231" y1="210.096" x2="211.376" y2="210.867" gradientUnits="userSpaceOnUse">
<stop stop-color="white"/>
<stop offset="0.12" stop-color="#DADADA"/>
<stop offset="0.45" stop-color="#7E7E7E"/>
<stop offset="0.71" stop-color="#3A3A3A"/>
<stop offset="0.9" stop-color="#101010"/>
<stop offset="1"/>
</linearGradient>
</defs>
</svg>
