<svg width="18" height="18" viewBox="0 0 18 18" fill="none" xmlns="http://www.w3.org/2000/svg">
<circle cx="8.73193" cy="8.96387" r="8.5" fill="#EF7024"/>
<g clip-path="url(#clip0_264_307)">
<path d="M8.91688 4.72729C6.78487 4.72729 5.05048 6.43578 4.99868 8.56252V8.66085H3.86096L5.5848 10.5286L7.26067 8.66085H5.97907V8.56252C6.03039 6.97826 7.3259 5.71104 8.91688 5.71104C10.541 5.71104 11.8576 7.03198 11.8576 8.66085C11.8576 10.2897 10.541 11.6107 8.91688 11.6107C8.29069 11.611 7.68091 11.4105 7.17721 11.0384L6.50284 11.7598C7.19113 12.3008 8.04144 12.5944 8.91688 12.5934C11.0825 12.5934 12.8375 10.8331 12.8375 8.66085C12.8375 6.48854 11.0825 4.72729 8.91688 4.72729ZM8.43724 6.26263V8.66085C8.43778 8.78794 8.48826 8.90973 8.57777 8.99995L10.1126 10.5348C10.2484 10.447 10.3764 10.3482 10.4901 10.2336L9.39652 9.14049V6.26263H8.43724Z" fill="white"/>
</g>
<defs>
<clipPath id="clip0_264_307">
<rect width="9.59286" height="9.59286" fill="white" transform="translate(3.63818 3.86377)"/>
</clipPath>
</defs>
</svg>
