<svg width="325" height="258" viewBox="0 0 325 258" fill="none" xmlns="http://www.w3.org/2000/svg">
<g clip-path="url(#clip0_65_648)" filter="url(#filter0_d_65_648)">
<g filter="url(#filter1_d_65_648)">
<rect x="4" y="8" width="313" height="242" rx="41.343" fill="#FFF4F5"/>
</g>
<path d="M54.5808 62.6048C55.2725 60.0186 56.5655 57.6323 58.3545 55.6404C60.1434 53.6485 62.3776 52.1073 64.8751 51.1424C67.3727 50.1774 70.0629 49.8161 72.7265 50.0877C75.3902 50.3593 77.952 51.2563 80.2033 52.7055C82.4546 54.1547 84.3317 56.1152 85.6816 58.4271C87.0315 60.7391 87.816 63.3372 87.9714 66.0099C88.1267 68.6825 87.6484 71.354 86.5754 73.8067C85.5024 76.2595 83.8651 78.4242 81.7969 80.1243V80.1243C79.0171 82.4135 75.5818 83.7605 71.9867 83.9709C68.3915 84.1814 64.8225 83.2445 61.7945 81.2954C58.7665 79.3462 56.4361 76.4855 55.1395 73.1262C53.843 69.7669 53.6473 66.0825 54.5808 62.6048V62.6048ZM86.3154 71.0885C87.2872 67.4373 86.9225 63.5591 85.287 60.1531C83.6515 56.7471 80.8528 54.0374 77.3955 52.5124C73.9382 50.9875 70.0498 50.7476 66.4313 51.8361C62.8127 52.9247 59.7022 55.27 57.6604 58.4492C55.6186 61.6284 54.7799 65.4322 55.2955 69.1751C55.8111 72.918 57.6471 76.3537 60.4725 78.8626C63.2978 81.3715 66.9267 82.7885 70.7048 82.8584C74.4829 82.9283 78.1617 81.6463 81.0779 79.2436C83.6417 77.1362 85.4788 74.277 86.3297 71.0694L86.3154 71.0885Z" fill="#63367D"/>
<path d="M54.5792 61.5997C55.2719 59.0138 56.5657 56.6282 58.3551 54.6369C60.1446 52.6457 62.3792 51.1052 64.8768 50.141C67.3745 49.1767 70.0647 48.8159 72.7282 49.088C75.3917 49.3601 77.9533 50.2574 80.2043 51.7068C82.4554 53.1562 84.3322 55.1167 85.6819 57.4287C87.0316 59.7406 87.816 62.3387 87.9714 65.0111C88.1267 67.6836 87.6485 70.355 86.5757 72.8077C85.5029 75.2604 83.8659 77.425 81.7979 79.1253V79.1253C79.0181 81.4139 75.5831 82.7605 71.9884 82.9709C68.3936 83.1814 64.8249 82.2448 61.797 80.2962C58.7691 78.3476 56.4384 75.4878 55.1412 72.1292C53.8439 68.7706 53.6471 65.0868 54.5792 61.6092V61.5997ZM86.3169 70.0792C87.2874 66.43 86.9223 62.5542 85.2872 59.1505C83.6521 55.7467 80.8547 53.039 77.3993 51.5153C73.9438 49.9915 70.0576 49.7521 66.4412 50.8402C62.8248 51.9282 59.7161 54.2722 57.6755 57.4495C55.6349 60.6268 54.7966 64.4285 55.3117 68.1692C55.8269 71.9099 57.6616 75.3436 60.4851 77.8512C63.3086 80.3589 66.9352 81.7756 70.7111 81.846C74.487 81.9164 78.1639 80.6357 81.0789 78.2349C83.6343 76.1304 85.4661 73.2783 86.3169 70.0792V70.0792Z" fill="#63367D"/>
<path d="M41.805 92.3236L41.5466 92.038C41.0025 91.4254 40.8348 90.6562 41.1794 90.3522L56.6985 76.0275C56.7755 75.9584 56.9388 76.0275 57.0612 76.1472L58.8747 78.1601C58.9971 78.2937 59.0379 78.4641 58.9608 78.5332L43.4372 92.8625C43.0745 93.1757 42.3536 92.9362 41.805 92.3236Z" fill="#63367D"/>
<path d="M65 50.9978C65.1287 50.886 65.2668 50.7877 65.4124 50.7042C65.5467 50.6181 65.7181 50.5118 65.922 50.4056C66.1259 50.2993 66.3483 50.1676 66.617 50.0563C67.2299 49.7778 67.862 49.5527 68.5073 49.3831C69.3069 49.1829 70.1207 49.0576 70.9398 49.0085C71.7543 48.9789 72.5697 49.0264 73.3768 49.1503C74.0351 49.2633 74.6842 49.4325 75.3181 49.6564C75.5869 49.7425 75.8232 49.8538 76.0363 49.9399C76.2173 50.0113 76.3938 50.0958 76.5645 50.1929C76.7166 50.2603 76.8624 50.3433 77 50.441C77 50.4815 76.356 50.1423 75.2764 49.8032C74.6462 49.6041 74.0036 49.4552 73.3537 49.3578C72.5565 49.2461 71.7523 49.2055 70.949 49.2363C70.1462 49.2806 69.3481 49.3975 68.5629 49.5856C67.9224 49.7408 67.2936 49.9489 66.6819 50.2081C65.6208 50.6384 65.0185 51.0332 65 50.9978Z" fill="#63367D"/>
<path d="M80 52C79.6154 51.9169 79.255 51.7747 78.9389 51.5811C78.3745 51.3018 77.9681 51.045 78.002 51C78.3878 51.0826 78.7488 51.2266 79.0631 51.4234C79.4186 51.5662 79.7366 51.7619 80 52V52Z" fill="#63367D"/>
<path d="M204.148 58.0589L185.384 48.9101C185.076 48.76 184.8 48.5507 184.573 48.2942C184.346 48.0377 184.171 47.7389 184.06 47.415C183.948 47.0911 183.902 46.7483 183.923 46.4064C183.944 46.0645 184.032 45.7299 184.182 45.4221L196.825 19.4682C197.13 18.8459 197.669 18.3696 198.324 18.1434C198.979 17.9173 199.697 17.9599 200.321 18.2617L212.22 24.0541L216.797 38.0288L207.643 56.841C207.495 57.1512 207.286 57.4288 207.03 57.6581C206.773 57.8874 206.474 58.0638 206.149 58.177C205.824 58.2902 205.48 58.338 205.137 58.3177C204.793 58.2974 204.457 58.2095 204.148 58.0589V58.0589Z" fill="#ECECEC"/>
<path d="M212.22 20.0426L208.656 27.3502C208.518 27.6381 208.438 27.9504 208.421 28.2693C208.404 28.5881 208.45 28.9071 208.556 29.2082C208.662 29.5093 208.827 29.7865 209.04 30.0239C209.254 30.2614 209.512 30.4545 209.8 30.5923L216.831 34.023L212.22 20.0426Z" fill="#E1E1E1"/>
<path d="M207.231 26.2867C207.186 26.3782 205.206 25.5091 202.809 24.3426C200.412 23.1761 198.501 22.1526 198.547 22.0554C198.593 21.9582 200.578 22.8273 202.975 23.9938C205.372 25.1603 207.277 26.1895 207.231 26.2867Z" fill="white"/>
<path d="M210.801 33.1425C210.755 33.2398 207.518 31.7588 203.576 29.8375C199.634 27.9163 196.471 26.2809 196.516 26.1895C196.562 26.098 199.794 27.5732 203.742 29.4945C207.689 31.4157 210.87 33.0511 210.801 33.1425Z" fill="white"/>
<path d="M210.429 37.2195C210.384 37.311 206.86 35.6928 202.563 33.6C198.267 31.5072 194.812 29.7347 194.857 29.6374C194.903 29.5402 198.427 31.1641 202.729 33.2569C207.031 35.3497 210.475 37.1223 210.429 37.2195Z" fill="white"/>
<path d="M208.845 44.4729C208.799 44.5644 205.275 42.9462 200.979 40.8535C196.682 38.7607 193.227 36.9881 193.273 36.8909C193.318 36.7937 196.842 38.4176 201.139 40.5104C205.435 42.6032 208.891 44.3814 208.845 44.4729Z" fill="white"/>
<path d="M207.26 47.7265C207.214 47.8237 203.69 46.1998 199.388 44.107C195.086 42.0143 191.642 40.2417 191.688 40.1445C191.734 40.0473 195.252 41.6712 199.554 43.7697C203.856 45.8682 207.306 47.635 207.26 47.7265Z" fill="white"/>
<path d="M205.652 50.9801C205.607 51.0773 202.083 49.4534 197.781 47.3606C193.479 45.2678 190.035 43.4952 190.08 43.4037C190.126 43.3122 193.644 44.9304 197.947 47.0232C202.249 49.116 205.721 50.8886 205.652 50.9801Z" fill="white"/>
<path d="M98.8104 103.877C98.2708 103.752 97.8028 103.418 97.509 102.949C97.2152 102.479 97.1195 101.912 97.2429 101.373L101.316 83.6812C101.373 83.461 101.473 83.2544 101.611 83.0734C101.749 82.8923 101.921 82.7404 102.118 82.6265C102.315 82.5127 102.533 82.439 102.759 82.41C102.984 82.381 103.213 82.3971 103.433 82.4575L105.098 82.8407C105.421 82.9202 105.761 82.9089 106.079 82.808C106.397 82.7071 106.681 82.5206 106.9 82.2689L107.42 81.6227C107.639 81.3709 107.923 81.1844 108.241 81.0835C108.559 80.9827 108.898 80.9713 109.222 81.0509L117.117 82.8692C117.415 82.9339 117.691 83.0727 117.921 83.2726C118.151 83.4725 118.327 83.727 118.433 84.0127L118.679 84.7162C118.785 85.0017 118.961 85.256 119.191 85.4558C119.421 85.6556 119.697 85.7945 119.995 85.8598L130.063 88.147C130.287 88.1887 130.501 88.2745 130.691 88.3995C130.882 88.5246 131.045 88.6863 131.173 88.8753C131.3 89.0642 131.388 89.2767 131.433 89.5001C131.477 89.7236 131.476 89.9536 131.431 90.1768L127.277 108.28C127.216 108.547 127.102 108.8 126.943 109.024C126.784 109.247 126.582 109.437 126.349 109.583C126.117 109.728 125.857 109.826 125.587 109.872C125.316 109.917 125.039 109.909 124.771 109.847L98.8104 103.877Z" fill="#E1E1E1"/>
<path d="M118.959 85.6195L112.557 84.1329L112.231 82.9264C112.113 82.5337 111.891 82.18 111.589 81.9024C111.288 81.6248 110.916 81.4333 110.515 81.3482L104.251 79.9072C103.997 79.8399 103.731 79.8234 103.471 79.8585C103.21 79.8937 102.959 79.9798 102.731 80.112C102.504 80.2443 102.305 80.42 102.145 80.6291C101.986 80.8383 101.869 81.0768 101.802 81.331L101.631 82.0572L97.2085 101.264C97.094 101.857 97.2186 102.471 97.5551 102.972C97.8916 103.473 98.4127 103.821 99.0048 103.94L124.44 109.795C125.024 109.947 125.644 109.862 126.166 109.559C126.688 109.256 127.069 108.759 127.226 108.177L131.408 90.0338C131.451 89.84 131.457 89.6396 131.423 89.4438C131.389 89.2481 131.317 89.0608 131.211 88.893C131.104 88.7251 130.966 88.5798 130.804 88.4655C130.641 88.3512 130.457 88.2702 130.263 88.2269L118.959 85.6195Z" fill="#ECECEC"/>
<path d="M123.079 94.0893L107.943 90.605L106.477 96.9683L121.613 100.453L123.079 94.0893Z" fill="white"/>
<path d="M120.115 96.3694C120.115 96.4266 117.764 95.9349 114.892 95.2774C112.02 94.6198 109.703 94.0308 109.743 93.9736C109.783 93.9165 112.094 94.4082 114.972 95.0714C117.849 95.7347 120.132 96.3008 120.115 96.3694Z" fill="#E1E1E1"/>
<path d="M119.806 97.7132C119.806 97.7704 117.455 97.2785 114.583 96.621C111.711 95.9634 109.394 95.3745 109.405 95.323C109.417 95.2715 111.757 95.7519 114.628 96.4152C117.5 97.0785 119.84 97.656 119.806 97.7132Z" fill="#E1E1E1"/>
<path d="M133.725 58.6421L130.864 75.3786V229.884H270.035V220.066L133.725 58.6421Z" fill="#63367D"/>
<path d="M133.725 58.6421H266.23C267.147 58.6436 268.054 58.8255 268.9 59.1775C269.747 59.5294 270.515 60.0445 271.162 60.6934C271.809 61.3422 272.322 62.112 272.671 62.959C273.021 63.8059 273.2 64.7134 273.198 65.6294V215.046C273.198 216.896 272.463 218.671 271.154 219.979C269.845 221.287 268.07 222.022 266.219 222.022H133.725V58.6421Z" fill="#63367D"/>
<path d="M267.643 222.251H133.496V58.4135H267.643C269.179 58.4165 270.651 59.0279 271.736 60.1136C272.821 61.1994 273.431 62.6709 273.433 64.2057V216.447C273.434 217.984 272.825 219.458 271.74 220.546C270.654 221.635 269.181 222.248 267.643 222.251V222.251ZM133.953 221.793H267.643C269.058 221.79 270.414 221.227 271.414 220.227C272.415 219.228 272.978 217.872 272.981 216.458V64.2057C272.978 62.7917 272.415 61.4365 271.414 60.4367C270.414 59.4368 269.058 58.8738 267.643 58.8708H133.953V221.793Z" fill="#1A2E35"/>
<path d="M258.147 63.3195L265.876 76.1963V217.173L145.475 215.978L138.879 209.162L258.147 63.3195Z" fill="#E1E1E1"/>
<path d="M258.147 62.6962H138.879V209.162H258.147V62.6962Z" fill="white"/>
<path d="M258.147 209.162C258.147 208.236 258.101 149.81 258.038 62.6962L258.147 62.8048H138.891L139.011 62.6848C139.011 116.868 139.011 167.261 139.011 209.151L138.913 209.054L258.181 209.151L138.913 209.248H138.816V209.151C138.816 167.261 138.816 116.868 138.816 62.6848V62.5646H138.948H258.204H258.284V62.6676C258.193 149.81 258.147 208.236 258.147 209.162Z" fill="#1A2E35"/>
<path d="M153.519 112.02C153.468 112.543 153.266 113.04 152.937 113.451C152.609 113.862 152.169 114.169 151.669 114.335C151.17 114.5 150.633 114.517 150.124 114.383C149.615 114.25 149.156 113.972 148.802 113.582C148.448 113.193 148.215 112.709 148.132 112.19C148.048 111.671 148.116 111.138 148.329 110.658C148.542 110.177 148.89 109.768 149.331 109.481C149.772 109.194 150.287 109.041 150.813 109.04C151.566 109.08 152.272 109.416 152.779 109.974C153.286 110.531 153.551 111.267 153.519 112.02Z" fill="#1A2E35"/>
<g opacity="0.3">
<path d="M133.725 133.045H138.879L138.868 128.607H133.725V133.045Z" fill="black"/>
</g>
<path d="M136.202 97.2615C127.231 97.2615 119.932 104.363 119.932 113.089C119.932 121.814 127.317 128.91 136.287 128.91H138.879L138.839 125.16L136.287 125.262C129.148 125.262 123.244 119.802 123.244 113.089C123.244 106.376 129.056 100.909 136.202 100.909C143.347 100.909 149.154 106.37 149.154 113.089C149.13 113.32 149.155 113.554 149.228 113.775C149.3 113.997 149.418 114.2 149.574 114.373C149.73 114.546 149.921 114.684 150.134 114.778C150.347 114.873 150.577 114.921 150.81 114.921C151.043 114.921 151.273 114.873 151.486 114.778C151.699 114.684 151.889 114.546 152.045 114.373C152.201 114.2 152.319 113.997 152.392 113.775C152.464 113.554 152.49 113.32 152.466 113.089C152.449 104.375 145.172 97.2615 136.202 97.2615Z" fill="#E1E1E1"/>
<path d="M136.202 97.2614H136.585L137.729 97.3071C138.227 97.3471 138.833 97.4501 139.554 97.5588C140.374 97.7331 141.181 97.9643 141.968 98.2506C144.137 99.0442 146.118 100.279 147.786 101.876L148.49 102.625C148.604 102.756 148.73 102.876 148.845 103.014L149.171 103.437C149.388 103.728 149.628 104.009 149.829 104.312C150.029 104.615 150.229 104.946 150.401 105.272C151.213 106.669 151.809 108.18 152.168 109.755C152.35 110.604 152.461 111.467 152.5 112.334C152.563 112.787 152.545 113.248 152.449 113.695C152.31 114.16 151.996 114.554 151.574 114.793C151.357 114.912 151.116 114.98 150.869 114.992C150.622 115.004 150.376 114.959 150.149 114.861C149.92 114.759 149.715 114.61 149.546 114.425C149.377 114.24 149.247 114.023 149.165 113.786C149.084 113.547 149.041 113.296 149.039 113.043C149.039 112.803 149.039 112.563 148.999 112.322C148.972 111.837 148.911 111.353 148.816 110.876C148.406 108.873 147.486 107.01 146.144 105.467C145.441 104.668 144.642 103.959 143.765 103.357C143.318 103.047 142.854 102.765 142.374 102.51C142.128 102.385 141.877 102.282 141.625 102.167C141.378 102.043 141.122 101.937 140.858 101.853L140.075 101.584C139.806 101.504 139.503 101.447 139.262 101.378C138.713 101.252 138.157 101.156 137.598 101.092C136.454 100.98 135.301 101.011 134.165 101.184C133.586 101.265 133.013 101.383 132.449 101.538C132.163 101.618 131.877 101.727 131.614 101.819L131.196 101.962L130.79 102.145C129.693 102.618 128.669 103.244 127.746 104.003C126.801 104.767 125.979 105.671 125.309 106.685C124.614 107.704 124.094 108.833 123.77 110.024C123.603 110.624 123.48 111.236 123.404 111.854C123.347 112.479 123.335 113.108 123.37 113.735C123.431 115.004 123.72 116.251 124.222 117.417C125.426 120.208 127.601 122.469 130.344 123.781C131.657 124.428 133.071 124.845 134.525 125.017C134.881 125.075 135.241 125.106 135.601 125.108C135.957 125.131 136.315 125.131 136.671 125.108L138.81 125.022H138.925V125.142C138.925 126.412 138.936 127.662 138.959 128.893V129.008H138.845C137.884 129.008 136.934 129.008 135.984 129.008L134.566 128.933L133.175 128.727C131.37 128.384 129.632 127.752 128.027 126.858C127.643 126.623 127.249 126.423 126.882 126.166L125.813 125.394L124.834 124.536C124.669 124.397 124.514 124.246 124.371 124.084L123.936 123.615C122.808 122.394 121.88 121.003 121.184 119.493C121.017 119.131 120.868 118.761 120.738 118.384L120.527 117.812L120.372 117.24C120.281 116.863 120.155 116.491 120.086 116.096C120.017 115.702 119.972 115.336 119.909 114.953C119.729 113.498 119.76 112.025 120 110.579C120.104 109.894 120.257 109.217 120.458 108.554C120.55 108.232 120.661 107.915 120.79 107.605C120.916 107.296 121.007 106.982 121.156 106.69C121.421 106.112 121.721 105.551 122.054 105.009C122.214 104.746 122.38 104.489 122.54 104.232C122.701 103.974 122.906 103.751 123.084 103.517C124.381 101.843 125.994 100.44 127.832 99.3885C128.032 99.2741 128.227 99.1483 128.404 99.0453L128.976 98.7709C129.347 98.5843 129.729 98.422 130.12 98.2849L131.184 97.9075C131.528 97.8103 131.86 97.736 132.174 97.6559C132.725 97.5138 133.285 97.4125 133.85 97.3528C134.091 97.3185 134.32 97.2786 134.525 97.2614H135.098L135.858 97.2328H136.116H135.858L135.098 97.2786L134.525 97.3128C134.32 97.3128 134.102 97.3758 133.856 97.4101C133.294 97.4758 132.738 97.5827 132.191 97.7302C131.882 97.8159 131.551 97.8847 131.207 97.9876L130.149 98.3707C129.759 98.5128 129.377 98.6771 129.005 98.8625L128.433 99.1426C128.238 99.2456 128.049 99.3713 127.861 99.4856C126.041 100.536 124.447 101.935 123.17 103.603C122.992 103.837 122.803 104.066 122.632 104.312C122.46 104.557 122.311 104.826 122.151 105.089C121.826 105.627 121.532 106.182 121.27 106.753C121.127 107.045 121.036 107.359 120.91 107.662C120.784 107.97 120.677 108.285 120.59 108.606C120.39 109.261 120.239 109.93 120.138 110.607C119.909 112.037 119.884 113.493 120.063 114.93C120.12 115.296 120.183 115.668 120.241 116.045C120.298 116.422 120.429 116.788 120.527 117.16L120.675 117.732L120.887 118.304C121.016 118.677 121.165 119.044 121.333 119.401C122.022 120.891 122.941 122.262 124.056 123.467L124.491 123.93C124.632 124.088 124.785 124.235 124.949 124.37L125.916 125.217L126.968 125.977C127.323 126.234 127.718 126.429 128.112 126.663C129.693 127.538 131.401 128.158 133.175 128.499L134.548 128.699L135.95 128.767C136.888 128.767 137.844 128.767 138.81 128.767L138.696 128.882C138.696 127.653 138.696 126.406 138.656 125.131L138.776 125.245L136.636 125.331C136.274 125.354 135.911 125.354 135.549 125.331C135.184 125.323 134.819 125.292 134.457 125.239C132.977 125.063 131.538 124.638 130.201 123.982C127.434 122.64 125.243 120.348 124.028 117.526C123.518 116.333 123.226 115.059 123.164 113.763C123.128 113.125 123.137 112.485 123.193 111.848C123.275 111.217 123.401 110.592 123.57 109.978C123.896 108.754 124.428 107.593 125.143 106.547C125.829 105.519 126.666 104.599 127.626 103.82C128.564 103.044 129.608 102.407 130.727 101.927L131.139 101.744L131.562 101.596C131.848 101.504 132.134 101.395 132.414 101.315C132.979 101.161 133.552 101.039 134.131 100.949C135.286 100.779 136.458 100.75 137.62 100.864C138.189 100.928 138.752 101.027 139.308 101.161C139.588 101.23 139.88 101.287 140.138 101.367L140.938 101.641C141.204 101.731 141.464 101.838 141.717 101.962C141.968 102.082 142.226 102.184 142.472 102.316C142.959 102.574 143.431 102.86 143.885 103.174C144.778 103.787 145.591 104.509 146.305 105.324C147.663 106.898 148.595 108.794 149.011 110.83C149.106 111.317 149.167 111.81 149.194 112.305C149.194 112.551 149.194 112.791 149.234 113.037C149.232 113.267 149.268 113.495 149.342 113.712C149.416 113.925 149.532 114.121 149.683 114.288C149.834 114.456 150.018 114.59 150.223 114.684C150.424 114.773 150.643 114.813 150.862 114.804C151.082 114.794 151.296 114.733 151.488 114.627C151.87 114.412 152.153 114.058 152.277 113.638C152.367 113.211 152.382 112.772 152.323 112.34C152.289 111.48 152.184 110.626 152.008 109.784C151.658 108.226 151.08 106.729 150.292 105.341L149.72 104.392C149.52 104.083 149.285 103.82 149.074 103.523L148.747 103.099C148.639 102.962 148.513 102.842 148.398 102.716L147.701 101.967C146.062 100.377 144.115 99.1394 141.98 98.3306C141.196 98.0387 140.393 97.8018 139.577 97.6216C138.862 97.5072 138.255 97.3986 137.763 97.3471L136.619 97.2786C136.333 97.2786 136.202 97.2614 136.202 97.2614Z" fill="#1A2E35"/>
<path d="M153.519 155.053C153.468 155.576 153.266 156.074 152.937 156.485C152.609 156.896 152.169 157.203 151.669 157.368C151.17 157.534 150.633 157.551 150.124 157.417C149.615 157.283 149.156 157.005 148.802 156.616C148.448 156.226 148.215 155.743 148.132 155.223C148.048 154.704 148.116 154.172 148.329 153.691C148.542 153.21 148.89 152.801 149.331 152.514C149.772 152.227 150.287 152.074 150.813 152.074C151.566 152.114 152.272 152.449 152.779 153.007C153.286 153.565 153.551 154.3 153.519 155.053Z" fill="#1A2E35"/>
<path d="M249.48 99.64H157.603V103.483H249.48V99.64Z" fill="#E56A20"/>
<path d="M211.15 94.9285H157.603V98.771H211.15V94.9285Z" fill="#E56A20"/>
<path d="M211.15 182.276H157.603V186.119H211.15V182.276Z" fill="#E56A20"/>
<path d="M249.989 86.6545H157.998V92.2582H249.989V86.6545Z" fill="#E1E1E1"/>
<path d="M248.999 138.042H157.008V143.646H248.999V138.042Z" fill="#E1E1E1"/>
<path d="M194.686 110.43H157.998V116.034H194.686V110.43Z" fill="#E1E1E1"/>
<path d="M248.999 110.43H203.13V116.034H248.999V110.43Z" fill="#E1E1E1"/>
<path d="M211.15 97.2156C211.15 97.2785 199.342 97.33 184.783 97.33C170.223 97.33 158.416 97.2785 158.416 97.2156C158.416 97.1527 170.223 97.0956 184.783 97.0956C199.342 97.0956 211.15 97.147 211.15 97.2156Z" fill="#1A2E35"/>
<path d="M249.474 101.624C249.474 101.693 229.068 101.744 203.896 101.744C178.725 101.744 158.318 101.693 158.318 101.624C158.318 101.556 178.725 101.504 203.896 101.504C229.068 101.504 249.474 101.561 249.474 101.624Z" fill="#1A2E35"/>
<path d="M249.474 105.804C249.474 105.867 229.068 105.924 203.896 105.924C178.725 105.924 158.318 105.867 158.318 105.804C158.318 105.741 178.725 105.684 203.896 105.684C229.068 105.684 249.474 105.741 249.474 105.804Z" fill="#1A2E35"/>
<path d="M194.365 119.459C194.365 119.521 186.162 119.573 176.059 119.573C165.956 119.573 157.752 119.521 157.752 119.459C157.752 119.396 165.961 119.339 176.059 119.339C186.156 119.339 194.365 119.39 194.365 119.459Z" fill="#1A2E35"/>
<path d="M194.365 123.764C194.365 123.827 186.293 123.879 176.345 123.879C166.396 123.879 158.318 123.827 158.318 123.764C158.318 123.701 166.385 123.644 176.345 123.644C186.305 123.644 194.365 123.696 194.365 123.764Z" fill="#1A2E35"/>
<path d="M194.211 128.138C194.211 128.207 186.07 128.259 176.03 128.259C165.99 128.259 157.849 128.207 157.849 128.138C157.849 128.07 165.99 128.018 176.03 128.018C186.07 128.018 194.211 128.076 194.211 128.138Z" fill="#1A2E35"/>
<path d="M194.211 132.393C194.211 132.461 186.07 132.513 176.03 132.513C165.99 132.513 157.849 132.461 157.849 132.393C157.849 132.324 165.99 132.273 176.03 132.273C186.07 132.273 194.211 132.324 194.211 132.393Z" fill="#1A2E35"/>
<path d="M248.29 120.465C248.29 120.534 239.789 120.585 229.308 120.585C218.828 120.585 210.321 120.534 210.321 120.465C210.321 120.396 218.822 120.345 229.308 120.345C239.794 120.345 248.29 120.385 248.29 120.465Z" fill="#1A2E35"/>
<path d="M207.409 121.837C207.376 121.576 207.359 121.312 207.357 121.048C207.357 120.568 207.317 119.905 207.312 119.093L207.409 119.196H204.794C204.766 119.196 205.006 118.973 204.909 119.075V120.516C204.909 120.974 204.909 121.403 204.909 121.809L204.812 121.706C205.572 121.706 206.213 121.74 206.677 121.763C206.927 121.765 207.177 121.78 207.426 121.809C207.2 121.849 206.97 121.866 206.74 121.86C206.282 121.86 205.595 121.9 204.812 121.912H204.714V121.809C204.714 121.403 204.714 120.974 204.714 120.516C204.714 120.282 204.714 120.048 204.714 119.807V119.075L204.829 118.955H207.443H207.54V119.058C207.54 119.905 207.506 120.602 207.489 121.083C207.482 121.336 207.455 121.588 207.409 121.837V121.837Z" fill="#1A2E35"/>
<path d="M248.29 125.743C248.29 125.806 239.789 125.857 229.308 125.857C218.828 125.857 210.321 125.806 210.321 125.743C210.321 125.68 218.822 125.623 229.308 125.623C239.794 125.623 248.29 125.674 248.29 125.743Z" fill="#1A2E35"/>
<path d="M207.409 127.115C207.377 126.853 207.359 126.59 207.357 126.326C207.357 125.84 207.317 125.182 207.312 124.37L207.409 124.468H204.794C204.766 124.468 205.006 124.245 204.909 124.353V125.8C204.909 126.257 204.909 126.692 204.909 127.098L204.812 126.995C205.572 126.995 206.213 127.029 206.677 127.046C206.634 126.948 206.631 126.837 206.667 126.737C206.703 126.636 206.776 126.553 206.871 126.504C206.966 126.454 207.077 126.443 207.18 126.472C207.283 126.501 207.371 126.567 207.427 126.659C207.483 126.75 207.502 126.859 207.48 126.964C207.459 127.069 207.399 127.162 207.312 127.224C207.224 127.286 207.117 127.313 207.011 127.299C206.905 127.285 206.808 127.232 206.74 127.149C206.282 127.149 205.595 127.189 204.812 127.201H204.714V127.098C204.714 126.692 204.714 126.257 204.714 125.8C204.714 125.571 204.714 125.331 204.714 125.091V124.388L204.829 124.267H207.443H207.54V124.37C207.54 125.211 207.506 125.914 207.489 126.389C207.479 126.632 207.453 126.875 207.409 127.115V127.115Z" fill="#1A2E35"/>
<path d="M248.29 131.015C248.29 131.078 239.789 131.135 229.308 131.135C218.828 131.135 210.321 131.078 210.321 131.015C210.321 130.952 218.822 130.895 229.308 130.895C239.794 130.895 248.29 130.952 248.29 131.015Z" fill="#1A2E35"/>
<path d="M207.409 132.393C207.376 132.131 207.359 131.867 207.357 131.604C207.357 131.123 207.317 130.46 207.312 129.648L207.409 129.751H204.794C204.766 129.751 205.006 129.522 204.909 129.631V131.072C204.909 131.524 204.909 131.958 204.909 132.364L204.812 132.261C205.572 132.261 206.213 132.296 206.677 132.313C206.927 132.315 207.177 132.332 207.426 132.364C207.199 132.401 206.969 132.418 206.74 132.416C206.282 132.416 205.595 132.456 204.812 132.467H204.714V132.393C204.714 131.987 204.714 131.552 204.714 131.1C204.714 130.866 204.714 130.632 204.714 130.386V129.659L204.829 129.539H207.443H207.54V129.642C207.54 130.489 207.506 131.186 207.489 131.667C207.48 131.91 207.453 132.153 207.409 132.393V132.393Z" fill="#1A2E35"/>
<path d="M248.29 174.626C248.29 174.626 248.29 174.471 248.29 174.174C248.29 173.877 248.29 173.436 248.29 172.865C248.29 171.721 248.29 170.005 248.29 167.775C248.29 163.333 248.29 156.848 248.25 148.655L248.318 148.723L157.746 148.769L157.861 148.655C157.861 157.592 157.861 166.3 157.861 174.626L157.752 174.511L222.443 174.563L241.442 174.597H246.551H247.878H248.33H246.579H241.493L222.517 174.631L157.752 174.683H157.598V174.569C157.598 166.243 157.598 157.535 157.598 148.597V148.477H157.718L248.29 148.523H248.358V148.597C248.358 156.814 248.358 163.31 248.324 167.758C248.324 169.977 248.324 171.675 248.324 172.83C248.324 173.402 248.324 173.837 248.324 174.134C248.324 174.431 248.29 174.626 248.29 174.626Z" fill="#1A2E35"/>
<path d="M248.29 155.19C248.29 155.253 228.067 155.31 203.13 155.31C178.193 155.31 157.964 155.253 157.964 155.19C157.964 155.127 178.181 155.07 203.13 155.07C228.078 155.07 248.29 155.122 248.29 155.19Z" fill="#1A2E35"/>
<path d="M248.29 161.64C248.29 161.703 228.067 161.755 203.13 161.755C178.193 161.755 157.964 161.703 157.964 161.64C157.964 161.577 178.181 161.52 203.13 161.52C228.078 161.52 248.29 161.554 248.29 161.64Z" fill="#1A2E35"/>
<path d="M248.29 168.159C248.29 168.222 228.067 168.279 203.13 168.279C178.193 168.279 157.964 168.222 157.964 168.159C157.964 168.096 178.181 168.039 203.13 168.039C228.078 168.039 248.29 168.096 248.29 168.159Z" fill="#1A2E35"/>
<path d="M168.244 174.854C168.181 174.854 168.13 168.976 168.13 161.703C168.13 154.43 168.181 148.58 168.244 148.58C168.307 148.58 168.353 154.458 168.353 161.703C168.353 168.948 168.301 174.854 168.244 174.854Z" fill="#1A2E35"/>
<path d="M198.873 174.065C198.81 174.065 198.759 168.45 198.759 161.537C198.759 154.624 198.81 149.003 198.873 149.003C198.936 149.003 198.982 154.613 198.982 161.537C198.982 168.462 198.931 174.065 198.873 174.065Z" fill="#1A2E35"/>
<path d="M231.144 175.277C231.082 175.277 231.03 169.491 231.03 162.355C231.03 155.219 231.082 149.427 231.144 149.427C231.207 149.427 231.259 155.213 231.259 162.355C231.259 169.497 231.207 175.277 231.144 175.277Z" fill="#1A2E35"/>
<path d="M246.488 180.424C246.488 180.487 226.711 180.544 202.317 180.544C177.924 180.544 158.141 180.487 158.141 180.424C158.141 180.361 177.918 180.304 202.317 180.304C226.717 180.304 246.488 180.378 246.488 180.424Z" fill="#1A2E35"/>
<path d="M246.488 184.198C246.488 184.266 226.711 184.318 202.317 184.318C177.924 184.318 158.141 184.266 158.141 184.198C158.141 184.129 177.918 184.083 202.317 184.083C226.717 184.083 246.488 184.135 246.488 184.198Z" fill="#1A2E35"/>
<path d="M190.292 187.954C190.292 188.017 183.095 188.074 174.217 188.074C165.338 188.074 158.141 188.017 158.141 187.954C158.141 187.891 165.338 187.834 174.217 187.834C183.095 187.834 190.292 187.886 190.292 187.954Z" fill="#1A2E35"/>
<g opacity="0.3">
<path d="M133.725 174.74H138.879L138.868 170.297H133.725V174.74Z" fill="black"/>
</g>
<path d="M136.202 139.963C127.231 139.963 119.932 147.065 119.932 155.791C119.932 164.516 127.317 171.618 136.287 171.618H138.879L138.839 167.867L136.287 167.97C129.148 167.97 123.244 162.504 123.244 155.791C123.244 149.078 129.056 143.617 136.202 143.617C143.347 143.617 149.154 149.078 149.154 155.791C149.13 156.022 149.155 156.256 149.228 156.477C149.3 156.698 149.418 156.902 149.574 157.075C149.73 157.247 149.921 157.386 150.134 157.48C150.347 157.575 150.577 157.623 150.81 157.623C151.043 157.623 151.273 157.575 151.486 157.48C151.699 157.386 151.889 157.247 152.045 157.075C152.201 156.902 152.319 156.698 152.392 156.477C152.464 156.256 152.49 156.022 152.466 155.791C152.449 147.065 145.172 139.963 136.202 139.963Z" fill="#E1E1E1"/>
<path d="M136.202 139.963H136.585L137.729 140.003C138.227 140.049 138.833 140.146 139.554 140.255C140.373 140.432 141.18 140.663 141.968 140.947C144.139 141.741 146.12 142.977 147.786 144.578L148.49 145.327C148.604 145.453 148.73 145.578 148.845 145.716L149.171 146.139C149.388 146.425 149.628 146.71 149.829 147.014L150.401 147.968C151.212 149.366 151.808 150.877 152.168 152.451C152.35 153.302 152.461 154.167 152.5 155.036C152.564 155.493 152.547 155.957 152.449 156.408C152.309 156.873 151.995 157.266 151.574 157.506C151.357 157.624 151.116 157.692 150.869 157.704C150.622 157.716 150.376 157.671 150.149 157.575C149.92 157.471 149.715 157.321 149.546 157.135C149.377 156.95 149.247 156.731 149.165 156.494C149.083 156.256 149.041 156.007 149.039 155.756C149.039 155.516 149.039 155.276 148.999 155.036C148.972 154.548 148.911 154.063 148.816 153.584C148.406 151.582 147.486 149.721 146.144 148.18C145.443 147.38 144.643 146.671 143.765 146.07C143.318 145.76 142.854 145.478 142.374 145.224C142.128 145.098 141.877 144.995 141.625 144.875C141.377 144.755 141.121 144.651 140.858 144.566L140.075 144.292C139.806 144.212 139.503 144.16 139.262 144.092C137.593 143.693 135.861 143.625 134.165 143.892C133.586 143.974 133.012 144.095 132.449 144.252C132.163 144.332 131.877 144.44 131.614 144.532L131.196 144.675L130.79 144.858C129.692 145.327 128.667 145.951 127.746 146.71C126.802 147.478 125.981 148.384 125.309 149.398C124.612 150.417 124.092 151.546 123.77 152.737C123.602 153.337 123.479 153.949 123.404 154.567C123.347 155.19 123.335 155.817 123.37 156.442C123.43 157.711 123.719 158.959 124.222 160.125C125.426 162.916 127.601 165.176 130.344 166.489C131.657 167.137 133.071 167.557 134.525 167.73C134.882 167.783 135.241 167.813 135.601 167.821C135.957 167.844 136.315 167.844 136.671 167.821L138.81 167.736H138.925V167.85C138.925 169.125 138.925 170.372 138.959 171.607V171.721H138.845C137.884 171.721 136.934 171.721 135.984 171.721L134.566 171.647L133.175 171.441C131.37 171.099 129.632 170.469 128.027 169.577C127.643 169.342 127.249 169.142 126.882 168.885L125.813 168.107L124.834 167.249C124.669 167.113 124.514 166.964 124.371 166.803L123.936 166.335C122.809 165.112 121.881 163.721 121.184 162.212C120.996 161.852 120.887 161.463 120.738 161.097L120.527 160.525L120.372 159.953C120.281 159.57 120.155 159.199 120.086 158.81C120.017 158.421 119.972 158.055 119.909 157.666C119.729 156.211 119.76 154.738 120 153.292C120.104 152.609 120.257 151.934 120.458 151.273C120.55 150.951 120.661 150.634 120.79 150.324C120.916 150.016 121.007 149.695 121.156 149.409C121.418 148.83 121.718 148.269 122.054 147.728C122.214 147.465 122.38 147.202 122.54 146.951C122.701 146.699 122.906 146.47 123.084 146.23C124.381 144.556 125.994 143.153 127.832 142.102C128.032 141.987 128.227 141.867 128.404 141.764L128.976 141.484C129.348 141.3 129.73 141.138 130.12 140.998L131.184 140.626C131.528 140.524 131.86 140.455 132.174 140.375C132.725 140.234 133.285 140.131 133.85 140.066C134.091 140.066 134.32 139.992 134.525 139.98H135.098L135.858 139.952H136.116H135.858L135.098 140.003L134.525 140.032C134.32 140.032 134.102 140.095 133.856 140.129C133.294 140.2 132.738 140.309 132.191 140.455C131.882 140.535 131.551 140.609 131.207 140.712L130.149 141.095C129.758 141.235 129.375 141.399 129.005 141.587L128.433 141.862C128.238 141.965 128.049 142.09 127.861 142.205C126.041 143.258 124.447 144.659 123.17 146.327C122.992 146.562 122.803 146.785 122.632 147.036C122.46 147.288 122.311 147.551 122.151 147.808C121.825 148.347 121.531 148.904 121.27 149.478C121.127 149.764 121.036 150.05 120.91 150.387C120.784 150.693 120.677 151.006 120.59 151.325C120.391 151.98 120.24 152.649 120.138 153.326C119.909 154.756 119.884 156.212 120.063 157.649C120.12 158.021 120.183 158.392 120.241 158.793C120.298 159.193 120.429 159.53 120.527 159.908L120.675 160.479L120.887 161.051C121.036 161.411 121.144 161.795 121.333 162.149C122.022 163.638 122.941 165.01 124.056 166.214L124.491 166.672C124.632 166.832 124.785 166.981 124.949 167.118L125.916 167.964L126.968 168.725C127.323 168.976 127.718 169.176 128.112 169.405C129.691 170.283 131.401 170.902 133.175 171.241L134.548 171.446L135.95 171.515C136.888 171.515 137.844 171.515 138.81 171.515L138.696 171.629C138.696 170.402 138.683 169.152 138.656 167.878L138.776 167.993L136.636 168.079C136.275 168.104 135.911 168.104 135.549 168.079C135.183 168.076 134.818 168.046 134.457 167.987C132.977 167.814 131.537 167.388 130.201 166.729C127.402 165.395 125.184 163.091 123.959 160.245C123.449 159.054 123.157 157.782 123.095 156.488C122.995 155.212 123.133 153.929 123.501 152.703C123.827 151.478 124.359 150.318 125.075 149.272C125.76 148.242 126.597 147.32 127.557 146.539C128.497 145.767 129.541 145.132 130.658 144.652L131.07 144.469L131.493 144.32C131.779 144.229 132.065 144.115 132.346 144.035C134.046 143.572 135.815 143.421 137.569 143.588C138.137 143.651 138.701 143.748 139.257 143.88C139.537 143.949 139.829 144.006 140.086 144.086L140.887 144.366C141.153 144.454 141.413 144.559 141.665 144.681C141.917 144.801 142.174 144.909 142.42 145.035C142.908 145.295 143.38 145.583 143.833 145.899C144.726 146.512 145.539 147.234 146.253 148.048C147.633 149.613 148.585 151.508 149.016 153.549C149.111 154.036 149.172 154.529 149.199 155.024C149.199 155.27 149.199 155.516 149.239 155.762C149.238 155.991 149.275 156.219 149.348 156.437C149.422 156.65 149.539 156.845 149.69 157.012C149.841 157.179 150.025 157.314 150.229 157.409C150.43 157.496 150.649 157.536 150.868 157.526C151.087 157.516 151.301 157.457 151.493 157.352C151.874 157.133 152.157 156.777 152.283 156.357C152.373 155.93 152.388 155.491 152.329 155.059C152.295 154.201 152.19 153.348 152.014 152.508C151.664 150.949 151.086 149.45 150.298 148.06L149.726 147.111C149.525 146.808 149.291 146.539 149.079 146.242L148.753 145.818C148.644 145.687 148.519 145.561 148.404 145.435L147.706 144.692C146.07 143.098 144.122 141.858 141.985 141.05C141.2 140.763 140.398 140.526 139.583 140.341C138.868 140.226 138.261 140.123 137.769 140.072L136.625 140.003L136.202 139.963Z" fill="#1A2E35"/>
<g opacity="0.3">
<path d="M133.725 219.157L130.864 229.255H270.035V219.157H133.725Z" fill="black"/>
</g>
<path d="M142.3 212.702C142.3 212.702 142.506 212.702 142.912 212.702H144.697H151.562L177.048 212.833L262.363 213.348L262.243 213.462V201.78C262.243 165.403 262.243 132.473 262.277 108.634C262.277 96.7181 262.306 87.0719 262.317 80.4048C262.317 77.0769 262.317 74.4923 262.317 72.7312C262.317 71.8563 262.317 71.1873 262.317 70.7356C262.317 70.2839 262.317 70.0552 262.317 70.0552C262.317 70.0552 262.317 70.2839 262.317 70.7356C262.317 71.1873 262.317 71.8792 262.317 72.7312C262.317 74.4923 262.317 77.0769 262.317 80.4048C262.317 87.0719 262.317 96.7181 262.352 108.634C262.352 132.473 262.352 165.403 262.386 201.78V213.588H262.271L177.048 213.016L151.562 212.816L144.697 212.747H142.912L142.3 212.702Z" fill="#1A2E35"/>
<path d="M140.326 210.763H149.588L175.017 210.82L260.201 211.101L260.086 211.215C260.086 207.293 260.086 203.118 260.086 198.904C260.138 162.406 260.183 129.373 260.218 105.455C260.246 93.5045 260.269 83.8298 260.281 77.1398C260.281 73.8005 260.281 71.2044 260.315 69.4433C260.315 68.5627 260.315 67.8937 260.315 67.4363C260.315 66.9788 260.315 66.7559 260.315 66.7559C260.315 66.7559 260.315 66.9903 260.315 67.4363C260.315 67.8823 260.315 68.5799 260.315 69.4433C260.315 71.2044 260.315 73.8005 260.315 77.1398C260.315 83.8298 260.315 93.5045 260.315 105.455C260.315 129.373 260.281 162.406 260.252 198.904C260.252 203.118 260.252 207.293 260.252 211.215V211.335H260.132L174.949 210.981L149.588 210.843L142.723 210.798H140.939L140.326 210.763Z" fill="#1A2E35"/>
<path d="M144.073 214.56H144.68H146.471H153.336L178.782 214.692L263.885 215.201L263.77 215.315C263.77 211.884 263.77 208.219 263.81 204.525C263.959 168.462 264.102 135.818 264.199 112.185C264.262 100.372 264.308 90.8172 264.342 84.2072C264.342 80.9022 264.382 78.3405 264.394 76.5966C264.394 75.7331 264.394 75.0699 264.394 74.6182C264.394 74.1664 264.394 73.9435 264.394 73.9435C264.394 73.9435 264.394 74.1722 264.394 74.6182C264.394 75.0642 264.394 75.7331 264.394 76.5966C264.394 78.312 264.394 80.9022 264.394 84.2072C264.394 90.8172 264.354 100.372 264.319 112.185C264.239 135.818 264.125 168.462 263.999 204.525C263.999 208.219 263.971 211.884 263.959 215.321V215.435H263.839L178.73 214.863L153.29 214.663L146.425 214.594H144.634L144.073 214.56Z" fill="#1A2E35"/>
<path d="M260.338 79.6614H271.516L275.498 84.1328L272.031 89.4563H260.332L260.338 79.6614Z" fill="#375A64"/>
<path d="M40.3207 153.829C39.9222 153.771 39.5626 153.559 39.3196 153.238C39.0766 152.917 38.9697 152.513 39.022 152.114L40.8927 138.9C40.9527 138.568 41.1416 138.274 41.4182 138.081C41.6948 137.888 42.0365 137.812 42.3687 137.871L43.6101 138.048C43.8508 138.09 44.0985 138.065 44.3257 137.975C44.553 137.885 44.7508 137.734 44.8973 137.539L45.2406 137.036C45.3836 136.837 45.5791 136.681 45.8053 136.586C46.0315 136.491 46.2796 136.461 46.522 136.498L52.4145 137.35C52.6363 137.378 52.8473 137.462 53.0276 137.594C53.2078 137.726 53.3513 137.902 53.4442 138.105L53.6673 138.608C53.7626 138.811 53.9074 138.986 54.0884 139.118C54.2693 139.25 54.4807 139.334 54.7028 139.363L62.22 140.398C62.3876 140.414 62.5504 140.462 62.699 140.542C62.8476 140.621 62.9789 140.729 63.0854 140.859C63.1918 140.989 63.2713 141.14 63.3192 141.301C63.367 141.462 63.3823 141.631 63.3641 141.799L61.4248 155.293C61.3666 155.692 61.1539 156.051 60.8328 156.294C60.5117 156.537 60.1078 156.644 59.7085 156.591L40.3207 153.829Z" fill="#375A64"/>
<g opacity="0.3">
<path d="M40.3207 153.829C39.9222 153.771 39.5626 153.559 39.3196 153.238C39.0766 152.917 38.9697 152.513 39.022 152.114L40.8927 138.9C40.9527 138.568 41.1416 138.274 41.4182 138.081C41.6948 137.888 42.0365 137.812 42.3687 137.871L43.6101 138.048C43.8508 138.09 44.0985 138.065 44.3257 137.975C44.553 137.885 44.7508 137.734 44.8973 137.539L45.2406 137.036C45.3836 136.837 45.5791 136.681 45.8053 136.586C46.0315 136.491 46.2796 136.461 46.522 136.498L52.4145 137.35C52.6363 137.378 52.8473 137.462 53.0276 137.594C53.2078 137.726 53.3513 137.902 53.4442 138.105L53.6673 138.608C53.7626 138.811 53.9074 138.986 54.0884 139.118C54.2693 139.25 54.4807 139.334 54.7028 139.363L62.22 140.398C62.3876 140.414 62.5504 140.462 62.699 140.542C62.8476 140.621 62.9789 140.729 63.0854 140.859C63.1918 140.989 63.2713 141.14 63.3192 141.301C63.367 141.462 63.3823 141.631 63.3641 141.799L61.4248 155.293C61.3666 155.692 61.1539 156.051 60.8328 156.294C60.5117 156.537 60.1078 156.644 59.7085 156.591L40.3207 153.829Z" fill="black"/>
</g>
<path d="M53.9648 139.254L49.1879 138.562L48.879 137.699C48.7713 137.419 48.59 137.174 48.3544 136.989C48.1188 136.804 47.8375 136.685 47.5403 136.647L42.8664 135.972C42.6752 135.937 42.479 135.941 42.2891 135.982C42.0992 136.024 41.9194 136.102 41.7599 136.213C41.6005 136.324 41.4645 136.466 41.3599 136.629C41.2552 136.793 41.184 136.976 41.1501 137.167L41.0701 137.71L39.0106 152.04C38.9859 152.258 39.0045 152.479 39.0654 152.69C39.1263 152.901 39.2282 153.098 39.3653 153.269C39.5024 153.441 39.672 153.583 39.8644 153.689C40.0568 153.795 40.2682 153.862 40.4865 153.887L59.4625 156.608C59.8994 156.685 60.3488 156.585 60.7123 156.331C61.0758 156.077 61.3237 155.689 61.4019 155.253L63.3469 141.724C63.368 141.581 63.3603 141.434 63.3245 141.293C63.2887 141.152 63.2254 141.02 63.1382 140.903C63.051 140.787 62.9417 140.689 62.8165 140.615C62.6913 140.541 62.5527 140.492 62.4087 140.472L53.9648 139.254Z" fill="#375A64"/>
<path d="M60.7598 145.28L49.4666 143.684L48.7946 148.434L60.0878 150.03L60.7598 145.28Z" fill="white"/>
<path d="M55.767 146.962C55.767 147.008 54.0164 146.791 51.8768 146.482C49.7372 146.173 48.0038 145.91 48.0095 145.847C48.0153 145.784 49.7258 146.024 51.8997 146.327C54.0736 146.631 55.767 146.922 55.767 146.962Z" fill="#1A2E35"/>
<path d="M55.6067 147.974C55.6067 148.014 53.8904 147.803 51.7165 147.494C49.5426 147.185 47.8435 146.922 47.8493 146.859C47.855 146.796 49.5998 147.031 51.7394 147.339C53.879 147.648 55.6124 147.934 55.6067 147.974Z" fill="#1A2E35"/>
<path d="M64.5256 136.258C64.2601 136.296 63.9906 136.226 63.7761 136.066C63.5616 135.905 63.4197 135.665 63.3814 135.4L62.1343 126.732C62.1215 126.623 62.1306 126.512 62.1608 126.406C62.191 126.3 62.2419 126.201 62.3105 126.115C62.3791 126.029 62.464 125.957 62.5604 125.904C62.6568 125.851 62.7628 125.818 62.8722 125.805L63.6846 125.691C63.844 125.67 63.9945 125.606 64.1196 125.505C64.2448 125.404 64.3397 125.271 64.394 125.119L64.5198 124.742C64.572 124.591 64.6656 124.457 64.7899 124.356C64.9143 124.255 65.0645 124.19 65.2235 124.17L69.0965 123.598C69.2424 123.576 69.3915 123.591 69.5304 123.641C69.6692 123.69 69.7934 123.774 69.8917 123.884L70.1263 124.159C70.2223 124.27 70.3454 124.355 70.4836 124.405C70.6219 124.455 70.7707 124.469 70.9157 124.445L75.8528 123.736C76.0672 123.697 76.2883 123.743 76.4689 123.865C76.6495 123.987 76.7754 124.174 76.8196 124.387L78.0782 133.279C78.0976 133.41 78.091 133.544 78.0586 133.672C78.0263 133.801 77.9688 133.921 77.8896 134.028C77.8104 134.134 77.711 134.224 77.5971 134.291C77.4832 134.359 77.357 134.404 77.2258 134.422L64.5256 136.258Z" fill="#FF735D"/>
<g opacity="0.3">
<path d="M64.5256 136.258C64.2601 136.296 63.9906 136.226 63.7761 136.066C63.5616 135.905 63.4197 135.665 63.3814 135.4L62.1343 126.732C62.1215 126.623 62.1306 126.512 62.1608 126.406C62.191 126.3 62.2419 126.201 62.3105 126.115C62.3791 126.029 62.464 125.957 62.5604 125.904C62.6568 125.851 62.7628 125.818 62.8722 125.805L63.6846 125.691C63.844 125.67 63.9945 125.606 64.1196 125.505C64.2448 125.404 64.3397 125.271 64.394 125.119L64.5198 124.742C64.572 124.591 64.6656 124.457 64.7899 124.356C64.9143 124.255 65.0645 124.19 65.2235 124.17L69.0965 123.598C69.2424 123.576 69.3915 123.591 69.5304 123.641C69.6692 123.69 69.7934 123.774 69.8917 123.884L70.1263 124.159C70.2223 124.27 70.3454 124.355 70.4836 124.405C70.6219 124.455 70.7707 124.469 70.9157 124.445L75.8528 123.736C76.0672 123.697 76.2883 123.743 76.4689 123.865C76.6495 123.987 76.7754 124.174 76.8196 124.387L78.0782 133.279C78.0976 133.41 78.091 133.544 78.0586 133.672C78.0263 133.801 77.9688 133.921 77.8896 134.028C77.8104 134.134 77.711 134.224 77.5971 134.291C77.4832 134.359 77.357 134.404 77.2258 134.422L64.5256 136.258Z" fill="black"/>
</g>
<path d="M70.4294 124.519L67.2886 124.965L66.9282 124.479C66.8095 124.322 66.6505 124.201 66.4682 124.127C66.2859 124.054 66.087 124.031 65.8927 124.062L62.8207 124.502C62.5653 124.531 62.3317 124.659 62.1709 124.86C62.0102 125.06 61.9352 125.316 61.9625 125.571L62.014 125.931L63.3756 135.349C63.4286 135.635 63.5921 135.889 63.8307 136.056C64.0694 136.223 64.3641 136.289 64.6513 136.241L77.1227 134.44C77.412 134.407 77.6765 134.261 77.8586 134.034C78.0408 133.807 78.1258 133.517 78.0953 133.227L76.8081 124.33C76.7954 124.236 76.7642 124.145 76.7161 124.063C76.668 123.98 76.6041 123.908 76.528 123.851C76.4519 123.793 76.3652 123.752 76.2729 123.728C76.1805 123.704 76.0844 123.699 75.99 123.713L70.4294 124.519Z" fill="#F94553"/>
<path d="M70.4365 127.97L63.0115 129.019L63.4528 132.139L70.8778 131.089L70.4365 127.97Z" fill="white"/>
<path d="M72.9923 129.065C72.9923 129.065 71.8481 129.276 70.4522 129.482C69.0563 129.688 67.895 129.825 67.895 129.797C67.895 129.768 69.0392 129.585 70.4351 129.379C71.8309 129.173 72.9866 129.036 72.9923 129.065Z" fill="#1A2E35"/>
<path d="M73.0896 129.728C73.0896 129.728 71.9454 129.94 70.5438 130.146C69.1422 130.351 67.9923 130.489 67.9866 130.466C67.9809 130.443 69.1308 130.248 70.5324 130.043C71.934 129.837 73.0838 129.7 73.0896 129.728Z" fill="#1A2E35"/>
<path d="M186.453 63.2052L189.428 63.5825C190.323 65.1059 191.627 66.3479 193.192 67.1677C195.1 68.1714 197.291 68.5003 199.408 68.1006C201.526 67.701 203.447 66.5966 204.856 64.9671C206.266 63.3376 207.082 61.279 207.172 59.1267C207.262 56.9743 206.621 54.8548 205.352 53.1134C204.083 51.3721 202.261 50.1115 200.184 49.5368C198.107 48.962 195.896 49.107 193.912 49.9483C191.928 50.7895 190.287 52.2774 189.257 54.1696C188.227 56.0618 187.868 58.2469 188.238 60.3691V60.3691L186.453 63.2052Z" fill="white"/>
<path d="M188.215 60.3804H188.255C188.25 60.3846 188.243 60.3868 188.235 60.3868C188.228 60.3868 188.221 60.3846 188.215 60.3804Z" fill="#1A2E35"/>
<path d="M195.023 57.0067H196.328C196.327 56.8576 196.356 56.71 196.414 56.5724C196.471 56.4349 196.556 56.3103 196.663 56.2062C196.769 56.1022 196.896 56.0207 197.035 55.9667C197.174 55.9127 197.323 55.8871 197.472 55.8917C197.691 55.8844 197.906 55.9454 198.089 56.0664C198.271 56.1873 198.412 56.3621 198.49 56.5664C198.561 56.7362 198.589 56.9206 198.573 57.1037C198.557 57.2869 198.497 57.4635 198.399 57.6186C198.227 57.8662 197.981 58.0524 197.695 58.1502C197.41 58.2479 197.101 58.252 196.814 58.1618V61.0952H198.101V59.3798C198.636 59.2293 199.106 58.9058 199.437 58.4598C199.768 58.0138 199.942 57.4706 199.932 56.9153C199.933 56.5991 199.87 56.286 199.747 55.9948C199.623 55.7035 199.442 55.4402 199.215 55.2207C198.987 55.0011 198.717 54.8298 198.422 54.7171C198.126 54.6045 197.811 54.5528 197.495 54.5651C197.164 54.5286 196.829 54.5665 196.514 54.6758C196.2 54.7852 195.914 54.9634 195.677 55.1974C195.44 55.4313 195.258 55.7152 195.145 56.0283C195.032 56.3413 194.991 56.6755 195.023 57.0067V57.0067Z" fill="#1A2E35"/>
<path d="M198.118 61.7012H196.808V62.9191H198.118V61.7012Z" fill="#1A2E35"/>
<path d="M79.5141 113.037L76.1731 113.003C74.5047 114.695 72.3219 115.785 69.9668 116.104C67.6118 116.422 65.2174 115.951 63.159 114.764C61.1006 113.577 59.4944 111.74 58.5922 109.543C57.6899 107.345 57.5425 104.911 58.1731 102.62C58.8037 100.33 60.1766 98.3138 62.0768 96.8871C63.9769 95.4604 66.2969 94.7041 68.6733 94.7366C71.0496 94.7691 73.348 95.5887 75.2084 97.0669C77.0687 98.5451 78.3859 100.598 78.9535 102.905C79.5263 105.213 79.3108 107.646 78.3413 109.818V109.818L79.5141 113.037Z" fill="white"/>
<path d="M79.514 113.037L79.4282 112.82C79.371 112.671 79.2909 112.465 79.1937 112.202C78.982 111.631 78.6845 110.859 78.2955 109.83H78.3813C78.3726 109.836 78.3619 109.84 78.3509 109.84C78.3399 109.84 78.3291 109.837 78.3201 109.83C78.3112 109.824 78.3045 109.815 78.3011 109.805C78.2977 109.794 78.2977 109.783 78.3012 109.772C79.0046 108.153 79.2992 106.386 79.1593 104.626C79.0686 103.488 78.7903 102.374 78.3355 101.327C77.8326 100.135 77.1151 99.0461 76.2188 98.1134C75.2311 97.0878 74.0486 96.2694 72.7406 95.7061C71.324 95.1021 69.7952 94.8058 68.2555 94.837C66.5849 94.8822 64.9484 95.3199 63.4785 96.1146C62.0086 96.9093 60.7465 98.0387 59.7944 99.4114C59.6685 99.5944 59.5426 99.7716 59.4282 99.9832L59.1193 100.555L58.9648 100.835L58.839 101.132L58.5873 101.704C58.3028 102.503 58.1109 103.332 58.0152 104.174C57.8242 105.805 58.0081 107.458 58.5529 109.006C59.0752 110.461 59.9089 111.784 60.9957 112.883C61.9856 113.886 63.1645 114.684 64.4643 115.23C65.7641 115.776 67.1592 116.059 68.5691 116.063C69.979 116.067 71.3758 115.793 72.6789 115.255C73.9821 114.717 75.1657 113.926 76.1616 112.929C76.168 112.926 76.1748 112.925 76.1817 112.925C76.1885 112.925 76.1953 112.926 76.2017 112.929L78.6731 112.986H79.3195H79.5426C79.4742 112.993 79.4052 112.993 79.3367 112.986H76.1731H76.2074C74.9605 114.27 73.4102 115.22 71.6994 115.748C69.0368 116.561 66.1632 116.323 63.6714 115.081C61.1795 113.84 59.2594 111.69 58.3069 109.075C57.7418 107.493 57.5462 105.803 57.7349 104.134C57.8384 103.273 58.0419 102.427 58.3413 101.613L58.5987 101.007L58.7303 100.698L58.8847 100.406L59.2051 99.8345C59.3195 99.6458 59.4511 99.4628 59.5712 99.2627C60.672 97.66 62.1845 96.3833 63.9498 95.567C65.715 94.7506 67.6676 94.4249 69.6024 94.6238C71.5372 94.8228 73.3826 95.5391 74.9445 96.6976C76.5065 97.856 77.7273 99.4136 78.4786 101.207C78.9318 102.275 79.2062 103.411 79.2909 104.569C79.4228 106.357 79.1062 108.149 78.3699 109.784L78.2841 109.727C78.2944 109.718 78.3076 109.713 78.3212 109.713C78.3349 109.713 78.3481 109.718 78.3584 109.727V109.727C78.7246 110.779 79.0106 111.591 79.2051 112.157C79.2966 112.414 79.3653 112.62 79.4168 112.769C79.4568 112.855 79.4894 112.945 79.514 113.037V113.037Z" fill="#1A2E35"/>
<path d="M67.9751 107.805C67.1396 107.806 66.3315 107.507 65.6976 106.963C65.0638 106.419 64.6464 105.666 64.5212 104.84C64.396 104.014 64.5714 103.171 65.0155 102.464C65.4596 101.756 66.1428 101.232 66.9412 100.985C67.7395 100.738 68.5998 100.786 69.3657 101.12C70.1317 101.454 70.7525 102.051 71.1152 102.803C71.478 103.555 71.5586 104.413 71.3424 105.22C71.1263 106.026 70.6277 106.729 69.9374 107.199C69.3589 107.593 68.6752 107.805 67.9751 107.805V107.805ZM67.9751 101.744C67.571 101.744 67.1725 101.839 66.8117 102.021C66.451 102.204 66.1381 102.468 65.8983 102.793C65.6585 103.118 65.4985 103.495 65.4312 103.894C65.3639 104.292 65.3911 104.701 65.5107 105.086C65.6304 105.472 65.839 105.825 66.1199 106.115C66.4007 106.406 66.7459 106.626 67.1277 106.759C67.5094 106.891 67.917 106.933 68.3176 106.879C68.7182 106.826 69.1006 106.679 69.434 106.45C69.8884 106.139 70.2312 105.69 70.4121 105.17C70.5931 104.65 70.6028 104.086 70.4397 103.56C70.2767 103.034 69.9495 102.574 69.506 102.247C69.0625 101.921 68.5261 101.744 67.9751 101.744V101.744Z" fill="#1A2E35"/>
<path d="M71.688 110.224C71.6133 110.225 71.5396 110.207 71.4737 110.172C71.4077 110.137 71.3516 110.086 71.3104 110.024L69.3024 107.091C69.2646 107.041 69.2373 106.985 69.2221 106.924C69.2069 106.864 69.2042 106.801 69.2141 106.74C69.224 106.679 69.2463 106.62 69.2796 106.567C69.313 106.515 69.3567 106.47 69.4081 106.435C69.4595 106.4 69.5175 106.376 69.5785 106.364C69.6396 106.352 69.7024 106.352 69.7632 106.366C69.824 106.379 69.8814 106.404 69.932 106.44C69.9827 106.477 70.0254 106.523 70.0575 106.576L72.0598 109.509C72.1285 109.609 72.155 109.731 72.1336 109.85C72.1121 109.969 72.0445 110.075 71.9454 110.144C71.8701 110.197 71.78 110.225 71.688 110.224V110.224Z" fill="#1A2E35"/>
<path d="M104.394 115.885L98.4843 120.259C99.0907 122.02 99.699 123.783 100.309 125.548C101.634 124.317 102.683 122.819 103.387 121.154C104.091 119.488 104.434 117.692 104.394 115.885Z" fill="#1A2E35"/>
<path d="M90.664 105.364C92.2761 104.558 94.118 104.335 95.8757 104.735C97.6193 105.143 99.2848 105.833 100.807 106.776C101.699 107.237 102.498 107.859 103.164 108.611C104.308 110.047 105.452 112.397 105.538 114.221C105.624 115.696 105.058 119.367 104.434 120.734C103.862 121.963 101.179 122.901 99.8574 123.204L87.7178 109.092C87.9365 108.306 88.3097 107.572 88.8156 106.931C89.3214 106.291 89.9498 105.758 90.664 105.364V105.364Z" fill="#1A2E35"/>
<path d="M88.5529 107.268L91.4591 106.747C89.8687 110.538 89.4397 119.196 88.53 123.204C87.4545 121.649 84.966 116.914 85.0976 115.021C85.2291 113.129 85.0918 106.948 88.5529 107.268Z" fill="#1A2E35"/>
<path d="M102.352 113.575C102.299 112.513 101.907 111.496 101.234 110.672C100.561 109.849 99.641 109.263 98.6101 109L91.9053 107.285C89.0106 106.971 87.0769 110.533 86.8881 113.438C86.6765 116.668 86.5449 120.07 86.9225 122.483C87.6833 127.327 91.3961 127.956 91.3961 127.956C91.3961 127.956 91.3961 130.243 91.3961 131.672L93.6387 140.952L101.116 132.89L102.363 113.626C102.369 113.552 102.357 113.683 102.352 113.575Z" fill="#FFBF9D"/>
<path d="M88.3414 117.103C88.3394 117.261 88.3973 117.413 88.5035 117.53C88.6096 117.647 88.7561 117.719 88.9134 117.732C88.9941 117.742 89.076 117.734 89.1535 117.71C89.231 117.685 89.3025 117.645 89.3631 117.591C89.4237 117.537 89.4721 117.47 89.5051 117.396C89.538 117.322 89.5548 117.241 89.5542 117.16C89.5548 117.003 89.4964 116.851 89.3905 116.734C89.2846 116.618 89.1389 116.545 88.9821 116.531C88.9024 116.526 88.8226 116.537 88.7473 116.564C88.6719 116.59 88.6025 116.631 88.543 116.684C88.4834 116.737 88.435 116.801 88.4004 116.873C88.3658 116.945 88.3457 117.023 88.3414 117.103V117.103Z" fill="#1A2E35"/>
<path d="M87.6148 115.342C87.6892 115.422 88.1869 115.073 88.8333 115.079C89.4798 115.084 89.9775 115.416 90.0633 115.336C90.1491 115.256 90.0233 115.153 89.8059 114.999C89.5173 114.797 89.1738 114.689 88.8219 114.69C88.4743 114.689 88.1356 114.799 87.8551 115.004C87.6491 115.159 87.5747 115.307 87.6148 115.342Z" fill="#1A2E35"/>
<path d="M94.1765 117.103C94.1718 117.261 94.2287 117.415 94.3355 117.533C94.4422 117.65 94.5903 117.722 94.7486 117.732C94.8293 117.742 94.9112 117.734 94.9887 117.71C95.0662 117.685 95.1377 117.645 95.1983 117.591C95.2589 117.537 95.3073 117.47 95.3403 117.396C95.3732 117.322 95.39 117.241 95.3894 117.16C95.3914 117.002 95.3334 116.85 95.2272 116.733C95.1211 116.616 94.9746 116.544 94.8173 116.531C94.7366 116.521 94.6548 116.529 94.5772 116.553C94.4997 116.577 94.4282 116.618 94.3676 116.672C94.307 116.726 94.2586 116.793 94.2256 116.867C94.1927 116.941 94.176 117.022 94.1765 117.103Z" fill="#1A2E35"/>
<path d="M93.9648 115.342C94.0449 115.422 94.5369 115.073 95.1834 115.079C95.8298 115.084 96.3276 115.416 96.4134 115.336C96.4992 115.256 96.3733 115.153 96.1616 114.999C95.8715 114.796 95.5258 114.688 95.1719 114.69C94.8245 114.69 94.486 114.8 94.2051 115.004C93.9992 115.159 93.9305 115.307 93.9648 115.342Z" fill="#1A2E35"/>
<path d="M91.8767 120.591C91.5233 120.484 91.1585 120.419 90.7898 120.396C90.6182 120.396 90.458 120.339 90.4294 120.225C90.416 120.049 90.4559 119.874 90.5438 119.722C90.704 119.304 90.8756 118.875 91.0529 118.418C91.5282 117.32 91.9109 116.183 92.1971 115.021C91.6417 116.082 91.1712 117.186 90.7898 118.321C90.6182 118.778 90.4523 119.213 90.2978 119.63C90.1921 119.836 90.1618 120.073 90.212 120.299C90.2368 120.359 90.275 120.412 90.3236 120.455C90.3722 120.497 90.4299 120.528 90.4923 120.545C90.5854 120.572 90.6815 120.587 90.7783 120.591C91.143 120.637 91.5121 120.637 91.8767 120.591V120.591Z" fill="#1A2E35"/>
<path d="M97.8264 126.234C97.8264 126.234 96.2475 129.562 91.3962 129.093V127.95C93.657 127.982 95.8825 127.388 97.8264 126.234V126.234Z" fill="#FF9A6C"/>
<path d="M94.1766 112.952C94.2452 113.129 94.9088 113.049 95.6926 113.14C96.4763 113.232 97.1114 113.455 97.2201 113.289C97.2658 113.215 97.1571 113.043 96.8997 112.866C96.5592 112.648 96.1733 112.511 95.7717 112.466C95.3701 112.42 94.9634 112.467 94.5828 112.603C94.2967 112.7 94.148 112.837 94.1766 112.952Z" fill="#1A2E35"/>
<path d="M87.8321 113.295C87.9522 113.449 88.4042 113.295 88.9762 113.295C89.5483 113.295 90.0003 113.397 90.1204 113.237C90.1662 113.163 90.0918 113.009 89.8916 112.866C89.6177 112.689 89.2961 112.601 88.9705 112.614C88.6449 112.618 88.3288 112.724 88.0666 112.917C87.8435 113.066 87.8035 113.22 87.8321 113.295Z" fill="#1A2E35"/>
<path d="M88.204 109.018C88.3755 108.661 88.6429 108.358 88.9762 108.144C89.3095 107.93 89.6958 107.813 90.0919 107.805C90.8847 107.803 91.6613 108.03 92.3287 108.457C95.1891 110.127 96.6994 114.175 99.5484 115.891C100.252 116.314 101.167 115.925 101.762 116.462C102.079 116.723 102.311 117.073 102.427 117.466C102.543 117.859 102.539 118.279 102.415 118.67C102.823 118.163 103.156 117.601 103.404 117C103.527 116.697 103.583 116.371 103.569 116.045C103.556 115.718 103.472 115.399 103.324 115.107C103.078 114.684 102.643 114.358 102.523 113.878C102.494 113.445 102.507 113.01 102.563 112.58C102.515 112.139 102.364 111.716 102.123 111.345C101.048 109.332 99.4461 107.648 97.4889 106.473C96.1966 105.727 94.7249 105.347 93.2326 105.375C91.7355 105.41 90.3004 105.98 89.188 106.982C88.5472 107.554 87.8779 108.189 88.2097 108.995" fill="#1A2E35"/>
<path d="M101.688 117.086C101.739 116.943 104.268 116.033 104.297 118.721C104.325 121.408 101.699 120.814 101.694 120.739C101.688 120.665 101.688 117.086 101.688 117.086Z" fill="#FFBF9D"/>
<path d="M102.489 119.744C102.489 119.744 102.535 119.745 102.609 119.807C102.719 119.851 102.842 119.851 102.952 119.807C103.118 119.697 103.252 119.546 103.341 119.369C103.43 119.191 103.472 118.994 103.461 118.795C103.467 118.571 103.422 118.348 103.33 118.144C103.305 118.062 103.26 117.988 103.199 117.928C103.138 117.868 103.063 117.824 102.981 117.8C102.929 117.786 102.874 117.791 102.826 117.814C102.778 117.837 102.739 117.877 102.718 117.926C102.683 118.001 102.718 118.052 102.683 118.058C102.649 118.063 102.626 118.012 102.649 117.903C102.664 117.838 102.7 117.78 102.752 117.738C102.823 117.686 102.91 117.661 102.998 117.669C103.106 117.688 103.207 117.735 103.292 117.805C103.376 117.875 103.44 117.966 103.479 118.069C103.594 118.294 103.651 118.543 103.645 118.795C103.667 119.03 103.616 119.266 103.5 119.47C103.383 119.675 103.206 119.839 102.992 119.939C102.923 119.961 102.849 119.967 102.776 119.957C102.704 119.946 102.635 119.918 102.575 119.876C102.495 119.813 102.477 119.75 102.489 119.744Z" fill="#FF9A6C"/>
<path d="M102.723 115.742L102.569 115.656C102.466 115.593 102.311 115.508 102.128 115.376C101.615 115.001 101.143 114.571 100.721 114.095C100.108 113.381 99.5347 112.632 99.0048 111.854C98.3658 110.902 97.6462 110.006 96.8538 109.178C96.4298 108.763 95.964 108.393 95.4636 108.074C94.9912 107.788 94.486 107.56 93.9591 107.394C93.0675 107.108 92.13 106.994 91.1959 107.056C90.565 107.095 89.9418 107.216 89.3424 107.417C89.1307 107.485 88.9705 107.554 88.8618 107.599C88.8062 107.623 88.7488 107.642 88.6902 107.657L88.8504 107.577C89.0036 107.499 89.1623 107.432 89.3252 107.377C89.9246 107.154 90.5525 107.017 91.1902 106.971C92.1364 106.899 93.0877 107.008 93.9934 107.291C94.5284 107.457 95.0413 107.687 95.5208 107.977C96.033 108.293 96.5071 108.667 96.9339 109.092C97.7322 109.927 98.4558 110.83 99.0964 111.791C99.6285 112.57 100.201 113.32 100.813 114.038C101.226 114.517 101.686 114.953 102.186 115.342C102.363 115.473 102.512 115.565 102.609 115.633C102.706 115.702 102.729 115.736 102.723 115.742Z" fill="#375A64"/>
<path d="M102.786 120.202C102.912 120.188 103.038 120.218 103.143 120.288C103.248 120.359 103.324 120.464 103.358 120.585C103.386 120.711 103.366 120.842 103.302 120.954C103.238 121.065 103.134 121.149 103.011 121.187C102.888 121.226 102.755 121.218 102.638 121.163C102.522 121.109 102.429 121.013 102.38 120.894C102.337 120.772 102.34 120.638 102.389 120.518C102.437 120.398 102.528 120.3 102.643 120.242" fill="white"/>
<path d="M102.678 120.242C102.568 120.336 102.487 120.459 102.443 120.597C102.426 120.667 102.426 120.742 102.444 120.812C102.462 120.883 102.497 120.948 102.546 121.003C102.607 121.068 102.684 121.115 102.77 121.14C102.855 121.166 102.946 121.167 103.032 121.145C103.116 121.113 103.19 121.059 103.247 120.989C103.303 120.918 103.34 120.834 103.353 120.745C103.361 120.673 103.352 120.599 103.325 120.531C103.298 120.463 103.254 120.403 103.198 120.356C103.085 120.267 102.947 120.214 102.804 120.202C102.804 120.202 102.844 120.202 102.924 120.202C103.042 120.206 103.155 120.245 103.25 120.316C103.323 120.37 103.381 120.442 103.418 120.526C103.455 120.609 103.47 120.7 103.461 120.791C103.452 120.902 103.409 121.007 103.34 121.095C103.271 121.182 103.178 121.247 103.072 121.283C102.965 121.316 102.85 121.317 102.743 121.285C102.635 121.254 102.539 121.191 102.466 121.105C102.406 121.038 102.365 120.956 102.347 120.868C102.329 120.779 102.335 120.688 102.363 120.602C102.395 120.487 102.466 120.386 102.563 120.316C102.615 120.242 102.678 120.236 102.678 120.242Z" fill="#1A2E35"/>
<path d="M102.066 116.479C102.171 117.189 102.084 117.914 101.814 118.578C101.666 118.903 101.398 119.158 101.067 119.29C100.735 119.422 100.365 119.421 100.035 119.287C99.8058 119.107 99.6202 118.878 99.4915 118.617C99.3628 118.355 99.2943 118.069 99.2909 117.777C99.0392 116.113 98.9305 114.432 98.6674 112.774L102.066 116.479Z" fill="#1A2E35"/>
<path d="M88.8447 107.805C88.8447 107.805 89.0793 107.765 89.4969 107.748C90.084 107.741 90.6669 107.848 91.2131 108.063C91.5918 108.217 91.954 108.408 92.2944 108.634C92.6831 108.896 93.0557 109.18 93.4099 109.486C94.2317 110.18 94.9656 110.971 95.5953 111.842C95.9271 112.305 96.2246 112.786 96.5392 113.226C96.841 113.658 97.1923 114.053 97.5861 114.404C98.2637 114.978 99.0045 115.473 99.7944 115.879C100.464 116.234 101.019 116.451 101.402 116.651L101.854 116.84C101.903 116.868 101.958 116.888 102.014 116.897C101.968 116.864 101.918 116.837 101.865 116.817L101.431 116.599C101.053 116.411 100.498 116.153 99.8401 115.788C99.0665 115.373 98.3413 114.875 97.6777 114.301C97.2929 113.963 96.951 113.579 96.6594 113.157C96.3447 112.717 96.053 112.237 95.7154 111.768C95.0772 110.888 94.3315 110.09 93.4958 109.395C93.132 109.088 92.7499 108.803 92.3516 108.543C92.0011 108.313 91.6271 108.122 91.236 107.971C90.6732 107.754 90.0707 107.658 89.4683 107.691C89.3068 107.704 89.1463 107.726 88.9877 107.759L88.8447 107.805Z" fill="#375A64"/>
<path d="M102.14 114.867C102.14 114.867 102.22 114.93 102.369 115.027L103.032 115.41L103.255 115.542C103.342 115.595 103.44 115.626 103.541 115.633C103.603 115.641 103.666 115.627 103.719 115.593C103.747 115.574 103.77 115.548 103.787 115.518C103.804 115.489 103.814 115.456 103.816 115.422C103.81 115.301 103.766 115.184 103.69 115.09L102.924 113.861L102.821 113.958C103.074 114.145 103.359 114.286 103.662 114.375C103.963 114.469 104.279 114.508 104.594 114.49C104.673 114.484 104.752 114.471 104.829 114.45C104.874 114.436 104.915 114.414 104.951 114.383C104.986 114.353 105.015 114.315 105.035 114.272C105.049 114.228 105.053 114.181 105.045 114.135C105.037 114.089 105.018 114.046 104.989 114.009C104.945 113.949 104.895 113.894 104.84 113.844C104.495 113.504 104.196 113.119 103.953 112.7C103.733 112.315 103.542 111.913 103.381 111.499C103.39 111.619 103.417 111.737 103.461 111.848C103.717 112.63 104.156 113.34 104.743 113.918C104.84 114.009 104.932 114.118 104.897 114.198C104.863 114.278 104.72 114.318 104.583 114.324C104.283 114.336 103.984 114.299 103.696 114.215C103.41 114.13 103.141 113.997 102.901 113.821L102.586 113.592L102.798 113.918L103.582 115.136C103.641 115.208 103.678 115.295 103.69 115.387C103.689 115.405 103.684 115.422 103.676 115.438C103.667 115.453 103.655 115.467 103.641 115.478C103.627 115.489 103.611 115.496 103.594 115.5C103.577 115.505 103.559 115.505 103.541 115.502C103.374 115.467 103.215 115.401 103.072 115.307L102.392 114.959C102.311 114.921 102.226 114.89 102.14 114.867V114.867Z" fill="#375A64"/>
<path d="M94.4225 121.826C94.3734 121.627 94.256 121.452 94.0908 121.331C93.9256 121.209 93.7232 121.15 93.5186 121.163C93.3698 121.182 93.228 121.238 93.1054 121.325C92.9829 121.411 92.8832 121.526 92.815 121.66C92.7511 121.796 92.7147 121.943 92.7079 122.093C92.701 122.244 92.7238 122.394 92.7749 122.535V122.598C92.9156 122.754 93.1026 122.861 93.3085 122.903C93.5144 122.945 93.7284 122.92 93.9191 122.832C94.1019 122.743 94.2502 122.596 94.3412 122.414C94.4322 122.232 94.4608 122.026 94.4225 121.826V121.826Z" fill="#FF9A6C"/>
<path d="M92.3058 122.609C92.3058 122.506 92.9809 122.541 93.49 121.986C93.9992 121.431 93.9591 120.711 94.0621 120.711C94.1651 120.711 94.1822 120.877 94.1765 121.18C94.1629 121.576 94.0088 121.955 93.7417 122.249C93.4865 122.531 93.1317 122.703 92.752 122.729C92.466 122.741 92.3001 122.672 92.3058 122.609Z" fill="#1A2E35"/>
<path d="M81.9968 174.426C82.6033 171.286 84.5541 160.702 84.5541 158.57C84.3852 157.956 84.1671 157.358 83.9019 156.78C83.3298 154.87 81.3504 147.843 81.7966 144.143C82.1513 141.181 84.657 137.396 85.4122 135.372C85.7612 134.417 88.5758 133.439 89.514 133.044L91.5106 130.231C91.5106 130.231 91.0758 131.541 92.8378 132.713C93.7919 133.331 94.9179 133.629 96.0529 133.565C97.1784 133.514 98.2813 133.231 99.2924 132.734C100.303 132.238 101.201 131.537 101.928 130.677L102.254 130.935C108.696 133.01 108.627 133.022 109.869 133.542C111.459 134.211 106.436 150.553 106.436 150.553C106.436 150.553 103.456 161.583 105.063 165.002C105.967 166.929 109.011 170.108 109.783 171.898C109.783 171.898 111.127 173.774 111.15 174.242C111.173 174.711 103.215 178.159 96.9339 178.508C85.2863 179.154 81.9968 174.426 81.9968 174.426Z" fill="#F5F5F5"/>
<path d="M129.972 203.113H83.1925C82.0046 203.113 81.0415 204.075 81.0415 205.263V214.257C81.0415 215.444 82.0046 216.407 83.1925 216.407H129.972C131.16 216.407 132.123 215.444 132.123 214.257V205.263C132.123 204.075 131.16 203.113 129.972 203.113Z" fill="#1A2E35"/>
<path d="M126.276 206.286H104.44C104.215 206.286 104.033 206.468 104.033 206.692V213.388C104.033 213.612 104.215 213.794 104.44 213.794H126.276C126.5 213.794 126.682 213.612 126.682 213.388V206.692C126.682 206.468 126.5 206.286 126.276 206.286Z" fill="white"/>
<path d="M92.6891 212.753C94.1898 212.753 95.4065 211.537 95.4065 210.037C95.4065 208.537 94.1898 207.321 92.6891 207.321C91.1883 207.321 89.9717 208.537 89.9717 210.037C89.9717 211.537 91.1883 212.753 92.6891 212.753Z" fill="#1A2E35"/>
<path d="M92.6834 213.211C92.0554 213.211 91.4415 213.024 90.9194 212.676C90.3973 212.327 89.9903 211.831 89.75 211.252C89.5097 210.672 89.4468 210.034 89.5693 209.418C89.6918 208.802 89.9942 208.237 90.4383 207.793C90.8823 207.349 91.448 207.047 92.0639 206.925C92.6798 206.802 93.3182 206.865 93.8984 207.105C94.4786 207.345 94.9744 207.752 95.3233 208.274C95.6722 208.796 95.8584 209.409 95.8584 210.037C95.8569 210.878 95.5219 211.685 94.9268 212.279C94.3317 212.874 93.525 213.209 92.6834 213.211V213.211ZM92.6834 207.779C92.2296 207.779 91.786 207.913 91.4091 208.166C91.0322 208.419 90.7389 208.778 90.5666 209.197C90.3943 209.617 90.3507 210.078 90.4413 210.523C90.532 210.967 90.7528 211.375 91.0757 211.693C91.3985 212.012 91.809 212.227 92.2547 212.312C92.7005 212.397 93.1615 212.348 93.5791 212.171C93.9967 211.993 94.352 211.695 94.6 211.315C94.848 210.936 94.9774 210.491 94.9717 210.037C94.9642 209.436 94.7198 208.861 94.2914 208.438C93.8631 208.016 93.2853 207.779 92.6834 207.779Z" fill="#E1E1E1"/>
<path d="M106.402 207.567C106.554 209.241 106.554 210.925 106.402 212.599C106.242 210.925 106.242 209.24 106.402 207.567V207.567Z" fill="#E1E1E1"/>
<path d="M108.605 207.567C108.757 209.241 108.757 210.925 108.605 212.599C108.444 210.925 108.444 209.24 108.605 207.567V207.567Z" fill="#E1E1E1"/>
<path d="M110.807 207.567C110.967 209.24 110.967 210.925 110.807 212.599C110.647 210.925 110.647 209.24 110.807 207.567Z" fill="#E1E1E1"/>
<path d="M113.009 207.567C113.17 209.24 113.17 210.925 113.009 212.599C112.849 210.925 112.849 209.24 113.009 207.567V207.567Z" fill="#E1E1E1"/>
<path d="M115.212 207.567C115.372 209.24 115.372 210.925 115.212 212.599C115.06 210.925 115.06 209.241 115.212 207.567V207.567Z" fill="#E1E1E1"/>
<path d="M117.414 207.567C117.575 209.24 117.575 210.925 117.414 212.599C117.262 210.925 117.262 209.241 117.414 207.567V207.567Z" fill="#E1E1E1"/>
<path d="M119.623 207.567C119.775 209.241 119.775 210.925 119.623 212.599C119.463 210.925 119.463 209.24 119.623 207.567V207.567Z" fill="#E1E1E1"/>
<path d="M121.825 207.567C121.985 209.24 121.985 210.925 121.825 212.599C121.665 210.925 121.665 209.24 121.825 207.567V207.567Z" fill="#E1E1E1"/>
<path d="M124.028 207.567C124.188 209.24 124.188 210.925 124.028 212.599C123.868 210.925 123.868 209.24 124.028 207.567V207.567Z" fill="#E1E1E1"/>
<path d="M129.972 190.31H83.1925C82.0046 190.31 81.0415 191.273 81.0415 192.46V201.454C81.0415 202.642 82.0046 203.604 83.1925 203.604H129.972C131.16 203.604 132.123 202.642 132.123 201.454V192.46C132.123 191.273 131.16 190.31 129.972 190.31Z" fill="#375A64"/>
<path d="M126.276 193.484H104.44C104.215 193.484 104.033 193.665 104.033 193.89V200.585C104.033 200.809 104.215 200.991 104.44 200.991H126.276C126.5 200.991 126.682 200.809 126.682 200.585V193.89C126.682 193.665 126.5 193.484 126.276 193.484Z" fill="white"/>
<path d="M92.6891 199.951C94.1898 199.951 95.4065 198.735 95.4065 197.235C95.4065 195.735 94.1898 194.519 92.6891 194.519C91.1883 194.519 89.9717 195.735 89.9717 197.235C89.9717 198.735 91.1883 199.951 92.6891 199.951Z" fill="#1A2E35"/>
<path d="M92.6834 200.437C92.0554 200.437 91.4415 200.25 90.9194 199.902C90.3973 199.553 89.9903 199.057 89.75 198.478C89.5097 197.898 89.4468 197.26 89.5693 196.644C89.6918 196.028 89.9942 195.463 90.4383 195.019C90.8823 194.575 91.448 194.273 92.0639 194.151C92.6798 194.028 93.3182 194.091 93.8984 194.331C94.4786 194.571 94.9744 194.978 95.3233 195.5C95.6722 196.022 95.8584 196.635 95.8584 197.263C95.8569 198.104 95.5219 198.911 94.9268 199.505C94.3317 200.1 93.525 200.435 92.6834 200.437ZM92.6834 195.004C92.2308 195.004 91.7883 195.139 91.412 195.39C91.0357 195.641 90.7424 195.998 90.5692 196.416C90.396 196.834 90.3507 197.294 90.439 197.738C90.5273 198.182 90.7452 198.589 91.0653 198.909C91.3853 199.229 91.793 199.447 92.2369 199.535C92.6808 199.623 93.1409 199.578 93.5591 199.405C93.9772 199.232 94.3346 198.938 94.586 198.562C94.8375 198.186 94.9717 197.744 94.9717 197.292C94.9755 196.989 94.9191 196.688 94.8058 196.408C94.6925 196.127 94.5245 195.871 94.3117 195.656C94.0988 195.44 93.8452 195.269 93.5657 195.153C93.2862 195.036 92.9863 194.976 92.6834 194.976V195.004Z" fill="#E1E1E1"/>
<path d="M106.402 194.764C106.554 196.438 106.554 198.122 106.402 199.796C106.242 198.123 106.242 196.438 106.402 194.764V194.764Z" fill="#E1E1E1"/>
<path d="M108.605 194.764C108.757 196.438 108.757 198.122 108.605 199.796C108.444 198.123 108.444 196.438 108.605 194.764V194.764Z" fill="#E1E1E1"/>
<path d="M110.807 194.764C110.967 196.438 110.967 198.123 110.807 199.796C110.647 198.123 110.647 196.438 110.807 194.764Z" fill="#E1E1E1"/>
<path d="M113.009 194.764C113.17 196.438 113.17 198.123 113.009 199.796C112.849 198.123 112.849 196.438 113.009 194.764V194.764Z" fill="#E1E1E1"/>
<path d="M115.212 194.764C115.372 196.438 115.372 198.123 115.212 199.796C115.06 198.122 115.06 196.438 115.212 194.764V194.764Z" fill="#E1E1E1"/>
<path d="M117.414 194.764C117.575 196.438 117.575 198.123 117.414 199.796C117.262 198.122 117.262 196.438 117.414 194.764Z" fill="#E1E1E1"/>
<path d="M119.623 194.764C119.775 196.438 119.775 198.122 119.623 199.796C119.463 198.123 119.463 196.438 119.623 194.764V194.764Z" fill="#E1E1E1"/>
<path d="M121.825 194.764C121.985 196.438 121.985 198.123 121.825 199.796C121.665 198.123 121.665 196.438 121.825 194.764V194.764Z" fill="#E1E1E1"/>
<path d="M124.028 194.764C124.188 196.438 124.188 198.123 124.028 199.796C123.868 198.123 123.868 196.438 124.028 194.764V194.764Z" fill="#E1E1E1"/>
<path d="M129.972 216.476H83.1925C82.0046 216.476 81.0415 217.438 81.0415 218.626V227.62C81.0415 228.807 82.0046 229.77 83.1925 229.77H129.972C131.16 229.77 132.123 228.807 132.123 227.62V218.626C132.123 217.438 131.16 216.476 129.972 216.476Z" fill="#E1E1E1"/>
<path d="M126.276 219.649H104.44C104.215 219.649 104.033 219.831 104.033 220.055V226.751C104.033 226.975 104.215 227.157 104.44 227.157H126.276C126.5 227.157 126.682 226.975 126.682 226.751V220.055C126.682 219.831 126.5 219.649 126.276 219.649Z" fill="white"/>
<path d="M95.4008 223.406C95.4008 222.869 95.2415 222.343 94.9429 221.897C94.6443 221.45 94.2199 221.102 93.7234 220.896C93.2268 220.691 92.6804 220.637 92.1533 220.742C91.6262 220.847 91.142 221.105 90.762 221.485C90.3819 221.865 90.1231 222.349 90.0183 222.876C89.9134 223.403 89.9672 223.949 90.1729 224.445C90.3786 224.941 90.7269 225.366 91.1738 225.664C91.6206 225.962 92.146 226.122 92.6835 226.122C93.4042 226.122 94.0953 225.836 94.6049 225.326C95.1146 224.817 95.4008 224.126 95.4008 223.406V223.406Z" fill="#1A2E35"/>
<path d="M92.6834 226.579C92.0554 226.579 91.4415 226.393 90.9194 226.044C90.3973 225.696 89.9903 225.2 89.75 224.62C89.5097 224.04 89.4468 223.402 89.5693 222.787C89.6918 222.171 89.9942 221.606 90.4383 221.162C90.8823 220.718 91.448 220.416 92.0639 220.293C92.6798 220.171 93.3182 220.234 93.8984 220.474C94.4786 220.714 94.9744 221.121 95.3233 221.643C95.6722 222.165 95.8584 222.778 95.8584 223.406C95.8569 224.247 95.5219 225.053 94.9268 225.648C94.3317 226.243 93.525 226.578 92.6834 226.579ZM92.6834 221.141C92.2308 221.141 91.7883 221.275 91.412 221.527C91.0357 221.778 90.7424 222.135 90.5692 222.553C90.396 222.971 90.3507 223.431 90.439 223.875C90.5273 224.319 90.7452 224.726 91.0653 225.046C91.3853 225.366 91.793 225.584 92.2369 225.672C92.6808 225.76 93.1409 225.715 93.5591 225.542C93.9772 225.369 94.3346 225.075 94.586 224.699C94.8375 224.323 94.9717 223.881 94.9717 223.429C94.9717 222.822 94.7306 222.24 94.3015 221.811C93.8723 221.382 93.2903 221.141 92.6834 221.141V221.141Z" fill="#F5F5F5"/>
<path d="M106.402 220.936C106.554 222.609 106.554 224.294 106.402 225.967C106.242 224.294 106.242 222.609 106.402 220.936V220.936Z" fill="#E1E1E1"/>
<path d="M108.605 220.936C108.757 222.609 108.757 224.294 108.605 225.967C108.444 224.294 108.444 222.609 108.605 220.936V220.936Z" fill="#E1E1E1"/>
<path d="M110.807 220.936C110.967 222.609 110.967 224.294 110.807 225.967C110.647 224.294 110.647 222.609 110.807 220.936V220.936Z" fill="#E1E1E1"/>
<path d="M113.009 220.936C113.17 222.609 113.17 224.294 113.009 225.967C112.849 224.294 112.849 222.609 113.009 220.936V220.936Z" fill="#E1E1E1"/>
<path d="M115.212 220.936C115.372 222.609 115.372 224.294 115.212 225.967C115.06 224.294 115.06 222.609 115.212 220.936V220.936Z" fill="#E1E1E1"/>
<path d="M117.414 220.936C117.575 222.609 117.575 224.294 117.414 225.967C117.262 224.294 117.262 222.609 117.414 220.936Z" fill="#E1E1E1"/>
<path d="M119.623 220.936C119.775 222.609 119.775 224.294 119.623 225.967C119.463 224.294 119.463 222.609 119.623 220.936V220.936Z" fill="#E1E1E1"/>
<path d="M121.825 220.936C121.985 222.609 121.985 224.294 121.825 225.967C121.665 224.294 121.665 222.609 121.825 220.936V220.936Z" fill="#E1E1E1"/>
<path d="M124.028 220.936C124.188 222.609 124.188 224.294 124.028 225.967C123.868 224.294 123.868 222.609 124.028 220.936V220.936Z" fill="#E1E1E1"/>
<path d="M56.5335 202.953L52.7463 211.112C52.7463 211.112 43.3013 209.866 42.4489 211.307L57.8951 219.352L64.3482 206.875L56.5335 202.953Z" fill="#375A64"/>
<path d="M57.7864 212.856C57.9137 212.979 57.9916 213.143 58.0053 213.319C58.019 213.496 57.9676 213.67 57.8607 213.811C57.7436 213.945 57.5792 214.028 57.4021 214.043C57.225 214.058 57.049 214.003 56.9111 213.891C56.7759 213.761 56.694 213.585 56.6813 213.398C56.6686 213.211 56.7261 213.026 56.8424 212.879C56.9765 212.751 57.1548 212.68 57.3402 212.68C57.5255 212.68 57.7038 212.751 57.8379 212.879" fill="#E1E1E1"/>
<path d="M57.9008 219.352L58.4157 218.357L43.267 210.849C43.0858 210.864 42.9096 210.916 42.7493 211.002C42.5889 211.087 42.4478 211.205 42.3345 211.347L57.9008 219.352Z" fill="#1A2E35"/>
<path d="M52.5804 211.089C52.546 211.169 52.9122 211.398 53.1525 211.838C53.3927 212.279 53.4385 212.696 53.5243 212.702C53.6101 212.707 53.7245 212.21 53.4099 211.684C53.0952 211.158 52.5975 211.015 52.5804 211.089Z" fill="#1A2E35"/>
<path d="M50.6182 210.935C50.5667 211.004 50.8299 211.301 50.9271 211.758C51.0244 212.216 50.9271 212.593 51.0015 212.627C51.0758 212.662 51.3447 212.256 51.2189 211.69C51.093 211.124 50.6182 210.866 50.6182 210.935Z" fill="#1A2E35"/>
<path d="M48.6559 212.444C48.7188 212.496 49.022 212.164 49.0334 211.644C49.0449 211.124 48.776 210.78 48.7131 210.826C48.6501 210.872 48.7588 211.209 48.7131 211.638C48.6673 212.067 48.5872 212.387 48.6559 212.444Z" fill="#1A2E35"/>
<path d="M53.6559 209.317C53.6559 209.402 54.0564 209.471 54.4797 209.723C54.9031 209.974 55.1605 210.294 55.2349 210.231C55.3093 210.168 55.1262 209.751 54.6285 209.465C54.1308 209.179 53.6502 209.237 53.6559 209.317Z" fill="#1A2E35"/>
<path d="M54.2566 207.447C54.4792 207.644 54.7493 207.78 55.0403 207.841C55.3495 207.933 55.6681 207.988 55.99 208.007C56.1805 208.018 56.3715 208.018 56.5621 208.007C56.6732 208.002 56.7831 207.981 56.8881 207.944C56.9657 207.915 57.0317 207.861 57.076 207.791C57.1204 207.721 57.1408 207.638 57.1341 207.556C57.122 207.483 57.0936 207.414 57.051 207.353C57.0084 207.293 56.9527 207.243 56.8881 207.207C56.7871 207.155 56.6792 207.119 56.5678 207.098C56.3797 207.055 56.1883 207.029 55.9957 207.018C55.6697 207.003 55.3434 207.04 55.0289 207.127C54.7345 207.182 54.4624 207.321 54.2451 207.527C54.2451 207.573 54.5655 207.424 55.0804 207.333C55.5513 207.246 56.0357 207.263 56.4991 207.384C56.6879 207.424 56.8309 207.493 56.8366 207.59C56.8424 207.687 56.8366 207.636 56.7737 207.67C56.6955 207.694 56.6149 207.709 56.5334 207.716C56.3447 207.716 56.1673 207.744 55.9957 207.744C55.6902 207.739 55.3858 207.707 55.0861 207.647C54.8144 207.562 54.5373 207.495 54.2566 207.447V207.447Z" fill="#1A2E35"/>
<path d="M71.2131 216.07L71.6879 225.053C71.6879 225.053 62.7577 228.363 62.6833 230.033L80.1033 229.919L79.9316 215.892L71.2131 216.07Z" fill="#375A64"/>
<path d="M76.974 224.235C77.1435 224.279 77.291 224.384 77.3889 224.529C77.4868 224.674 77.5285 224.85 77.506 225.024C77.4638 225.196 77.3569 225.344 77.2077 225.439C77.0585 225.534 76.8785 225.567 76.7051 225.533C76.5258 225.481 76.3719 225.365 76.2728 225.206C76.1736 225.048 76.1361 224.859 76.1674 224.675C76.2286 224.499 76.3564 224.355 76.5234 224.272C76.6903 224.19 76.883 224.177 77.0598 224.235" fill="#E1E1E1"/>
<path d="M80.1204 229.919V228.804L63.2211 229.249C63.0717 229.351 62.9442 229.481 62.8459 229.632C62.7476 229.783 62.6807 229.953 62.649 230.13L80.1204 229.919Z" fill="#1A2E35"/>
<path d="M71.5506 225.11C71.5506 225.195 71.9854 225.23 72.4088 225.493C72.8321 225.756 73.0667 226.122 73.1467 226.065C73.2268 226.007 73.0895 225.533 72.5747 225.218C72.0598 224.904 71.5278 225.024 71.5506 225.11Z" fill="#1A2E35"/>
<path d="M69.72 225.905C69.72 225.99 70.0747 226.128 70.3721 226.476C70.6696 226.825 70.7612 227.214 70.847 227.208C70.9328 227.203 70.9786 226.716 70.601 226.282C70.2234 225.847 69.72 225.825 69.72 225.905Z" fill="#1A2E35"/>
<path d="M68.7074 228.129C68.7875 228.129 68.8962 227.717 68.6674 227.248C68.4386 226.779 68.0381 226.602 68.0038 226.676C67.9695 226.751 68.2212 226.991 68.3985 227.38C68.5759 227.769 68.6216 228.123 68.7074 228.129Z" fill="#1A2E35"/>
<path d="M71.6651 223.034C71.7052 223.114 72.0999 222.988 72.5804 223.034C73.061 223.08 73.45 223.206 73.4958 223.131C73.5415 223.057 73.1697 222.76 72.5976 222.737C72.0255 222.714 71.6251 222.971 71.6651 223.034Z" fill="#1A2E35"/>
<path d="M71.3218 221.107C71.6102 221.185 71.9143 221.185 72.2028 221.107C72.5189 221.046 72.8263 220.946 73.1181 220.81C73.2912 220.726 73.4593 220.633 73.6215 220.53C73.7196 220.475 73.8069 220.404 73.879 220.318C73.936 220.257 73.9705 220.179 73.9768 220.095C73.983 220.012 73.9606 219.929 73.9133 219.861C73.8695 219.802 73.8125 219.754 73.747 219.721C73.6814 219.689 73.609 219.672 73.5357 219.672C73.4234 219.675 73.312 219.693 73.2039 219.723C72.7019 219.858 72.2404 220.113 71.8595 220.467C71.4534 220.856 71.3218 221.176 71.3504 221.193C71.379 221.21 71.5849 220.947 71.9968 220.621C72.2356 220.438 72.4971 220.286 72.7749 220.169C72.9349 220.098 73.1016 220.042 73.2726 220.004C73.4614 219.952 73.6215 219.946 73.6673 220.004C73.7131 220.061 73.6673 220.049 73.6673 220.106C73.6091 220.166 73.5438 220.218 73.4728 220.261C73.3254 220.361 73.1726 220.452 73.0151 220.535C72.7438 220.673 72.4604 220.786 72.1685 220.873C71.8798 220.926 71.5965 221.004 71.3218 221.107V221.107Z" fill="#1A2E35"/>
<path d="M111.059 172.939C111.059 172.939 75.395 168.719 73.3412 168.719C68.5129 168.719 66.2474 172.253 65.5266 175.089C64.9946 177.187 54.2509 207.515 54.2509 207.515L62.1742 211.621L73.8275 190.928L79.7943 180.601L110.401 185.324L111.059 172.939Z" fill="#1A2E35"/>
<path d="M78.3298 179.646C78.3298 179.646 73.5472 179.646 70.9614 183.471C69.4454 185.719 69.9774 189.761 69.9488 192.769C69.9031 196.892 70.9042 222.045 70.9042 222.045L80.6868 222.211L82.7349 195.994L82.6147 191.151L102.146 189.561C102.146 189.561 103.925 183.643 99.5484 178.977C98.9877 178.377 78.3298 179.646 78.3298 179.646Z" fill="#1A2E35"/>
<path d="M111.047 173.425C111.047 173.425 114.097 180.458 109.983 186.473C107.266 190.442 102.054 189.532 102.054 189.532L95.1377 180.875L100.658 172.253L111.047 173.425Z" fill="#1A2E35"/>
<path d="M70.9043 222.045H71.0759H73.5302L80.6869 222.125L80.6011 222.205C80.9787 216.944 81.4878 209.865 82.0485 202.089C82.2373 199.556 82.4146 197.097 82.6205 194.764C82.5862 193.518 82.5576 192.317 82.5347 191.151V191.042H82.6377C88.1926 190.596 92.9352 190.196 96.2647 189.898C97.9352 189.744 99.2624 189.618 100.166 189.515C100.618 189.469 100.967 189.418 101.202 189.389C101.436 189.361 101.551 189.321 101.556 189.327C101.443 189.367 101.326 189.4 101.207 189.424C100.973 189.464 100.635 189.532 100.178 189.584C99.2739 189.71 97.9524 189.858 96.2819 190.03C92.9409 190.373 88.2098 190.802 82.6549 191.265L82.7578 191.156C82.7922 192.3 82.8208 193.529 82.8551 194.77C82.6835 197.103 82.5061 199.562 82.3173 202.095C81.7453 209.866 81.2018 216.962 80.807 222.211V222.291H80.727L73.5302 222.165L71.5851 222.108H71.0759C71.0161 222.095 70.9583 222.074 70.9043 222.045V222.045Z" fill="#375A64"/>
<path d="M102.054 189.532L101.923 189.464L101.534 189.281L100.029 188.6L94.4798 186.13L86.2361 182.488L81.3677 180.344C80.9443 180.161 80.5324 179.955 80.0748 179.772C79.6245 179.614 79.1612 179.495 78.6903 179.417C77.7237 179.273 76.7419 179.264 75.7727 179.389C74.7999 179.505 73.8519 179.776 72.9638 180.189C72.5338 180.399 72.1367 180.671 71.7853 180.995C71.4223 181.327 71.1134 181.712 70.8699 182.139C70.4106 182.94 70.1332 183.832 70.0576 184.752C70.0175 185.204 70.0576 185.638 70.0576 186.073V187.365C70.0919 190.75 70.132 193.804 70.1606 196.371C70.1892 198.938 70.2235 200.997 70.2464 202.444C70.2464 203.153 70.2578 203.702 70.2807 204.09V204.519C70.2758 204.569 70.2758 204.618 70.2807 204.668C70.2856 204.618 70.2856 204.569 70.2807 204.519C70.2807 204.416 70.2807 204.273 70.2807 204.09V202.444C70.2807 200.997 70.2807 198.927 70.2807 196.371C70.2807 193.815 70.2407 190.75 70.2178 187.36C70.2178 186.936 70.2178 186.508 70.2178 186.073C70.2178 185.638 70.2178 185.198 70.2178 184.769C70.2956 183.877 70.567 183.013 71.013 182.236C71.2414 181.841 71.5289 181.482 71.8654 181.173C72.2104 180.87 72.5954 180.616 73.0095 180.418C73.8781 180.016 74.8049 179.753 75.7555 179.64C76.7045 179.509 77.667 179.509 78.6159 179.64C79.0769 179.718 79.5305 179.835 79.9718 179.989C80.4066 180.132 80.8299 180.349 81.2532 180.527L86.1274 182.659L94.3825 186.262L99.9603 188.68L101.482 189.327L101.877 189.487C101.933 189.513 101.993 189.528 102.054 189.532V189.532Z" fill="#375A64"/>
<path d="M84.4054 154.436C84.4021 154.243 84.3772 154.051 84.331 153.864C84.2624 153.498 84.188 152.972 84.1136 152.314C84.0392 151.657 83.9878 150.873 83.9763 150.027C83.9741 149.083 84.0257 148.14 84.1308 147.202C84.2438 146.263 84.4119 145.331 84.6342 144.412C84.8459 143.571 85.0747 142.816 85.2978 142.199C85.5209 141.581 85.7212 141.055 85.8699 140.741C85.9569 140.569 86.0277 140.389 86.0816 140.203C85.9727 140.364 85.8789 140.534 85.8013 140.712C85.6354 141.038 85.418 141.53 85.1777 142.148C84.8974 142.875 84.6586 143.617 84.4626 144.372C84.2311 145.296 84.0572 146.234 83.942 147.179C83.8362 148.129 83.7903 149.083 83.8047 150.038C83.8183 150.815 83.8775 151.59 83.982 152.36C84.0488 152.879 84.1423 153.394 84.2624 153.904C84.2966 154.084 84.3444 154.262 84.4054 154.436V154.436Z" fill="#1A2E35"/>
<path d="M91.5105 130.231V128.79L89.7943 131.546L86.3618 132.816C85.2806 134.062 81.7851 148.106 82.4774 150.433L83.7073 164.156L80.2119 169.405L86.5048 170.074C86.5048 170.074 87.8492 168.748 87.5117 165.231C86.6593 156.322 87.5117 146.156 87.6719 143.909C87.8378 140.529 91.5105 130.231 91.5105 130.231Z" fill="#E56A20"/>
<path d="M89.8001 131.546C89.8001 131.546 84.1479 133.393 83.4042 134.457C81.3905 137.356 69.2566 157.163 75.212 163.047C79.1136 166.918 84.5941 158.753 84.5941 158.753L89.8001 131.546Z" fill="#E56A20"/>
<path d="M75.9385 155.196C76.1147 155.183 76.2891 155.153 76.4591 155.104L77.8664 154.801C79.062 154.55 80.7268 154.195 82.6662 153.909L82.5632 153.847C82.752 154.327 82.9465 154.819 83.1353 155.328C83.633 156.58 84.0964 157.763 84.5083 158.804V158.718L82.3801 161.371L81.808 162.132C81.7353 162.22 81.6703 162.313 81.6135 162.412C81.7017 162.338 81.7822 162.256 81.8538 162.166L82.4831 161.44C83.0552 160.777 83.7817 159.885 84.6627 158.833L84.6971 158.793V158.741C84.2909 157.701 83.8275 156.511 83.3412 155.253C83.141 154.75 82.9465 154.252 82.7691 153.778V153.704H82.6948C80.7554 154.007 79.0849 154.384 77.8893 154.67C77.3172 154.813 76.8195 154.939 76.4934 155.03C76.3044 155.071 76.1189 155.126 75.9385 155.196V155.196Z" fill="#1A2E35"/>
<path d="M81.751 153.612C81.7527 153.401 81.7336 153.19 81.6938 152.983C81.6423 152.543 81.5736 151.965 81.4878 151.268C81.2247 149.391 81.1615 147.491 81.299 145.601C81.4884 143.716 82.0196 141.881 82.8665 140.186C83.1812 139.529 83.473 139.014 83.6732 138.66C83.7853 138.475 83.8865 138.284 83.9764 138.088C83.9764 138.088 83.9306 138.128 83.8677 138.214L83.6045 138.608C83.3871 138.951 83.0782 139.454 82.7407 140.106C81.848 141.804 81.2924 143.658 81.1045 145.567C80.9641 147.476 81.0448 149.395 81.3448 151.285C81.4478 152.005 81.5508 152.589 81.6194 153C81.6496 153.207 81.6935 153.411 81.751 153.612V153.612Z" fill="#1A2E35"/>
<path d="M86.8482 151.262C86.8559 151.186 86.8559 151.109 86.8482 151.033C86.8482 150.868 86.8482 150.65 86.7967 150.387C86.7452 149.815 86.6766 148.998 86.5851 148.009C86.4935 147.019 86.3734 145.807 86.2475 144.486C86.1789 143.823 86.1102 143.125 86.0416 142.405C85.994 142.045 85.9749 141.682 85.9844 141.319C85.9842 140.953 86.0851 140.595 86.2761 140.284C86.3808 140.111 86.5276 139.968 86.7028 139.868C86.8779 139.768 87.0756 139.714 87.2773 139.712H87.632L87.3345 139.512L85.8471 138.511V138.637L88.7532 133.656C89.0965 133.05 89.3768 132.558 89.577 132.198L89.7944 131.809C89.8219 131.765 89.843 131.717 89.8574 131.667C89.8574 131.667 89.823 131.707 89.7658 131.792L89.5256 132.17C89.3082 132.524 89.0107 132.999 88.6503 133.594L85.6869 138.54L85.6411 138.614L85.7155 138.665L87.1972 139.672L87.2601 139.494C87.0288 139.499 86.8025 139.563 86.6024 139.679C86.4023 139.795 86.2349 139.959 86.1159 140.158C85.9026 140.501 85.7878 140.897 85.7841 141.301C85.7772 141.684 85.7983 142.066 85.8471 142.445C85.9272 143.165 85.9958 143.863 86.0702 144.526C86.2132 145.847 86.3391 147.036 86.4477 148.048L86.7223 150.422L86.8082 151.062C86.8166 151.129 86.8299 151.196 86.8482 151.262V151.262Z" fill="#1A2E35"/>
<path d="M101.31 129.128L102.998 130.94L109.291 132.93C109.081 137.531 108.587 142.114 107.809 146.653C106.425 154.395 105.687 162.281 105.647 162.401C105.338 161.829 108.799 166.575 110.71 171.235C112.214 174.9 113.038 182.551 113.038 182.551L97.2372 187.388L94.5598 158.764L95.2406 145.544L101.31 129.128Z" fill="#E56A20"/>
<path d="M95.2406 152.623C95.2866 152.546 95.3267 152.466 95.3607 152.383L95.6639 151.697C95.9328 151.096 96.3161 150.227 96.8081 149.169C98.1022 146.404 99.5342 143.706 101.099 141.084L101.534 140.398L101.591 140.301L101.488 140.261L99.7086 139.523V139.683C100.281 139.206 100.957 138.867 101.682 138.694H101.745V138.631C101.858 137.572 102.049 136.523 102.317 135.492C102.54 134.554 102.729 133.731 102.838 133.039C102.93 132.5 102.984 131.956 102.998 131.409C102.998 131.215 102.998 131.072 102.998 130.975C103.007 130.923 103.007 130.871 102.998 130.82C102.998 130.82 102.998 131.026 102.958 131.392C102.919 131.933 102.848 132.472 102.746 133.004C102.62 133.691 102.42 134.508 102.174 135.446C101.901 136.482 101.71 137.537 101.602 138.602L101.671 138.522C100.916 138.699 100.212 139.049 99.617 139.546L99.4912 139.643L99.6399 139.706L101.419 140.444L101.373 140.301C101.225 140.541 101.082 140.781 100.939 141.021C99.3634 143.644 97.9441 146.357 96.688 149.146C96.2074 150.216 95.8413 151.09 95.5953 151.702C95.4809 151.988 95.3951 152.223 95.3207 152.406C95.2879 152.476 95.2612 152.548 95.2406 152.623V152.623Z" fill="#1A2E35"/>
<path d="M108.21 172.253C108.25 172.321 108.296 172.386 108.347 172.447L108.77 172.973L110.315 174.86L110.355 174.746L102.849 176.158L102.947 176.198L102.826 176.032L100.733 173.122L100.67 173.265L106.07 172.567L107.638 172.35L108.061 172.281L108.21 172.253C108.164 172.245 108.118 172.245 108.072 172.253L107.655 172.287L106.099 172.453L100.647 173.082H100.492L100.584 173.213L102.666 176.129L102.786 176.295L102.821 176.347H102.884L110.378 174.877H110.498L110.418 174.791C109.749 174.014 109.205 173.379 108.805 172.922L108.364 172.424C108.267 172.298 108.21 172.241 108.21 172.253Z" fill="#1A2E35"/>
<g opacity="0.3">
<path d="M109.4 175.003L109.897 175.969L102.855 177.485L101.099 173.785L102.867 176.255L109.4 175.003Z" fill="black"/>
</g>
<path d="M56.9454 152.2L60.8012 171.103H94.2394C94.4169 171.103 94.5872 171.033 94.7127 170.908C94.8382 170.782 94.9088 170.612 94.9088 170.434C94.9088 170.257 94.8382 170.087 94.7127 169.961C94.5872 169.836 94.4169 169.765 94.2394 169.765H87.506L83.9362 152.188C83.9 152.027 83.8102 151.883 83.6814 151.779C83.5525 151.675 83.3923 151.618 83.2268 151.617L57.6719 151.336C57.5644 151.336 57.4582 151.36 57.3608 151.405C57.2633 151.451 57.177 151.517 57.1078 151.599C57.0386 151.681 56.9882 151.778 56.9601 151.882C56.9321 151.985 56.927 152.094 56.9454 152.2V152.2Z" fill="#E1E1E1"/>
<path d="M56.9454 152.2C56.9454 152.2 56.9454 152.2 56.9454 152.143C56.9368 152.086 56.9368 152.028 56.9454 151.971C56.9539 151.855 56.9899 151.742 57.0506 151.643C57.1113 151.543 57.1949 151.46 57.2944 151.399C57.3637 151.359 57.4391 151.33 57.5175 151.314C57.6048 151.302 57.6934 151.302 57.7807 151.314H58.3528H59.8573L69.5255 151.405L76.2589 151.474L80.0347 151.514H82.0141H83.0267H83.2841C83.3736 151.523 83.4606 151.549 83.5415 151.588C83.7062 151.667 83.8364 151.803 83.9077 151.971C83.9422 152.054 83.9671 152.14 83.982 152.228L84.0335 152.486L84.1365 152.995C84.2052 153.338 84.2738 153.681 84.3482 154.03C84.4855 154.721 84.6285 155.419 84.7772 156.128C85.0633 157.552 85.3493 158.987 85.6582 160.485C86.2647 163.447 86.8882 166.529 87.5347 169.708L87.4889 169.668H94.1136C94.1993 169.663 94.2853 169.663 94.3711 169.668C94.5491 169.707 94.7062 169.811 94.8116 169.96C94.9133 170.111 94.9561 170.294 94.9317 170.474C94.9134 170.583 94.871 170.686 94.8076 170.776C94.7443 170.866 94.6616 170.941 94.5656 170.995C94.4681 171.046 94.3608 171.075 94.2509 171.08H76.4992H60.8013H60.7669V171.052C59.6228 165.243 58.6331 160.514 57.9695 157.237C57.6434 155.602 57.3974 154.327 57.2086 153.463C57.1228 153.029 57.0599 152.703 57.0141 152.48C56.9683 152.257 56.9512 152.143 56.9512 152.143C56.9512 152.143 56.9512 152.251 57.0255 152.474C57.0999 152.697 57.1399 153.046 57.2315 153.458L58.0095 157.232C58.6788 160.508 59.6514 165.237 60.8699 171.041L60.8356 171.012H76.5335H94.2967C94.3926 171.007 94.4863 170.982 94.5713 170.938C94.6551 170.891 94.7274 170.826 94.7828 170.748C94.8383 170.67 94.8755 170.58 94.8917 170.486C94.9128 170.328 94.8762 170.167 94.7887 170.034C94.6971 169.905 94.5603 169.815 94.4054 169.782C94.3255 169.774 94.245 169.774 94.1651 169.782H87.4717V169.748C86.8253 166.569 86.2017 163.458 85.5953 160.525C85.2978 159.044 85.0232 157.592 84.7143 156.168C84.5713 155.459 84.4283 154.761 84.291 154.069C84.2166 153.721 84.148 153.378 84.0793 153.035L83.9763 152.526L83.9248 152.268C83.9107 152.187 83.8896 152.106 83.8619 152.028C83.7939 151.879 83.6768 151.758 83.5301 151.685C83.4595 151.646 83.3815 151.623 83.3013 151.617H83.0496H82.037H80.0576L76.2818 151.571L69.5484 151.491L59.8802 151.376H58.3756H57.8036C57.7181 151.365 57.6315 151.365 57.5461 151.376C57.4692 151.392 57.3955 151.421 57.3287 151.462C57.2325 151.519 57.1506 151.597 57.0891 151.69C57.0276 151.783 56.9883 151.889 56.974 152C56.9569 152.065 56.9473 152.132 56.9454 152.2V152.2Z" fill="#1A2E35"/>
<path d="M71.2532 161.955C71.863 161.955 72.3573 161.461 72.3573 160.851C72.3573 160.242 71.863 159.747 71.2532 159.747C70.6434 159.747 70.149 160.242 70.149 160.851C70.149 161.461 70.6434 161.955 71.2532 161.955Z" fill="white"/>
<path d="M56.974 152.348H58.7303H63.5129L79.2852 152.457H81.5735H82.1456C82.2408 152.449 82.3365 152.449 82.4317 152.457C82.5283 152.479 82.621 152.515 82.7063 152.566C82.8713 152.674 82.9913 152.839 83.0438 153.029C83.0838 153.212 83.1182 153.389 83.1525 153.566C83.4385 154.99 83.7246 156.362 83.9706 157.672C84.4854 160.291 84.9545 162.646 85.3436 164.631L86.2646 169.319C86.3676 169.891 86.4534 170.297 86.5106 170.595C86.5106 170.738 86.5564 170.846 86.5678 170.926C86.5793 171.006 86.5678 171.041 86.5678 171.041C86.5678 171.041 86.5678 171 86.5678 170.926L86.4935 170.6C86.4362 170.303 86.3447 169.874 86.236 169.325C86.0072 168.216 85.6639 166.615 85.2864 164.642C84.9088 162.669 84.4168 160.308 83.8905 157.689C83.6273 156.38 83.3527 155.007 83.0724 153.584C83.0324 153.406 83.0037 153.223 82.9637 153.052C82.9171 152.883 82.8089 152.738 82.6605 152.646C82.5868 152.599 82.5055 152.566 82.4202 152.549C82.3307 152.543 82.2409 152.543 82.1513 152.549H81.5793H79.2909L63.5186 152.411L58.736 152.36H57.4374H57.0999L56.974 152.348Z" fill="#1A2E35"/>
<path d="M91.5106 160.725L91.5678 160.76L91.5106 160.725Z" fill="#FFBF9D"/>
<path d="M84.8974 165.448C85.521 164.551 89.783 162.492 89.783 162.492L88.7361 162.115L87.4946 162.475C87.3577 162.867 87.1393 163.225 86.8539 163.527C86.3448 164.099 85.7097 163.361 85.7097 163.361L86.4935 161.028L89.0049 159.885C89.8528 160.106 90.6875 160.375 91.5049 160.691L92.3459 161.663C92.7178 162.035 93.7589 163.453 94.0622 163.527C94.1594 163.527 97.1228 162.584 97.1228 162.584L98.347 168.01L93.8276 168.405L91.0816 168.822C90.3301 169.034 89.5657 169.199 88.7933 169.314C87.8894 169.394 87.323 169.039 87.3573 168.547C87.3917 168.056 88.0839 168.084 88.0839 168.084C88.6967 167.934 89.2987 167.743 89.8859 167.512C90.321 167.288 90.6958 166.963 90.9786 166.563H90.0175C90.0175 166.563 87.8322 167.707 87.0255 168.039C86.2189 168.37 86.156 167.593 86.1274 167.352C86.0988 167.112 88.6846 165.117 88.6846 165.117C88.6846 165.117 86.3162 166.22 85.8757 166.518C85.4351 166.815 84.8345 166.844 84.7315 166.603C84.6285 166.363 84.2795 166.346 84.8974 165.448Z" fill="#FFBF9D"/>
<path d="M95.8127 166.964C95.8201 166.912 95.8201 166.86 95.8127 166.809C95.8189 166.748 95.8189 166.687 95.8127 166.626C95.8206 166.545 95.8206 166.462 95.8127 166.38C95.7441 165.912 95.5764 165.464 95.3207 165.065C95.0758 164.656 94.7903 164.273 94.4683 163.922C94.3432 163.774 94.2054 163.639 94.0564 163.516C94.1679 163.674 94.2903 163.825 94.4225 163.967C94.7233 164.328 94.9968 164.71 95.2406 165.111C95.4897 165.5 95.6624 165.933 95.7498 166.386C95.781 166.577 95.802 166.77 95.8127 166.964V166.964Z" fill="#FF9A6C"/>
<path d="M89.8801 162.429C90.1039 162.489 90.3384 162.494 90.5649 162.447C90.7914 162.399 91.0036 162.299 91.1845 162.155C91.1845 162.155 90.9042 162.28 90.5437 162.355C90.1833 162.429 89.8858 162.401 89.8801 162.429Z" fill="#FF9A6C"/>
<path d="M88.9133 164.985C89.2702 164.932 89.6223 164.849 89.966 164.739C90.3171 164.659 90.6599 164.546 90.99 164.402C90.6331 164.455 90.2811 164.538 89.9374 164.648C89.5871 164.731 89.2446 164.844 88.9133 164.985Z" fill="#FF9A6C"/>
<path d="M90.8756 166.563C91.0611 166.546 91.2437 166.506 91.4191 166.443C91.5998 166.412 91.7763 166.36 91.9454 166.289C91.7524 166.269 91.5574 166.29 91.3733 166.352C91.1952 166.389 91.0261 166.461 90.8756 166.563V166.563Z" fill="#FF9A6C"/>
<path d="M89.2166 165.185C89.2166 165.214 89.4225 165.323 89.5712 165.574C89.6465 165.733 89.7022 165.9 89.7371 166.072C89.7371 166.072 89.7715 166.009 89.7658 165.906C89.7577 165.773 89.7185 165.644 89.6513 165.528C89.584 165.411 89.4875 165.312 89.371 165.242C89.2852 165.191 89.2223 165.174 89.2166 165.185Z" fill="#FF9A6C"/>
<path d="M88.4614 163.613C88.4614 163.613 88.6102 163.75 88.7017 163.962C88.7452 164.098 88.7758 164.237 88.7932 164.379C88.8298 164.309 88.8489 164.232 88.8489 164.153C88.8489 164.075 88.8298 163.997 88.7932 163.927C88.6788 163.682 88.4671 163.59 88.4614 163.613Z" fill="#FF9A6C"/>
<path d="M89.085 161.034C89.085 161.034 89.1365 161 89.1765 160.914C89.2241 160.804 89.2417 160.684 89.2276 160.566C89.2136 160.447 89.1683 160.335 89.0964 160.239C89.0392 160.171 88.9877 160.142 88.982 160.148C88.9763 160.154 89.1079 160.331 89.1307 160.577C89.1357 160.73 89.1203 160.884 89.085 161.034V161.034Z" fill="#63367D"/>
<path d="M109.274 132.93C110.19 133.336 111.002 133.943 111.651 134.707C112.3 135.47 112.768 136.37 113.021 137.339C113.021 137.339 113.69 139.403 114.165 141.725C115.372 147.351 117.546 156.946 117.649 159.748C117.838 164.814 114.171 166.255 112.111 166.695C110.052 167.135 97.2829 168.719 97.2829 168.719L95.0518 162.429L108.072 156.768C108.072 156.768 105.59 148.249 105.012 145.584" fill="#E56A20"/>
<path d="M105.035 145.544C105.035 145.544 105.035 145.607 105.092 145.738L105.241 146.31L105.813 148.523C106.339 150.45 107.134 153.24 108.147 156.7V156.768L108.078 156.797L95.0689 162.486L95.1319 162.349L97.3687 168.639L97.2429 168.565C100.561 168.147 104.108 167.701 107.741 167.204C109.211 166.992 110.675 166.803 112.088 166.535C113.475 166.271 114.758 165.621 115.79 164.659C116.749 163.69 117.338 162.415 117.455 161.057C117.455 160.891 117.495 160.725 117.506 160.559V160.068C117.511 159.739 117.496 159.411 117.46 159.084C117.392 158.432 117.3 157.786 117.197 157.152C116.785 154.613 116.282 152.217 115.818 149.975C115.355 147.734 114.903 145.647 114.497 143.743C114.291 142.794 114.096 141.885 113.925 141.027C113.753 140.169 113.524 139.374 113.313 138.631C113.101 137.888 112.901 137.19 112.689 136.573C112.479 136.009 112.188 135.48 111.825 135C111.327 134.323 110.711 133.742 110.006 133.285C109.76 133.136 109.571 133.027 109.434 132.964L109.234 132.862C109.307 132.882 109.377 132.909 109.445 132.942C109.642 133.03 109.834 133.131 110.017 133.245C110.74 133.68 111.374 134.246 111.888 134.914C112.263 135.397 112.563 135.933 112.781 136.504C113.009 137.133 113.21 137.819 113.433 138.562C113.656 139.306 113.862 140.106 114.062 140.964L114.663 143.68C115.08 145.584 115.532 147.682 116.019 149.907C116.505 152.131 116.997 154.544 117.42 157.089C117.523 157.729 117.615 158.375 117.689 159.033C117.724 159.367 117.74 159.703 117.735 160.039V160.542C117.735 160.714 117.701 160.885 117.683 161.051C117.566 162.46 116.959 163.783 115.967 164.791C114.905 165.787 113.582 166.463 112.151 166.741C110.715 167.015 109.262 167.198 107.786 167.41C104.142 167.907 100.607 168.353 97.2829 168.765H97.1914V168.679C96.4191 166.5 95.6753 164.39 94.966 162.389L94.9316 162.292L95.0232 162.252L108.055 156.614L108.009 156.711C107.014 153.24 106.247 150.421 105.721 148.512C105.469 147.545 105.281 146.796 105.149 146.287C105.086 146.03 105.052 145.836 105.023 145.716C105.024 145.658 105.028 145.601 105.035 145.544V145.544Z" fill="#1A2E35"/>
<path d="M104.491 143.16C104.448 143.029 104.425 142.892 104.423 142.754C104.377 142.374 104.359 141.992 104.371 141.61C104.414 139.095 105.247 136.657 106.751 134.64C106.976 134.337 107.221 134.048 107.483 133.776C107.672 133.582 107.781 133.485 107.792 133.496C107.804 133.508 107.426 133.96 106.888 134.737C106.192 135.75 105.636 136.852 105.235 138.014C104.845 139.178 104.61 140.39 104.537 141.616C104.485 142.571 104.537 143.16 104.491 143.16Z" fill="#1A2E35"/>
</g>
<defs>
<filter id="filter0_d_65_648" x="0" y="0" width="329" height="258" filterUnits="userSpaceOnUse" color-interpolation-filters="sRGB">
<feFlood flood-opacity="0" result="BackgroundImageFix"/>
<feColorMatrix in="SourceAlpha" type="matrix" values="0 0 0 0 0 0 0 0 0 0 0 0 0 0 0 0 0 0 127 0" result="hardAlpha"/>
<feOffset dy="4"/>
<feGaussianBlur stdDeviation="2"/>
<feComposite in2="hardAlpha" operator="out"/>
<feColorMatrix type="matrix" values="0 0 0 0 0 0 0 0 0 0 0 0 0 0 0 0 0 0 0.25 0"/>
<feBlend mode="normal" in2="BackgroundImageFix" result="effect1_dropShadow_65_648"/>
<feBlend mode="normal" in="SourceGraphic" in2="effect1_dropShadow_65_648" result="shape"/>
</filter>
<filter id="filter1_d_65_648" x="0" y="8" width="321" height="250" filterUnits="userSpaceOnUse" color-interpolation-filters="sRGB">
<feFlood flood-opacity="0" result="BackgroundImageFix"/>
<feColorMatrix in="SourceAlpha" type="matrix" values="0 0 0 0 0 0 0 0 0 0 0 0 0 0 0 0 0 0 127 0" result="hardAlpha"/>
<feOffset dy="4"/>
<feGaussianBlur stdDeviation="2"/>
<feComposite in2="hardAlpha" operator="out"/>
<feColorMatrix type="matrix" values="0 0 0 0 0 0 0 0 0 0 0 0 0 0 0 0 0 0 0.25 0"/>
<feBlend mode="normal" in2="BackgroundImageFix" result="effect1_dropShadow_65_648"/>
<feBlend mode="normal" in="SourceGraphic" in2="effect1_dropShadow_65_648" result="shape"/>
</filter>
<clipPath id="clip0_65_648">
<rect width="321" height="250" fill="white" transform="translate(4)"/>
</clipPath>
</defs>
</svg>
