<svg width="765" height="681" viewBox="0 0 765 681" fill="none" xmlns="http://www.w3.org/2000/svg">
<path d="M50.0002 -1.4479C49.624 13.6681 -42.4842 165.711 44.8742 355.694C132.233 545.677 243.321 580.54 385.259 646.644C420.41 664.18 459.263 673.305 498.666 673.276C545.186 673.259 590.79 660.528 630.402 636.5C670.014 612.471 702.081 578.088 723.033 537.176C753.093 478.553 758.279 410.569 737.452 348.18C716.625 285.792 671.489 234.109 611.975 204.499C541.155 169.3 481.979 114.962 441.371 47.8421C431.749 31.9906 423.211 15.524 415.816 -1.4479L44.874 -1.44782C50 -1.4481 50.0002 -1.4479 50.0002 -1.4479Z" fill="#F9CA47"/>
<path d="M146.522 322.22C135.134 255.484 180.111 192.168 246.981 180.8C313.851 169.431 377.293 214.315 388.681 281.051C400.07 347.787 355.093 411.103 288.222 422.472C221.352 433.841 157.911 388.956 146.522 322.22Z" fill="url(#paint0_linear_65_5)"/>
<path d="M669.811 563.236C669.811 563.236 774.204 224.29 641.73 210.579C514.181 197.381 535.646 351.209 433.36 385.845C331.073 420.481 128.037 416.43 172.676 568.497L669.811 563.236Z" fill="url(#paint1_linear_65_5)"/>
<path d="M302.998 535.284C302.998 535.284 305.23 493.472 307.934 461.926C310.638 430.381 314.746 385.833 285.437 386.143C251.956 386.498 269.096 495.868 302.998 535.284Z" fill="url(#paint2_linear_65_5)"/>
<path d="M285.437 386.143C286.343 471.748 295.843 512.576 302.885 535.286" stroke="#343947" stroke-width="0.420503" stroke-miterlimit="10"/>
<path d="M294.154 535.039C284.99 521.37 277.54 506.632 271.971 491.154C264.154 468.001 250.467 449.321 239.263 455.3C226.841 461.834 241.237 496.186 258.014 513.339C277.86 533.492 294.154 535.039 294.154 535.039Z" fill="url(#paint3_linear_65_5)"/>
<path d="M294.154 535.038C277.417 521.64 257.63 498.501 239.262 455.232" stroke="#343947" stroke-width="0.420503" stroke-miterlimit="10"/>
<path d="M307.729 534.556C310.816 525.892 312.77 516.868 313.543 507.706C314.724 492.896 317.723 474.244 326.806 475.664C335.889 477.083 336.111 497.987 333.14 508.652C331.379 514.729 328.136 520.276 323.701 524.796C319.267 529.316 313.779 532.669 307.729 534.556V534.556Z" fill="url(#paint4_linear_65_5)"/>
<path d="M307.728 534.556C322.558 517.679 327.702 493.89 326.829 475.664" stroke="#343947" stroke-width="0.420503" stroke-miterlimit="10"/>
<path d="M312.47 567.017L287.649 567.28L277.924 535.21L321.514 534.748L312.47 567.017Z" fill="#343947"/>
<path d="M447.365 258.972L460.83 258.83C460.647 257.792 460.545 256.742 460.524 255.688C460.469 250.498 462.483 245.499 466.121 241.79C469.759 238.081 474.725 235.967 479.925 235.912C481.311 235.902 482.695 236.032 484.055 236.298C485.371 230.518 488.6 225.349 493.221 221.626C497.842 217.903 503.586 215.843 509.524 215.779C512.996 215.742 516.441 216.389 519.662 217.682C522.883 218.976 525.817 220.89 528.296 223.316C530.774 225.743 532.749 228.633 534.108 231.822C535.466 235.01 536.181 238.435 536.212 241.9C536.484 241.897 536.733 241.895 537.028 241.891C538.987 241.871 540.93 242.235 542.748 242.964C544.565 243.693 546.221 244.772 547.621 246.14C549.021 247.507 550.137 249.137 550.905 250.935C551.674 252.733 552.08 254.665 552.101 256.619C552.083 257.052 552.042 257.482 551.979 257.91L559.187 257.834C561.919 257.811 564.548 258.871 566.498 260.78C568.447 262.689 569.559 265.292 569.588 268.018C569.616 270.742 568.56 273.366 566.65 275.313C564.74 277.259 562.134 278.369 559.405 278.398L447.583 279.582C444.854 279.61 442.224 278.556 440.274 276.65C438.324 274.745 437.212 272.144 437.183 269.42C437.163 268.066 437.41 266.722 437.911 265.464C438.412 264.206 439.157 263.059 440.102 262.088C441.048 261.118 442.177 260.343 443.423 259.808C444.669 259.274 446.008 258.99 447.365 258.972Z" fill="#FFE4A1"/>
<path d="M170.587 296.202L181.672 296.084C181.5 295.228 181.408 294.358 181.395 293.485C181.373 291.371 181.768 289.273 182.559 287.312C183.35 285.35 184.52 283.563 186.003 282.054C187.486 280.544 189.253 279.341 191.203 278.513C193.152 277.685 195.246 277.249 197.365 277.23C198.507 277.224 199.648 277.333 200.769 277.556C201.846 272.803 204.498 268.553 208.295 265.49C212.093 262.428 216.815 260.734 221.696 260.682C224.546 260.649 227.374 261.177 230.019 262.236C232.664 263.295 235.073 264.864 237.11 266.854C239.146 268.844 240.769 271.215 241.886 273.831C243.003 276.448 243.592 279.258 243.619 282.102V282.102L244.299 282.095C247.551 282.061 250.684 283.317 253.008 285.588C255.333 287.859 256.658 290.958 256.692 294.204C256.682 294.568 256.648 294.932 256.59 295.291L262.507 295.229C263.619 295.214 264.723 295.418 265.756 295.83C266.789 296.242 267.73 296.853 268.526 297.629C269.322 298.404 269.957 299.329 270.394 300.35C270.831 301.37 271.062 302.467 271.074 303.577C271.088 304.689 270.883 305.793 270.469 306.825C270.055 307.858 269.44 308.798 268.661 309.593C267.881 310.388 266.952 311.021 265.927 311.456C264.901 311.891 263.8 312.119 262.685 312.128L170.766 313.101C169.65 313.113 168.543 312.904 167.508 312.486C166.473 312.069 165.531 311.451 164.737 310.669C163.942 309.886 163.311 308.955 162.879 307.928C162.447 306.9 162.224 305.798 162.221 304.684C162.209 302.454 163.083 300.31 164.65 298.72C166.218 297.131 168.353 296.225 170.587 296.202V296.202Z" fill="#FFE4A1"/>
<path d="M447.499 226.594C449.286 227.205 450.913 228.208 452.26 229.529C453.608 230.85 454.643 232.455 455.287 234.227C455.9 232.441 456.904 230.814 458.228 229.465C459.551 228.116 461.159 227.08 462.936 226.431C461.144 225.824 459.511 224.823 458.159 223.502C456.807 222.181 455.77 220.573 455.124 218.798C454.52 220.585 453.521 222.213 452.201 223.563C450.881 224.912 449.274 225.948 447.499 226.594V226.594Z" fill="white"/>
<path d="M701.378 352.147C703.165 352.753 704.792 353.752 706.14 355.069C707.488 356.386 708.522 357.988 709.167 359.758C709.779 357.974 710.784 356.35 712.108 355.005C713.431 353.66 715.04 352.628 716.815 351.984C715.026 351.373 713.396 350.37 712.044 349.05C710.693 347.729 709.654 346.124 709.004 344.351C708.397 346.137 707.397 347.764 706.077 349.113C704.758 350.462 703.152 351.499 701.378 352.147V352.147Z" fill="white"/>
<path d="M156.071 454.076C157.861 454.687 159.491 455.69 160.843 457.01C162.194 458.331 163.233 459.936 163.883 461.709C164.491 459.92 165.494 458.291 166.818 456.942C168.142 455.592 169.752 454.557 171.531 453.913C169.738 453.309 168.104 452.309 166.751 450.987C165.399 449.666 164.362 448.057 163.72 446.28C163.112 448.068 162.109 449.698 160.785 451.047C159.461 452.396 157.85 453.432 156.071 454.076V454.076Z" fill="white"/>
<path d="M419.311 260.106C410.122 260.204 402.594 252.848 402.497 243.677C402.399 234.507 409.77 226.994 418.959 226.896C428.148 226.799 435.676 234.155 435.773 243.325C435.87 252.496 428.5 260.009 419.311 260.106Z" fill="white"/>
<path d="M506.124 564.968L623.998 563.721C628.737 563.551 633.264 561.717 636.78 558.542C640.297 555.368 642.578 551.056 643.221 546.367L675.519 275.767C675.855 273.619 675.711 271.424 675.096 269.339C674.482 267.253 673.412 265.33 671.965 263.706C670.517 262.082 668.728 260.797 666.724 259.945C664.721 259.093 662.553 258.694 660.377 258.777L542.389 260.026C537.649 260.199 533.122 262.034 529.602 265.207C526.083 268.381 523.796 272.691 523.144 277.379L490.868 547.98C490.53 550.137 490.677 552.342 491.298 554.436C491.919 556.53 492.998 558.46 494.458 560.086C495.919 561.712 497.723 562.993 499.74 563.838C501.758 564.682 503.938 565.068 506.124 564.968V564.968Z" fill="url(#paint5_linear_65_5)"/>
<path d="M492.818 565.109L610.828 563.86C615.567 563.69 620.093 561.856 623.61 558.682C627.127 555.507 629.407 551.195 630.051 546.507L662.349 275.906C662.685 273.758 662.541 271.563 661.926 269.478C661.312 267.393 660.242 265.469 658.795 263.845C657.347 262.221 655.558 260.937 653.554 260.085C651.55 259.233 649.383 258.834 647.206 258.916L529.219 260.165C524.48 260.335 519.953 262.169 516.437 265.344C512.92 268.518 510.639 272.83 509.996 277.518L477.698 548.119C477.362 550.265 477.506 552.458 478.119 554.542C478.733 556.625 479.8 558.548 481.245 560.171C482.69 561.795 484.477 563.08 486.477 563.933C488.478 564.787 490.643 565.189 492.818 565.109V565.109Z" fill="url(#paint6_linear_65_5)"/>
<path d="M630.073 546.507L662.349 275.906" stroke="white" stroke-width="0.457068" stroke-linecap="round" stroke-linejoin="round"/>
<path d="M528.428 266.87L551.912 266.622C553.33 266.569 554.733 266.93 555.949 267.661C557.164 268.391 558.14 269.46 558.757 270.735L559.453 272.198C560.069 273.476 561.044 274.548 562.259 275.282C563.474 276.016 564.878 276.382 566.298 276.334L606.103 275.913C607.667 275.87 609.199 275.46 610.574 274.714C611.949 273.968 613.128 272.908 614.015 271.621L615.065 270.139C615.946 268.864 617.115 267.814 618.477 267.072C619.84 266.331 621.358 265.919 622.909 265.871L646.393 265.622C647.734 265.569 649.07 265.813 650.305 266.338C651.54 266.862 652.642 267.654 653.534 268.655C654.425 269.656 655.082 270.843 655.458 272.128C655.834 273.414 655.92 274.767 655.708 276.089L623.41 546.69C623.014 549.578 621.611 552.233 619.446 554.189C617.281 556.145 614.494 557.275 611.576 557.382L493.565 558.63C492.224 558.684 490.888 558.439 489.654 557.915C488.419 557.39 487.316 556.599 486.425 555.598C485.534 554.596 484.876 553.41 484.5 552.124C484.124 550.839 484.039 549.486 484.25 548.163L516.526 277.562C516.932 274.667 518.348 272.008 520.525 270.052C522.702 268.097 525.501 266.97 528.428 266.87V266.87Z" fill="url(#paint7_linear_65_5)"/>
<path d="M573.295 271.26L600.496 270.972C600.818 270.966 601.126 270.845 601.366 270.631C601.605 270.416 601.759 270.123 601.799 269.805V269.805C601.825 269.657 601.817 269.506 601.776 269.362C601.736 269.219 601.663 269.086 601.564 268.974C601.464 268.862 601.341 268.774 601.203 268.716C601.065 268.658 600.916 268.631 600.766 268.639L573.565 268.927C573.24 268.933 572.928 269.058 572.689 269.277C572.449 269.496 572.297 269.795 572.262 270.117V270.117C572.24 270.263 572.251 270.411 572.293 270.552C572.336 270.693 572.409 270.823 572.508 270.932C572.606 271.042 572.728 271.128 572.864 271.184C573 271.241 573.147 271.267 573.295 271.26Z" fill="#343947"/>
<path d="M661.488 342.388C662.115 342.363 662.714 342.121 663.181 341.703C663.648 341.285 663.955 340.718 664.048 340.099L667.796 308.632C667.836 308.348 667.813 308.058 667.729 307.784C667.645 307.509 667.502 307.256 667.31 307.043C667.117 306.829 666.881 306.66 666.616 306.547C666.351 306.435 666.065 306.382 665.777 306.391C665.149 306.412 664.548 306.653 664.08 307.071C663.612 307.49 663.306 308.06 663.217 308.681L659.469 340.147C659.425 340.432 659.445 340.723 659.527 341C659.61 341.276 659.753 341.531 659.946 341.746C660.139 341.96 660.378 342.129 660.645 342.24C660.911 342.351 661.199 342.402 661.488 342.388V342.388Z" fill="#343947"/>
<path d="M656.427 384.683C657.055 384.663 657.656 384.422 658.124 384.003C658.592 383.584 658.898 383.015 658.987 382.394L662.757 350.905C662.797 350.62 662.774 350.331 662.69 350.056C662.606 349.781 662.463 349.528 662.271 349.315C662.078 349.101 661.841 348.932 661.577 348.82C661.312 348.707 661.026 348.654 660.738 348.663C660.11 348.684 659.509 348.925 659.041 349.343C658.573 349.762 658.267 350.332 658.178 350.953L654.408 382.442C654.368 382.726 654.391 383.016 654.475 383.291C654.559 383.565 654.702 383.818 654.894 384.032C655.087 384.245 655.323 384.414 655.588 384.527C655.853 384.639 656.139 384.693 656.427 384.683V384.683Z" fill="#343947"/>
<path d="M611.62 557.268L493.61 558.517C492.269 558.57 490.933 558.326 489.698 557.801C488.463 557.277 487.36 556.485 486.469 555.484C485.578 554.483 484.921 553.296 484.545 552.011C484.169 550.725 484.083 549.372 484.294 548.05L490.23 498.37C510.768 474.667 568.347 412.132 609.988 405.198C626.123 402.493 634.665 408.399 639.177 414.912L623.454 546.577C623.059 549.464 621.655 552.12 619.49 554.075C617.325 556.031 614.538 557.162 611.62 557.268Z" fill="url(#paint8_linear_65_5)"/>
<path d="M642.262 286.571L631.132 286.689" stroke="#343947" stroke-width="0.484492" stroke-miterlimit="10"/>
<path d="M641.866 289.811L630.758 289.929" stroke="#343947" stroke-width="0.484492" stroke-miterlimit="10"/>
<path d="M641.492 293.073L630.362 293.191" stroke="#343947" stroke-width="0.484492" stroke-miterlimit="10"/>
<path opacity="0.2" d="M285.696 389.172L521.557 386.676L523.262 547.773L287.401 550.269L285.696 389.172Z" fill="black"/>
<path d="M290.471 384.167L526.333 381.671L528.038 542.767L292.176 545.264L290.471 384.167Z" fill="url(#paint9_linear_65_5)"/>
<path d="M463.952 401.766L526.539 401.104L528.039 542.79L465.452 543.452L463.952 401.766Z" fill="#6582DB"/>
<path d="M290.471 384.167L526.333 381.671L526.539 401.104L290.677 403.6L290.471 384.167Z" fill="#83B9F7"/>
<path d="M513.674 391.511L503.768 391.616" stroke="white" stroke-width="1.77342" stroke-linecap="round" stroke-linejoin="round"/>
<path d="M492.185 391.738L482.279 391.843" stroke="white" stroke-width="1.77342" stroke-linecap="round" stroke-linejoin="round"/>
<path d="M470.672 391.966L460.767 392.071" stroke="white" stroke-width="1.77342" stroke-linecap="round" stroke-linejoin="round"/>
<path opacity="0.2" d="M371.395 425.937L446.199 425.145C447.749 425.122 449.226 424.49 450.31 423.385C451.394 422.28 451.996 420.792 451.986 419.246C451.978 418.48 451.819 417.722 451.517 417.017C451.216 416.312 450.778 415.673 450.229 415.137C449.681 414.601 449.031 414.178 448.319 413.892C447.606 413.606 446.844 413.463 446.076 413.471L371.271 414.263C370.502 414.268 369.742 414.425 369.034 414.725C368.326 415.025 367.685 415.462 367.147 416.01C366.609 416.558 366.185 417.207 365.9 417.92C365.614 418.633 365.473 419.394 365.484 420.162V420.162C365.492 420.928 365.652 421.686 365.953 422.391C366.255 423.096 366.692 423.735 367.241 424.271C367.79 424.807 368.439 425.23 369.152 425.516C369.864 425.802 370.626 425.945 371.395 425.937V425.937Z" stroke="black" stroke-width="0.383937" stroke-miterlimit="10"/>
<path d="M515.781 410.675L506.215 410.776" stroke="white" stroke-width="0.484492" stroke-miterlimit="10"/>
<path d="M515.821 414.453L506.255 414.554" stroke="white" stroke-width="0.484492" stroke-miterlimit="10"/>
<path d="M515.861 418.254L506.295 418.355" stroke="white" stroke-width="0.484492" stroke-miterlimit="10"/>
<path opacity="0.2" d="M478.583 438.943L512.585 438.583C513.045 438.59 513.502 438.505 513.929 438.333C514.356 438.162 514.744 437.906 515.07 437.582C515.396 437.258 515.654 436.872 515.828 436.447C516.003 436.022 516.09 435.566 516.085 435.107V435.107C516.069 434.203 515.698 433.341 515.05 432.709C514.403 432.076 513.532 431.723 512.626 431.727L478.624 432.087C477.714 432.097 476.845 432.465 476.206 433.112C475.567 433.759 475.211 434.631 475.214 435.54V435.54C475.223 436.432 475.58 437.287 476.208 437.922C476.837 438.557 477.689 438.923 478.583 438.943V438.943Z" fill="black"/>
<path opacity="0.2" d="M478.795 459.009L512.797 458.649C513.705 458.64 514.572 458.271 515.207 457.623C515.842 456.976 516.194 456.103 516.184 455.197V455.197C516.175 454.289 515.806 453.422 515.157 452.784C514.509 452.147 513.635 451.791 512.725 451.795L478.723 452.155C477.809 452.164 476.936 452.536 476.297 453.187C475.658 453.839 475.304 454.718 475.314 455.63C475.318 456.08 475.412 456.525 475.59 456.939C475.768 457.353 476.026 457.728 476.35 458.042C476.673 458.357 477.056 458.604 477.476 458.77C477.895 458.936 478.344 459.017 478.795 459.009Z" fill="black"/>
<path opacity="0.2" d="M479.008 479.098L513.01 478.738C513.916 478.723 514.779 478.352 515.413 477.706C516.047 477.06 516.4 476.19 516.397 475.286V475.286C516.387 474.378 516.018 473.511 515.37 472.873C514.722 472.236 513.847 471.88 512.937 471.884L478.935 472.244C478.021 472.253 477.149 472.625 476.51 473.277C475.87 473.928 475.516 474.807 475.526 475.719C475.542 476.627 475.917 477.492 476.569 478.125C477.221 478.758 478.098 479.108 479.008 479.098V479.098Z" fill="black"/>
<path d="M304.407 422.12C301.178 422.155 298.531 419.569 298.497 416.346C298.463 413.122 301.054 410.481 304.284 410.447C307.514 410.413 310.16 412.998 310.194 416.222C310.228 419.445 307.637 422.086 304.407 422.12Z" fill="#FF005D"/>
<path d="M423.253 444.054L433.997 443.94L434.633 504.048L423.889 504.162L423.253 444.054Z" fill="url(#paint10_linear_65_5)"/>
<path d="M401.561 478.719L412.306 478.605L412.578 504.282L401.833 504.396L401.561 478.719Z" fill="url(#paint11_linear_65_5)"/>
<path d="M379.346 461.804L390.091 461.69L390.544 504.493L379.799 504.606L379.346 461.804Z" fill="url(#paint12_linear_65_5)"/>
<path d="M357.452 477.308L368.196 477.194L368.488 504.749L357.743 504.862L357.452 477.308Z" fill="url(#paint13_linear_65_5)"/>
<path opacity="0.2" d="M341.217 515.671L451.407 514.505C452.333 514.495 453.092 515.236 453.102 516.161L453.11 516.93C453.12 517.855 452.377 518.612 451.451 518.622L341.261 519.788C340.334 519.798 339.575 519.056 339.566 518.132L339.558 517.363C339.548 516.438 340.291 515.681 341.217 515.671Z" fill="black"/>
<path opacity="0.2" d="M341.357 528.905L451.547 527.738C452.473 527.729 453.232 528.47 453.242 529.395L453.25 530.164C453.26 531.089 452.517 531.846 451.591 531.856L341.401 533.022C340.474 533.032 339.715 532.29 339.706 531.366L339.698 530.597C339.688 529.672 340.431 528.914 341.357 528.905Z" fill="black"/>
<path opacity="0.2" d="M304.489 429.812L305.554 530.438" stroke="black" stroke-width="0.383937" stroke-miterlimit="10"/>
<path opacity="0.2" d="M338.719 438.093L452.263 436.891L452.972 503.854L339.427 505.056L338.719 438.093Z" stroke="black" stroke-width="0.383937" stroke-miterlimit="10"/>
<path d="M463.952 401.766L465.321 531.033" stroke="#343947" stroke-width="0.383937" stroke-miterlimit="10"/>
<path d="M512.582 401.84L306.959 404.016" stroke="#343947" stroke-width="0.383937" stroke-miterlimit="10"/>
<path style="mix-blend-mode:multiply" opacity="0.3" d="M559.558 294.981L571.453 285.805C572.019 285.373 572.448 284.788 572.69 284.12C572.932 283.451 572.977 282.728 572.819 282.035C571.868 277.885 571.822 273.58 572.685 269.411C573.976 263.302 577.157 257.75 581.777 253.541C586.398 249.331 592.227 246.675 598.44 245.948C602.923 245.437 607.463 245.95 611.717 247.446C615.972 248.942 619.831 251.384 623.002 254.586C626.173 257.788 628.574 261.667 630.024 265.931C631.474 270.194 631.934 274.731 631.37 279.198C630.555 285.585 627.685 291.535 623.192 296.156C618.7 300.777 612.826 303.819 606.454 304.824C601.478 305.608 596.384 305.113 591.653 303.386C586.922 301.658 582.711 298.755 579.417 294.952C578.997 294.493 578.469 294.147 577.881 293.944C577.293 293.741 576.663 293.687 576.049 293.788L560.092 296.22C559.946 296.225 559.802 296.186 559.679 296.108C559.556 296.03 559.459 295.916 559.401 295.782C559.343 295.649 559.327 295.5 559.355 295.357C559.383 295.214 559.454 295.083 559.558 294.981Z" fill="url(#paint14_linear_65_5)"/>
<path d="M563.343 294.941L575.239 285.765C575.8 285.329 576.226 284.744 576.468 284.077C576.71 283.41 576.757 282.688 576.605 281.995C575.645 277.846 575.6 273.539 576.471 269.371C577.762 263.262 580.942 257.71 585.563 253.501C590.184 249.291 596.012 246.635 602.226 245.908C606.708 245.396 611.247 245.908 615.501 247.405C619.755 248.901 623.612 251.343 626.782 254.546C629.952 257.749 632.35 261.628 633.797 265.892C635.244 270.156 635.701 274.692 635.133 279.158C634.318 285.545 631.448 291.495 626.955 296.116C622.463 300.737 616.589 303.779 610.217 304.785C605.241 305.564 600.148 305.067 595.418 303.34C590.688 301.613 586.476 298.712 583.18 294.912C582.761 294.452 582.233 294.105 581.645 293.901C581.056 293.698 580.426 293.645 579.812 293.748L563.969 296.179C563.815 296.206 563.657 296.182 563.518 296.113C563.379 296.043 563.265 295.93 563.195 295.792C563.125 295.653 563.102 295.495 563.128 295.342C563.155 295.189 563.23 295.048 563.343 294.941V294.941Z" fill="white"/>
<path d="M594.541 263.048C600.061 261.927 605.539 267.593 605.539 267.593C605.539 267.593 610.896 261.812 616.438 262.817C621.98 263.821 625.02 270.373 621.598 276.926C617.731 284.32 605.892 292.432 605.892 292.432C605.892 292.432 593.794 284.573 589.862 277.261C586.121 270.785 588.976 264.171 594.541 263.048Z" fill="#FF005D"/>
<path style="mix-blend-mode:multiply" opacity="0.6" d="M605.539 267.593L605.802 292.478C605.802 292.478 593.704 284.619 589.772 277.308C586.212 270.829 589.067 264.215 594.632 263.093C600.197 261.97 605.539 267.593 605.539 267.593Z" fill="url(#paint15_linear_65_5)"/>
<path d="M601.219 538.417L600.354 548.834L593.032 557.464L611.62 557.267L615.585 550.596C616.498 549.07 616.909 547.296 616.76 545.524C616.612 543.752 615.91 542.071 614.755 540.718L610.163 535.291L601.219 538.417Z" fill="url(#paint16_linear_65_5)"/>
<path d="M509.181 339.701L513.567 338.546L512.454 316.951L508.068 318.129L509.181 339.701Z" fill="#343947"/>
<path d="M480.753 339.799L517.633 317.869L514.163 304.941L471.242 304.378L480.753 339.799Z" fill="#6582DB"/>
<path d="M508.291 304.868L514.163 304.942L517.633 317.869L512.609 320.864L508.291 304.868Z" fill="#343947"/>
<path d="M473.698 322.681C471.068 312.906 469.957 304.709 471.214 304.372C472.472 304.035 475.623 311.686 478.252 321.461C480.881 331.235 481.992 339.433 480.735 339.769C479.477 340.106 476.327 332.456 473.698 322.681Z" fill="#343947"/>
<path d="M461.719 308.529L449.876 307.726" stroke="#6582DB" stroke-width="0.685602" stroke-linecap="round" stroke-linejoin="round"/>
<path d="M463.89 316.628L452.566 317.676" stroke="#6582DB" stroke-width="0.685602" stroke-linecap="round" stroke-linejoin="round"/>
<path d="M466.084 324.75L455.233 327.647" stroke="#6582DB" stroke-width="0.685602" stroke-linecap="round" stroke-linejoin="round"/>
<path d="M468.256 332.872L457.923 337.619" stroke="#6582DB" stroke-width="0.685602" stroke-linecap="round" stroke-linejoin="round"/>
<path d="M470.45 340.971L460.59 347.592" stroke="#6582DB" stroke-width="0.685602" stroke-linecap="round" stroke-linejoin="round"/>
<path d="M505.633 542.122L503.635 548.229L501.597 563.455L486.338 561.15L464.613 560.566L464.565 556.041L489.352 548.245L493.266 541.053L505.633 542.122Z" fill="white"/>
<path d="M545.883 382.414C545.883 382.414 518.133 450.855 514.457 467.614C510.78 484.373 490.708 543.547 490.708 543.547L506.462 543.38C506.462 543.38 533.51 502.798 531.307 476.757L560.956 412.097C560.956 412.097 566.838 458.009 572.252 476.89C577.666 495.77 599.32 541.13 599.32 541.13L611.349 535.98C611.349 535.98 600.842 477.13 590.832 467.371C590.832 467.371 589.14 401.776 581.654 382.035L545.883 382.414Z" fill="#1A4B59"/>
<path d="M531.33 476.757L499.798 543.451" stroke="#2E849E" stroke-width="0.457068" stroke-miterlimit="10"/>
<path d="M583.061 395.053L585.37 469.692C585.37 469.692 606.657 510.305 606.949 537.927" stroke="#2E849E" stroke-width="0.457068" stroke-miterlimit="10"/>
<path style="mix-blend-mode:multiply" opacity="0.3" d="M536.673 405.386C539.013 399.501 545.883 382.414 545.883 382.414L581.654 382.035C583.356 386.542 585.879 402.105 587.027 409.921L556.132 397.6C554.941 397.129 553.632 397.045 552.39 397.358C551.148 397.672 550.037 398.368 549.214 399.348L543.124 406.607L536.673 405.386Z" fill="url(#paint17_linear_65_5)"/>
<path style="mix-blend-mode:multiply" opacity="0.3" d="M530.83 487.351L504.019 503.178C508.583 488.853 512.943 474.576 514.457 467.614C515.235 464.076 517.1 458.219 519.52 451.18L556.597 407.256C556.821 406.983 557.117 406.778 557.451 406.664C557.786 406.551 558.146 406.534 558.49 406.615C558.834 406.697 559.148 406.873 559.396 407.124C559.644 407.376 559.816 407.692 559.893 408.036L560.865 412.098L531.216 476.758C531.508 480.292 531.378 483.848 530.83 487.351Z" fill="url(#paint18_linear_65_5)"/>
<path d="M551.875 290.899C552.244 290.249 552.48 289.531 552.57 288.789C552.659 288.047 552.601 287.294 552.397 286.575C552.193 285.855 551.849 285.183 551.383 284.597C550.918 284.011 550.34 283.524 549.684 283.162C544.805 280.567 540.436 283.26 532.993 280.511C525.551 277.761 518.662 275.911 514.883 282.965C511.104 290.019 515.482 296.76 525.028 299.034C534.574 301.309 546.365 314.352 546.365 314.352L549.861 308.433C549.861 308.433 560.352 295.018 551.875 290.899Z" fill="#343947"/>
<path d="M537.427 294.627C538.719 296.89 540.389 298.915 542.365 300.616C542.365 300.616 542.863 296.289 546.25 297.068C549.636 297.846 547.269 303.437 545.834 304.9L549.862 308.546L556.064 322.598L541.133 327.757L537.401 315.669C537.185 314.98 536.753 314.379 536.169 313.953C535.585 313.528 534.88 313.3 534.157 313.305L529.827 313.351C529.02 313.363 528.233 313.1 527.597 312.604C526.961 312.109 526.514 311.412 526.329 310.627L524.456 302.796L520.829 302.835L524.196 291.124C524.196 291.124 528.499 294.993 537.427 294.627Z" fill="#FF9C87"/>
<path d="M557.957 319.365L548.613 319.057L547.975 323.046L543.028 324.727L538.568 323.145L537.575 327.817L539.233 385.924L582.959 385.461L557.957 319.365Z" fill="white"/>
<path d="M547.975 323.046L551.614 324.139L550.469 329.49L545.324 329.545L542.692 327.242L543.028 324.727L547.975 323.046Z" fill="#FF005D"/>
<path d="M550.469 329.49L563.581 370.982L559.404 378.99L552.123 372.212L545.324 329.545L550.469 329.49Z" fill="#FF005D"/>
<path style="mix-blend-mode:multiply" opacity="0.6" d="M550.469 329.49L563.581 370.982L559.404 378.99L552.123 372.212L545.324 329.545L550.469 329.49Z" fill="url(#paint19_linear_65_5)"/>
<path d="M537.605 326.391C537.605 326.391 529.651 328.851 526.949 332.726C524.247 336.601 512.166 360.44 512.166 360.44L512.484 343.4L505.813 342.837C505.813 342.837 493.098 373.063 505.375 378.567C517.653 384.07 532.338 355.656 532.338 355.656L536.059 381.658L529.39 394.195C529.39 394.195 534.963 402.372 540.609 402.448L545.98 387.3L537.605 326.391Z" fill="#1A4B59"/>
<path d="M620.604 384.383L621.884 389.642C620.447 392.225 619.392 395.003 618.752 397.888C618.09 401.741 617.314 405.528 617.999 405.996C618.684 406.463 620.694 399.315 622.463 399.364C624.232 399.413 623.744 409.012 624.973 409.497C626.202 409.981 630.284 403.671 630.214 403.468C630.144 403.265 629.853 390.711 629.801 390.169C629.75 389.626 625.856 381.568 625.856 381.568L620.604 384.383Z" fill="#FF9C87"/>
<path d="M513.885 342.932C515.029 342.266 515.988 341.325 516.677 340.196C517.365 339.067 517.761 337.785 517.83 336.465C517.919 332.075 513.224 329.726 508.518 332.74C503.812 335.754 502.888 344.859 505.851 346.343C508.813 347.828 513.243 346.491 513.885 342.932Z" fill="#FF9C87"/>
<path style="mix-blend-mode:multiply" opacity="0.3" d="M528.737 313.181L545.834 304.9L549.862 308.546C546.81 312.602 542.727 315.77 538.035 317.721L537.401 315.691C537.185 315.003 536.753 314.401 536.169 313.976C535.585 313.55 534.88 313.323 534.157 313.327L529.827 313.373C529.456 313.369 529.087 313.304 528.737 313.181Z" fill="url(#paint20_linear_65_5)"/>
<path d="M558.216 318.163L571.039 388.053L577.798 403.344L596.376 393.622L582.825 372.747L578.774 339.168L605.713 358.975L619.861 386.993L626.797 382.621C624.373 368.681 618.59 355.538 609.944 344.325C601.299 333.113 590.051 324.166 577.17 318.257C573.956 316.758 570.364 316.26 566.862 316.828L558.216 318.163Z" fill="#1A4B59"/>
<path d="M577.268 321.016L578.624 337.813" stroke="#2E849E" stroke-width="0.457068" stroke-miterlimit="10"/>
<path d="M577.021 374.867L585.731 385.997" stroke="#2E849E" stroke-width="0.457068" stroke-miterlimit="10"/>
<path style="mix-blend-mode:multiply" opacity="0.3" d="M517.269 375.59C512.697 372.041 521.575 354.05 526.356 345.289C526.561 344.92 526.873 344.621 527.251 344.433C527.63 344.244 528.057 344.175 528.475 344.235C528.894 344.294 529.285 344.479 529.596 344.765C529.906 345.051 530.123 345.425 530.216 345.836L532.361 355.678C532.361 355.678 525.516 368.715 517.269 375.59Z" fill="url(#paint21_linear_65_5)"/>
<path d="M668.204 531.419C668.204 531.419 665.11 489.663 661.716 458.182C658.322 426.701 653.318 382.25 682.605 381.94C716.108 381.585 701.287 491.294 668.204 531.419Z" fill="url(#paint22_linear_65_5)"/>
<path d="M682.605 381.94C683.511 467.544 674.877 508.565 668.204 531.419" stroke="#343947" stroke-width="0.420503" stroke-miterlimit="10"/>
<path d="M677.041 530.986C685.926 517.13 693.07 502.237 698.313 486.642C705.616 463.328 718.927 444.363 730.255 450.103C742.79 456.374 729.124 491.022 712.737 508.526C693.322 529.094 677.041 530.986 677.041 530.986Z" fill="url(#paint23_linear_65_5)"/>
<path d="M677.041 530.986C693.491 517.237 712.784 493.683 730.254 450.035" stroke="#343947" stroke-width="0.420503" stroke-miterlimit="10"/>
<path d="M663.46 530.791C660.19 522.195 658.045 513.214 657.078 504.07C655.607 489.288 652.191 470.704 643.14 472.316C634.089 473.927 634.31 494.831 637.505 505.431C639.393 511.47 642.752 516.948 647.282 521.374C651.811 525.799 657.37 529.035 663.46 530.791V530.791Z" fill="url(#paint24_linear_65_5)"/>
<path d="M663.459 530.791C648.276 514.231 642.63 490.557 643.14 472.316" stroke="#343947" stroke-width="0.420503" stroke-miterlimit="10"/>
<path d="M659.429 563.345L684.25 563.083L693.294 530.814L649.703 531.275L659.429 563.345Z" fill="#343947"/>
<path style="mix-blend-mode:multiply" opacity="0.2" d="M319.016 373.616L427.528 372.467C429.933 372.442 432.229 371.464 433.911 369.749C435.594 368.034 436.525 365.722 436.499 363.322C436.474 360.922 435.494 358.63 433.776 356.951C432.057 355.272 429.741 354.343 427.336 354.369L318.824 355.517C316.419 355.543 314.123 356.521 312.441 358.236C310.758 359.951 309.827 362.262 309.853 364.662C309.878 367.062 310.858 369.354 312.576 371.033C314.294 372.712 316.611 373.641 319.016 373.616Z" fill="url(#paint25_linear_65_5)"/>
<path d="M322.351 352.471L430.886 351.322C435.844 351.27 439.905 355.238 439.957 360.186L439.958 360.208C440.01 365.156 436.033 369.21 431.076 369.262L322.541 370.411C317.583 370.463 313.522 366.495 313.469 361.547L313.469 361.525C313.417 356.577 317.393 352.523 322.351 352.471Z" fill="url(#paint26_linear_65_5)"/>
<path d="M322.374 352.471L333.912 352.349C338.869 352.296 342.931 356.265 342.983 361.212L342.983 361.235C343.036 366.183 339.059 370.236 334.101 370.288L322.563 370.411C317.606 370.463 313.544 366.495 313.492 361.547L313.492 361.524C313.439 356.577 317.416 352.523 322.374 352.471Z" fill="#6582DB"/>
<path d="M329.858 363.478C327.805 363.5 326.123 361.856 326.101 359.807C326.08 357.758 327.727 356.079 329.78 356.058C331.833 356.036 333.515 357.679 333.537 359.728C333.558 361.777 331.911 363.456 329.858 363.478Z" stroke="white" stroke-width="0.438785" stroke-linecap="round" stroke-linejoin="round"/>
<path d="M322.978 366.741L327.217 362.42" stroke="white" stroke-width="0.438785" stroke-linecap="round" stroke-linejoin="round"/>
<path d="M187.684 529.944L248.706 529.298L269.498 478.148L165.837 479.245L187.684 529.944Z" fill="#6582DB"/>
<path style="mix-blend-mode:multiply" opacity="0.2" d="M165.837 479.245L269.43 478.149L259.2 503.326C234.785 501.322 188.294 495.479 171.858 493.39L165.837 479.245Z" fill="url(#paint27_linear_65_5)"/>
<path d="M189.939 550.26L258.623 549.533C266.081 549.454 272.168 544.095 272.099 537.58C272.035 531.54 266.769 526.618 260.052 525.965L286.146 461.75C287.26 458.995 289.168 456.631 291.628 454.958C294.088 453.285 296.99 452.377 299.966 452.35L338.072 451.946C338.943 451.937 339.776 451.583 340.386 450.961C340.995 450.339 341.333 449.501 341.324 448.631C341.322 448.199 341.235 447.77 341.067 447.372C340.899 446.973 340.653 446.611 340.344 446.307C340.036 446.003 339.67 445.764 339.268 445.602C338.866 445.44 338.435 445.359 338.002 445.363L299.897 445.766C295.616 445.806 291.444 447.111 287.906 449.516C284.368 451.921 281.625 455.319 280.022 459.28L252.071 528.063C251.864 528.566 251.786 529.112 251.843 529.652C251.901 530.193 252.091 530.711 252.399 531.159C252.709 531.601 253.122 531.961 253.602 532.209C254.083 532.456 254.616 532.583 255.157 532.578L258.444 532.543C262.207 532.503 265.428 534.868 265.458 537.718C265.488 540.569 262.317 542.978 258.554 543.018L189.87 543.745C189.436 543.746 189.007 543.833 188.608 544.001C188.208 544.169 187.846 544.414 187.541 544.722C187.237 545.03 186.997 545.395 186.834 545.797C186.672 546.198 186.591 546.627 186.595 547.06C186.622 547.924 186.987 548.743 187.613 549.341C188.238 549.939 189.073 550.269 189.939 550.26Z" fill="white"/>
<path d="M258.52 567.588C254.426 567.632 251.072 564.355 251.029 560.269C250.986 556.184 254.27 552.837 258.363 552.793C262.457 552.75 265.811 556.027 265.854 560.112C265.897 564.198 262.614 567.545 258.52 567.588Z" fill="#343947"/>
<path d="M191.921 568.293C187.827 568.337 184.473 565.06 184.43 560.974C184.387 556.889 187.67 553.541 191.764 553.498C195.858 553.455 199.212 556.732 199.255 560.817C199.298 564.903 196.015 568.25 191.921 568.293Z" fill="#343947"/>
<path d="M265.101 488.964L170.439 489.966L165.837 479.245L269.498 478.148L265.101 488.964Z" fill="white"/>
<path style="mix-blend-mode:multiply" opacity="0.2" d="M299.897 445.766L338.002 445.363C338.435 445.359 338.866 445.44 339.268 445.602C339.67 445.764 340.036 446.003 340.344 446.307C340.653 446.611 340.899 446.973 341.067 447.372C341.235 447.77 341.322 448.199 341.324 448.631C341.333 449.501 340.995 450.339 340.386 450.961C339.776 451.583 338.943 451.937 338.072 451.946L299.966 452.35C297.69 452.377 295.448 452.917 293.41 453.93C291.371 454.943 289.589 456.402 288.194 458.198L285.448 451.44C289.394 447.829 294.543 445.807 299.897 445.766Z" fill="url(#paint28_linear_65_5)"/>
<path style="mix-blend-mode:multiply" opacity="0.2" d="M215.394 447.045C195.664 447.254 179.5 431.461 179.292 411.77C179.083 392.079 194.909 375.947 214.639 375.739C234.37 375.53 250.533 391.323 250.742 411.014C250.95 430.705 235.124 446.837 215.394 447.045Z" fill="url(#paint29_linear_65_5)"/>
<path d="M184.613 416.753C180.093 397.585 191.998 378.388 211.204 373.876C230.411 369.363 249.646 381.243 254.167 400.411C258.687 419.579 246.782 438.776 227.576 443.289C208.369 447.801 189.134 435.921 184.613 416.753Z" fill="white"/>
<path d="M195.248 402.868C195.394 402.102 195.805 401.412 196.409 400.917C197.013 400.423 197.771 400.156 198.552 400.163L210.906 400.032L210.153 395.244C209.782 393.046 210.025 390.789 210.855 388.72C211.218 387.676 211.831 386.736 212.641 385.983C213.451 385.229 214.433 384.684 215.502 384.395C215.678 384.36 215.86 384.364 216.035 384.407C216.209 384.45 216.372 384.531 216.512 384.644C216.652 384.757 216.765 384.899 216.843 385.061C216.921 385.222 216.963 385.399 216.965 385.579L217.01 389.832C217.027 391.218 217.324 392.586 217.883 393.855C218.441 395.125 219.251 396.268 220.262 397.218C222.489 399.298 224.482 401.614 226.207 404.124L231.217 404.071L231.424 423.662C227.268 424.795 222.988 425.418 218.68 425.517L204.83 425.663C204.049 425.687 203.285 425.436 202.671 424.954C202.057 424.473 201.631 423.792 201.469 423.029C201.389 422.57 201.409 422.1 201.529 421.65C201.649 421.2 201.866 420.781 202.164 420.423C202.462 420.064 202.835 419.775 203.256 419.575C203.677 419.375 204.137 419.268 204.604 419.263L202.337 419.287C201.558 419.316 200.794 419.07 200.18 418.592C199.565 418.114 199.139 417.435 198.976 416.675C198.893 416.217 198.91 415.745 199.027 415.294C199.144 414.843 199.358 414.423 199.654 414.062C199.95 413.702 200.321 413.41 200.741 413.207C201.161 413.004 201.621 412.894 202.088 412.886L200.297 412.905C199.522 412.929 198.764 412.68 198.154 412.203C197.544 411.726 197.121 411.05 196.959 410.293C196.875 409.836 196.892 409.366 197.009 408.916C197.126 408.466 197.341 408.047 197.637 407.688C197.933 407.329 198.305 407.039 198.725 406.839C199.145 406.638 199.605 406.532 200.071 406.527L198.484 406.544C198.018 406.551 197.555 406.458 197.129 406.269C196.703 406.08 196.323 405.802 196.015 405.452C195.707 405.102 195.479 404.69 195.347 404.244C195.215 403.798 195.181 403.328 195.248 402.868V402.868Z" fill="#FF9A87"/>
<path d="M200.885 406.36L208.343 406.281" stroke="#D17E6F" stroke-width="0.420503" stroke-miterlimit="10"/>
<path d="M202.835 412.856L208.412 412.797" stroke="#D17E6F" stroke-width="0.420503" stroke-miterlimit="10"/>
<path d="M204.604 419.285L208.48 419.29" stroke="#D17E6F" stroke-width="0.420503" stroke-miterlimit="10"/>
<path d="M231.216 401.899L243.434 401.77L243.691 426.044L231.473 426.173L231.216 401.899Z" fill="#3358CC"/>
<path style="mix-blend-mode:multiply" opacity="0.2" d="M226.842 404.117L231.217 404.071L231.424 423.662C229.989 424.074 228.532 424.407 227.059 424.659L226.842 404.117Z" fill="url(#paint30_linear_65_5)"/>
<path d="M216.641 453.435C216.651 454.377 217.035 455.277 217.71 455.936C218.384 456.595 219.293 456.959 220.237 456.949C220.711 456.956 221.182 456.868 221.621 456.69C222.06 456.512 222.459 456.248 222.794 455.913C223.129 455.578 223.393 455.179 223.57 454.741C223.747 454.302 223.835 453.832 223.826 453.359C223.816 452.423 223.434 451.529 222.764 450.875C222.094 450.22 221.191 449.857 220.253 449.867C219.78 449.86 219.31 449.947 218.871 450.124C218.432 450.3 218.032 450.562 217.696 450.894C217.36 451.227 217.093 451.622 216.912 452.059C216.731 452.495 216.638 452.963 216.641 453.435V453.435Z" fill="white"/>
<path d="M216.775 466.104C216.791 467.042 217.178 467.936 217.851 468.59C218.525 469.244 219.431 469.605 220.371 469.595C220.843 469.603 221.312 469.515 221.749 469.339C222.187 469.162 222.585 468.9 222.92 468.567C223.254 468.235 223.519 467.839 223.697 467.403C223.876 466.967 223.966 466.499 223.96 466.028C223.968 465.549 223.878 465.074 223.695 464.631C223.512 464.188 223.241 463.787 222.899 463.452C222.556 463.117 222.148 462.855 221.7 462.682C221.253 462.509 220.775 462.429 220.295 462.447C219.822 462.452 219.355 462.551 218.92 462.738C218.486 462.925 218.093 463.197 217.766 463.538C217.438 463.878 217.181 464.281 217.011 464.721C216.841 465.162 216.761 465.632 216.775 466.104V466.104Z" fill="white"/>
<path style="mix-blend-mode:multiply" opacity="0.2" d="M328.167 323.653L395.741 322.938L404.873 277.545L337.276 278.26L328.167 323.653Z" fill="url(#paint31_linear_65_5)"/>
<path d="M331.892 320.039L399.489 319.323L408.621 273.953L341.024 274.669L331.892 320.039Z" fill="#D18100"/>
<path d="M357.708 302.321L331.892 320.038" stroke="#FFCA44" stroke-width="0.411361" stroke-miterlimit="10"/>
<path d="M399.489 319.323L381.38 302.704" stroke="#FFCA44" stroke-width="0.411361" stroke-miterlimit="10"/>
<path d="M357.09 297.441L339.668 281.425" stroke="#FFCA44" stroke-width="0.411361" stroke-miterlimit="10"/>
<path d="M407.241 280.71L382.686 297.577" stroke="#FFCA44" stroke-width="0.411361" stroke-miterlimit="10"/>
<path d="M363.945 287.617C363.233 288.176 362.592 288.821 362.039 289.537C361.517 290.205 361.061 290.922 360.678 291.678C360.309 292.407 360.006 293.168 359.773 293.951C359.532 294.745 359.336 295.539 359.164 296.355L358.97 297.33C358.905 297.644 358.863 297.962 358.844 298.282C358.717 298.839 358.709 299.416 358.821 299.976C358.932 300.536 359.16 301.067 359.49 301.533C359.859 301.958 360.324 302.29 360.847 302.501C361.369 302.711 361.934 302.795 362.496 302.746C363.156 302.73 363.811 302.624 364.442 302.431C365.11 302.201 365.729 301.849 366.268 301.393L366.404 301.392C366.44 301.378 366.48 301.377 366.517 301.391C366.646 301.682 366.832 301.945 367.064 302.164C367.296 302.383 367.569 302.554 367.868 302.666C368.537 302.871 369.235 302.963 369.934 302.938C370.72 302.936 371.495 302.75 372.195 302.394C372.859 302.046 373.453 301.58 373.949 301.018C374.449 300.426 374.861 299.767 375.175 299.059C375.483 298.329 375.71 297.568 375.854 296.789C376.017 296.046 376.085 295.285 376.057 294.525C376.065 293.858 375.934 293.197 375.673 292.583C375.42 292.026 375.015 291.552 374.503 291.215C373.883 290.833 373.161 290.651 372.434 290.694C371.91 290.693 371.389 290.783 370.895 290.959C370.398 291.156 369.935 291.428 369.521 291.766C369.504 291.776 369.484 291.781 369.464 291.782C369.444 291.782 369.425 291.777 369.408 291.767V291.767C369.447 291.686 369.467 291.596 369.466 291.506C369.465 291.416 369.443 291.327 369.402 291.247C369.344 291.178 369.27 291.124 369.187 291.09C369.104 291.055 369.014 291.041 368.924 291.048L367.337 291.065C367.121 291.055 366.91 291.13 366.75 291.275C366.592 291.412 366.483 291.595 366.438 291.798L365.008 298.013C364.919 298.499 364.705 298.953 364.387 299.332C364.23 299.527 364.031 299.683 363.804 299.787C363.577 299.892 363.328 299.942 363.078 299.934C362.864 299.968 362.644 299.93 362.454 299.825C362.264 299.721 362.115 299.556 362.029 299.357C361.886 298.932 361.881 298.473 362.015 298.045L362.661 294.78C362.955 293.591 363.449 292.462 364.122 291.438C364.678 290.609 365.405 289.907 366.254 289.38C367.114 288.882 368.054 288.535 369.031 288.355C370.138 288.154 371.259 288.052 372.383 288.048C374.209 287.886 376.024 288.453 377.433 289.623C378.031 290.294 378.47 291.09 378.719 291.953C378.967 292.816 379.019 293.723 378.869 294.608C378.784 295.415 378.656 296.217 378.486 297.011C378.27 298.008 378.097 298.825 377.899 299.415C377.355 301.475 376.099 303.277 374.354 304.504C372.608 305.731 370.485 306.304 368.358 306.123C367.333 306.137 366.308 306.065 365.295 305.906C364.345 305.73 363.467 305.284 362.765 304.621L362.4 304.353C362.257 304.262 362.091 304.217 361.922 304.222L359.655 304.246C359.441 304.247 359.234 304.321 359.068 304.456C358.905 304.598 358.795 304.79 358.756 305.002C358.71 305.15 358.711 305.308 358.761 305.455C359.209 306.119 359.767 306.703 360.412 307.18C361.068 307.644 361.78 308.025 362.532 308.311C363.317 308.606 364.133 308.81 364.964 308.919C365.837 309.027 366.716 309.078 367.596 309.072C369.124 309.075 370.647 308.876 372.124 308.481C373.477 308.102 374.763 307.516 375.937 306.744C377.099 305.936 378.109 304.93 378.92 303.771C379.815 302.484 380.482 301.054 380.893 299.542C381.144 298.7 381.347 297.844 381.501 296.979C381.63 296.321 381.737 295.686 381.821 295.052C381.911 294.46 381.958 293.862 381.96 293.263C381.999 292.675 381.993 292.085 381.942 291.499C381.838 290.897 381.672 290.307 381.447 289.739C381.138 288.95 380.685 288.226 380.109 287.604C379.552 287.001 378.885 286.509 378.144 286.154C377.383 285.772 376.571 285.498 375.733 285.342C374.835 285.17 373.923 285.089 373.01 285.1C369.788 284.871 366.586 285.76 363.945 287.617V287.617ZM368.354 299.335C368.104 298.603 368.096 297.81 368.33 297.073C368.418 296.681 368.528 296.295 368.658 295.915C368.78 295.555 368.96 295.217 369.191 294.914C369.422 294.619 369.713 294.377 370.045 294.204C370.414 294.008 370.827 293.91 371.244 293.92C372.763 293.904 373.295 294.939 372.886 297.025C372.801 297.402 372.691 297.773 372.558 298.137C372.429 298.503 372.233 298.843 371.979 299.138C371.759 299.44 371.476 299.69 371.148 299.871C370.796 300.066 370.398 300.164 369.995 300.155C369.671 300.195 369.342 300.139 369.05 299.993C368.758 299.847 368.516 299.618 368.354 299.335Z" fill="#FFE4A1"/>
<path d="M429.852 281.444L416.115 281.589" stroke="white" stroke-width="0.914136" stroke-linecap="round" stroke-linejoin="round"/>
<path d="M427.849 291.42L414.112 291.565" stroke="white" stroke-width="0.914136" stroke-linecap="round" stroke-linejoin="round"/>
<path d="M425.846 301.374L412.109 301.519" stroke="white" stroke-width="0.914136" stroke-linecap="round" stroke-linejoin="round"/>
<path d="M423.843 311.35L410.106 311.495" stroke="white" stroke-width="0.914136" stroke-linecap="round" stroke-linejoin="round"/>
<path style="mix-blend-mode:multiply" opacity="0.2" d="M213.615 347.513L276.882 346.843L285.991 301.451L222.747 302.12L213.615 347.513Z" fill="url(#paint32_linear_65_5)"/>
<path d="M217.069 343.947L280.336 343.277L289.445 297.885L226.201 298.554L217.069 343.947Z" fill="#FF005D"/>
<path d="M310.699 305.398L296.962 305.543" stroke="white" stroke-width="0.914136" stroke-linecap="round" stroke-linejoin="round"/>
<path d="M308.696 315.352L294.959 315.497" stroke="white" stroke-width="0.914136" stroke-linecap="round" stroke-linejoin="round"/>
<path d="M306.693 325.328L292.956 325.473" stroke="white" stroke-width="0.914136" stroke-linecap="round" stroke-linejoin="round"/>
<path d="M304.69 335.304L290.954 335.45" stroke="white" stroke-width="0.914136" stroke-linecap="round" stroke-linejoin="round"/>
<path d="M262.608 313.396L259.637 328.269C259.554 328.724 259.37 329.153 259.099 329.528C258.827 329.902 258.476 330.211 258.07 330.432C257.664 330.653 257.213 330.781 256.751 330.806C256.289 330.831 255.827 330.753 255.4 330.577L243.33 323.283C241.755 322.327 242.272 319.788 244.234 318.749L259.298 311.191C261.169 310.244 263.019 311.468 262.608 313.396Z" fill="white"/>
<path d="M762.841 562.251L82.2525 569.454" stroke="#343947" stroke-width="0.420503" stroke-miterlimit="10"/>
<defs>
<linearGradient id="paint0_linear_65_5" x1="156.216" y1="166.514" x2="372.801" y2="433.962" gradientUnits="userSpaceOnUse">
<stop stop-color="#FF8CB6"/>
<stop offset="1" stop-color="#FFCA44"/>
</linearGradient>
<linearGradient id="paint1_linear_65_5" x1="434.706" y1="155.301" x2="439.691" y2="626.375" gradientUnits="userSpaceOnUse">
<stop stop-color="#FF8CB6"/>
<stop offset="1" stop-color="#FFCA44"/>
</linearGradient>
<linearGradient id="paint2_linear_65_5" x1="303.77" y1="522.606" x2="274.336" y2="338.121" gradientUnits="userSpaceOnUse">
<stop stop-color="#5EC778"/>
<stop offset="1" stop-color="#FFCA44"/>
</linearGradient>
<linearGradient id="paint3_linear_65_5" x1="281.497" y1="523.679" x2="204.566" y2="410.865" gradientUnits="userSpaceOnUse">
<stop stop-color="#5EC778"/>
<stop offset="1" stop-color="#FFCA44"/>
</linearGradient>
<linearGradient id="paint4_linear_65_5" x1="317.345" y1="528.503" x2="337.553" y2="446.818" gradientUnits="userSpaceOnUse">
<stop stop-color="#5EC778"/>
<stop offset="1" stop-color="#FFCA44"/>
</linearGradient>
<linearGradient id="paint5_linear_65_5" x1="581.529" y1="250.267" x2="584.426" y2="524.025" gradientUnits="userSpaceOnUse">
<stop offset="0.38" stop-color="#6D6960"/>
<stop offset="1" stop-color="#343947"/>
</linearGradient>
<linearGradient id="paint6_linear_65_5" x1="567.707" y1="193.104" x2="569.592" y2="371.235" gradientUnits="userSpaceOnUse">
<stop offset="0.38" stop-color="#6D6960"/>
<stop offset="1" stop-color="#343947"/>
</linearGradient>
<linearGradient id="paint7_linear_65_5" x1="714.034" y1="410.477" x2="429.775" y2="413.486" gradientUnits="userSpaceOnUse">
<stop stop-color="white"/>
<stop offset="0.05" stop-color="#FFFAEE"/>
<stop offset="0.19" stop-color="#FFEEC4"/>
<stop offset="0.3" stop-color="#FFE7AB"/>
<stop offset="0.37" stop-color="#FFE4A1"/>
<stop offset="1" stop-color="#277085"/>
</linearGradient>
<linearGradient id="paint8_linear_65_5" x1="563.432" y1="397.523" x2="559.477" y2="591.396" gradientUnits="userSpaceOnUse">
<stop stop-color="white"/>
<stop offset="0.05" stop-color="#FFFAEE"/>
<stop offset="0.19" stop-color="#FFEEC4"/>
<stop offset="0.3" stop-color="#FFE7AB"/>
<stop offset="0.37" stop-color="#FFE4A1"/>
<stop offset="1" stop-color="#277085"/>
</linearGradient>
<linearGradient id="paint9_linear_65_5" x1="408.95" y1="435.743" x2="408.249" y2="369.526" gradientUnits="userSpaceOnUse">
<stop stop-color="white"/>
<stop offset="0.14" stop-color="#F8FBFF"/>
<stop offset="0.35" stop-color="#E4F0FD"/>
<stop offset="0.61" stop-color="#C4DDFB"/>
<stop offset="0.89" stop-color="#97C4F8"/>
<stop offset="1" stop-color="#83B9F7"/>
</linearGradient>
<linearGradient id="paint10_linear_65_5" x1="429.264" y1="502.273" x2="428.691" y2="448.091" gradientUnits="userSpaceOnUse">
<stop stop-color="#FF8CB6"/>
<stop offset="1" stop-color="#FFCA44"/>
</linearGradient>
<linearGradient id="paint11_linear_65_5" x1="407.208" y1="502.506" x2="406.635" y2="448.325" gradientUnits="userSpaceOnUse">
<stop stop-color="#FF8CB6"/>
<stop offset="1" stop-color="#FFCA44"/>
</linearGradient>
<linearGradient id="paint12_linear_65_5" x1="385.152" y1="502.74" x2="384.579" y2="448.558" gradientUnits="userSpaceOnUse">
<stop stop-color="#FF8CB6"/>
<stop offset="1" stop-color="#FFCA44"/>
</linearGradient>
<linearGradient id="paint13_linear_65_5" x1="363.096" y1="502.973" x2="362.523" y2="448.792" gradientUnits="userSpaceOnUse">
<stop stop-color="#FF8CB6"/>
<stop offset="1" stop-color="#FFCA44"/>
</linearGradient>
<linearGradient id="paint14_linear_65_5" x1="631.599" y1="275.145" x2="559.061" y2="275.913" gradientUnits="userSpaceOnUse">
<stop stop-color="white"/>
<stop offset="0.12" stop-color="#DADADA"/>
<stop offset="0.45" stop-color="#7E7E7E"/>
<stop offset="0.71" stop-color="#3A3A3A"/>
<stop offset="0.9" stop-color="#101010"/>
<stop offset="1"/>
</linearGradient>
<linearGradient id="paint15_linear_65_5" x1="580.755" y1="277.878" x2="614.327" y2="277.523" gradientUnits="userSpaceOnUse">
<stop stop-color="white"/>
<stop offset="0.12" stop-color="#DADADA"/>
<stop offset="0.45" stop-color="#7E7E7E"/>
<stop offset="0.71" stop-color="#3A3A3A"/>
<stop offset="0.9" stop-color="#101010"/>
<stop offset="1"/>
</linearGradient>
<linearGradient id="paint16_linear_65_5" x1="604.809" y1="541.321" x2="605.066" y2="565.663" gradientUnits="userSpaceOnUse">
<stop stop-color="white"/>
<stop offset="1" stop-color="#343947"/>
</linearGradient>
<linearGradient id="paint17_linear_65_5" x1="563.452" y1="431.551" x2="559.427" y2="371.342" gradientUnits="userSpaceOnUse">
<stop stop-color="white"/>
<stop offset="0.12" stop-color="#DADADA"/>
<stop offset="0.45" stop-color="#7E7E7E"/>
<stop offset="0.71" stop-color="#3A3A3A"/>
<stop offset="0.9" stop-color="#101010"/>
<stop offset="1"/>
</linearGradient>
<linearGradient id="paint18_linear_65_5" x1="521.4" y1="474.622" x2="562.366" y2="416.438" gradientUnits="userSpaceOnUse">
<stop stop-color="white"/>
<stop offset="0.12" stop-color="#DADADA"/>
<stop offset="0.45" stop-color="#7E7E7E"/>
<stop offset="0.71" stop-color="#3A3A3A"/>
<stop offset="0.9" stop-color="#101010"/>
<stop offset="1"/>
</linearGradient>
<linearGradient id="paint19_linear_65_5" x1="553.574" y1="350.793" x2="549.407" y2="330.471" gradientUnits="userSpaceOnUse">
<stop stop-color="white"/>
<stop offset="0.12" stop-color="#DADADA"/>
<stop offset="0.45" stop-color="#7E7E7E"/>
<stop offset="0.71" stop-color="#3A3A3A"/>
<stop offset="0.9" stop-color="#101010"/>
<stop offset="1"/>
</linearGradient>
<linearGradient id="paint20_linear_65_5" x1="540.057" y1="296.749" x2="538.891" y2="318.821" gradientUnits="userSpaceOnUse">
<stop stop-color="white"/>
<stop offset="0.12" stop-color="#DADADA"/>
<stop offset="0.45" stop-color="#7E7E7E"/>
<stop offset="0.71" stop-color="#3A3A3A"/>
<stop offset="0.9" stop-color="#101010"/>
<stop offset="1"/>
</linearGradient>
<linearGradient id="paint21_linear_65_5" x1="517.666" y1="372.418" x2="533.596" y2="342.244" gradientUnits="userSpaceOnUse">
<stop stop-color="white"/>
<stop offset="0.12" stop-color="#DADADA"/>
<stop offset="0.45" stop-color="#7E7E7E"/>
<stop offset="0.71" stop-color="#3A3A3A"/>
<stop offset="0.9" stop-color="#101010"/>
<stop offset="1"/>
</linearGradient>
<linearGradient id="paint22_linear_65_5" x1="667.186" y1="518.76" x2="692.687" y2="333.693" gradientUnits="userSpaceOnUse">
<stop stop-color="#5EC778"/>
<stop offset="1" stop-color="#FFCA44"/>
</linearGradient>
<linearGradient id="paint23_linear_65_5" x1="689.455" y1="519.361" x2="763.98" y2="404.921" gradientUnits="userSpaceOnUse">
<stop stop-color="#5EC778"/>
<stop offset="1" stop-color="#FFCA44"/>
</linearGradient>
<linearGradient id="paint24_linear_65_5" x1="653.74" y1="524.943" x2="631.785" y2="443.704" gradientUnits="userSpaceOnUse">
<stop stop-color="#5EC778"/>
<stop offset="1" stop-color="#FFCA44"/>
</linearGradient>
<linearGradient id="paint25_linear_65_5" x1="412.54" y1="363.666" x2="286.052" y2="365.005" gradientUnits="userSpaceOnUse">
<stop stop-color="white"/>
<stop offset="0.12" stop-color="#DADADA"/>
<stop offset="0.45" stop-color="#7E7E7E"/>
<stop offset="0.71" stop-color="#3A3A3A"/>
<stop offset="0.9" stop-color="#101010"/>
<stop offset="1"/>
</linearGradient>
<linearGradient id="paint26_linear_65_5" x1="416.088" y1="360.461" x2="289.6" y2="361.8" gradientUnits="userSpaceOnUse">
<stop offset="0.3" stop-color="white"/>
<stop offset="0.63" stop-color="#BDDAFB"/>
<stop offset="0.88" stop-color="#93C2F8"/>
<stop offset="1" stop-color="#83B9F7"/>
</linearGradient>
<linearGradient id="paint27_linear_65_5" x1="217.568" y1="470.304" x2="218.023" y2="513.31" gradientUnits="userSpaceOnUse">
<stop stop-color="white"/>
<stop offset="0.12" stop-color="#DADADA"/>
<stop offset="0.45" stop-color="#7E7E7E"/>
<stop offset="0.71" stop-color="#3A3A3A"/>
<stop offset="0.9" stop-color="#101010"/>
<stop offset="1"/>
</linearGradient>
<linearGradient id="paint28_linear_65_5" x1="241.795" y1="452.468" x2="322.539" y2="451.613" gradientUnits="userSpaceOnUse">
<stop stop-color="white"/>
<stop offset="0.12" stop-color="#DADADA"/>
<stop offset="0.45" stop-color="#7E7E7E"/>
<stop offset="0.71" stop-color="#3A3A3A"/>
<stop offset="0.9" stop-color="#101010"/>
<stop offset="1"/>
</linearGradient>
<linearGradient id="paint29_linear_65_5" x1="250.719" y1="411.014" x2="179.292" y2="411.77" gradientUnits="userSpaceOnUse">
<stop stop-color="white"/>
<stop offset="0.12" stop-color="#DADADA"/>
<stop offset="0.45" stop-color="#7E7E7E"/>
<stop offset="0.71" stop-color="#3A3A3A"/>
<stop offset="0.9" stop-color="#101010"/>
<stop offset="1"/>
</linearGradient>
<linearGradient id="paint30_linear_65_5" x1="216.705" y1="414.496" x2="232.006" y2="414.334" gradientUnits="userSpaceOnUse">
<stop stop-color="white"/>
<stop offset="0.12" stop-color="#DADADA"/>
<stop offset="0.45" stop-color="#7E7E7E"/>
<stop offset="0.71" stop-color="#3A3A3A"/>
<stop offset="0.9" stop-color="#101010"/>
<stop offset="1"/>
</linearGradient>
<linearGradient id="paint31_linear_65_5" x1="405.112" y1="300.19" x2="327.928" y2="301.007" gradientUnits="userSpaceOnUse">
<stop stop-color="white"/>
<stop offset="0.12" stop-color="#DADADA"/>
<stop offset="0.45" stop-color="#7E7E7E"/>
<stop offset="0.71" stop-color="#3A3A3A"/>
<stop offset="0.9" stop-color="#101010"/>
<stop offset="1"/>
</linearGradient>
<linearGradient id="paint32_linear_65_5" x1="286.231" y1="324.096" x2="213.376" y2="324.867" gradientUnits="userSpaceOnUse">
<stop stop-color="white"/>
<stop offset="0.12" stop-color="#DADADA"/>
<stop offset="0.45" stop-color="#7E7E7E"/>
<stop offset="0.71" stop-color="#3A3A3A"/>
<stop offset="0.9" stop-color="#101010"/>
<stop offset="1"/>
</linearGradient>
</defs>
</svg>
