<svg width="319" height="242" viewBox="0 0 319 242" fill="none" xmlns="http://www.w3.org/2000/svg">
<rect x="6" width="313" height="242" rx="41.343" fill="#FFF4F5"/>
<path d="M173.017 51.5052H175.029L179.419 45.1543V41.0009C179.419 41.0009 182.53 40.8017 182.163 46.2651C181.797 51.7286 182.192 50.3341 182.192 50.3341C182.192 50.3341 188.798 50.3341 189.344 50.9378C189.745 51.3724 189.926 58.1822 189.995 61.8708C190.038 62.763 189.792 63.6443 189.297 64.3749C188.802 65.1055 188.086 65.6435 187.263 65.9035C187.031 65.9649 186.793 65.9972 186.553 66C184.908 66 176.489 64.6116 176.489 64.6116H173L173.017 51.5052Z" fill="#E1E1E1"/>
<path d="M167 50L168.321 64H172V50.2781L167 50Z" fill="#E1E1E1"/>
<path d="M112.102 119L108 132H110.936L115 119H112.102Z" fill="#ECECEC"/>
<path d="M117.686 119L113 131.994L116.352 132L121 119H117.686Z" fill="#ECECEC"/>
<path d="M107 124L108.113 121H123L122.023 124H107Z" fill="#ECECEC"/>
<path d="M106 129L107.043 126H121L120.084 129H106Z" fill="#ECECEC"/>
<path d="M36.9469 105.483C36.8085 104.44 36.3416 103.465 35.6102 102.691C34.9258 101.903 34.0025 101.344 32.9724 101.097C32.4261 100.978 31.861 100.969 31.3107 101.068C30.7605 101.167 30.2365 101.373 29.7702 101.674C29.2207 102.043 28.7704 102.534 28.4573 103.107C28.1614 102.6 27.7561 102.16 27.2691 101.819C26.807 101.511 26.2857 101.297 25.7364 101.189C25.1872 101.082 24.6214 101.084 24.0728 101.195C23.0423 101.433 22.1152 101.981 21.4232 102.761C20.6796 103.528 20.1999 104.502 20.0508 105.546C19.8774 106.875 20.1504 108.223 20.8291 109.389C21.6132 110.583 22.6835 111.575 23.9481 112.278C25.9858 113.486 28.7008 115 28.7008 115C28.7008 115 30.9881 113.359 33.0377 112.169C34.3036 111.479 35.3829 110.506 36.1864 109.331C36.857 108.161 37.1235 106.812 36.9469 105.483V105.483Z" fill="#ECECEC"/>
<path d="M232.971 139.206C232.87 138.459 232.539 137.762 232.021 137.208C231.539 136.642 230.888 136.242 230.16 136.065C229.774 135.983 229.375 135.978 228.987 136.052C228.599 136.125 228.23 136.275 227.902 136.493C227.512 136.753 227.192 137.103 226.971 137.513C226.758 137.148 226.465 136.833 226.115 136.59C225.789 136.372 225.422 136.22 225.035 136.143C224.648 136.066 224.25 136.067 223.863 136.144C223.139 136.32 222.489 136.713 222.002 137.269C221.48 137.817 221.142 138.511 221.034 139.255C220.915 140.206 221.109 141.169 221.586 142.004C222.14 142.85 222.894 143.553 223.783 144.051C225.222 144.912 227.12 146 227.12 146C227.12 146 228.733 144.821 230.179 143.971C231.074 143.483 231.835 142.789 232.4 141.949C232.881 141.117 233.08 140.157 232.971 139.206Z" fill="#ECECEC"/>
<path d="M279.676 68.894C280.776 68.406 281.709 67.6059 282.361 66.5925C283.013 65.579 283.354 64.3964 283.343 63.1909C283.343 59.7867 280.785 57.0118 277.599 57C274.413 56.9883 271.82 59.7339 271.802 63.138C271.779 64.3544 272.116 65.5502 272.771 66.5747C273.426 67.5991 274.369 68.4062 275.481 68.894C266.604 70.2345 267.003 79.9001 267.003 79.9001L287.995 80C287.995 80 288.476 70.2227 279.676 68.894Z" fill="#ECECEC"/>
<path d="M59.0748 47.7134C59.5972 47.4773 60.0398 47.0917 60.3481 46.6044C60.6565 46.1171 60.8171 45.5493 60.8101 44.9708C60.8351 44.2105 60.5613 43.4712 60.0486 42.9145C59.5359 42.3577 58.8259 42.029 58.0741 42C57.3263 42.023 56.6176 42.3425 56.1012 42.8898C55.5849 43.437 55.3024 44.1678 55.3149 44.924C55.3041 45.5062 55.4628 46.0789 55.7714 46.5707C56.0799 47.0625 56.5246 47.4517 57.0502 47.69C52.8218 48.3333 53.0011 52.9532 53.0011 52.9532L62.9966 53C62.9966 53 63.2627 48.3509 59.0748 47.7134Z" fill="#ECECEC"/>
<path d="M290.075 152.701C290.597 152.467 291.04 152.084 291.348 151.598C291.657 151.113 291.817 150.547 291.81 149.97C291.835 149.211 291.562 148.473 291.049 147.916C290.536 147.36 289.826 147.03 289.074 147C288.321 147.023 287.608 147.346 287.091 147.898C286.574 148.451 286.295 149.187 286.315 149.947C286.299 150.528 286.456 151.101 286.765 151.592C287.074 152.083 287.522 152.469 288.05 152.701C283.822 153.343 284.001 157.953 284.001 157.953L293.997 158C293.997 158 294.263 153.343 290.075 152.701Z" fill="#ECECEC"/>
<path d="M139.286 61L119 195H150.088L170 61H139.286Z" fill="#E56A20"/>
<path d="M139.317 61.0356H139.832H141.363H147.341L169.929 61H170V61.0711C165.636 90.582 158.393 139.542 150.197 194.911V195H119V194.881C124.777 156.755 129.85 123.289 133.475 99.3517C135.296 87.392 136.751 77.816 137.756 71.2283C138.259 67.9375 138.649 65.3937 138.939 63.6742C139.075 62.8144 139.175 62.1622 139.24 61.7234C139.305 61.2846 139.353 61.0651 139.353 61.0651C139.353 61.0651 139.323 61.2905 139.258 61.7352C139.193 62.18 139.093 62.8382 138.968 63.7039C138.708 65.4293 138.33 67.9789 137.833 71.2816C136.846 77.8752 135.409 87.4632 133.611 99.4348C130.01 123.36 124.972 156.808 119.231 194.899L119.13 194.781H150.114L150.014 194.875C158.245 139.506 165.518 90.5524 169.905 61.0473L169.965 61.1186L147.412 61.0829H141.422H139.353L139.317 61.0356Z" fill="#1A2E35"/>
<path d="M195.583 62L175 195L205.499 194.674L226 62H195.583Z" fill="#E56A20"/>
<path d="M195.638 62.0354H196.147H197.662H203.578L225.93 62H226V62.0709C221.5 91.3243 214.046 139.792 205.62 194.598V194.687H205.333L175.152 195H175V194.876C180.851 157.038 185.995 123.818 189.675 100.057C191.518 88.1908 192.999 78.6841 194.017 72.1393C194.526 68.8758 194.918 66.3513 195.187 64.6427C195.322 63.7914 195.421 63.141 195.491 62.7035C195.561 62.266 195.602 62.0531 195.602 62.0531C195.602 62.0531 195.602 62.2779 195.503 62.7213C195.404 63.1647 195.339 63.815 195.21 64.6723C194.947 66.3868 194.567 68.9172 194.04 72.1926C193.04 78.7432 191.577 88.2618 189.757 100.139C186.106 123.889 180.98 157.091 175.176 194.905L175.076 194.787L205.257 194.468H205.456L205.351 194.563C213.812 139.763 221.296 91.2947 225.83 62.0472L225.889 62.1182L203.572 62.0827H197.645H195.597L195.638 62.0354Z" fill="#1A2E35"/>
<path d="M107 110L116.703 80H253L246.102 110H107Z" fill="#E56A20"/>
<path d="M107 109.893L245.995 109.793L245.894 109.87C248.034 100.606 250.268 90.9516 252.55 81.0899C252.627 80.7523 252.704 80.4088 252.781 80.083L252.881 80.2133L116.69 80.1718L116.749 80.1303C110.591 98.9358 107.142 109.461 107 109.893C107.142 109.461 110.556 98.924 116.631 80.0889V80.0474H116.672L252.864 80H253V80.1303L252.769 81.1373L246.107 109.917V110H246.024L107 109.893Z" fill="#1A2E35"/>
<path d="M95 166L104.698 136H241L234.108 166H95Z" fill="#E56A20"/>
<path d="M95 165.893L233.989 165.793L233.883 165.87C236.028 156.604 238.262 146.948 240.538 137.084C240.621 136.746 240.698 136.403 240.775 136.077L240.876 136.207L104.689 136.166L104.749 136.124C98.5854 154.934 95.1422 165.461 95 165.893C95.1422 165.461 98.5558 154.922 104.63 136.083V136.042H104.678L240.864 136H241V136.13C240.923 136.45 240.846 136.794 240.763 137.131C238.481 146.995 236.253 156.681 234.108 165.917V166H234.007L95 165.893Z" fill="#1A2E35"/>
<g opacity="0.3">
<path d="M130.63 117.089L161.554 116.526L162.567 109.738H131.744L130.63 117.089Z" fill="black"/>
</g>
<g opacity="0.3">
<path d="M186.859 117.403H217.557L218.867 109.738H188.044L186.859 117.403Z" fill="black"/>
</g>
<g opacity="0.3">
<path d="M152.99 172.71L122.073 172.378L123.009 165.59H153.85L152.99 172.71Z" fill="black"/>
</g>
<g opacity="0.3">
<path d="M208.982 172.704L178.544 172.384L179.481 165.596H210.321L208.982 172.704Z" fill="black"/>
</g>
<path d="M100.035 46L93 69H98.0266L105 46H100.035Z" fill="#E56A20"/>
<path d="M109.022 47L102 68.9943L107.034 69L114 47H109.022Z" fill="#FF735D"/>
<path d="M91 55L92.8067 50H117L115.415 55H91Z" fill="#E56A20"/>
<path d="M89 65L90.8127 59H115L113.421 65H89Z" fill="#E56A20"/>
<path d="M245.274 52L240 68H243.769L249 52H245.274Z" fill="#63367D"/>
<path d="M251.268 52L246 67.994L249.775 68L255 52H251.268Z" fill="#63367D"/>
<path d="M239 58L240.25 54H257L255.907 58H239Z" fill="#63367D"/>
<path d="M238 64L239.186 61H255L253.968 64H238Z" fill="#63367D"/>
<path d="M88.0658 184C88.0658 184 86.9066 172.999 87.0061 166.602C87.1055 160.204 87.0061 153 87.0061 153H87.5424C87.5424 153 87.1791 165.705 87.5727 173.37C87.9663 181.035 89 184 89 184H88.0744" fill="#1A2E35"/>
<path d="M93.0509 141.148C92.9282 140.762 92.6722 140.422 92.3202 140.177C92.0468 140.06 91.7482 140 91.4459 140C91.1436 140 90.8451 140.06 90.5717 140.177C88.1382 140.953 86.0047 145.043 85 147.191L88.2295 157C94.0556 152.14 95.0669 145.743 93.0509 141.148Z" fill="#375A64"/>
<path d="M92 140.001C91.9897 140.044 91.974 140.087 91.9532 140.127L91.7929 140.495C91.6459 140.815 91.4454 141.274 91.1982 141.847C90.7105 142.988 90.0957 144.581 89.5412 146.386C88.9866 148.19 88.6058 149.844 88.3719 151.045C88.2516 151.648 88.1648 152.137 88.1113 152.475C88.0779 152.638 88.0579 152.765 88.0378 152.867C88.0327 152.912 88.0215 152.957 88.0044 153C87.9985 152.954 87.9985 152.907 88.0044 152.861L88.0512 152.469C88.0913 152.131 88.1648 151.636 88.2717 151.033C88.549 149.453 88.926 147.89 89.4009 146.349C89.8736 144.809 90.4425 143.294 91.1047 141.811C91.3586 141.244 91.5724 140.791 91.7327 140.477L91.9198 140.121C91.9733 140.037 91.9933 139.995 92 140.001Z" fill="#1A2E35"/>
<path d="M87.0153 159C85.8315 158.263 84.8412 157.205 84.1396 155.927C83.438 154.65 83.0489 153.197 83.0096 151.707C82.915 149.579 83.5353 147.491 84.1871 145.495C84.2294 145.314 84.3279 145.156 84.4657 145.046C84.5757 145.002 84.6939 144.989 84.8097 145.009C84.9254 145.028 85.0349 145.078 85.1281 145.156C86.8997 146.26 87.972 148.365 88.545 150.505C88.9521 151.926 89.0881 153.424 88.9445 154.905C88.7217 156.462 88.045 157.898 87.0153 159" fill="#375A64"/>
<path d="M86.9285 159C86.9232 158.958 86.9232 158.915 86.9285 158.872V158.518C86.9285 158.213 86.9285 157.763 86.8868 157.214C86.8075 155.783 86.6365 154.357 86.3746 152.945C86.0708 151.281 85.6955 149.806 85.4216 148.736C85.2846 148.214 85.1773 147.782 85.0939 147.466C85.0582 147.327 85.0344 147.211 85.0106 147.122C84.9868 147.033 85.0106 147 85.0106 147C85.0341 147.036 85.0502 147.075 85.0582 147.116L85.1654 147.455C85.2548 147.754 85.3799 148.181 85.5288 148.719C85.8266 149.784 86.2137 151.264 86.5175 152.928C86.7809 154.345 86.9421 155.777 87 157.214C87 157.769 87 158.213 87 158.518V158.872C86.9864 158.919 86.962 158.963 86.9285 159V159Z" fill="#1A2E35"/>
<g opacity="0.3">
<path d="M87.0302 159.4C85.6957 158.641 84.5792 157.551 83.7883 156.236C82.9974 154.92 82.5586 153.423 82.5144 151.889C82.4077 149.698 83.107 147.547 83.8419 145.492C83.8895 145.306 84.0006 145.143 84.156 145.03C84.2799 144.985 84.4132 144.971 84.5437 144.991C84.6741 145.011 84.7976 145.063 84.9027 145.142C86.8999 146.28 88.1088 148.448 88.7548 150.651C89.2137 152.115 89.3671 153.657 89.2052 155.183C88.9539 156.786 88.191 158.265 87.0302 159.4" fill="black"/>
</g>
<path d="M90 176.244C92.7944 176.868 95.0875 178.876 97.7841 179.855C99.5635 180.478 101.575 180.728 103 182C102.575 181.152 101.896 180.464 101.062 180.036C98.8478 178.62 96.4823 177.467 94.0113 176.599C92.7455 176.15 91.3697 175.783 90.0795 176.15" fill="#375A64"/>
<path d="M86 178C82.7222 177.95 79.2664 175.513 76 175.389C79.4443 174.434 84.3123 175.215 86 178Z" fill="#375A64"/>
<path d="M88 169.973C89.6306 169.42 91.3694 169.297 93.0582 169.613C94.7402 169.932 96.3932 170.396 98 171C97.8393 169.858 96.9529 169.014 96.1163 168.26C95.503 167.674 94.8371 167.148 94.1274 166.691C93.4147 166.233 92.5904 165.994 91.7507 166C91.2463 166.034 90.7537 166.171 90.3025 166.406C89.8512 166.64 89.4506 166.966 89.1247 167.364C88.4892 168.086 88.1001 169.002 88.0166 169.973" fill="#375A64"/>
<path d="M80.3787 166.629C78.1898 164.792 74.876 164.972 72 165.038C76.6195 167.207 80.9779 169.877 84.9936 173C85.1274 171.008 83.1391 168.95 80.3787 166.629Z" fill="#375A64"/>
<g opacity="0.3">
<path d="M80.5943 166.621C78.4609 164.802 75.231 164.98 72.4279 165.045C76.9304 167.193 81.1784 169.837 85.0924 172.929C85.2228 170.957 83.2849 168.919 80.5943 166.621Z" fill="black"/>
</g>
<path d="M88.0364 164C89.0925 163.258 90.2061 162.604 91.3663 162.043C92.5044 161.519 93.5702 160.684 94.6722 160.08C96.0571 159.222 97.3847 158.273 98.6464 157.239C99.9121 156.198 101.404 155.477 103 155.136C101.68 154.895 100.322 154.975 99.0378 155.368C97.758 155.754 96.5115 156.245 95.3105 156.837C93.5719 157.518 91.9472 158.466 90.4932 159.647C89.1143 160.867 87.8618 162.134 88.0123 164" fill="#375A64"/>
<path d="M97.9993 178L97.8851 177.963L97.568 177.844C97.2952 177.738 96.9019 177.582 96.4135 177.384C96.1661 177.293 95.8933 177.191 95.6015 177.095C95.3097 176.998 94.9672 176.884 94.6627 176.783C93.9412 176.55 93.1943 176.361 92.4299 176.217C91.6701 176.067 90.871 176.053 90.1019 176.176C89.7671 176.228 89.4384 176.299 89.1187 176.387C88.8397 176.468 88.5721 176.568 88.3194 176.686C87.9522 176.852 87.6173 177.053 87.3235 177.283C87.1142 177.444 87.0127 177.545 87 177.541C87.0177 177.513 87.039 177.487 87.0634 177.463C87.1142 177.412 87.184 177.343 87.2855 177.256C87.5738 177.014 87.9068 176.802 88.275 176.626C88.5279 176.506 88.7954 176.403 89.0743 176.319C89.4001 176.224 89.7351 176.147 90.0765 176.089C90.8615 175.959 91.6786 175.972 92.4553 176.126C93.2281 176.268 93.9817 176.46 94.7071 176.7C95.0433 176.81 95.3415 176.916 95.6523 177.021C95.9631 177.127 96.2105 177.228 96.4515 177.325C96.94 177.513 97.3269 177.678 97.5934 177.784L97.8978 177.917C97.9676 177.977 98.0057 177.995 97.9993 178Z" fill="#1A2E35"/>
<path d="M84.0001 177C84.0747 177.015 84.1476 177.038 84.2173 177.069C84.4092 177.14 84.5966 177.224 84.7784 177.32C85.3822 177.639 85.9373 178.05 86.4254 178.538C86.9147 179.026 87.3316 179.587 87.6622 180.202C87.7601 180.39 87.8487 180.583 87.9276 180.78C87.9613 180.85 87.9857 180.924 88 181C88 181 87.8492 180.705 87.5837 180.246C87.2369 179.656 86.8192 179.114 86.3409 178.633C85.8618 178.142 85.3221 177.719 84.7361 177.377C84.2897 177.144 83.9941 177.025 84.0001 177Z" fill="#1A2E35"/>
<path d="M76 166C76.0481 166.01 76.0952 166.025 76.1406 166.045L76.5447 166.198L77.1772 166.453C77.4232 166.555 77.6926 166.702 77.9913 166.849C79.562 167.639 81.0277 168.657 82.3489 169.874C83.0731 170.548 83.7523 171.277 84.3812 172.056C84.896 172.691 85.3789 173.356 85.8279 174.047C86.2086 174.634 86.4956 175.126 86.6947 175.464L86.9231 175.86C86.9758 175.949 87.0051 175.994 86.9993 176L86.9055 175.872C86.847 175.789 86.765 175.662 86.6596 175.496C86.4487 175.164 86.15 174.679 85.7576 174.098C85.3652 173.518 84.8791 172.822 84.2992 172.133C83.6675 171.365 82.9905 170.642 82.2727 169.969C80.9582 168.761 79.5077 167.74 77.9562 166.932C77.6575 166.779 77.3705 166.625 77.1479 166.523L76.5271 166.249L76.1347 166.07L76 166Z" fill="#1A2E35"/>
<path d="M93 168.234C92.9022 168.234 92.8049 168.222 92.7106 168.199L92.3698 168.147C92.2412 168.147 92.0868 168.147 91.9196 168.107C91.0474 168.04 90.1719 168.194 89.3923 168.551C88.968 168.751 88.5817 169.009 88.2476 169.317C87.9653 169.562 87.717 169.837 87.508 170.136C87.3162 170.413 87.1464 170.701 87 171C87.0123 170.913 87.0383 170.827 87.0772 170.746C87.1662 170.519 87.2827 170.3 87.4244 170.095C87.6275 169.784 87.8738 169.498 88.1576 169.242C88.4991 168.922 88.8966 168.653 89.3344 168.447C90.1265 168.082 91.0217 167.935 91.9068 168.026C92.06 168.035 92.2125 168.053 92.3633 168.078L92.6977 168.159C92.8016 168.172 92.9032 168.197 93 168.234Z" fill="#1A2E35"/>
<path d="M96 158L95.871 158.084L95.4957 158.289C95.1732 158.469 94.7041 158.734 94.1353 159.077C93.5665 159.42 92.9039 159.853 92.1944 160.377C91.4194 160.93 90.6934 161.552 90.0248 162.236C89.6793 162.596 89.3816 163 89.1394 163.44C88.9224 163.873 88.7113 164.294 88.5178 164.692C88.171 165.401 87.8598 166.128 87.5855 166.87C87.4059 167.37 87.2552 167.88 87.134 168.398C87.046 168.765 87.0167 169 87.005 169C86.9983 168.948 86.9983 168.895 87.005 168.844C87.005 168.747 87.0402 168.603 87.0753 168.416C87.1786 167.889 87.3197 167.37 87.4975 166.864C87.759 166.114 88.0625 165.381 88.4064 164.667C88.5999 164.264 88.8052 163.843 89.0221 163.41C89.2733 162.97 89.5788 162.566 89.931 162.206C90.604 161.516 91.336 160.89 92.1182 160.335C92.8336 159.817 93.5079 159.396 94.0826 159.059C94.6572 158.722 95.1322 158.457 95.4664 158.301L95.8476 158.114L96 158Z" fill="#1A2E35"/>
<path d="M87 168C86.9609 167.908 86.932 167.813 86.9136 167.717L86.7173 166.94C86.5016 166.087 86.2184 165.243 85.8691 164.415C85.5043 163.59 85.0742 162.782 84.5811 161.995L84.1492 161.271C84.0891 161.184 84.0391 161.093 84 161C84.082 161.078 84.1506 161.163 84.2042 161.253C84.322 161.418 84.4869 161.654 84.6832 161.954C85.2105 162.733 85.6569 163.542 86.0183 164.374C86.3667 165.207 86.6292 166.059 86.8037 166.923C86.8743 167.252 86.9215 167.511 86.9529 167.706C86.9792 167.803 86.995 167.901 87 168V168Z" fill="#1A2E35"/>
<path d="M85.9668 160.553C85.8597 159.297 85.4973 158.078 84.9025 156.972C84.0946 155.452 82.9686 154.13 81.6034 153.098C80.2383 152.066 78.667 151.35 77 151L84.3131 162.027L85.263 164C85.849 162.954 86.0952 161.748 85.9668 160.553Z" fill="#375A64"/>
<path d="M97 183H80V186H97V183Z" fill="#63367D"/>
<path d="M81 185L82.5006 195H94.2088L96 185H81Z" fill="#63367D"/>
<path d="M208.014 194.882L211.972 214H246.312C246.494 214 246.669 213.929 246.798 213.801C246.927 213.674 247 213.502 247 213.322C247 213.234 246.982 213.146 246.947 213.064C246.913 212.982 246.862 212.908 246.798 212.845C246.734 212.783 246.658 212.734 246.575 212.7C246.491 212.667 246.402 212.65 246.312 212.651H239.397L235.73 194.87C235.694 194.706 235.604 194.559 235.472 194.453C235.34 194.347 235.176 194.288 235.006 194.286L208.755 194C208.644 194 208.534 194.024 208.434 194.07C208.333 194.117 208.244 194.185 208.173 194.269C208.102 194.353 208.051 194.452 208.024 194.558C207.996 194.664 207.993 194.775 208.014 194.882Z" fill="#E1E1E1"/>
<path d="M208.007 194.884C208.005 194.865 208.005 194.845 208.007 194.826C207.998 194.768 207.998 194.709 208.007 194.651C208.019 194.537 208.058 194.428 208.121 194.331C208.184 194.235 208.268 194.155 208.368 194.096C208.437 194.054 208.514 194.025 208.593 194.009C208.684 193.997 208.776 193.997 208.866 194.009H209.459H211L220.908 194.102L227.818 194.166L231.688 194.207H233.721H234.758C234.847 194.207 234.93 194.207 235.025 194.207C235.115 194.216 235.203 194.24 235.286 194.277C235.454 194.361 235.588 194.499 235.665 194.668C235.697 194.754 235.721 194.842 235.736 194.931L235.789 195.188L235.896 195.701L236.109 196.746C236.258 197.447 236.4 198.153 236.548 198.871C236.844 200.301 237.141 201.789 237.461 203.266C238.053 206.26 238.717 209.377 239.381 212.605L239.333 212.57H246.155C246.243 212.562 246.333 212.562 246.421 212.57C246.603 212.612 246.764 212.718 246.872 212.868C246.978 213.019 247.021 213.205 246.99 213.387C246.974 213.497 246.931 213.602 246.866 213.693C246.802 213.784 246.716 213.859 246.617 213.912C246.518 213.964 246.409 213.994 246.297 214H211.924C210.739 208.128 209.731 203.354 209.056 200.044C208.718 198.386 208.463 197.126 208.273 196.227C208.184 195.789 208.119 195.456 208.072 195.229C208.024 195.001 208.007 194.89 208.007 194.89C208.007 194.89 208.036 195.007 208.084 195.229C208.131 195.45 208.202 195.812 208.297 196.221C208.475 197.097 208.747 198.381 209.091 200.033L211.995 213.988L211.96 213.959H228.061H246.273C246.371 213.955 246.466 213.93 246.552 213.883C246.638 213.836 246.713 213.77 246.77 213.69C246.826 213.61 246.863 213.519 246.878 213.422C246.905 213.265 246.868 213.104 246.777 212.973C246.683 212.842 246.544 212.751 246.386 212.716C246.303 212.707 246.22 212.707 246.137 212.716H239.31V212.681C238.646 209.471 238.006 206.354 237.39 203.342C237.081 201.848 236.797 200.377 236.483 198.947L236.044 196.822L235.831 195.777L235.724 195.258L235.671 195.001C235.66 194.919 235.638 194.838 235.606 194.762C235.539 194.609 235.419 194.485 235.268 194.412C235.193 194.376 235.113 194.353 235.031 194.342H234.776H233.739H231.706L227.836 194.301L220.926 194.219L211.017 194.096H209.476H208.884C208.795 194.087 208.706 194.087 208.617 194.096C208.54 194.112 208.466 194.14 208.398 194.178C208.298 194.236 208.213 194.315 208.15 194.411C208.086 194.506 208.045 194.614 208.03 194.727C208.019 194.779 208.011 194.831 208.007 194.884V194.884Z" fill="#1A2E35"/>
<path d="M229 184C228.999 184.266 228.892 184.52 228.705 184.707C228.517 184.895 228.262 185 227.997 185C227.733 184.999 227.48 184.893 227.294 184.706C227.107 184.518 227.001 184.265 227 184C227 183.735 227.105 183.48 227.292 183.293C227.479 183.105 227.733 183 227.997 183C228.129 182.999 228.259 183.025 228.381 183.075C228.502 183.124 228.613 183.198 228.706 183.291C228.799 183.384 228.873 183.494 228.924 183.616C228.974 183.738 229 183.868 229 184V184Z" fill="white"/>
<path d="M208 195H209.759H214.607L230.613 195.112H232.929H233.515C233.61 195.1 233.707 195.1 233.802 195.112C233.901 195.13 233.994 195.168 234.078 195.223C234.248 195.331 234.372 195.499 234.424 195.694C234.465 195.882 234.494 196.058 234.535 196.24C234.822 197.686 235.121 199.086 235.362 200.42C235.884 203.083 236.358 205.482 236.757 207.475C237.156 209.467 237.466 211.113 237.689 212.248C237.795 212.806 237.883 213.242 237.936 213.541L238 213.882V214V213.882C238 213.806 237.959 213.694 237.93 213.547C237.871 213.248 237.777 212.812 237.666 212.254L236.704 207.486L235.286 200.432C235.022 199.097 234.746 197.698 234.453 196.252L234.347 195.711C234.3 195.54 234.191 195.391 234.043 195.294C233.967 195.246 233.884 195.212 233.796 195.194C233.707 195.185 233.616 195.185 233.527 195.194H232.94H230.625L214.619 195.053L209.771 195H208.451H208.111H208Z" fill="#1A2E35"/>
<path d="M272.107 107.657L275.23 106.58C276.909 107.555 278.825 108.045 280.767 107.997C283.549 107.926 286.19 106.754 288.109 104.738C290.027 102.722 291.066 100.027 290.997 97.2452C290.964 95.8665 290.66 94.5078 290.101 93.2467C289.543 91.9856 288.741 90.8469 287.742 89.8957C286.743 88.9445 285.566 88.1995 284.279 87.7032C282.991 87.2069 281.619 86.969 280.239 87.0032C277.455 87.0738 274.812 88.2466 272.893 90.2639C270.973 92.2811 269.934 94.9777 270.003 97.7606C270.057 100.082 270.882 102.319 272.347 104.12V104.12L272.107 107.657Z" fill="white"/>
<path d="M272.142 107.623C272.142 107.623 272.142 107.541 272.142 107.384C272.142 107.227 272.177 107 272.2 106.709C272.247 106.127 272.322 105.249 272.41 104.12L272.346 104.155C272.349 104.159 272.354 104.162 272.359 104.164C272.364 104.166 272.369 104.167 272.375 104.167C272.38 104.167 272.386 104.166 272.391 104.164C272.396 104.162 272.4 104.159 272.404 104.155C272.41 104.147 272.413 104.138 272.413 104.128C272.413 104.119 272.41 104.11 272.404 104.102C271.314 102.754 270.579 101.153 270.268 99.4473C270.065 98.3547 270.043 97.2361 270.204 96.1365C270.371 94.8938 270.765 93.6924 271.368 92.5929C272.029 91.3806 272.928 90.314 274.01 89.4567C275.175 88.5269 276.527 87.8599 277.973 87.5015C279.546 87.1169 281.188 87.1066 282.765 87.4714C284.343 87.8362 285.813 88.5661 287.058 89.6021C288.343 90.676 289.343 92.0513 289.968 93.6053C290.573 95.0788 290.833 96.6708 290.73 98.2603C290.618 99.7625 290.179 101.222 289.444 102.537C288.766 103.755 287.85 104.823 286.749 105.679C284.854 107.151 282.508 107.923 280.109 107.867C278.385 107.82 276.699 107.346 275.203 106.488V106.488L272.916 107.297L272.334 107.512L272.13 107.593L272.322 107.53L272.904 107.337L275.232 106.564C276.733 107.447 278.432 107.939 280.173 107.995C282.603 108.071 284.983 107.299 286.907 105.813C288.03 104.949 288.966 103.866 289.659 102.63C290.413 101.294 290.863 99.8078 290.975 98.2777C291.087 96.6514 290.824 95.0209 290.206 93.5123C289.56 91.9291 288.532 90.53 287.215 89.4392C285.949 88.3838 284.452 87.6408 282.846 87.2698C281.239 86.8989 279.568 86.9105 277.967 87.3038C276.497 87.6723 275.124 88.353 273.94 89.2996C272.844 90.175 271.933 91.2612 271.263 92.494C270.658 93.6133 270.264 94.8341 270.099 96.0957C269.944 97.2118 269.971 98.3459 270.181 99.4531C270.515 101.164 271.271 102.764 272.381 104.108L272.433 104.05C272.43 104.046 272.426 104.043 272.421 104.041C272.417 104.039 272.412 104.038 272.407 104.038C272.402 104.038 272.397 104.039 272.392 104.041C272.388 104.043 272.384 104.046 272.381 104.05V104.05C272.311 105.214 272.258 106.075 272.218 106.674C272.218 106.959 272.218 107.18 272.177 107.337C272.136 107.495 272.142 107.623 272.142 107.623Z" fill="#1A2E35"/>
<path d="M283.089 97.9244H284.631V99.1741H282.94L282.708 101H281.369L281.607 99.1741H279.869L279.637 101H278.31L278.548 99.1741H277V97.9244H278.679L278.929 96.0756H277.375V94.8259H279.077L279.315 93H280.637L280.405 94.8259H282.137L282.375 93H283.696L283.464 94.8259H285V96.0756H283.298L283.089 97.9244ZM281.756 97.9244L282.006 96.0756H280.268L280.018 97.9244H281.756Z" fill="#E56A20"/>
<path d="M97 128.038L95.8593 125.581C96.4446 123.916 96.5439 122.124 96.146 120.407C95.5768 117.951 94.037 115.816 91.8643 114.47C89.6915 113.125 87.0632 112.679 84.5558 113.231C82.0498 113.789 79.8719 115.299 78.4996 117.429C77.1273 119.559 76.6728 122.135 77.2357 124.594C77.8063 127.05 79.3465 129.184 81.5188 130.529C83.6911 131.874 86.3186 132.32 88.8259 131.77C90.9251 131.309 92.8076 130.174 94.1757 128.547V128.547L97 128.038Z" fill="white"/>
<path d="M96.9663 127.996L96.824 128.025L96.2838 128.131L94.1778 128.541H94.19C93.1804 129.745 91.884 130.687 90.415 131.285C89.953 131.473 89.476 131.624 88.9887 131.736C88.7399 131.802 88.4789 131.831 88.2118 131.885C88.0783 131.885 87.9509 131.932 87.8113 131.944L87.3986 131.974C86.2237 132.06 85.0427 131.933 83.9149 131.6C82.6667 131.237 81.5064 130.631 80.504 129.818C79.4221 128.933 78.5466 127.832 77.9367 126.587C77.2909 125.261 76.9708 123.805 77.0021 122.335C77.0309 120.793 77.4478 119.282 78.2159 117.935L78.5194 117.418L78.8593 116.937L79.0352 116.7L79.2234 116.474L79.6118 116.035C79.7453 115.892 79.8971 115.761 80.0367 115.625C80.1715 115.487 80.3154 115.358 80.4676 115.239C80.7649 114.992 81.0792 114.766 81.4083 114.562C82.6743 113.748 84.1163 113.234 85.6203 113.059C87.0323 112.904 88.4618 113.054 89.808 113.499C91.0509 113.908 92.1966 114.558 93.1764 115.411C94.0644 116.179 94.7991 117.101 95.3431 118.131C95.5847 118.599 95.7876 119.086 95.95 119.586C96.0977 120.053 96.2132 120.529 96.296 121.011C96.5487 122.545 96.4069 124.117 95.8833 125.584L96.7087 127.413L96.9211 127.882C96.9412 127.933 96.9573 127.97 96.9686 127.995C96.9811 128.023 96.9879 128.036 96.9879 128.036C96.9879 128.036 96.9801 128.023 96.9663 127.996Z" fill="#1A2E35"/>
<path d="M90.9626 121.92C90.9022 121.476 90.6881 121.059 90.3491 120.725C90.032 120.39 89.6028 120.15 89.1223 120.041C88.8634 119.99 88.5955 119.987 88.3349 120.03C88.0743 120.074 87.8267 120.163 87.6071 120.294C87.3481 120.451 87.1373 120.662 86.9937 120.908C86.8503 120.694 86.6557 120.51 86.4232 120.369C86.2024 120.239 85.9543 120.148 85.6932 120.101C85.4321 120.055 85.1632 120.055 84.9019 120.1C84.4241 120.209 83.9958 120.444 83.675 120.773C83.3248 121.102 83.0979 121.517 83.0248 121.963C82.9412 122.532 83.0703 123.11 83.3928 123.61C83.7664 124.117 84.2735 124.538 84.8712 124.837C85.8343 125.375 87.1102 126 87.1102 126C87.1102 126 88.1899 125.3 89.1652 124.789C89.7653 124.496 90.2765 124.08 90.6558 123.578C90.957 123.068 91.0645 122.487 90.9626 121.92Z" fill="#F94553"/>
<path d="M60 83.7215L58.4117 80.8751C59.0052 79.0373 59.1012 77.0618 58.6889 75.1699C58.3992 73.8252 57.8606 72.5539 57.1039 71.4286C56.3472 70.3033 55.3873 69.346 54.2792 68.6117C53.171 67.8773 51.9362 67.3803 50.6454 67.1489C49.3547 66.9174 48.0333 66.9561 46.7567 67.2629C45.4803 67.5688 44.2735 68.1365 43.2053 68.9336C42.1372 69.7307 41.2285 70.7415 40.5313 71.9084C39.8341 73.0752 39.362 74.3753 39.1419 75.7343C38.9218 77.0933 38.9581 78.4847 39.2486 79.829C39.5376 81.174 40.0758 82.4459 40.8323 83.5716C41.5888 84.6973 42.5487 85.6547 43.6571 86.3892C44.7655 87.1237 46.0005 87.6206 47.2916 87.8517C48.5826 88.0828 49.9042 88.0435 51.1808 87.7359C53.3328 87.2221 55.2601 85.9654 56.656 84.1655L60 83.7215Z" fill="white"/>
<path d="M59.9712 83.726H59.7466L59.1074 83.7985L56.6485 84.1067L56.6888 84.1672C56.6888 84.1672 56.6888 84.1188 56.6888 84.1127C56.6825 84.1068 56.6743 84.1036 56.6658 84.1036C56.6573 84.1036 56.6491 84.1068 56.6427 84.1127C55.5917 85.4477 54.2398 86.4863 52.7096 87.1344C51.7272 87.5497 50.6863 87.7927 49.6287 87.8536C48.4362 87.9358 47.2395 87.7863 46.0987 87.4125C44.8434 87.0036 43.6786 86.3359 42.6724 85.4484C41.5882 84.4863 40.7108 83.2936 40.0983 81.9493C39.4423 80.4839 39.123 78.8774 39.166 77.2589C39.209 75.6405 39.6131 74.0552 40.3459 72.6304C41.1024 71.1523 42.1942 69.8926 43.5246 68.9622C44.7934 68.0731 46.2393 67.5004 47.7515 67.2882C49.1759 67.0973 50.6228 67.2376 51.9898 67.6991C53.2592 68.1212 54.4343 68.8078 55.445 69.7176C57.1737 71.2736 58.3373 73.4084 58.7389 75.761C59.0202 77.4601 58.8976 79.2058 58.3818 80.8433C58.3818 80.8433 58.3818 80.8434 58.3818 80.8736L59.5739 82.9524L59.8906 83.4963L60 83.6837L59.9079 83.5023L59.6142 82.9645L58.4625 80.8312V80.8675C59.0006 79.2209 59.1372 77.4591 58.8598 75.7428C58.4733 73.346 57.3048 71.1647 55.5544 69.5726C54.5331 68.646 53.3443 67.945 52.0589 67.5117C50.671 67.0359 49.1998 66.8894 47.7515 67.0827C46.211 67.2964 44.7375 67.8773 43.444 68.7809C42.0858 69.7255 40.9719 71.0087 40.2019 72.5156C39.4561 73.9666 39.0456 75.5814 39.0036 77.2294C38.9616 78.8775 39.2892 80.5128 39.9601 82.0036C40.5834 83.3714 41.4788 84.5831 42.586 85.5571C43.6091 86.4574 44.7937 87.1335 46.0699 87.5454C47.2306 87.9183 48.4467 88.0638 49.6576 87.9745C50.7281 87.9093 51.7808 87.6581 52.773 87.2312C54.3142 86.5658 55.6723 85.5062 56.7234 84.149L56.6543 84.1067C56.6482 84.1143 56.6448 84.124 56.6448 84.134C56.6448 84.1439 56.6482 84.1535 56.6543 84.1611L59.1362 83.7985L59.7581 83.7079L59.9712 83.726Z" fill="#1A2E35"/>
<path d="M52 77.0001C52.0016 77.2648 52.1075 77.5182 52.2946 77.7054C52.4818 77.8926 52.7352 77.9984 53 78C53.2652 78 53.5196 77.8947 53.7071 77.7072C53.8946 77.5197 54 77.2653 54 77.0001C54.0008 76.8685 53.9755 76.7382 53.9255 76.6165C53.8755 76.4948 53.8019 76.3842 53.7089 76.2912C53.6159 76.1982 53.5053 76.1246 53.3836 76.0746C53.2619 76.0246 53.1315 75.9992 53 76C52.7348 76 52.4804 76.1054 52.2929 76.293C52.1053 76.4805 52 76.7349 52 77.0001V77.0001Z" fill="#1A2E35"/>
<path d="M48 77.0001C48.0016 77.2648 48.1075 77.5182 48.2946 77.7054C48.4818 77.8926 48.7353 77.9984 49 78C49.2652 78 49.5196 77.8947 49.7071 77.7072C49.8946 77.5197 50 77.2653 50 77.0001C50.0008 76.8685 49.9754 76.7382 49.9255 76.6165C49.8755 76.4948 49.8019 76.3842 49.7089 76.2912C49.6159 76.1982 49.5053 76.1246 49.3836 76.0746C49.2619 76.0246 49.1315 75.9992 49 76C48.7348 76 48.4804 76.1054 48.2929 76.293C48.1054 76.4805 48 76.7349 48 77.0001Z" fill="#1A2E35"/>
<path d="M44.1319 76.5005C44.0008 76.7308 43.9657 77.0035 44.0343 77.2595C44.1029 77.5155 44.2696 77.7341 44.4983 77.8681C44.7286 77.9992 45.0013 78.0343 45.2573 77.9657C45.5133 77.8971 45.7319 77.7305 45.8659 77.5018C45.9986 77.2719 46.0346 76.9986 45.9659 76.7421C45.8972 76.4856 45.7294 76.2669 45.4995 76.1341C45.2696 76.0014 44.9964 75.9654 44.7399 76.0341C44.4834 76.1028 44.2647 76.2706 44.1319 76.5005V76.5005Z" fill="#1A2E35"/>
<path d="M235.606 163L248.211 167.594L252.803 164.049L256 167.235L247.622 172L235 165.821L235.606 163Z" fill="#8E4132"/>
<path d="M258 157C257.608 157.597 257.172 158.164 256.696 158.697C255.989 159.503 251 164.558 251 164.558L252.845 167L256.954 165.779L258 157Z" fill="#E1E1E1"/>
<path d="M252.845 167L251 164.568C251.049 164.52 255.995 159.529 256.696 158.732C257.17 158.2 257.606 157.635 258 157.043V157V157.049L256.967 165.815L252.845 167ZM251 164.568L252.845 166.97L256.942 165.784L257.969 157.079C257.578 157.657 257.148 158.21 256.684 158.732C256.001 159.523 251.209 164.362 251.006 164.574L251 164.568Z" fill="#1A2E35"/>
<path d="M262.433 134.752C263.268 133.574 265.655 133.474 266.296 134.104C266.693 133.859 267.169 133.776 267.625 133.872C268.082 133.968 268.483 134.237 268.748 134.622L271.329 134.881C271.773 134.892 272.208 135.013 272.593 135.234C272.787 135.352 272.93 135.538 272.994 135.756C273.058 135.974 273.039 136.207 272.94 136.412C273.159 136.462 273.362 136.566 273.532 136.713C273.701 136.86 273.832 137.047 273.914 137.256C273.995 137.466 274.024 137.692 273.997 137.915C273.971 138.139 273.891 138.352 273.763 138.537C273.859 138.626 273.935 138.734 273.987 138.854C274.039 138.974 274.066 139.104 274.066 139.235C274.066 139.366 274.039 139.495 273.987 139.615C273.935 139.735 273.859 139.843 273.763 139.932C274.554 140.691 275.21 141.579 275.703 142.558C275.948 142.949 276.046 143.414 275.98 143.871C275.959 143.983 275.915 144.089 275.849 144.181C275.783 144.274 275.698 144.351 275.6 144.407C275.501 144.463 275.391 144.497 275.278 144.506C275.165 144.515 275.051 144.499 274.945 144.46C275.084 144.618 275.176 144.812 275.211 145.02C275.245 145.229 275.22 145.442 275.139 145.637C275.562 145.602 275.768 146.226 275.509 146.591C275.357 146.746 275.173 146.868 274.971 146.948C274.768 147.028 274.551 147.065 274.333 147.056C273.903 147.046 273.48 147.17 273.122 147.409C273.131 147.462 273.151 147.512 273.18 147.557C273.209 147.601 273.248 147.639 273.293 147.668C273.686 147.899 273.974 148.273 274.098 148.712C274.222 149.151 274.171 149.621 273.957 150.023C273.91 150.1 273.875 150.17 273.839 150.235C273.529 150.644 273.141 150.988 272.699 151.248C271.793 151.836 271.211 151.836 270.153 152.107C270.523 152.767 268.977 154.503 266.784 153.22C263.327 154.655 259.681 155.581 255.959 155.969C255.371 156.034 254.654 156.04 254.33 155.539C254.093 155.614 253.84 155.627 253.596 155.576C253.353 155.526 253.126 155.414 252.937 155.251C252.561 154.914 252.245 154.516 252.002 154.074C251.476 153.982 250.992 153.731 250.614 153.354C250.236 152.977 249.984 152.492 249.891 151.966C249.516 151.733 249.193 151.424 248.943 151.059C248.693 150.694 248.521 150.281 248.439 149.847C248.188 149.786 247.953 149.674 247.747 149.519C247.542 149.363 247.37 149.167 247.243 148.942C247.117 148.718 247.037 148.469 247.01 148.213C246.983 147.956 247.009 147.697 247.087 147.45C247.161 146.206 247.441 144.982 247.916 143.83C247.222 143.759 246.863 142.876 247.069 142.211C247.342 141.566 247.8 141.017 248.386 140.633C247.892 140.821 247.381 140.239 247.445 139.715C247.505 139.458 247.614 139.215 247.768 139.001C247.921 138.787 248.115 138.605 248.339 138.466C248.952 137.996 249.619 137.6 250.326 137.289C250.467 136.371 251.502 135.229 252.273 134.74C255.453 132.768 257.758 132.097 262.397 134.74" fill="#1A2E35"/>
<path d="M253 142.258C253 139.88 254.469 136.907 256.968 137.002L264.842 138.411C265.208 138.426 265.554 138.571 265.813 138.816C266.071 139.062 266.222 139.391 266.236 139.737L266.996 155.481C267.042 156.476 266.724 157.456 266.097 158.255C265.469 159.055 264.569 159.624 263.548 159.868V159.868C262.914 160.02 262.253 160.041 261.61 159.929C260.967 159.818 260.356 159.576 259.82 159.222C259.284 158.867 258.835 158.407 258.503 157.873C258.172 157.34 257.965 156.745 257.897 156.129C257.778 155.053 257.684 154.244 257.684 154.25C257.684 154.256 254.469 153.935 253.559 150.041C253.082 148.102 253 144.892 253 142.258Z" fill="#D97560"/>
<path d="M255 145.506C255.008 145.642 255.065 145.77 255.161 145.862C255.256 145.954 255.382 146.003 255.512 146C255.576 146.001 255.64 145.99 255.699 145.965C255.759 145.94 255.813 145.903 255.858 145.856C255.904 145.809 255.94 145.752 255.964 145.69C255.989 145.628 256.001 145.561 256 145.494C255.994 145.358 255.937 145.229 255.841 145.137C255.745 145.044 255.618 144.995 255.488 145C255.424 144.999 255.36 145.011 255.301 145.035C255.241 145.06 255.187 145.097 255.142 145.144C255.096 145.192 255.06 145.248 255.036 145.31C255.011 145.372 254.999 145.439 255 145.506V145.506Z" fill="#1A2E35"/>
<path d="M254.011 143.987C254.076 144.086 254.436 143.584 254.98 143.526C255.523 143.467 255.925 143.879 255.984 143.771C256.043 143.663 255.936 143.525 255.759 143.339C255.517 143.091 255.234 142.974 254.95 143.005C254.669 143.033 254.4 143.209 254.182 143.506C254.023 143.732 253.976 143.938 254.011 143.987Z" fill="#1A2E35"/>
<path d="M260 145.503C260.009 145.638 260.067 145.765 260.162 145.857C260.257 145.949 260.382 146 260.512 146C260.576 146.001 260.639 145.988 260.698 145.963C260.757 145.939 260.811 145.902 260.857 145.855C260.902 145.808 260.938 145.752 260.963 145.691C260.987 145.629 261 145.564 261 145.497C260.994 145.361 260.937 145.233 260.841 145.14C260.746 145.047 260.619 144.997 260.488 145C260.424 144.999 260.361 145.012 260.302 145.037C260.243 145.062 260.189 145.098 260.143 145.145C260.098 145.192 260.062 145.248 260.037 145.309C260.013 145.371 260 145.437 260 145.503V145.503Z" fill="#1A2E35"/>
<path d="M260.011 143.987C260.076 144.086 260.442 143.584 260.98 143.526C261.518 143.467 261.932 143.879 261.985 143.771C262.038 143.663 261.944 143.526 261.761 143.339C261.518 143.091 261.235 142.974 260.951 143.005C260.669 143.035 260.401 143.21 260.182 143.506C260.028 143.732 259.975 143.938 260.011 143.987Z" fill="#1A2E35"/>
<path d="M258 147.948C257.584 147.868 257.156 147.829 256.727 147.831C256.532 147.831 256.337 147.831 256.303 147.701C256.269 147.546 256.302 147.387 256.396 147.248L256.888 146.074C257.354 145.073 257.712 144.045 257.958 143C257.392 143.969 256.926 144.971 256.566 145.996C256.405 146.411 256.244 146.807 256.099 147.183C255.988 147.37 255.969 147.582 256.048 147.779C256.08 147.832 256.128 147.877 256.187 147.913C256.245 147.949 256.314 147.974 256.388 147.987C256.501 147.996 256.614 147.996 256.727 147.987C257.152 148.013 257.579 148 258 147.948V147.948Z" fill="#1A2E35"/>
<path d="M258 154.3C259.789 154.235 261.519 153.785 263 153C263 153 261.928 155.091 258.109 154.997L258 154.3Z" fill="#8E4132"/>
<path d="M259.006 141.72C259.077 141.946 259.718 141.783 260.487 141.847C261.256 141.91 261.911 142.118 261.982 141.91C262.054 141.702 261.904 141.602 261.64 141.403C261.299 141.158 260.915 141.021 260.522 141.005C260.129 140.977 259.736 141.067 259.376 141.268C259.105 141.43 258.97 141.62 259.006 141.72Z" fill="#1A2E35"/>
<path d="M252.011 144.215C251.954 143.579 252.121 142.943 252.484 142.418C252.716 142.168 252.936 141.906 253.142 141.633C253.525 141.004 253.376 140.202 253.489 139.471C253.567 139.002 253.755 138.557 254.038 138.175C254.321 137.793 254.691 137.483 255.118 137.273C255.83 136.931 256.674 136.877 257.326 136.434C257.811 136.105 258.152 135.596 258.655 135.296C259.631 134.697 260.882 135.116 261.911 135.59C262.187 136.344 261.768 137.063 261.367 137.752C261.164 138.098 260.888 138.396 260.558 138.625C260.228 138.853 259.853 139.007 259.457 139.076C258.859 139.178 258.11 139.118 257.727 139.603C257.344 140.088 257.584 140.909 257.266 141.478C256.812 142.292 255.561 142.137 254.812 142.676C254.214 143.101 254.052 143.874 253.807 144.551C253.561 145.227 253.1 145.958 252.382 146C252.191 145.421 252.066 144.822 252.011 144.215V144.215Z" fill="#1A2E35"/>
<path d="M260 137.105C261.751 136.879 263.526 137.018 265.227 137.515C265.747 137.614 266.221 137.89 266.581 138.303C266.838 138.713 266.981 139.193 266.993 139.687C267.043 141.371 266.819 143.051 266.331 144.653L264.652 146C263.241 145.808 263.624 143.194 263.56 141.909C263.056 141.729 262.61 141.401 262.273 140.961C261.936 140.522 261.722 139.99 261.655 139.426C261.233 139.198 260.865 138.871 260.578 138.469C260.292 138.067 260.094 137.6 260 137.105Z" fill="#1A2E35"/>
<path d="M265.001 145.74C264.966 145.053 266.15 144.835 267.048 145.125C267.542 145.28 267.946 145.638 267.995 146.369C268.134 148.305 265.3 148.005 265.286 147.952C265.272 147.898 265.049 146.548 265.001 145.74Z" fill="#D97560"/>
<path d="M266.003 146.818C266.003 146.818 266.042 146.818 266.11 146.874C266.204 146.914 266.309 146.914 266.403 146.874C266.545 146.775 266.659 146.638 266.731 146.48C266.803 146.321 266.832 146.146 266.814 145.972C266.812 145.774 266.764 145.58 266.673 145.404C266.651 145.333 266.611 145.269 266.556 145.218C266.502 145.167 266.436 145.132 266.364 145.114C266.318 145.104 266.27 145.111 266.229 145.133C266.188 145.154 266.156 145.19 266.138 145.234C266.11 145.296 266.138 145.342 266.138 145.347C266.138 145.353 266.088 145.313 266.099 145.217C266.111 145.16 266.141 145.108 266.183 145.069C266.243 145.019 266.32 144.995 266.397 145.001C266.491 145.016 266.579 145.055 266.654 145.113C266.729 145.172 266.788 145.248 266.825 145.336C266.933 145.527 266.991 145.741 266.994 145.96C267.016 146.164 266.977 146.369 266.882 146.549C266.788 146.73 266.643 146.879 266.465 146.977C266.405 146.998 266.342 147.005 266.279 146.997C266.217 146.989 266.157 146.966 266.104 146.931C266.009 146.874 265.992 146.823 266.003 146.818Z" fill="#8E4132"/>
<path d="M267.095 148.365C267.229 148.357 267.362 148.335 267.491 148.3C267.639 148.264 267.781 148.208 267.913 148.134H267.876C267.928 148.313 268.024 148.477 268.155 148.614C268.287 148.751 268.45 148.857 268.632 148.922C268.849 149.001 269.085 149.021 269.312 148.978C269.54 148.935 269.751 148.831 269.92 148.679H269.877C269.967 148.776 270.09 148.837 270.224 148.851C270.361 148.866 270.499 148.842 270.621 148.78C270.75 148.719 270.854 148.619 270.918 148.496C270.979 148.369 271.007 148.231 270.999 148.092C270.98 147.807 270.855 147.538 270.645 147.334C270.428 147.126 270.187 146.943 269.927 146.788V146.847C270.021 146.775 270.098 146.685 270.155 146.583C270.211 146.482 270.245 146.37 270.255 146.255C270.279 146.016 270.227 145.777 270.106 145.567C269.981 145.353 269.813 145.166 269.611 145.016C269.413 144.866 269.206 144.727 268.991 144.601V144.654C269.071 144.554 269.128 144.439 269.157 144.316C269.186 144.193 269.186 144.066 269.158 143.943C269.114 143.69 268.991 143.457 268.805 143.273C268.433 142.953 267.99 142.718 267.51 142.585V142.627C267.548 142.367 267.517 142.102 267.422 141.856C267.327 141.61 267.17 141.39 266.965 141.216C266.767 141.055 266.534 140.94 266.282 140.879C266.031 140.819 265.768 140.814 265.515 140.866L265.558 140.901C265.575 140.693 265.542 140.484 265.462 140.29C265.381 140.095 265.255 139.922 265.093 139.781C264.948 139.647 264.775 139.543 264.585 139.476C264.395 139.41 264.192 139.383 263.99 139.396H264.028C264 139.195 263.924 139.002 263.807 138.833C263.69 138.663 263.535 138.521 263.352 138.418C263.195 138.323 263.02 138.259 262.837 138.23C262.654 138.202 262.467 138.209 262.286 138.252H262.317C262.281 138.036 262.19 137.832 262.051 137.659C261.933 137.506 261.788 137.374 261.623 137.268C261.371 137.084 261.06 136.99 260.744 137.001H260.644H260.558C260.505 137.01 260.454 137.022 260.403 137.036C260.325 137.062 260.248 137.092 260.173 137.125L260.043 137.196H260H260.05L260.18 137.131C260.253 137.097 260.33 137.069 260.409 137.048C260.461 137.045 260.512 137.045 260.564 137.048H260.651H260.744C261.054 137.047 261.356 137.143 261.605 137.321C261.763 137.428 261.902 137.56 262.014 137.712C262.145 137.877 262.232 138.071 262.268 138.275V138.305C262.441 138.264 262.621 138.258 262.797 138.286C262.973 138.315 263.141 138.378 263.29 138.471C263.46 138.573 263.604 138.71 263.711 138.872C263.818 139.034 263.886 139.217 263.91 139.408H263.941C264.133 139.395 264.326 139.421 264.507 139.486C264.687 139.55 264.852 139.651 264.988 139.781C265.14 139.916 265.259 140.082 265.334 140.267C265.409 140.452 265.439 140.65 265.422 140.848V140.896H265.471C265.714 140.846 265.966 140.851 266.207 140.91C266.447 140.968 266.671 141.079 266.859 141.233C267.054 141.4 267.203 141.61 267.294 141.845C267.385 142.079 267.414 142.331 267.38 142.579V142.609C267.85 142.735 268.285 142.962 268.65 143.273C268.827 143.446 268.944 143.668 268.985 143.907C269.01 144.021 269.01 144.138 268.984 144.251C268.958 144.365 268.908 144.472 268.836 144.565V144.595H268.867C269.317 144.807 269.701 145.128 269.982 145.525C270.094 145.725 270.144 145.952 270.125 146.178C270.117 146.285 270.085 146.39 270.033 146.486C269.981 146.582 269.909 146.667 269.821 146.735H269.778H269.821C270.081 146.881 270.321 147.058 270.534 147.262C270.731 147.459 270.851 147.714 270.875 147.986C270.889 148.111 270.864 148.237 270.803 148.349C270.743 148.461 270.649 148.553 270.534 148.614C270.429 148.674 270.306 148.699 270.184 148.684C270.063 148.668 269.95 148.615 269.865 148.531V148.531C269.702 148.678 269.5 148.778 269.281 148.821C269.062 148.864 268.835 148.848 268.625 148.774C268.452 148.709 268.296 148.606 268.169 148.475C268.042 148.343 267.948 148.186 267.894 148.015V148.015C267.768 148.091 267.63 148.148 267.485 148.181C267.36 148.218 267.231 148.241 267.101 148.253C266.893 148.276 266.683 148.26 266.481 148.205C266.357 148.172 266.247 148.099 266.172 147.998C266.122 147.932 266.116 147.885 266.11 147.891C266.108 147.901 266.108 147.911 266.11 147.92C266.116 147.951 266.131 147.98 266.153 148.003C266.224 148.111 266.335 148.189 266.463 148.223" fill="#375A64"/>
<path d="M274.854 145C274.881 144.95 274.904 144.899 274.923 144.845C274.981 144.691 275.006 144.527 274.999 144.362C274.991 144.096 274.897 143.84 274.732 143.635C274.622 143.499 274.484 143.388 274.329 143.31C274.174 143.232 274.005 143.188 273.833 143.182V143.182C273.871 142.769 273.753 142.357 273.502 142.032C273.368 141.847 273.195 141.694 272.997 141.585C272.785 141.484 272.563 141.404 272.336 141.346C272.221 141.313 272.112 141.263 272.011 141.197C271.911 141.126 271.828 141.032 271.767 140.923C271.64 140.709 271.582 140.44 271.425 140.208C271.256 139.979 271.025 139.806 270.761 139.712C270.496 139.617 270.211 139.605 269.94 139.678L269.986 139.713C269.994 139.427 269.939 139.142 269.827 138.879C269.714 138.616 269.547 138.382 269.337 138.194C269.115 137.999 268.852 137.86 268.569 137.787C268.286 137.715 267.991 137.711 267.706 137.776L267.747 137.812C267.742 137.475 267.641 137.147 267.457 136.868C267.272 136.59 267.012 136.373 266.709 136.245C266.433 136.136 266.134 136.105 265.842 136.155C265.551 136.204 265.277 136.331 265.049 136.525H265.084C264.831 136.321 264.538 136.177 264.226 136.101C263.947 136.031 263.66 135.997 263.373 136C262.908 135.995 262.446 136.078 262.009 136.245C261.729 136.346 261.467 136.493 261.232 136.68C261.168 136.726 261.11 136.78 261.058 136.841L261 136.9C261 136.9 261.081 136.823 261.238 136.698C261.477 136.517 261.741 136.374 262.021 136.274C262.455 136.118 262.913 136.041 263.373 136.048C263.656 136.047 263.939 136.083 264.214 136.155C264.517 136.232 264.801 136.372 265.049 136.566V136.566C265.27 136.384 265.533 136.264 265.813 136.218C266.093 136.172 266.38 136.202 266.645 136.304C266.936 136.428 267.185 136.637 267.361 136.905C267.538 137.173 267.633 137.489 267.637 137.812V137.854H267.677C267.952 137.791 268.236 137.795 268.509 137.864C268.782 137.933 269.035 138.067 269.25 138.253C269.459 138.424 269.63 138.64 269.749 138.886C269.868 139.133 269.933 139.403 269.94 139.678V139.725H269.986C270.247 139.662 270.521 139.679 270.773 139.774C271.025 139.869 271.243 140.039 271.402 140.262C271.547 140.476 271.611 140.744 271.744 140.971C271.807 141.088 271.897 141.188 272.005 141.263C272.109 141.331 272.223 141.384 272.342 141.418C272.569 141.474 272.79 141.552 273.003 141.65C273.191 141.756 273.357 141.9 273.49 142.074C273.731 142.39 273.847 142.788 273.815 143.188V143.188C273.981 143.194 274.144 143.235 274.294 143.309C274.444 143.383 274.577 143.488 274.685 143.617C274.848 143.815 274.944 144.062 274.958 144.321C274.967 144.484 274.946 144.648 274.894 144.803C274.877 144.946 274.848 145 274.854 145Z" fill="#375A64"/>
<path d="M252.823 148C252.835 147.967 252.841 147.933 252.841 147.897C252.841 147.862 252.835 147.827 252.823 147.795C252.789 147.72 252.738 147.655 252.677 147.608C252.592 147.543 252.496 147.501 252.395 147.484C252.273 147.467 252.154 147.427 252.043 147.365C251.916 147.28 251.817 147.149 251.761 146.992C251.695 146.815 251.659 146.625 251.653 146.432C251.653 146.227 251.653 146.003 251.626 145.773C251.538 145.277 251.399 144.795 251.214 144.336C251.135 144.076 251.1 143.802 251.111 143.527C251.115 143.383 251.147 143.242 251.203 143.113C251.259 142.985 251.338 142.871 251.436 142.781C251.664 142.614 251.91 142.483 252.168 142.389C252.303 142.331 252.428 142.244 252.536 142.134C252.646 142.018 252.728 141.873 252.775 141.711C252.852 141.382 252.898 141.044 252.91 140.703C252.927 140.534 252.963 140.369 253.019 140.212C253.081 140.061 253.181 139.936 253.306 139.851C253.497 139.771 253.695 139.716 253.897 139.689C254.001 139.666 254.102 139.624 254.195 139.565C254.285 139.5 254.36 139.41 254.412 139.303C254.495 139.092 254.551 138.868 254.58 138.638C254.614 138.425 254.688 138.224 254.796 138.047C254.901 137.878 255.034 137.736 255.188 137.629C255.341 137.522 255.513 137.453 255.691 137.425C256.028 137.373 256.371 137.468 256.65 137.692V137.692V137.655C256.744 137.334 256.897 137.04 257.098 136.792C257.299 136.544 257.544 136.348 257.816 136.218C258.043 136.114 258.286 136.061 258.531 136.062C258.74 136.054 258.948 136.094 259.144 136.18C259.419 136.294 259.66 136.497 259.837 136.765C259.886 136.835 259.93 136.91 259.967 136.989L260 137.045L259.967 136.983C259.934 136.902 259.894 136.825 259.848 136.753C259.674 136.47 259.431 136.254 259.149 136.131C258.95 136.043 258.739 135.998 258.526 136C258.275 135.998 258.026 136.053 257.794 136.162C257.514 136.29 257.261 136.487 257.053 136.738C256.845 136.989 256.687 137.289 256.591 137.617H256.634C256.346 137.378 255.989 137.276 255.637 137.331C255.449 137.36 255.269 137.434 255.107 137.547C254.946 137.661 254.807 137.812 254.699 137.991C254.584 138.177 254.504 138.389 254.466 138.613C254.438 138.828 254.384 139.038 254.303 139.235C254.254 139.33 254.186 139.411 254.105 139.471C254.025 139.532 253.933 139.57 253.837 139.583C253.629 139.609 253.424 139.667 253.23 139.757C253.09 139.845 252.977 139.983 252.91 140.149C252.851 140.314 252.813 140.488 252.796 140.666C252.781 140.999 252.738 141.331 252.666 141.655C252.623 141.807 252.547 141.944 252.444 142.053C252.339 142.152 252.222 142.233 252.097 142.295C251.835 142.388 251.585 142.523 251.354 142.694C251.244 142.787 251.156 142.911 251.1 143.054C251.043 143.191 251.01 143.339 251.002 143.49C250.99 143.776 251.029 144.061 251.116 144.33C251.299 144.784 251.439 145.259 251.533 145.748C251.533 145.978 251.533 146.196 251.533 146.407C251.541 146.605 251.581 146.799 251.653 146.98C251.712 147.142 251.817 147.278 251.951 147.365C252.066 147.425 252.188 147.465 252.314 147.484C252.412 147.5 252.505 147.538 252.59 147.596C252.651 147.637 252.7 147.697 252.731 147.77C252.786 147.831 252.818 147.913 252.823 148V148Z" fill="#375A64"/>
<path d="M248.012 145C248.012 145 248.012 145 248.012 144.952L248.058 144.815C248.105 144.683 248.169 144.504 248.245 144.272C248.32 144.039 248.42 143.74 248.554 143.418C248.694 143.043 248.934 142.716 249.247 142.474C249.422 142.349 249.632 142.259 249.83 142.134C249.939 142.073 250.039 141.997 250.127 141.907C250.222 141.815 250.292 141.7 250.331 141.573C250.418 141.316 250.389 141.029 250.453 140.766C250.48 140.633 250.545 140.51 250.64 140.414C250.746 140.323 250.866 140.251 250.995 140.199C251.134 140.144 251.267 140.074 251.391 139.99C251.521 139.9 251.621 139.771 251.677 139.62C251.751 139.309 251.784 138.99 251.776 138.671C251.783 138.513 251.821 138.359 251.887 138.217C251.96 138.079 252.083 137.976 252.23 137.93C252.528 137.829 252.871 137.93 253.204 137.811C253.372 137.762 253.521 137.659 253.629 137.518C253.726 137.38 253.808 137.232 253.874 137.076C253.944 136.927 254.008 136.772 254.089 136.634C254.162 136.497 254.268 136.382 254.398 136.3C254.674 136.172 254.983 136.14 255.278 136.211C255.572 136.276 255.876 136.276 256.169 136.211C256.439 136.111 256.687 135.961 256.904 135.769C257.101 135.591 257.316 135.435 257.545 135.303C257.974 135.1 258.452 135.032 258.92 135.106C259.308 135.165 259.678 135.312 260.004 135.536C260.242 135.703 260.456 135.904 260.639 136.133C260.75 136.287 260.847 136.451 260.93 136.623L261 136.754V136.796C261 136.796 261 136.796 261 136.748L260.936 136.617C260.858 136.439 260.763 136.271 260.65 136.115C260.475 135.867 260.26 135.652 260.015 135.476C259.689 135.247 259.317 135.096 258.926 135.034C258.447 134.952 257.956 135.019 257.515 135.225C257.282 135.359 257.061 135.514 256.857 135.691C256.648 135.878 256.407 136.024 256.146 136.121C255.86 136.184 255.564 136.184 255.278 136.121C255.126 136.097 254.972 136.085 254.818 136.085C254.656 136.087 254.497 136.133 254.357 136.217C254.215 136.303 254.099 136.427 254.019 136.575C253.938 136.718 253.874 136.873 253.804 137.023C253.74 137.173 253.66 137.315 253.565 137.447C253.469 137.577 253.334 137.671 253.18 137.715C252.866 137.805 252.528 137.715 252.201 137.835C252.037 137.887 251.899 138.003 251.817 138.157C251.75 138.31 251.711 138.474 251.7 138.641C251.708 138.954 251.677 139.267 251.607 139.572C251.556 139.709 251.467 139.828 251.351 139.913C251.228 139.989 251.099 140.055 250.966 140.11C250.831 140.167 250.705 140.246 250.593 140.343C250.488 140.446 250.416 140.579 250.383 140.725C250.325 141.005 250.348 141.286 250.273 141.531C250.184 141.763 250.014 141.953 249.795 142.062C249.591 142.188 249.381 142.277 249.212 142.408C248.895 142.658 248.653 142.993 248.513 143.376C248.379 143.704 248.291 143.973 248.216 144.236L248.041 144.785L248 144.928L248.012 145Z" fill="#375A64"/>
<path d="M249.627 142H249.578C249.534 142.001 249.491 142.015 249.456 142.04C249.386 142.088 249.331 142.153 249.296 142.228C249.262 142.302 249.249 142.384 249.26 142.465C249.27 142.578 249.299 142.689 249.346 142.793C249.405 142.915 249.443 143.045 249.456 143.179C249.459 143.332 249.417 143.483 249.334 143.615C249.254 143.762 249.15 143.91 249.071 144.08C249.024 144.168 249 144.265 249 144.363C249 144.461 249.024 144.558 249.071 144.646C249.168 144.828 249.34 144.975 249.431 145.162C249.477 145.261 249.501 145.369 249.501 145.477C249.501 145.585 249.477 145.692 249.431 145.791C249.364 146.012 249.248 146.222 249.181 146.46C249.147 146.584 249.134 146.712 249.144 146.839C249.164 146.968 249.212 147.091 249.285 147.202C249.444 147.417 249.624 147.619 249.823 147.803C250.025 147.986 250.145 148.233 250.159 148.494C250.127 148.766 250.057 149.032 249.951 149.287C249.91 149.426 249.895 149.57 249.909 149.712C249.93 149.855 249.986 149.991 250.074 150.109C250.253 150.32 250.458 150.51 250.685 150.676C250.895 150.842 251.065 151.047 251.187 151.276C251.283 151.51 251.395 151.737 251.523 151.956C251.592 152.062 251.686 152.151 251.798 152.217C251.912 152.278 252.036 152.318 252.165 152.336C252.288 152.365 252.404 152.382 252.514 152.416C252.623 152.454 252.725 152.505 252.82 152.569C252.992 152.696 253.144 152.844 253.272 153.011C253.407 153.169 253.529 153.322 253.664 153.464C253.904 153.716 254.226 153.889 254.581 153.957C254.847 154.014 255.123 154.014 255.388 153.957C255.554 153.919 255.713 153.858 255.859 153.775C255.91 153.748 255.957 153.716 256 153.679C255.815 153.798 255.608 153.883 255.388 153.929C255.127 153.982 254.855 153.982 254.593 153.929C254.25 153.853 253.94 153.681 253.707 153.436C253.578 153.3 253.456 153.147 253.327 152.988C253.197 152.815 253.04 152.66 252.863 152.529C252.766 152.46 252.659 152.404 252.544 152.364C252.426 152.332 252.305 152.306 252.184 152.285C252.064 152.264 251.948 152.226 251.841 152.172C251.738 152.108 251.65 152.025 251.584 151.928C251.457 151.711 251.347 151.485 251.254 151.254C251.134 151.016 250.958 150.805 250.74 150.636C250.514 150.47 250.308 150.279 250.129 150.07C250.047 149.96 249.994 149.833 249.976 149.701C249.966 149.568 249.98 149.433 250.019 149.304C250.125 149.044 250.195 148.771 250.227 148.494C250.23 148.354 250.194 148.215 250.123 148.092C250.053 147.972 249.969 147.859 249.872 147.757C249.676 147.585 249.497 147.395 249.34 147.191C249.27 147.088 249.226 146.971 249.211 146.851C249.197 146.733 249.207 146.614 249.242 146.499C249.309 146.273 249.419 146.057 249.493 145.836C249.584 145.62 249.584 145.379 249.493 145.162C249.383 144.958 249.211 144.816 249.12 144.641C249.072 144.559 249.048 144.467 249.048 144.374C249.048 144.281 249.072 144.19 249.12 144.108C249.193 143.944 249.297 143.796 249.376 143.649C249.46 143.509 249.502 143.35 249.499 143.19C249.479 143.054 249.44 142.92 249.383 142.793C249.332 142.691 249.299 142.582 249.285 142.47C249.276 142.394 249.288 142.317 249.319 142.246C249.35 142.175 249.399 142.112 249.462 142.062C249.509 142.026 249.567 142.004 249.627 142V142Z" fill="#375A64"/>
<path d="M274.899 145C274.963 144.996 275.026 144.983 275.087 144.962C275.259 144.899 275.419 144.802 275.558 144.676C275.779 144.467 275.929 144.183 275.982 143.871C276.014 143.662 276.003 143.449 275.949 143.245C275.895 143.042 275.8 142.855 275.67 142.697C275.513 142.521 275.34 142.363 275.152 142.227C274.946 142.09 274.774 141.9 274.652 141.675C274.546 141.421 274.532 141.134 274.611 140.869C274.675 140.584 274.787 140.305 274.84 139.994C274.898 139.666 274.896 139.329 274.833 139.003C274.771 138.676 274.649 138.366 274.475 138.09C274.282 137.794 274.033 137.545 273.744 137.361C273.454 137.178 273.132 137.063 272.798 137.024V137.081C272.891 136.905 272.944 136.707 272.951 136.504C272.952 136.301 272.921 136.099 272.857 135.907C272.788 135.713 272.688 135.533 272.563 135.374C272.437 135.216 272.288 135.081 272.121 134.975C271.627 134.677 271.075 134.506 270.509 134.473C269.977 134.429 269.443 134.465 268.92 134.581L268.961 134.613C268.919 134.286 268.794 133.979 268.601 133.723C268.408 133.467 268.155 133.272 267.867 133.16C267.604 133.056 267.321 133.024 267.043 133.065C266.779 133.126 266.526 133.228 266.29 133.369C266.177 133.429 266.059 133.473 265.937 133.503C265.818 133.528 265.696 133.528 265.578 133.503C265.352 133.446 265.132 133.361 264.925 133.249C264.727 133.144 264.517 133.067 264.301 133.02C264.106 132.993 263.908 132.993 263.712 133.02C263.37 133.065 263.044 133.202 262.765 133.42C262.554 133.592 262.378 133.808 262.247 134.055C262.161 134.199 262.092 134.355 262.041 134.518C262.022 134.573 262.008 134.631 262 134.689C262.014 134.633 262.031 134.578 262.053 134.524C262.105 134.363 262.176 134.209 262.265 134.067C262.402 133.839 262.577 133.641 262.783 133.484C263.058 133.27 263.381 133.139 263.718 133.103C263.913 133.071 264.112 133.071 264.307 133.103C264.511 133.152 264.709 133.229 264.895 133.331C265.106 133.449 265.329 133.539 265.56 133.598C265.685 133.62 265.812 133.62 265.937 133.598C266.063 133.57 266.186 133.525 266.302 133.464C266.531 133.325 266.779 133.225 267.037 133.166C267.309 133.116 267.589 133.142 267.849 133.243C268.127 133.349 268.371 133.535 268.557 133.781C268.743 134.028 268.862 134.324 268.903 134.638V134.677H268.944C269.458 134.559 269.986 134.525 270.509 134.575C271.064 134.603 271.606 134.768 272.092 135.057C272.249 135.165 272.391 135.295 272.516 135.444C272.635 135.594 272.729 135.766 272.792 135.952C272.856 136.134 272.886 136.328 272.881 136.523C272.875 136.711 272.828 136.896 272.745 137.062L272.716 137.113H272.769C273.093 137.15 273.407 137.261 273.688 137.44C273.969 137.618 274.211 137.859 274.399 138.147C274.742 138.686 274.874 139.35 274.764 139.994C274.711 140.292 274.599 140.577 274.534 140.863C274.454 141.144 274.472 141.447 274.587 141.713C274.716 141.945 274.893 142.14 275.105 142.284C275.289 142.418 275.461 142.571 275.617 142.741C275.744 142.894 275.837 143.075 275.891 143.271C275.945 143.468 275.958 143.675 275.929 143.877C275.88 144.181 275.737 144.459 275.523 144.664C275.391 144.797 275.234 144.898 275.064 144.962L274.899 145Z" fill="#1A2E35"/>
<path d="M249 140V139.835C249 139.72 249 139.561 249 139.357C249 139.154 249 138.896 249.03 138.599C249.06 138.267 249.13 137.939 249.24 137.621C249.375 137.239 249.595 136.888 249.887 136.589C250.062 136.425 250.265 136.287 250.487 136.182C250.722 136.078 250.965 135.988 251.213 135.913C251.476 135.828 251.72 135.699 251.932 135.534C252.141 135.35 252.324 135.144 252.478 134.919C252.64 134.693 252.79 134.463 252.976 134.243C253.158 134.026 253.382 133.84 253.635 133.694C254.155 133.421 254.731 133.249 255.326 133.188C255.88 133.118 256.44 133.085 256.999 133.089C257.948 133.089 258.89 133.234 259.787 133.518C260.392 133.713 260.958 133.995 261.466 134.353L261.7 134.523L261.862 134.66L261.964 134.743H262L261.97 134.71L261.874 134.622L261.718 134.479L261.484 134.303C260.978 133.937 260.411 133.648 259.805 133.446C258.905 133.157 257.959 133.007 257.005 133.001C256.442 132.993 255.878 133.024 255.32 133.095C254.713 133.155 254.127 133.331 253.599 133.611C253.336 133.753 253.104 133.94 252.916 134.161C252.73 134.38 252.58 134.617 252.418 134.836C252.268 135.057 252.089 135.26 251.884 135.44C251.681 135.603 251.444 135.728 251.189 135.809C250.937 135.902 250.685 135.973 250.457 136.083C250.234 136.194 250.032 136.337 249.857 136.506C249.559 136.813 249.334 137.175 249.198 137.566C249.091 137.888 249.025 138.22 249 138.555C249 138.852 249 139.105 249 139.313C249 139.522 249 139.681 249 139.791V139.918C249.005 139.945 249.005 139.973 249 140V140Z" fill="#1A2E35"/>
<path d="M259.983 148.973C259.965 148.76 259.921 148.561 259.855 148.397C259.789 148.233 259.704 148.109 259.608 148.04C259.511 147.981 259.407 147.988 259.311 148.059C259.215 148.131 259.131 148.265 259.072 148.442C259.019 148.616 258.994 148.823 259.001 149.03C259.008 149.238 259.046 149.435 259.11 149.592C259.171 149.754 259.253 149.874 259.346 149.937C259.468 150.021 259.599 150.021 259.721 149.937C259.82 149.881 259.907 149.75 259.965 149.567C260.004 149.38 260.011 149.169 259.983 148.973V148.973Z" fill="#8E4132"/>
<path d="M259.896 148.001C259.84 148.001 259.915 148.639 259.653 149.208C259.392 149.776 258.993 149.846 259 149.929C259.008 150.012 259.105 150.019 259.269 149.967C259.486 149.894 259.682 149.693 259.821 149.399C259.953 149.116 260.016 148.757 259.997 148.397C259.978 148.129 259.918 147.988 259.896 148.001Z" fill="#1A2E35"/>
<path d="M275.39 175.356V174.935L271.724 161.307C271.345 159.722 270.503 158.28 269.301 157.16C268.1 156.04 266.592 155.29 264.964 155.002C264.627 154.931 258.053 156.484 257.993 156.49L255.778 162.871C255.778 162.871 253.695 168.566 254.038 171.428C254.255 173.205 259.341 180.813 259.341 180.813L257.993 182.852C265.137 186.344 273.024 188.108 281 187.995C279.904 182.395 275.39 175.356 275.39 175.356Z" fill="#ECECEC"/>
<path d="M267 177C266.749 177.279 266.478 177.527 266.191 177.739C265.655 178.161 264.943 178.72 264.107 179.273C263.271 179.826 262.5 180.275 261.938 180.572C261.636 180.752 261.322 180.896 261 181C261.287 180.787 261.584 180.598 261.889 180.434C262.425 180.102 263.207 179.639 264.032 179.052C264.857 178.465 265.596 177.967 266.127 177.58C266.409 177.365 266.7 177.171 267 177V177Z" fill="#1A2E35"/>
<path d="M264 167.059C264 167.059 251.642 177.168 249.58 176.998C247.518 176.827 232 167.207 232 167.207L234.214 163.527L249.037 169.842L260.25 160L264 167.059Z" fill="#D97560"/>
<path d="M235.236 164.379C235.287 164.261 235.706 160.977 235.706 160.977C235.706 160.977 235.979 157.351 235.998 157.309C236.017 157.268 235.909 156.53 235.058 157.492C234.532 158.223 234.288 159.097 234.365 159.973L231.106 158.438C231.106 158.438 229.836 157.723 229.62 158.514C229.542 158.456 229.452 158.414 229.355 158.39C229.259 158.366 229.158 158.361 229.059 158.376C228.961 158.39 228.866 158.424 228.782 158.474C228.698 158.524 228.627 158.59 228.572 158.668C228.459 158.833 228.395 159.022 228.387 159.218C228.38 159.413 228.428 159.606 228.527 159.778C228.527 159.778 227.828 160.499 228.292 161.042C228.292 161.042 227.714 161.273 228.184 162.224L229.976 163.995C229.976 163.995 230.331 166.358 230.859 166.913C231.386 167.468 233.057 168 233.057 168L235.865 164.994L235.236 164.379Z" fill="#D97560"/>
<path d="M230 158C230.598 158.626 231.247 159.174 231.937 159.635C232.586 160.173 233.277 160.63 234 161C233.402 160.374 232.753 159.826 232.063 159.365C231.414 158.827 230.723 158.37 230 158V158Z" fill="#8E4132"/>
<path d="M229 159C229.583 159.66 230.226 160.226 230.915 160.685C231.568 161.225 232.268 161.666 233 162C232.379 161.407 231.721 160.88 231.033 160.424C230.386 159.879 229.707 159.403 229 159Z" fill="#8E4132"/>
<path d="M229 161C229.264 161.235 229.578 161.432 229.929 161.583C230.25 161.772 230.613 161.913 231 162C230.704 161.794 230.378 161.614 230.03 161.465C229.712 161.278 229.366 161.122 229 161V161Z" fill="#8E4132"/>
<path d="M232 163.938C232.176 164.021 232.369 164.021 232.545 163.938C232.753 163.872 232.942 163.733 233.09 163.538C233.283 163.294 233.404 162.976 233.433 162.636L233.314 162.737C233.442 162.781 233.578 162.781 233.706 162.737C233.807 162.703 233.901 162.642 233.981 162.557C234.062 162.473 234.126 162.368 234.169 162.249C234.249 162.036 234.262 161.795 234.207 161.57L234.071 161.686C234.151 161.75 234.241 161.792 234.336 161.807C234.43 161.823 234.526 161.811 234.616 161.774C234.754 161.715 234.868 161.594 234.938 161.435C235.041 161.17 234.987 160.993 234.976 161C234.947 161.129 234.905 161.252 234.851 161.367C234.783 161.483 234.685 161.567 234.573 161.604C234.504 161.627 234.432 161.63 234.362 161.614C234.292 161.597 234.226 161.562 234.169 161.509L233.957 161.319L234.033 161.631C234.074 161.811 234.056 162.004 233.983 162.168C233.911 162.331 233.79 162.453 233.646 162.507C233.551 162.537 233.452 162.537 233.357 162.507L233.248 162.473V162.608C233.226 162.872 233.145 163.123 233.014 163.331C232.883 163.54 232.707 163.699 232.507 163.789C232.341 163.852 232.171 163.902 232 163.938V163.938Z" fill="#8E4132"/>
<path d="M267.794 156.557C265.631 154.905 261.781 157.265 259.113 159.222C256.703 160.989 253 164.518 253 164.518L259.789 172L266.842 166.423C268.57 165.105 270.122 162.756 269.992 160.615C269.948 159.823 269.729 159.05 269.349 158.349C268.969 157.649 268.439 157.037 267.794 156.557V156.557Z" fill="#E1E1E1"/>
<path d="M267.774 156.587L267.861 156.644L268.099 156.832C268.394 157.085 268.663 157.365 268.902 157.669C269.282 158.159 269.571 158.71 269.756 159.298C270.008 160.084 270.066 160.918 269.925 161.73C269.406 163.849 268.092 165.7 266.245 166.914L259.925 171.943L259.843 172L259.779 171.932L257.407 169.323L253.064 164.527L253 164.459L253.07 164.39C254.913 162.681 256.669 161.092 258.302 159.777C259.747 158.614 261.319 157.611 262.989 156.786C264.407 156.131 265.692 155.875 266.553 156.057L266.849 156.114C266.942 156.143 267.024 156.182 267.099 156.211C267.232 156.253 267.357 156.314 267.471 156.393L267.681 156.536L267.75 156.587C267.382 156.356 266.971 156.197 266.541 156.12C265.698 155.96 264.442 156.234 263.053 156.9C261.395 157.733 259.835 158.742 258.401 159.908C256.756 161.229 255.006 162.807 253.169 164.533V164.396L257.518 169.186L259.89 171.795H259.744L266.088 166.783C267.909 165.602 269.212 163.795 269.739 161.719C269.89 160.928 269.844 160.113 269.605 159.344C269.432 158.763 269.159 158.216 268.797 157.726C268.567 157.418 268.308 157.132 268.024 156.872L267.797 156.672C267.797 156.615 267.768 156.593 267.774 156.587Z" fill="#1A2E35"/>
<path d="M260.748 212.272L269.952 209.137C269.952 209.137 276.243 217.396 278 216.985L272.54 199L258 203.297L260.748 212.272Z" fill="#375A64"/>
<path d="M268 204.028C268.001 203.772 268.049 203.525 268.137 203.335C268.225 203.146 268.346 203.026 268.476 203.001C268.606 202.991 268.733 203.081 268.83 203.25C268.928 203.419 268.989 203.655 269 203.909C268.999 204.18 268.947 204.441 268.854 204.642C268.761 204.844 268.634 204.971 268.496 205C268.359 204.982 268.231 204.86 268.139 204.661C268.046 204.463 267.997 204.201 268 203.933" fill="#E1E1E1"/>
<path d="M273.301 199L272 199.407L276.955 216.512C276.955 216.512 277.499 217.199 278 216.943L273.301 199Z" fill="#E1E1E1"/>
<path d="M270.29 209.998C270.398 209.998 270.29 209.502 270.475 208.971C270.66 208.439 271.067 208.083 270.99 208.011C270.913 207.938 270.298 208.234 270.075 208.88C269.852 209.527 270.19 210.04 270.29 209.998Z" fill="#1A2E35"/>
<path d="M271.081 211C271.16 211 271.192 210.725 271.445 210.466C271.698 210.206 272.025 210.095 271.999 210.025C271.972 209.954 271.514 210.025 271.208 210.355C270.902 210.684 271.002 211.014 271.081 211Z" fill="#1A2E35"/>
<path d="M274 212.038C274 211.964 273.635 211.974 273.323 212.283C273.012 212.592 272.959 212.985 273.025 212.999C273.092 213.014 273.226 212.735 273.47 212.484C273.715 212.234 274.013 212.112 274 212.038Z" fill="#1A2E35"/>
<path d="M267.981 209.991C268.087 209.924 267.724 209.542 267.547 209.012C267.37 208.482 267.432 208.026 267.299 208.001C267.166 207.976 266.856 208.463 267.077 209.092C267.299 209.72 267.901 210.059 267.981 209.991Z" fill="#1A2E35"/>
<path d="M259.634 188.121C259.275 188.029 243.493 204.408 243.11 207.118C242.727 209.828 243.325 212.185 245.196 213.71C247.068 215.235 268.321 210.244 268.321 210.244L266.312 201.635L274 199.133L267.131 187L259.634 188.121Z" fill="#1A2E35"/>
<g opacity="0.3">
<path d="M255.91 191.62L255.412 192.159C255.412 192.159 264.39 201.571 267.146 201.441L271.549 199.948L256.639 190.802L255.91 191.62Z" fill="black"/>
</g>
<path d="M266 202.003C266 202.052 262.892 202.987 259.026 204.093C255.159 205.199 252.017 206.053 252 205.997C251.983 205.942 255.102 205.012 258.969 203.906C262.835 202.8 265.983 201.947 266 202.003Z" fill="#1A2E35"/>
<path d="M246.383 202.705L249.432 212.612C249.432 212.612 240.621 219.116 241.013 221L260 215.639L255.847 200L246.383 202.705Z" fill="#375A64"/>
<path d="M255.496 210C255.624 210.007 255.746 210.11 255.839 210.29C255.932 210.469 255.99 210.712 256 210.973C256.001 211.234 255.953 211.486 255.866 211.677C255.779 211.868 255.659 211.984 255.531 212C255.395 211.991 255.266 211.881 255.168 211.69C255.07 211.499 255.01 211.24 255 210.965C255.012 210.691 255.075 210.438 255.178 210.26C255.28 210.081 255.412 209.99 255.546 210.008" fill="#E1E1E1"/>
<path d="M260 215.632L259.605 214L241.532 219.689C241.532 219.689 240.796 220.345 241.055 221L260 215.632Z" fill="#E1E1E1"/>
<path d="M249.002 212.257C249.032 212.371 249.502 212.257 250.036 212.471C250.571 212.685 250.911 213.062 250.988 212.991C251.064 212.92 250.782 212.321 250.13 212.086C249.478 211.85 248.961 212.164 249.002 212.257Z" fill="#1A2E35"/>
<path d="M248 214.062C248 214.146 248.278 214.181 248.538 214.44C248.798 214.7 248.926 215.024 248.981 214.999C249.036 214.974 248.981 214.5 248.656 214.211C248.33 213.922 247.989 213.992 248 214.062Z" fill="#1A2E35"/>
<path d="M246.96 216.999C247.033 216.999 247.033 216.292 246.723 215.661C246.413 215.029 246.015 214.92 246.001 215.046C245.986 215.173 246.267 215.45 246.514 215.972C246.762 216.494 246.883 217.024 246.96 216.999Z" fill="#1A2E35"/>
<g opacity="0.3">
<path d="M260.444 212.328L259.282 207.749L260.147 207.346L254.849 192.935L253.836 193.811L258.002 207.015L259.49 212.529L260.444 212.328Z" fill="black"/>
</g>
<path d="M248.307 176.169C247.276 175.944 246.209 175.944 245.178 176.169C244.146 176.394 243.174 176.839 242.324 177.475C241.465 178.091 240.799 178.944 240.403 179.934C240.008 180.924 239.9 182.008 240.093 183.058C240.95 189.162 248.622 210 248.622 210L259.233 206.758C259.292 206.758 259.352 206.558 259.322 206.613C259.233 206.758 253.934 189.397 254.07 189.603C254.207 189.809 264.776 198.489 269.171 200.086C271.137 200.813 273.28 200.877 275.284 200.269C277.288 199.661 279.046 198.413 280.299 196.711C281.328 195.247 284.017 188.702 279.312 182.32L270.212 182.804C270.212 182.804 249.396 176.489 249.092 176.374C248.835 176.288 248.573 176.22 248.307 176.169V176.169Z" fill="#1A2E35"/>
<path d="M280 196.54C280 196.54 279.959 196.613 279.872 196.745C279.744 196.944 279.604 197.135 279.452 197.315C278.855 198.001 278.166 198.596 277.406 199.081C276.196 199.876 274.841 200.408 273.424 200.643C272.533 200.793 271.625 200.807 270.73 200.685C269.716 200.558 268.73 200.253 267.815 199.784C267.32 199.568 266.853 199.273 266.352 199.015C265.851 198.757 265.367 198.414 264.871 198.108C263.874 197.471 262.848 196.781 261.804 196.03C259.717 194.54 257.525 192.853 255.257 190.997L254.406 190.288L253.981 189.922L253.87 189.814L253.812 189.76C253.852 189.76 253.712 189.712 253.893 189.76C254.027 189.609 253.928 189.688 253.957 189.67L254.033 189.946C254.255 190.673 254.476 191.417 254.704 192.168L256.12 196.781L259.158 206.607L259.193 206.703H259.094L248.559 209.97L248.465 210L248.43 209.904C247.76 208.048 247.06 206.072 246.367 204.072C244.857 199.712 243.452 195.447 242.157 191.285C241.522 189.207 240.927 187.147 240.461 185.105C240.402 184.847 240.333 184.595 240.286 184.336L240.146 183.567C240.045 183.056 239.996 182.534 240 182.012C240.003 180.972 240.294 179.956 240.84 179.081C241.388 178.262 242.097 177.571 242.922 177.053C243.747 176.536 244.668 176.203 245.626 176.078C246.537 175.943 247.464 175.984 248.36 176.198L249.019 176.366L249.655 176.564L250.908 176.949L260.12 179.784L273.459 183.904L277.085 185.033L278.024 185.333C278.239 185.399 278.344 185.441 278.344 185.441L278.018 185.351L277.073 185.075L273.435 183.982L260.073 179.922L250.844 177.111L249.591 176.733L248.955 176.534L248.32 176.372C247.444 176.169 246.539 176.13 245.649 176.258C244.718 176.378 243.821 176.699 243.017 177.2C242.213 177.701 241.521 178.37 240.985 179.165C240.462 180.008 240.183 180.987 240.181 181.988C240.177 182.498 240.226 183.008 240.327 183.507L240.467 184.27C240.513 184.528 240.577 184.781 240.636 185.033C241.108 187.069 241.697 189.123 242.332 191.201C243.603 195.357 245.037 199.61 246.547 203.976C247.241 205.976 247.941 207.952 248.611 209.808L248.489 209.742L259.024 206.48L258.959 206.613C257.91 203.213 256.9 199.938 255.928 196.787C255.45 195.213 254.978 193.669 254.523 192.168C254.295 191.417 254.074 190.673 253.858 189.94L253.782 189.658V189.621C253.812 189.621 253.707 189.621 253.847 189.501C254.033 189.579 253.905 189.501 253.951 189.549L253.998 189.592L254.091 189.676L254.511 190.042L255.362 190.751C257.619 192.613 259.805 194.3 261.886 195.796C262.924 196.552 263.944 197.237 264.935 197.88C265.431 198.204 265.932 198.48 266.41 198.787C266.888 199.093 267.372 199.339 267.862 199.555C268.76 200.025 269.731 200.332 270.73 200.462C271.614 200.595 272.511 200.595 273.395 200.462C274.801 200.238 276.149 199.719 277.353 198.937C278.116 198.462 278.81 197.88 279.417 197.207C279.609 196.967 279.761 196.787 279.848 196.655C279.936 196.522 280 196.54 280 196.54Z" fill="#375A64"/>
<path d="M249 185C249.324 185.131 249.631 185.303 249.913 185.512C250.613 185.979 251.27 186.512 251.874 187.105C252.479 187.697 253.021 188.354 253.491 189.065C253.704 189.349 253.875 189.664 254 190C253.779 189.733 253.574 189.452 253.387 189.159C252.888 188.483 252.337 187.849 251.739 187.263C251.142 186.678 250.51 186.134 249.846 185.632C249.549 185.444 249.266 185.232 249 185V185Z" fill="#1A2E35"/>
<path d="M252.008 184C252.265 184.25 252.462 184.526 252.593 184.818C252.972 185.501 253.273 186.203 253.493 186.918C253.729 187.633 253.882 188.359 253.953 189.091C254.016 189.392 254.016 189.698 253.953 190C253.853 190 253.754 188.621 253.205 186.948C252.656 185.276 251.917 184.024 252.008 184Z" fill="#1A2E35"/>
<path d="M112.075 92.6016L112.761 87.9501L115.814 83.2305L116.011 83.9153L116.685 83C116.685 83 117.407 83.6787 117.228 84.3761C116.849 85.3981 116.413 86.3961 115.922 87.3649L118.85 83.9527C118.973 84.2233 119.022 84.5242 118.991 84.8219C118.961 85.1197 118.852 85.4028 118.677 85.6401C118.081 86.6737 116.536 89.1395 116.536 89.1395C116.536 89.1395 115.653 94.208 115.451 95.1731C115.248 96.1382 114.365 96.4869 113.471 96.9912C112.406 97.4389 111.301 97.7769 110.173 98L110 92.919L112.075 92.6016Z" fill="#FFBF9D"/>
<path d="M63.1232 100.792C63.1232 100.792 61.66 107.609 68.8176 106.956C75.9751 106.303 93.2579 102.242 93.2579 102.242L110 96.9988L109.477 92L88.6919 94.8548C88.6919 94.8548 68.8411 95.7055 65.9205 96.3639C62.6825 97.1213 63.1232 100.792 63.1232 100.792Z" fill="#375A64"/>
<path d="M17.1489 179L10 190.035L23.748 200C24.5213 198.635 19.1252 190.856 19.1252 190.856L24 183.995L17.1489 179Z" fill="#375A64"/>
<g opacity="0.6">
<path d="M15.4521 186.997C15.2945 186.938 15.1205 186.942 14.9654 187.007C14.8103 187.072 14.6856 187.193 14.6165 187.346C14.5654 187.508 14.5772 187.684 14.6497 187.837C14.7222 187.991 14.85 188.112 15.0077 188.176C15.1747 188.235 15.3582 188.23 15.5211 188.159C15.6839 188.089 15.814 187.959 15.8848 187.796C15.9201 187.622 15.8886 187.44 15.7964 187.288C15.7042 187.135 15.558 187.023 15.3869 186.973" fill="white"/>
</g>
<g opacity="0.6">
<path d="M10 189.793L10.7882 188.732L24.1402 198.5C24.1402 198.5 24.5906 199.193 24.2291 199.566L10 189.793Z" fill="white"/>
</g>
<path d="M19.9932 190.973C19.9411 191.113 19.5368 190.668 19.0021 190.605C18.4675 190.541 18.0567 190.884 18.0045 190.732C17.9523 190.58 18.3566 189.919 19.0021 190.008C19.6477 190.097 20.0584 190.871 19.9932 190.973Z" fill="#1A2E35"/>
<path d="M20.9965 192.351C20.9599 192.471 20.4978 192.351 19.9696 192.499C19.4415 192.648 19.1041 193.066 19.0161 192.991C18.9281 192.917 19.1995 192.286 19.8596 192.063C20.5198 191.84 21.0479 192.276 20.9965 192.351Z" fill="#1A2E35"/>
<path d="M20.0312 194.995C19.9164 194.995 20.1106 194.474 20.7462 194.192C21.3817 193.91 22.0173 193.996 21.9996 194.091C21.982 194.185 21.4965 194.249 20.9757 194.488C20.4549 194.727 20.1371 195.045 20.0312 194.995Z" fill="#1A2E35"/>
<path d="M20.9839 188.997C20.892 189.033 20.555 188.723 20.0264 188.479C19.4979 188.235 19 188.14 19 188.057C19 187.973 19.5974 187.944 20.2102 188.241C20.823 188.539 21.0682 188.967 20.9839 188.997Z" fill="#1A2E35"/>
<path d="M21 186.971C21 186.995 20.8099 186.874 20.5775 186.567C20.4433 186.388 20.325 186.188 20.2254 185.97C20.1638 185.843 20.1096 185.71 20.0635 185.571C20.0351 185.493 20.015 185.41 20.0036 185.323C19.9948 185.261 20.0023 185.195 20.0248 185.139C20.0474 185.083 20.0835 185.04 20.1268 185.017C20.1674 185 20.2103 184.996 20.2522 185.004C20.2942 185.013 20.3344 185.034 20.3698 185.066C20.4232 185.117 20.4718 185.178 20.5141 185.246C20.5896 185.361 20.6579 185.484 20.7183 185.615C20.8178 185.831 20.8926 186.067 20.9401 186.315C21.0176 186.738 20.9859 187.005 20.9648 187C20.9437 186.995 20.9261 186.742 20.824 186.358C20.7652 186.133 20.6859 185.919 20.5881 185.722C20.5293 185.606 20.4634 185.497 20.3909 185.396C20.317 185.28 20.243 185.207 20.1937 185.236C20.1444 185.265 20.1691 185.236 20.1726 185.309C20.1821 185.371 20.1975 185.432 20.2184 185.489C20.2596 185.619 20.3067 185.745 20.3592 185.868C20.4477 186.078 20.5502 186.277 20.6655 186.461C20.7839 186.622 20.8955 186.792 21 186.971V186.971Z" fill="#1A2E35"/>
<path d="M21 186.999C20.9992 186.692 21.0832 186.392 21.2393 186.147C21.3821 185.869 21.5663 185.624 21.783 185.424C21.9133 185.301 22.0557 185.197 22.2072 185.114C22.3022 185.045 22.4105 185.006 22.5218 185.001C22.633 184.995 22.7437 185.023 22.8434 185.082C22.8997 185.129 22.9437 185.194 22.9706 185.269C22.9975 185.345 23.0062 185.427 22.9956 185.508C22.9787 185.62 22.9495 185.728 22.9086 185.831C22.8344 186.013 22.7372 186.18 22.6204 186.328C22.4225 186.573 22.1756 186.755 21.9026 186.857C21.7787 186.919 21.6456 186.951 21.5111 186.951C21.3767 186.951 21.2436 186.919 21.1196 186.857C21.359 186.805 21.5951 186.734 21.8265 186.644C22.0595 186.528 22.2676 186.352 22.4356 186.128C22.5308 185.998 22.6096 185.852 22.6694 185.695C22.7401 185.521 22.7618 185.353 22.6694 185.327C22.5769 185.301 22.4301 185.327 22.305 185.379C22.1662 185.453 22.0334 185.541 21.9081 185.644C21.7005 185.825 21.5172 186.043 21.3643 186.289C21.1305 186.696 21.0381 187.019 21 186.999Z" fill="#1A2E35"/>
<path d="M54.8856 181L53 193.572L70 194C69.9416 192.495 61.2431 189.268 61.2431 189.268L62.9945 181.222L54.8856 181Z" fill="#375A64"/>
<g opacity="0.6">
<path d="M56.1423 188.579C55.9787 188.616 55.8352 188.713 55.7406 188.852C55.6461 188.99 55.6075 189.159 55.6326 189.325C55.6773 189.488 55.782 189.629 55.9258 189.719C56.0697 189.809 56.2422 189.842 56.4089 189.811C56.5825 189.771 56.7345 189.667 56.8345 189.52C56.9346 189.372 56.9752 189.193 56.9482 189.017C56.8817 188.851 56.7555 188.715 56.5943 188.638C56.4331 188.56 56.2486 188.545 56.0771 188.596" fill="white"/>
</g>
<g opacity="0.6">
<path d="M53.0962 193.898L53.1792 192.577L69.6958 193.495C69.6958 193.495 70.4544 193.833 70.3536 194.342L53.0962 193.898Z" fill="white"/>
</g>
<path d="M61.9994 189.079C61.9994 189.159 61.4594 189.189 60.9342 189.439C60.409 189.689 60.1205 190.049 60.0243 189.994C59.9282 189.939 60.1057 189.488 60.7641 189.195C61.4224 188.902 62.0216 189.006 61.9994 189.079Z" fill="#1A2E35"/>
<path d="M64 190.028C64 190.09 63.3954 190.19 62.8915 190.457C62.3877 190.724 62.2366 191.005 62.0955 191C61.9544 190.995 61.8839 190.633 62.5187 190.309C63.1535 189.985 64 189.966 64 190.028Z" fill="#1A2E35"/>
<path d="M64.115 192C64.0196 192 63.8875 191.717 64.1738 191.398C64.46 191.08 64.9518 190.962 64.9958 191.01C65.0399 191.058 64.7243 191.228 64.4967 191.49C64.2692 191.751 64.2398 191.996 64.115 192Z" fill="#1A2E35"/>
<path d="M69.939 157.534C69.0882 154.296 57.301 134.159 57.301 134.159L56.7101 132.38L57.1828 131.49L39.2864 122C39.2864 122 34.6955 128.275 33.7088 131.271C32.7221 134.266 28.923 160.02 28.923 160.02C28.923 160.02 22.3766 169.427 21.2422 171.479C20.9822 171.953 13 183.662 13 183.662L21.6203 189L40.6098 163.744L47.8181 142.748L58.4531 160.82L53.2715 187.482L62.5712 187.944C62.5712 187.944 70.7839 160.779 69.939 157.534Z" fill="#1A2E35"/>
<path d="M52 138C51.0819 138.744 50.2519 139.622 49.5306 140.612C48.8641 141.639 48.3472 142.783 48 144C48.0111 143.616 48.0824 143.238 48.2105 142.884C48.4662 142.005 48.8511 141.184 49.3485 140.455C49.8452 139.726 50.4385 139.092 51.1067 138.575C51.3752 138.329 51.6769 138.134 52 138V138Z" fill="#375A64"/>
<path d="M42.9486 129C42.9862 129.142 43.0033 129.289 42.9995 129.435C43.0031 129.824 42.969 130.213 42.8977 130.597C42.6456 131.899 42.023 133.118 41.0923 134.132C40.1642 135.141 38.9997 135.947 37.6847 136.489C37.2906 136.654 36.8849 136.796 36.4704 136.913C36.3201 136.966 36.1611 136.995 36 137C36 136.965 36.6358 136.797 37.6084 136.35C38.8739 135.779 39.997 134.977 40.9079 133.993C41.8107 133.003 42.4368 131.827 42.7325 130.567C42.9486 129.621 42.9041 129 42.9486 129Z" fill="#375A64"/>
<path d="M53 138C53.2032 136.971 53.4938 135.957 53.8692 134.968C54.1606 133.954 54.5386 132.961 55 132C54.7927 133.031 54.4997 134.047 54.1237 135.038C53.832 136.05 53.4564 137.04 53 138V138Z" fill="#375A64"/>
<path d="M72.3184 82.0694L66.8133 96.3069C65.8785 98.73 64.9841 102.483 68.7926 103.825C72.1799 104.735 74.2169 101.916 75.0882 99.6875C75.4979 98.6118 75.8442 97.7194 75.8961 97.613C75.8961 97.613 79.5661 98.7064 81.2107 95.2489C82.0013 93.5645 83.3631 89.9593 84.5576 86.6851C85.1748 84.9871 85.1452 83.1134 84.4748 81.4368C83.8044 79.7601 82.5423 78.4035 80.9395 77.6367L80.6106 77.4831C76.9521 75.9346 73.6744 78.2809 72.3184 82.0694Z" fill="#FFBF9D"/>
<path d="M76 97.9585C74.3555 97.0932 72.9675 95.7195 72.0002 94C72.0002 94 71.916 97.5013 75.609 99L76 97.9585Z" fill="#FF9A6C"/>
<path d="M77.9647 85.9979C77.8788 86.033 77.6158 85.6164 77.0736 85.4056C76.5314 85.1949 76 85.3053 76 85.215C76 85.1247 76.0966 85.0895 76.3221 85.0343C76.6237 84.9701 76.9392 84.9965 77.2239 85.1096C77.5078 85.217 77.7457 85.4093 77.9003 85.6566C78.013 85.8422 78.0237 85.9829 77.9647 85.9979Z" fill="#1A2E35"/>
<path d="M77.9657 87.6945C77.9111 87.8179 77.8125 87.9145 77.6907 87.964C77.5689 88.0134 77.4333 88.0119 77.3126 87.9598C77.2525 87.9363 77.1976 87.9006 77.151 87.8549C77.1044 87.8091 77.067 87.7542 77.0411 87.6932C77.0152 87.6323 77.0013 87.5667 77.0001 87.5001C76.9989 87.4335 77.0105 87.3673 77.0343 87.3055C77.0889 87.1821 77.1875 87.0855 77.3093 87.036C77.4311 86.9866 77.5667 86.9881 77.6874 87.0402C77.7475 87.0637 77.8024 87.0992 77.849 87.145C77.8956 87.1908 77.933 87.2458 77.9589 87.3068C77.9848 87.3677 77.9987 87.4333 77.9999 87.4999C78.0011 87.5665 77.9895 87.6327 77.9657 87.6945V87.6945Z" fill="#1A2E35"/>
<path d="M78 90.4986C78.3485 90.5381 78.6898 90.6197 79.0149 90.7412C79.1662 90.7932 79.3175 90.8221 79.3932 90.7412C79.4748 90.6077 79.51 90.4546 79.494 90.3023C79.494 89.9154 79.5508 89.5169 79.5823 89.0953C79.6244 88.0555 79.7572 87.0204 79.9794 86C80.029 87.0388 79.9889 88.0797 79.8597 89.1127C79.8218 89.5342 79.784 89.9384 79.7462 90.3195C79.7636 90.5268 79.6962 90.7327 79.5571 90.897C79.5114 90.9366 79.4563 90.9663 79.3962 90.9833C79.3361 91.0003 79.2725 91.0044 79.2103 90.9953C79.12 90.977 79.0314 90.9518 78.9456 90.9201C78.614 90.8127 78.2968 90.6713 78 90.4986V90.4986Z" fill="#1A2E35"/>
<path d="M78.9784 83.9749C78.8319 84.0855 78.2535 83.806 77.4824 83.6197C76.7113 83.4335 76.0249 83.3753 76.0018 83.224C75.9787 83.0726 76.1792 83.0667 76.4954 83.0202C76.9049 82.9754 77.3227 83.0054 77.7137 83.1076C78.1093 83.2025 78.4672 83.3705 78.7548 83.5964C78.9707 83.7711 79.0401 83.9225 78.9784 83.9749Z" fill="#1A2E35"/>
<path d="M83.9804 85.9882C83.8817 86.0603 83.4978 85.7875 82.9878 85.5611C82.4777 85.3347 82.0116 85.2267 82.0006 85.1084C81.9897 84.99 82.1213 85.0002 82.3352 85.0002C82.6226 85.0068 82.9051 85.0718 83.1633 85.1907C83.4267 85.3029 83.6607 85.468 83.8488 85.6743C83.9859 85.8287 84.0298 85.9573 83.9804 85.9882Z" fill="#1A2E35"/>
<path d="M71 84.651C70.9578 84.6002 69.1501 82.8957 68.2172 85.2154C67.2844 87.5351 69.656 88.0374 69.6877 87.9979C69.7193 87.9584 71 84.651 71 84.651Z" fill="#FFBF9D"/>
<path d="M69.5595 86.9476C69.5595 86.9476 69.5209 86.9476 69.4566 86.9476C69.3703 86.9456 69.2878 86.9038 69.225 86.8302C69.1451 86.6783 69.0976 86.5035 69.0871 86.3225C69.0766 86.1414 69.1034 85.9599 69.165 85.7953C69.2268 85.6058 69.3204 85.4349 69.4394 85.2939C69.4795 85.2332 69.531 85.1859 69.5893 85.1561C69.6477 85.1263 69.7111 85.115 69.7739 85.1231C69.8137 85.1295 69.8503 85.1536 69.8771 85.1909C69.9038 85.2281 69.9189 85.276 69.9196 85.3259C69.9196 85.4006 69.8939 85.4379 69.9196 85.4432C69.9454 85.4486 69.9711 85.4433 69.9882 85.3312C70.0039 85.2742 70.0039 85.2122 69.9882 85.1552C69.9722 85.1199 69.9507 85.0891 69.9249 85.0644C69.8991 85.0397 69.8696 85.0215 69.8382 85.0111C69.7613 84.9922 69.6818 84.9975 69.607 85.0264C69.5321 85.0552 69.4642 85.1068 69.4094 85.1765C69.2725 85.3221 69.164 85.5045 69.0921 85.71C69.0146 85.9009 68.985 86.1165 69.0072 86.3286C69.0293 86.5407 69.1023 86.7396 69.2164 86.8995C69.2578 86.9417 69.3062 86.9719 69.3582 86.9876C69.4102 87.0033 69.4643 87.0041 69.5166 86.9902C69.538 86.9955 69.5637 86.9529 69.5595 86.9476Z" fill="#FF9A6C"/>
<path d="M76.9991 91.9941C77.0213 91.9574 76.6382 91.8573 76.3753 91.5738C76.2678 91.4504 76.1824 91.3169 76.1213 91.1768C76.0723 91.0668 76.0322 90.9968 76.0099 91.0001C75.9876 91.0034 76.0099 91.0801 76.0099 91.1969C76.0425 91.3557 76.1217 91.5072 76.2416 91.6405C76.3656 91.7749 76.5367 91.8811 76.7362 91.9474C76.8877 92.0007 76.9902 92.0074 76.9991 91.9941Z" fill="#1A2E35"/>
<path d="M88.119 84.1509C88.3062 84.0861 88.4877 84.0066 88.6616 83.9135C88.8485 83.7977 89.1318 83.2245 88.9992 83.0508C88.7972 83.0472 88.5957 83.0297 88.3963 82.9987C88.1358 82.8973 87.9063 82.7343 87.7292 82.5247C87.5521 82.3151 87.4331 82.066 87.3834 81.8003V81.8003C87.2343 81.3081 87.0552 80.8248 86.8469 80.3529C86.3893 79.1248 85.6776 77.9983 84.7548 77.0412C83.4989 75.9988 81.9712 75.3044 80.3356 75.0322C79.6342 74.9408 78.9203 75.0449 78.2789 75.3323C77.6375 75.6197 77.0957 76.0783 76.7182 76.6532C76.4409 76.2496 76.0571 75.9239 75.6059 75.7093C75.1547 75.4947 74.6522 75.3989 74.1499 75.4317V75.4317C73.0405 75.4027 72.1 76.1901 71.4308 77.0354C70.7616 77.8807 70.225 78.8592 69.3749 79.5192C69.194 79.6582 68.983 79.8202 69.0011 80.046C69.02 80.1301 69.0644 80.2069 69.1288 80.2667C69.1933 80.3264 69.2747 80.3666 69.3628 80.3819C69.5403 80.405 69.7208 80.3931 69.8934 80.3471L69.2905 80.9781C69.6207 81.1656 69.9927 81.2748 70.3757 81.2965C70.2184 82.2125 70.1177 83.1366 70.0743 84.064C70.4525 84.1539 70.783 84.3745 71.0027 84.6835C71.2258 85.1004 71.1595 85.7141 71.8106 85.7083C72.1422 85.7083 72.6305 85.222 72.8415 84.9788C74.228 83.3348 75.2294 81.4234 75.7777 79.3745C76.3449 79.1122 76.9585 78.955 77.5864 78.9113H77.5321C78.6957 78.946 79.9859 79.0328 80.7817 79.8491C81.3846 80.486 81.5353 81.4066 81.8609 82.2113C82.1625 82.9571 82.6183 83.6365 83.2006 84.2086C83.7829 84.7807 84.4797 85.2337 85.2492 85.5404C84.9115 86.5536 83.4405 89.981 83.121 91L85.424 87.6709C85.538 87.5824 85.6467 87.4877 85.7496 87.3873L86.871 86.4436C86.9592 86.4521 87.048 86.4521 87.1362 86.4436C87.7306 86.422 88.3085 86.2499 88.8114 85.9449C89.3142 85.6399 89.7243 85.2128 90 84.7067C89.663 84.7625 89.3171 84.7412 88.9903 84.6447C88.6635 84.5481 88.365 84.379 88.119 84.1509V84.1509Z" fill="#1A2E35"/>
<path d="M88 84.8947H87.9567L87.839 84.9235C87.7743 84.9421 87.708 84.9556 87.6409 84.9638C87.549 84.9804 87.4558 84.9899 87.3622 84.9925C86.7684 85.0299 86.1741 84.927 85.6347 84.6933C84.8324 84.3489 84.1533 83.7979 83.678 83.1057C83.1145 82.2535 82.7417 81.3045 82.582 80.3155C82.483 79.792 82.4396 79.2743 82.3591 78.7853C82.2952 78.3147 82.1576 77.8553 81.9505 77.4218C81.7693 77.0268 81.4814 76.682 81.1145 76.4208C80.9487 76.3069 80.7649 76.2177 80.5696 76.1562C80.3873 76.1015 80.1977 76.0704 80.0062 76.0641C79.6735 76.0533 79.3422 76.1082 79.034 76.2252C78.8082 76.3145 78.5991 76.437 78.4149 76.5877C78.2579 76.7236 78.1187 76.8761 78 77.0422V77.0076L78.0619 76.9099C78.1455 76.7808 78.2499 76.6643 78.3715 76.5646C78.5537 76.4054 78.7629 76.2752 78.9907 76.1792C79.3028 76.0528 79.6411 75.9919 79.9814 76.0009C80.1791 76.0067 80.3749 76.0376 80.5635 76.0929C80.7698 76.1537 80.9642 76.245 81.1393 76.3632C81.5164 76.6314 81.8145 76.9836 82.0062 77.3872C82.2174 77.8278 82.3572 78.2951 82.4211 78.7738C82.5078 79.2685 82.5511 79.7805 82.6502 80.2982C82.8083 81.276 83.1746 82.2148 83.7276 83.0596C84.1895 83.7445 84.8537 84.2917 85.6409 84.6359C86.1707 84.8679 86.752 84.9803 87.3375 84.9638C87.5595 84.9525 87.7807 84.9294 88 84.8947V84.8947Z" fill="#375A64"/>
<path d="M83.9618 87.9973C83.8246 88.0375 83.4292 87.6199 82.6141 87.4086C81.799 87.1972 81 87.3028 81 87.2173C81 87.1317 81.1452 87.0864 81.4842 87.0361C81.9374 86.9692 82.413 86.9958 82.84 87.1116C83.2677 87.2206 83.6273 87.4131 83.865 87.6602C84.0183 87.8514 84.0264 87.9822 83.9618 87.9973Z" fill="#1A2E35"/>
<path d="M82.9658 89.6982C82.9113 89.8213 82.8126 89.9174 82.6907 89.9658C82.5688 90.0142 82.4335 90.0111 82.3138 89.9572C82.2534 89.9344 82.198 89.8993 82.151 89.8537C82.1041 89.8081 82.0665 89.753 82.0406 89.692C82.0146 89.6309 82.0008 89.5651 82 89.4984C81.9993 89.4316 82.0115 89.3655 82.036 89.3038C82.0624 89.2423 82.1002 89.1868 82.1472 89.1405C82.1943 89.0942 82.2497 89.0579 82.3103 89.0338C82.3708 89.0098 82.4354 88.9983 82.5002 89.0002C82.565 89.0021 82.6288 89.0171 82.688 89.0446C82.7479 89.0681 82.8028 89.1037 82.8493 89.1494C82.8958 89.1951 82.9331 89.2501 82.9589 89.3109C82.9848 89.3718 82.9987 89.4373 82.9999 89.5038C83.0011 89.5703 82.9895 89.6364 82.9658 89.6982V89.6982Z" fill="#1A2E35"/>
<path d="M78 78C77.823 78.0466 77.6509 78.1059 77.4855 78.1773C77.0441 78.3905 76.6745 78.6979 76.4125 79.0694C76.2271 79.3233 76.0695 79.5913 75.9419 79.8702C75.8102 80.1711 75.691 80.5042 75.5655 80.8535C75.4416 81.2189 75.2929 81.5778 75.12 81.9283C75.0219 82.1141 74.9087 82.2937 74.7812 82.4657C74.6574 82.6542 74.4805 82.8131 74.2667 82.928C74.1713 82.9751 74.0631 83 73.9529 83C73.8428 83 73.7346 82.9751 73.6392 82.928C73.4667 82.8363 73.3344 82.6984 73.2628 82.5357C73.1623 82.2226 73.1623 81.8921 73.2628 81.5791L73.338 81.6167C73.114 81.8283 72.8538 82.0095 72.5663 82.1541C72.2943 82.2873 71.9722 82.3239 71.669 82.2562C71.5291 82.2248 71.4028 82.1594 71.3051 82.0681C71.2103 81.9829 71.1508 81.8734 71.1357 81.7565C71.1171 81.6488 71.1345 81.5388 71.1859 81.4393C71.2315 81.3466 71.3137 81.2706 71.418 81.2244L71.4494 81.2673C71.1212 81.4174 70.76 81.507 70.389 81.5307C70.2908 81.5361 70.1923 81.5361 70.0941 81.5307H70H70.1004C70.1965 81.535 70.2929 81.535 70.389 81.5307C70.7498 81.4952 71.0993 81.4003 71.418 81.2512V81.2942C71.3257 81.3446 71.2534 81.4179 71.2109 81.5043C71.1683 81.5907 71.1574 81.686 71.1796 81.7778C71.1955 81.8803 71.2481 81.9761 71.3302 82.0519C71.4218 82.1345 71.5396 82.1924 71.669 82.2186C71.8091 82.2495 71.9549 82.2564 72.0982 82.2389C72.2414 82.2214 72.3791 82.1797 72.5035 82.1165C72.7828 81.9709 73.0346 81.7897 73.2502 81.5791L73.3506 81.4931V81.6167C73.2597 81.9145 73.2597 82.2272 73.3506 82.5249C73.4138 82.6724 73.5331 82.7973 73.6894 82.8796C73.769 82.9177 73.8586 82.9377 73.9498 82.9377C74.041 82.9377 74.1306 82.9177 74.2102 82.8796C74.4069 82.7709 74.5704 82.6234 74.687 82.4496C74.8117 82.277 74.9228 82.0975 75.0196 81.9122C75.1931 81.5613 75.3439 81.2025 75.4714 80.8374C75.5968 80.4881 75.7161 80.155 75.8604 79.854C75.9896 79.5704 76.1514 79.2986 76.3435 79.0425C76.6157 78.6667 76.9988 78.3589 77.4541 78.1504C77.6244 78.0732 77.8092 78.0224 78 78V78Z" fill="#375A64"/>
<path d="M38 123.331C38 123.331 58.4815 99.8165 61.6637 97.0373C65.8351 93.3864 71.9552 95.7561 71.9552 95.7561L80 105.076L76.3768 109.839L67.6705 121.541L60.162 133.874C60.162 133.874 54.6975 134.523 51.6166 132.874C48.5357 131.224 38 123.331 38 123.331Z" fill="#375A64"/>
<path d="M64.3653 99.074C64.3653 99.074 62.0316 105.695 69.1612 105.971C76.2909 106.247 93.8351 104.457 93.8351 104.457L111 101.422L110.154 95.3115L90.3169 96.4855C90.3169 96.4855 70.6607 94.7539 67.7085 95.0298C64.412 95.3526 64.3653 99.074 64.3653 99.074Z" fill="#375A64"/>
<path d="M63.8201 103C63.7399 102.91 63.6756 102.806 63.63 102.693C63.4801 102.398 63.3585 102.089 63.2667 101.77C62.9423 100.705 62.9132 99.5676 63.1829 98.4866C63.4964 97.4183 64.0747 96.454 64.8597 95.6903C65.0978 95.4552 65.3693 95.2596 65.6646 95.1102C65.7688 95.0521 65.8826 95.0148 66 95C65.6238 95.2157 65.2746 95.4787 64.9603 95.7831C64.237 96.5545 63.7039 97.4959 63.4065 98.5271C63.1459 99.5695 63.1459 100.664 63.4065 101.706C63.6077 102.53 63.8592 102.983 63.8201 103Z" fill="#1A2E35"/>
<path d="M110.961 102C110.961 102 110.961 101.962 110.961 101.893C110.961 101.824 110.926 101.692 110.908 101.56C110.861 101.251 110.796 100.817 110.719 100.27C110.559 99.1316 110.333 97.5024 110.055 95.4644L110.132 95.5335L92.1532 96.7161L90.5474 96.823L74.5479 95.565L69.7481 95.1623L68.4503 95.0428L68.1185 95.005H68C68.0393 94.9983 68.0792 94.9983 68.1185 95.005H68.4563L69.754 95.0806L74.5597 95.414L90.5592 96.5965L92.1651 96.4959L110.15 95.3888H110.215V95.4644C110.464 97.5024 110.671 99.1379 110.807 100.276C110.873 100.83 110.926 101.258 110.961 101.572C110.961 101.711 110.961 101.818 110.991 101.906C111.021 101.994 110.967 102 110.961 102Z" fill="#1A2E35"/>
<path d="M94 105C93.9246 105.02 93.8446 105.033 93.763 105.037C93.6049 105.059 93.3738 105.085 93.0696 105.115C92.4771 105.174 91.5941 105.244 90.5096 105.314C88.3408 105.455 85.3422 105.607 82.0237 105.732C78.7052 105.858 75.7007 105.939 73.52 105.976C72.4356 105.976 71.5526 105.995 70.9422 105.995H70.243C70.1624 106.002 70.0806 106.002 70 105.995C70.0809 105.991 70.1621 105.991 70.243 105.995H70.9422L73.52 105.932C75.6889 105.873 78.6933 105.773 82.0119 105.647C85.3304 105.522 88.323 105.388 90.4919 105.277C91.5763 105.218 92.4533 105.163 93.0578 105.122L93.7511 105.07C93.8299 105.041 93.9133 105.018 94 105V105Z" fill="#1A2E35"/>
<g opacity="0.3">
<path d="M67.3076 106.125C68.052 106.935 68.9759 107.558 70.0051 107.946C71.0343 108.334 72.1402 108.475 73.2339 108.358C77.2283 108.086 78.7691 105.847 78.7691 105.847L67.3076 106.125Z" fill="black"/>
</g>
<path d="M118.939 88.152L115.805 90.911C116.375 90.0841 116.899 89.2245 117.374 88.3363C117.621 87.72 117.027 87 117.027 87L116.292 87.7546L116.191 87.1095L112.783 91.0434L111.594 95.2251H111L111.684 100C112.575 99.6486 114.128 98.848 114.437 97.9841C114.745 97.1201 116.163 92.5872 116.163 92.5872C116.163 92.5872 117.913 90.5251 118.574 89.6496C118.76 89.4564 118.892 89.2156 118.956 88.9521C119.02 88.6886 119.014 88.4122 118.939 88.152V88.152Z" fill="#FFBF9D"/>
<path d="M117 87C116.41 87.7139 115.764 88.3968 115.065 89.0443C114.43 89.7312 113.74 90.3844 113 91C113.534 90.2558 114.159 89.5563 114.866 88.9117C115.496 88.2192 116.211 87.5787 117 87V87Z" fill="#FF9A6C"/>
<path d="M116 87C115.72 87.3826 115.409 87.7451 115.07 88.0844C114.463 88.7374 113.643 89.6288 112.713 90.611L112.391 90.9461V90.9063C112.027 92.0419 111.693 93.0923 111.444 93.8248C111.331 94.2274 111.183 94.6205 111 95C111.07 94.5906 111.172 94.1865 111.304 93.7907C111.516 93.0412 111.826 92.0079 112.185 90.8496L112.507 90.5146C113.436 89.538 114.287 88.6578 114.937 88.0276C115.262 87.6596 115.617 87.3161 116 87V87Z" fill="#FF9A6C"/>
</svg>
