<svg width="321" height="258" viewBox="0 0 321 258" fill="none" xmlns="http://www.w3.org/2000/svg">
<g filter="url(#filter0_d_65_648)">
<rect x="4" y="8" width="313" height="242" rx="41.343" fill="#FFF4F5"/>
<path d="M50.5808 62.6048C51.2725 60.0186 52.5655 57.6323 54.3545 55.6404C56.1434 53.6485 58.3776 52.1073 60.8751 51.1424C63.3727 50.1774 66.0629 49.8161 68.7265 50.0877C71.3902 50.3593 73.952 51.2563 76.2033 52.7055C78.4546 54.1547 80.3317 56.1152 81.6816 58.4271C83.0315 60.7391 83.816 63.3372 83.9714 66.0099C84.1267 68.6825 83.6484 71.354 82.5754 73.8067C81.5024 76.2595 79.8651 78.4242 77.7969 80.1243V80.1243C75.0171 82.4135 71.5818 83.7605 67.9867 83.9709C64.3915 84.1814 60.8225 83.2445 57.7945 81.2954C54.7665 79.3462 52.4361 76.4855 51.1395 73.1262C49.843 69.7669 49.6473 66.0825 50.5808 62.6048V62.6048ZM82.3154 71.0885C83.2872 67.4373 82.9225 63.5591 81.287 60.1531C79.6515 56.7471 76.8528 54.0374 73.3955 52.5124C69.9382 50.9875 66.0498 50.7476 62.4313 51.8361C58.8127 52.9247 55.7022 55.27 53.6604 58.4492C51.6186 61.6284 50.7799 65.4322 51.2955 69.1751C51.8111 72.918 53.6471 76.3537 56.4725 78.8626C59.2978 81.3715 62.9267 82.7885 66.7048 82.8584C70.4829 82.9283 74.1617 81.6463 77.0779 79.2436C79.6417 77.1362 81.4788 74.277 82.3297 71.0694L82.3154 71.0885Z" fill="#63367D"/>
<path d="M50.5792 61.5997C51.2719 59.0138 52.5657 56.6282 54.3551 54.6369C56.1446 52.6457 58.3792 51.1052 60.8768 50.141C63.3745 49.1767 66.0647 48.8159 68.7282 49.088C71.3917 49.3601 73.9533 50.2574 76.2043 51.7068C78.4554 53.1562 80.3322 55.1167 81.6819 57.4287C83.0316 59.7406 83.816 62.3387 83.9714 65.0111C84.1267 67.6836 83.6485 70.355 82.5757 72.8077C81.5029 75.2604 79.8659 77.425 77.7979 79.1253V79.1253C75.0181 81.4139 71.5831 82.7605 67.9884 82.9709C64.3936 83.1814 60.8249 82.2448 57.797 80.2962C54.7691 78.3476 52.4384 75.4878 51.1412 72.1292C49.8439 68.7706 49.6471 65.0868 50.5792 61.6092V61.5997ZM82.3169 70.0792C83.2874 66.43 82.9223 62.5542 81.2872 59.1505C79.6521 55.7467 76.8547 53.039 73.3993 51.5153C69.9438 49.9915 66.0576 49.7521 62.4412 50.8402C58.8248 51.9282 55.7161 54.2722 53.6755 57.4495C51.6349 60.6268 50.7966 64.4285 51.3117 68.1692C51.8269 71.9099 53.6616 75.3436 56.4851 77.8512C59.3086 80.3589 62.9352 81.7756 66.7111 81.846C70.487 81.9164 74.1639 80.6357 77.0789 78.2349C79.6343 76.1304 81.4661 73.2783 82.3169 70.0792V70.0792Z" fill="#63367D"/>
<path d="M37.805 92.3236L37.5466 92.038C37.0025 91.4254 36.8348 90.6562 37.1794 90.3522L52.6985 76.0275C52.7755 75.9584 52.9388 76.0275 53.0612 76.1472L54.8747 78.1601C54.9971 78.2937 55.0379 78.4641 54.9608 78.5332L39.4372 92.8625C39.0745 93.1757 38.3536 92.9362 37.805 92.3236Z" fill="#63367D"/>
<path d="M61 50.9978C61.1287 50.886 61.2668 50.7877 61.4124 50.7042C61.5467 50.6181 61.7181 50.5118 61.922 50.4056C62.1259 50.2993 62.3483 50.1676 62.617 50.0563C63.2299 49.7778 63.862 49.5527 64.5073 49.3831C65.3069 49.1829 66.1207 49.0576 66.9398 49.0085C67.7543 48.9789 68.5697 49.0264 69.3768 49.1503C70.0351 49.2633 70.6842 49.4325 71.3181 49.6564C71.5869 49.7425 71.8232 49.8538 72.0363 49.9399C72.2173 50.0113 72.3938 50.0958 72.5645 50.1929C72.7166 50.2603 72.8624 50.3433 73 50.441C73 50.4815 72.356 50.1423 71.2764 49.8032C70.6462 49.6041 70.0036 49.4552 69.3537 49.3578C68.5565 49.2461 67.7523 49.2055 66.949 49.2363C66.1462 49.2806 65.3481 49.3975 64.5629 49.5856C63.9224 49.7408 63.2936 49.9489 62.6819 50.2081C61.6208 50.6384 61.0185 51.0332 61 50.9978Z" fill="#63367D"/>
<path d="M76 52C75.6154 51.9169 75.255 51.7747 74.9389 51.5811C74.3745 51.3018 73.9681 51.045 74.002 51C74.3878 51.0826 74.7488 51.2266 75.0631 51.4234C75.4186 51.5662 75.7366 51.7619 76 52V52Z" fill="#63367D"/>
<path d="M200.148 58.0589L181.384 48.9101C181.076 48.76 180.8 48.5507 180.573 48.2942C180.346 48.0377 180.171 47.7389 180.06 47.415C179.948 47.0911 179.902 46.7483 179.923 46.4064C179.944 46.0645 180.032 45.7299 180.182 45.4221L192.825 19.4682C193.13 18.8459 193.669 18.3696 194.324 18.1434C194.979 17.9173 195.697 17.9599 196.321 18.2617L208.22 24.0541L212.797 38.0288L203.643 56.841C203.495 57.1512 203.286 57.4288 203.03 57.6581C202.773 57.8874 202.474 58.0638 202.149 58.177C201.824 58.2902 201.48 58.338 201.137 58.3177C200.793 58.2974 200.457 58.2095 200.148 58.0589V58.0589Z" fill="#ECECEC"/>
<path d="M208.22 20.0426L204.656 27.3502C204.518 27.6382 204.438 27.9504 204.421 28.2693C204.404 28.5881 204.45 28.9071 204.556 29.2082C204.662 29.5093 204.827 29.7865 205.04 30.0239C205.254 30.2614 205.512 30.4545 205.8 30.5923L212.831 34.023L208.22 20.0426Z" fill="#E1E1E1"/>
<path d="M203.231 26.2867C203.186 26.3782 201.206 25.5091 198.809 24.3426C196.412 23.1761 194.501 22.1526 194.547 22.0554C194.593 21.9582 196.578 22.8273 198.975 23.9938C201.372 25.1603 203.277 26.1895 203.231 26.2867Z" fill="white"/>
<path d="M206.801 33.1425C206.755 33.2398 203.518 31.7588 199.576 29.8375C195.634 27.9163 192.471 26.2809 192.516 26.1895C192.562 26.098 195.794 27.5732 199.742 29.4945C203.689 31.4157 206.87 33.0511 206.801 33.1425Z" fill="white"/>
<path d="M206.429 37.2195C206.384 37.311 202.86 35.6928 198.563 33.6C194.267 31.5072 190.812 29.7347 190.857 29.6374C190.903 29.5402 194.427 31.1641 198.729 33.2569C203.031 35.3497 206.475 37.1223 206.429 37.2195Z" fill="white"/>
<path d="M204.845 44.4729C204.799 44.5644 201.275 42.9462 196.979 40.8535C192.682 38.7607 189.227 36.9881 189.273 36.8909C189.318 36.7937 192.842 38.4176 197.139 40.5104C201.435 42.6032 204.891 44.3814 204.845 44.4729Z" fill="white"/>
<path d="M203.26 47.7265C203.214 47.8237 199.69 46.1998 195.388 44.107C191.086 42.0143 187.642 40.2417 187.688 40.1445C187.734 40.0473 191.252 41.6712 195.554 43.7697C199.856 45.8682 203.306 47.635 203.26 47.7265Z" fill="white"/>
<path d="M201.652 50.9801C201.607 51.0773 198.083 49.4534 193.781 47.3606C189.479 45.2678 186.035 43.4952 186.08 43.4037C186.126 43.3122 189.644 44.9304 193.947 47.0232C198.249 49.116 201.721 50.8886 201.652 50.9801Z" fill="white"/>
<path d="M94.8104 103.877C94.2708 103.752 93.8028 103.418 93.509 102.949C93.2152 102.479 93.1195 101.912 93.2429 101.373L97.3161 83.6812C97.3732 83.461 97.4735 83.2544 97.6112 83.0734C97.7489 82.8923 97.9212 82.7404 98.1182 82.6265C98.3152 82.5127 98.5328 82.439 98.7585 82.41C98.9842 82.381 99.2134 82.3971 99.4328 82.4575L101.098 82.8407C101.421 82.9202 101.761 82.9089 102.079 82.808C102.397 82.7071 102.681 82.5206 102.9 82.2689L103.42 81.6227C103.639 81.3709 103.923 81.1844 104.241 81.0835C104.559 80.9827 104.898 80.9713 105.222 81.0509L113.117 82.8692C113.415 82.9339 113.691 83.0727 113.921 83.2726C114.151 83.4725 114.327 83.727 114.433 84.0127L114.679 84.7162C114.785 85.0017 114.961 85.256 115.191 85.4558C115.421 85.6556 115.697 85.7945 115.995 85.8598L126.063 88.147C126.287 88.1887 126.501 88.2745 126.691 88.3995C126.882 88.5246 127.045 88.6863 127.173 88.8753C127.3 89.0642 127.388 89.2767 127.433 89.5001C127.477 89.7236 127.476 89.9536 127.431 90.1768L123.277 108.28C123.216 108.547 123.102 108.8 122.943 109.024C122.784 109.247 122.582 109.437 122.349 109.583C122.117 109.728 121.857 109.826 121.587 109.872C121.316 109.917 121.039 109.909 120.771 109.847L94.8104 103.877Z" fill="#E1E1E1"/>
<path d="M114.959 85.6195L108.557 84.1329L108.231 82.9264C108.113 82.5337 107.891 82.18 107.589 81.9024C107.288 81.6248 106.916 81.4333 106.515 81.3482L100.251 79.9072C99.9965 79.8399 99.7314 79.8234 99.4707 79.8585C99.21 79.8937 98.9588 79.9798 98.7314 80.112C98.504 80.2443 98.3049 80.42 98.1455 80.6291C97.9861 80.8383 97.8695 81.0768 97.8023 81.331L97.6307 82.0572L93.2085 101.264C93.094 101.857 93.2186 102.471 93.5551 102.972C93.8916 103.473 94.4127 103.821 95.0048 103.94L120.44 109.795C121.024 109.947 121.644 109.862 122.166 109.559C122.688 109.256 123.069 108.759 123.226 108.177L127.408 90.0338C127.451 89.84 127.457 89.6396 127.423 89.4438C127.389 89.2481 127.317 89.0608 127.211 88.893C127.104 88.7251 126.966 88.5798 126.804 88.4655C126.641 88.3512 126.457 88.2702 126.263 88.2269L114.959 85.6195Z" fill="#ECECEC"/>
<path d="M119.079 94.0893L103.943 90.605L102.477 96.9683L117.613 100.453L119.079 94.0893Z" fill="white"/>
<path d="M116.115 96.3694C116.115 96.4266 113.764 95.9349 110.892 95.2774C108.02 94.6198 105.703 94.0308 105.743 93.9736C105.783 93.9165 108.094 94.4082 110.972 95.0714C113.849 95.7347 116.132 96.3008 116.115 96.3694Z" fill="#E1E1E1"/>
<path d="M115.806 97.7132C115.806 97.7704 113.455 97.2785 110.583 96.621C107.711 95.9634 105.394 95.3745 105.405 95.323C105.417 95.2715 107.757 95.7519 110.628 96.4152C113.5 97.0785 115.84 97.656 115.806 97.7132Z" fill="#E1E1E1"/>
<path d="M129.725 58.6421L126.864 75.3786V229.884H266.035V220.066L129.725 58.6421Z" fill="#63367D"/>
<path d="M129.725 58.6421H262.23C263.147 58.6436 264.054 58.8255 264.9 59.1775C265.747 59.5294 266.515 60.0445 267.162 60.6934C267.809 61.3422 268.322 62.112 268.671 62.959C269.021 63.8059 269.2 64.7134 269.198 65.6294V215.046C269.198 216.896 268.463 218.671 267.154 219.979C265.845 221.287 264.07 222.022 262.219 222.022H129.725V58.6421Z" fill="#63367D"/>
<path d="M263.643 222.251H129.496V58.4135H263.643C265.179 58.4165 266.651 59.0279 267.736 60.1136C268.821 61.1994 269.431 62.6709 269.433 64.2057V216.447C269.434 217.984 268.825 219.458 267.74 220.546C266.654 221.635 265.181 222.248 263.643 222.251V222.251ZM129.953 221.793H263.643C265.058 221.79 266.414 221.227 267.414 220.227C268.415 219.228 268.978 217.872 268.981 216.458V64.2057C268.978 62.7917 268.415 61.4365 267.414 60.4367C266.414 59.4368 265.058 58.8738 263.643 58.8708H129.953V221.793Z" fill="#1A2E35"/>
<path d="M254.147 63.3195L261.876 76.1963V217.173L141.475 215.978L134.879 209.162L254.147 63.3195Z" fill="#E1E1E1"/>
<path d="M254.147 62.6962H134.879V209.162H254.147V62.6962Z" fill="white"/>
<path d="M254.147 209.162C254.147 208.236 254.101 149.81 254.038 62.6962L254.147 62.8048H134.891L135.011 62.6848C135.011 116.868 135.011 167.261 135.011 209.151L134.913 209.054L254.181 209.151L134.913 209.248H134.816V209.151C134.816 167.261 134.816 116.868 134.816 62.6848V62.5646H134.948H254.204H254.284V62.6676C254.193 149.81 254.147 208.236 254.147 209.162Z" fill="#1A2E35"/>
<path d="M149.519 112.02C149.468 112.543 149.266 113.04 148.937 113.451C148.609 113.862 148.169 114.169 147.669 114.335C147.17 114.5 146.633 114.517 146.124 114.383C145.615 114.25 145.156 113.972 144.802 113.582C144.448 113.193 144.215 112.709 144.132 112.19C144.048 111.671 144.116 111.138 144.329 110.658C144.542 110.177 144.89 109.768 145.331 109.481C145.772 109.194 146.287 109.041 146.813 109.04C147.566 109.08 148.272 109.416 148.779 109.974C149.286 110.531 149.551 111.267 149.519 112.02Z" fill="#1A2E35"/>
<g opacity="0.3">
<path d="M129.725 133.045H134.879L134.868 128.607H129.725V133.045Z" fill="black"/>
</g>
<path d="M132.202 97.2615C123.231 97.2615 115.932 104.363 115.932 113.089C115.932 121.814 123.317 128.91 132.287 128.91H134.879L134.839 125.16L132.287 125.262C125.148 125.262 119.244 119.802 119.244 113.089C119.244 106.376 125.056 100.909 132.202 100.909C139.347 100.909 145.154 106.37 145.154 113.089C145.13 113.32 145.155 113.554 145.228 113.775C145.3 113.997 145.418 114.2 145.574 114.373C145.73 114.546 145.921 114.684 146.134 114.778C146.347 114.873 146.577 114.921 146.81 114.921C147.043 114.921 147.273 114.873 147.486 114.778C147.699 114.684 147.889 114.546 148.045 114.373C148.201 114.2 148.319 113.997 148.392 113.775C148.464 113.554 148.49 113.32 148.466 113.089C148.449 104.375 141.172 97.2615 132.202 97.2615Z" fill="#E1E1E1"/>
<path d="M132.202 97.2614H132.585L133.729 97.3071C134.227 97.3471 134.833 97.4501 135.554 97.5588C136.374 97.7331 137.181 97.9643 137.968 98.2506C140.137 99.0442 142.118 100.279 143.786 101.876L144.49 102.625C144.604 102.756 144.73 102.876 144.845 103.014L145.171 103.437C145.388 103.728 145.628 104.009 145.829 104.312C146.029 104.615 146.229 104.946 146.401 105.272C147.213 106.669 147.809 108.18 148.168 109.755C148.35 110.604 148.461 111.467 148.5 112.334C148.563 112.787 148.545 113.248 148.449 113.695C148.31 114.16 147.996 114.554 147.574 114.793C147.357 114.912 147.116 114.98 146.869 114.992C146.622 115.004 146.376 114.959 146.149 114.861C145.92 114.759 145.715 114.61 145.546 114.425C145.377 114.24 145.247 114.023 145.165 113.786C145.084 113.547 145.041 113.296 145.039 113.043C145.039 112.803 145.039 112.563 144.999 112.322C144.972 111.837 144.911 111.353 144.816 110.876C144.406 108.873 143.486 107.01 142.144 105.467C141.441 104.668 140.642 103.959 139.765 103.357C139.318 103.047 138.854 102.765 138.374 102.51C138.128 102.385 137.877 102.282 137.625 102.167C137.378 102.043 137.122 101.937 136.858 101.853L136.075 101.584C135.806 101.504 135.503 101.447 135.262 101.378C134.713 101.252 134.157 101.156 133.598 101.092C132.454 100.98 131.301 101.011 130.165 101.184C129.586 101.265 129.013 101.383 128.449 101.538C128.163 101.618 127.877 101.727 127.614 101.819L127.196 101.962L126.79 102.145C125.693 102.618 124.669 103.244 123.746 104.003C122.801 104.767 121.979 105.671 121.309 106.685C120.614 107.704 120.094 108.833 119.77 110.024C119.603 110.624 119.48 111.236 119.404 111.854C119.347 112.479 119.335 113.108 119.37 113.735C119.431 115.004 119.72 116.251 120.222 117.417C121.426 120.208 123.601 122.469 126.344 123.781C127.657 124.428 129.071 124.845 130.525 125.017C130.881 125.075 131.241 125.106 131.601 125.108C131.957 125.131 132.315 125.131 132.671 125.108L134.81 125.022H134.925V125.142C134.925 126.412 134.936 127.662 134.959 128.893V129.008H134.845C133.884 129.008 132.934 129.008 131.984 129.008L130.566 128.933L129.175 128.727C127.37 128.384 125.632 127.752 124.027 126.858C123.643 126.623 123.249 126.423 122.882 126.166L121.813 125.394L120.834 124.536C120.669 124.397 120.514 124.246 120.371 124.084L119.936 123.615C118.808 122.394 117.88 121.003 117.184 119.493C117.017 119.131 116.868 118.761 116.738 118.384L116.527 117.812L116.372 117.24C116.281 116.863 116.155 116.491 116.086 116.096C116.017 115.702 115.972 115.336 115.909 114.953C115.729 113.498 115.76 112.025 116 110.579C116.104 109.894 116.257 109.217 116.458 108.554C116.55 108.232 116.661 107.915 116.79 107.605C116.916 107.296 117.007 106.982 117.156 106.69C117.421 106.112 117.721 105.551 118.054 105.009C118.214 104.746 118.38 104.489 118.54 104.232C118.701 103.974 118.906 103.751 119.084 103.517C120.381 101.843 121.994 100.44 123.832 99.3885C124.032 99.2741 124.227 99.1483 124.404 99.0453L124.976 98.7709C125.347 98.5843 125.729 98.422 126.12 98.2849L127.184 97.9075C127.528 97.8103 127.86 97.736 128.174 97.6559C128.725 97.5138 129.285 97.4125 129.85 97.3528C130.091 97.3185 130.32 97.2786 130.525 97.2614H131.098L131.858 97.2328H132.116H131.858L131.098 97.2786L130.525 97.3128C130.32 97.3128 130.102 97.3758 129.856 97.4101C129.294 97.4758 128.738 97.5827 128.191 97.7302C127.882 97.8159 127.551 97.8847 127.207 97.9876L126.149 98.3707C125.759 98.5128 125.377 98.6771 125.005 98.8625L124.433 99.1426C124.238 99.2456 124.049 99.3713 123.861 99.4856C122.041 100.536 120.447 101.935 119.17 103.603C118.992 103.837 118.803 104.066 118.632 104.312C118.46 104.557 118.311 104.826 118.151 105.089C117.826 105.627 117.532 106.182 117.27 106.753C117.127 107.045 117.036 107.359 116.91 107.662C116.784 107.97 116.677 108.285 116.59 108.606C116.39 109.261 116.239 109.93 116.138 110.607C115.909 112.037 115.884 113.493 116.063 114.93C116.12 115.296 116.183 115.668 116.241 116.045C116.298 116.422 116.429 116.788 116.527 117.16L116.675 117.732L116.887 118.304C117.016 118.677 117.165 119.044 117.333 119.401C118.022 120.891 118.941 122.262 120.056 123.467L120.491 123.93C120.632 124.088 120.785 124.235 120.949 124.37L121.916 125.217L122.968 125.977C123.323 126.234 123.718 126.429 124.112 126.663C125.693 127.538 127.401 128.158 129.175 128.499L130.548 128.699L131.95 128.767C132.888 128.767 133.844 128.767 134.81 128.767L134.696 128.882C134.696 127.653 134.696 126.406 134.656 125.131L134.776 125.245L132.636 125.331C132.274 125.354 131.911 125.354 131.549 125.331C131.184 125.323 130.819 125.292 130.457 125.239C128.977 125.063 127.538 124.638 126.201 123.982C123.434 122.64 121.243 120.348 120.028 117.526C119.518 116.333 119.226 115.059 119.164 113.763C119.128 113.125 119.137 112.485 119.193 111.848C119.275 111.217 119.401 110.592 119.57 109.978C119.896 108.754 120.428 107.593 121.143 106.547C121.829 105.519 122.666 104.599 123.626 103.82C124.564 103.044 125.608 102.407 126.727 101.927L127.139 101.744L127.562 101.596C127.848 101.504 128.134 101.395 128.414 101.315C128.979 101.161 129.552 101.039 130.131 100.949C131.286 100.779 132.458 100.75 133.62 100.864C134.189 100.928 134.752 101.027 135.308 101.161C135.588 101.23 135.88 101.287 136.138 101.367L136.938 101.641C137.204 101.731 137.464 101.838 137.717 101.962C137.968 102.082 138.226 102.184 138.472 102.316C138.959 102.574 139.431 102.86 139.885 103.174C140.778 103.787 141.591 104.509 142.305 105.324C143.663 106.898 144.595 108.794 145.011 110.83C145.106 111.317 145.167 111.81 145.194 112.305C145.194 112.551 145.194 112.791 145.234 113.037C145.232 113.267 145.268 113.495 145.342 113.712C145.416 113.925 145.532 114.121 145.683 114.288C145.834 114.456 146.018 114.59 146.223 114.684C146.424 114.773 146.643 114.813 146.862 114.804C147.082 114.794 147.296 114.733 147.488 114.627C147.87 114.412 148.153 114.058 148.277 113.638C148.367 113.211 148.382 112.772 148.323 112.34C148.289 111.48 148.184 110.626 148.008 109.784C147.658 108.226 147.08 106.729 146.292 105.341L145.72 104.392C145.52 104.083 145.285 103.82 145.074 103.523L144.747 103.099C144.639 102.962 144.513 102.842 144.398 102.716L143.701 101.967C142.062 100.377 140.115 99.1394 137.98 98.3306C137.196 98.0387 136.393 97.8018 135.577 97.6216C134.862 97.5072 134.255 97.3986 133.763 97.3471L132.619 97.2786C132.333 97.2786 132.202 97.2614 132.202 97.2614Z" fill="#1A2E35"/>
<path d="M149.519 155.053C149.468 155.576 149.266 156.074 148.937 156.485C148.609 156.896 148.169 157.203 147.669 157.368C147.17 157.534 146.633 157.551 146.124 157.417C145.615 157.283 145.156 157.005 144.802 156.616C144.448 156.226 144.215 155.743 144.132 155.223C144.048 154.704 144.116 154.172 144.329 153.691C144.542 153.21 144.89 152.801 145.331 152.514C145.772 152.227 146.287 152.074 146.813 152.074C147.566 152.114 148.272 152.449 148.779 153.007C149.286 153.565 149.551 154.3 149.519 155.053Z" fill="#1A2E35"/>
<path d="M245.48 99.64H153.603V103.483H245.48V99.64Z" fill="#E56A20"/>
<path d="M207.15 94.9285H153.603V98.771H207.15V94.9285Z" fill="#E56A20"/>
<path d="M207.15 182.276H153.603V186.119H207.15V182.276Z" fill="#E56A20"/>
<path d="M245.989 86.6545H153.998V92.2582H245.989V86.6545Z" fill="#E1E1E1"/>
<path d="M244.999 138.042H153.008V143.646H244.999V138.042Z" fill="#E1E1E1"/>
<path d="M190.686 110.43H153.998V116.034H190.686V110.43Z" fill="#E1E1E1"/>
<path d="M244.999 110.43H199.13V116.034H244.999V110.43Z" fill="#E1E1E1"/>
<path d="M207.15 97.2156C207.15 97.2785 195.342 97.33 180.783 97.33C166.223 97.33 154.416 97.2785 154.416 97.2156C154.416 97.1527 166.223 97.0956 180.783 97.0956C195.342 97.0956 207.15 97.147 207.15 97.2156Z" fill="#1A2E35"/>
<path d="M245.474 101.624C245.474 101.693 225.068 101.744 199.896 101.744C174.725 101.744 154.318 101.693 154.318 101.624C154.318 101.556 174.725 101.504 199.896 101.504C225.068 101.504 245.474 101.561 245.474 101.624Z" fill="#1A2E35"/>
<path d="M245.474 105.804C245.474 105.867 225.068 105.924 199.896 105.924C174.725 105.924 154.318 105.867 154.318 105.804C154.318 105.741 174.725 105.684 199.896 105.684C225.068 105.684 245.474 105.741 245.474 105.804Z" fill="#1A2E35"/>
<path d="M190.365 119.459C190.365 119.521 182.162 119.573 172.059 119.573C161.956 119.573 153.752 119.521 153.752 119.459C153.752 119.396 161.961 119.339 172.059 119.339C182.156 119.339 190.365 119.39 190.365 119.459Z" fill="#1A2E35"/>
<path d="M190.365 123.764C190.365 123.827 182.293 123.879 172.345 123.879C162.396 123.879 154.318 123.827 154.318 123.764C154.318 123.701 162.385 123.644 172.345 123.644C182.305 123.644 190.365 123.696 190.365 123.764Z" fill="#1A2E35"/>
<path d="M190.211 128.138C190.211 128.207 182.07 128.259 172.03 128.259C161.99 128.259 153.849 128.207 153.849 128.138C153.849 128.07 161.99 128.018 172.03 128.018C182.07 128.018 190.211 128.076 190.211 128.138Z" fill="#1A2E35"/>
<path d="M190.211 132.393C190.211 132.461 182.07 132.513 172.03 132.513C161.99 132.513 153.849 132.461 153.849 132.393C153.849 132.324 161.99 132.273 172.03 132.273C182.07 132.273 190.211 132.324 190.211 132.393Z" fill="#1A2E35"/>
<path d="M244.29 120.465C244.29 120.534 235.789 120.585 225.308 120.585C214.828 120.585 206.321 120.534 206.321 120.465C206.321 120.396 214.822 120.345 225.308 120.345C235.794 120.345 244.29 120.385 244.29 120.465Z" fill="#1A2E35"/>
<path d="M203.409 121.837C203.376 121.576 203.359 121.312 203.357 121.048C203.357 120.568 203.317 119.905 203.312 119.093L203.409 119.196H200.794C200.766 119.196 201.006 118.973 200.909 119.075V120.516C200.909 120.974 200.909 121.403 200.909 121.809L200.812 121.706C201.572 121.706 202.213 121.74 202.677 121.763C202.927 121.765 203.177 121.78 203.426 121.809C203.2 121.849 202.97 121.866 202.74 121.86C202.282 121.86 201.595 121.9 200.812 121.912H200.714V121.809C200.714 121.403 200.714 120.974 200.714 120.516C200.714 120.282 200.714 120.048 200.714 119.807V119.075L200.829 118.955H203.443H203.54V119.058C203.54 119.905 203.506 120.602 203.489 121.083C203.482 121.336 203.455 121.588 203.409 121.837V121.837Z" fill="#1A2E35"/>
<path d="M244.29 125.743C244.29 125.806 235.789 125.857 225.308 125.857C214.828 125.857 206.321 125.806 206.321 125.743C206.321 125.68 214.822 125.623 225.308 125.623C235.794 125.623 244.29 125.674 244.29 125.743Z" fill="#1A2E35"/>
<path d="M203.409 127.115C203.377 126.853 203.359 126.59 203.357 126.326C203.357 125.84 203.317 125.182 203.312 124.37L203.409 124.468H200.794C200.766 124.468 201.006 124.245 200.909 124.353V125.8C200.909 126.257 200.909 126.692 200.909 127.098L200.812 126.995C201.572 126.995 202.213 127.029 202.677 127.046C202.634 126.948 202.631 126.837 202.667 126.737C202.703 126.636 202.776 126.553 202.871 126.504C202.966 126.454 203.077 126.443 203.18 126.472C203.283 126.501 203.371 126.567 203.427 126.659C203.483 126.75 203.502 126.859 203.48 126.964C203.459 127.069 203.399 127.162 203.312 127.224C203.224 127.286 203.117 127.313 203.011 127.299C202.905 127.285 202.808 127.232 202.74 127.149C202.282 127.149 201.595 127.189 200.812 127.201H200.714V127.098C200.714 126.692 200.714 126.257 200.714 125.8C200.714 125.571 200.714 125.331 200.714 125.091V124.388L200.829 124.267H203.443H203.54V124.37C203.54 125.211 203.506 125.914 203.489 126.389C203.479 126.632 203.453 126.875 203.409 127.115V127.115Z" fill="#1A2E35"/>
<path d="M244.29 131.015C244.29 131.078 235.789 131.135 225.308 131.135C214.828 131.135 206.321 131.078 206.321 131.015C206.321 130.952 214.822 130.895 225.308 130.895C235.794 130.895 244.29 130.952 244.29 131.015Z" fill="#1A2E35"/>
<path d="M203.409 132.393C203.376 132.131 203.359 131.867 203.357 131.604C203.357 131.123 203.317 130.46 203.312 129.648L203.409 129.751H200.794C200.766 129.751 201.006 129.522 200.909 129.631V131.072C200.909 131.524 200.909 131.958 200.909 132.364L200.812 132.261C201.572 132.261 202.213 132.296 202.677 132.313C202.927 132.315 203.177 132.332 203.426 132.364C203.199 132.401 202.969 132.418 202.74 132.416C202.282 132.416 201.595 132.456 200.812 132.467H200.714V132.393C200.714 131.987 200.714 131.552 200.714 131.1C200.714 130.866 200.714 130.632 200.714 130.386V129.659L200.829 129.539H203.443H203.54V129.642C203.54 130.489 203.506 131.186 203.489 131.667C203.48 131.91 203.453 132.153 203.409 132.393V132.393Z" fill="#1A2E35"/>
<path d="M244.29 174.626C244.29 174.626 244.29 174.471 244.29 174.174C244.29 173.877 244.29 173.436 244.29 172.865C244.29 171.721 244.29 170.005 244.29 167.775C244.29 163.333 244.29 156.848 244.25 148.655L244.318 148.723L153.746 148.769L153.861 148.655C153.861 157.592 153.861 166.3 153.861 174.626L153.752 174.511L218.443 174.563L237.442 174.597H242.551H243.878H244.33H242.579H237.493L218.517 174.631L153.752 174.683H153.598V174.569C153.598 166.243 153.598 157.535 153.598 148.597V148.477H153.718L244.29 148.523H244.358V148.597C244.358 156.814 244.358 163.31 244.324 167.758C244.324 169.977 244.324 171.675 244.324 172.83C244.324 173.402 244.324 173.837 244.324 174.134C244.324 174.431 244.29 174.626 244.29 174.626Z" fill="#1A2E35"/>
<path d="M244.29 155.19C244.29 155.253 224.067 155.31 199.13 155.31C174.193 155.31 153.964 155.253 153.964 155.19C153.964 155.127 174.181 155.07 199.13 155.07C224.078 155.07 244.29 155.122 244.29 155.19Z" fill="#1A2E35"/>
<path d="M244.29 161.64C244.29 161.703 224.067 161.755 199.13 161.755C174.193 161.755 153.964 161.703 153.964 161.64C153.964 161.577 174.181 161.52 199.13 161.52C224.078 161.52 244.29 161.554 244.29 161.64Z" fill="#1A2E35"/>
<path d="M244.29 168.159C244.29 168.222 224.067 168.279 199.13 168.279C174.193 168.279 153.964 168.222 153.964 168.159C153.964 168.096 174.181 168.039 199.13 168.039C224.078 168.039 244.29 168.096 244.29 168.159Z" fill="#1A2E35"/>
<path d="M164.244 174.854C164.181 174.854 164.13 168.976 164.13 161.703C164.13 154.43 164.181 148.58 164.244 148.58C164.307 148.58 164.353 154.458 164.353 161.703C164.353 168.948 164.301 174.854 164.244 174.854Z" fill="#1A2E35"/>
<path d="M194.873 174.065C194.81 174.065 194.759 168.45 194.759 161.537C194.759 154.624 194.81 149.003 194.873 149.003C194.936 149.003 194.982 154.613 194.982 161.537C194.982 168.462 194.931 174.065 194.873 174.065Z" fill="#1A2E35"/>
<path d="M227.144 175.277C227.082 175.277 227.03 169.491 227.03 162.355C227.03 155.219 227.082 149.427 227.144 149.427C227.207 149.427 227.259 155.213 227.259 162.355C227.259 169.497 227.207 175.277 227.144 175.277Z" fill="#1A2E35"/>
<path d="M242.488 180.424C242.488 180.487 222.711 180.544 198.317 180.544C173.924 180.544 154.141 180.487 154.141 180.424C154.141 180.361 173.918 180.304 198.317 180.304C222.717 180.304 242.488 180.378 242.488 180.424Z" fill="#1A2E35"/>
<path d="M242.488 184.198C242.488 184.266 222.711 184.318 198.317 184.318C173.924 184.318 154.141 184.266 154.141 184.198C154.141 184.129 173.918 184.083 198.317 184.083C222.717 184.083 242.488 184.135 242.488 184.198Z" fill="#1A2E35"/>
<path d="M186.292 187.954C186.292 188.017 179.095 188.074 170.217 188.074C161.338 188.074 154.141 188.017 154.141 187.954C154.141 187.891 161.338 187.834 170.217 187.834C179.095 187.834 186.292 187.886 186.292 187.954Z" fill="#1A2E35"/>
<g opacity="0.3">
<path d="M129.725 174.74H134.879L134.868 170.297H129.725V174.74Z" fill="black"/>
</g>
<path d="M132.202 139.963C123.231 139.963 115.932 147.065 115.932 155.791C115.932 164.516 123.317 171.618 132.287 171.618H134.879L134.839 167.867L132.287 167.97C125.148 167.97 119.244 162.504 119.244 155.791C119.244 149.078 125.056 143.617 132.202 143.617C139.347 143.617 145.154 149.078 145.154 155.791C145.13 156.022 145.155 156.256 145.228 156.477C145.3 156.698 145.418 156.902 145.574 157.075C145.73 157.247 145.921 157.386 146.134 157.48C146.347 157.575 146.577 157.623 146.81 157.623C147.043 157.623 147.273 157.575 147.486 157.48C147.699 157.386 147.889 157.247 148.045 157.075C148.201 156.902 148.319 156.698 148.392 156.477C148.464 156.256 148.49 156.022 148.466 155.791C148.449 147.065 141.172 139.963 132.202 139.963Z" fill="#E1E1E1"/>
<path d="M132.202 139.963H132.585L133.729 140.003C134.227 140.049 134.833 140.146 135.554 140.255C136.373 140.432 137.18 140.663 137.968 140.947C140.139 141.741 142.12 142.977 143.786 144.578L144.49 145.327C144.604 145.453 144.73 145.578 144.845 145.716L145.171 146.139C145.388 146.425 145.628 146.71 145.829 147.014L146.401 147.968C147.212 149.366 147.808 150.877 148.168 152.451C148.35 153.302 148.461 154.167 148.5 155.036C148.564 155.493 148.547 155.957 148.449 156.408C148.309 156.873 147.995 157.266 147.574 157.506C147.357 157.624 147.116 157.692 146.869 157.704C146.622 157.716 146.376 157.671 146.149 157.575C145.92 157.471 145.715 157.321 145.546 157.135C145.377 156.95 145.247 156.731 145.165 156.494C145.083 156.256 145.041 156.007 145.039 155.756C145.039 155.516 145.039 155.276 144.999 155.036C144.972 154.548 144.911 154.063 144.816 153.584C144.406 151.582 143.486 149.721 142.144 148.18C141.443 147.38 140.643 146.671 139.765 146.07C139.318 145.76 138.854 145.478 138.374 145.224C138.128 145.098 137.877 144.995 137.625 144.875C137.377 144.754 137.121 144.651 136.858 144.566L136.075 144.292C135.806 144.212 135.503 144.16 135.262 144.092C133.593 143.693 131.861 143.625 130.165 143.892C129.586 143.974 129.012 144.095 128.449 144.252C128.163 144.332 127.877 144.44 127.614 144.532L127.196 144.675L126.79 144.858C125.692 145.327 124.667 145.951 123.746 146.71C122.802 147.478 121.981 148.384 121.309 149.398C120.612 150.417 120.092 151.546 119.77 152.737C119.602 153.337 119.479 153.949 119.404 154.567C119.347 155.19 119.335 155.817 119.37 156.442C119.43 157.711 119.719 158.959 120.222 160.125C121.426 162.916 123.601 165.176 126.344 166.489C127.657 167.137 129.071 167.557 130.525 167.73C130.882 167.783 131.241 167.813 131.601 167.821C131.957 167.844 132.315 167.844 132.671 167.821L134.81 167.736H134.925V167.85C134.925 169.125 134.925 170.372 134.959 171.607V171.721H134.845C133.884 171.721 132.934 171.721 131.984 171.721L130.566 171.647L129.175 171.441C127.37 171.099 125.632 170.469 124.027 169.577C123.643 169.342 123.249 169.142 122.882 168.885L121.813 168.107L120.834 167.249C120.669 167.113 120.514 166.964 120.371 166.803L119.936 166.335C118.809 165.112 117.881 163.721 117.184 162.212C116.996 161.852 116.887 161.463 116.738 161.097L116.527 160.525L116.372 159.953C116.281 159.57 116.155 159.198 116.086 158.81C116.017 158.421 115.972 158.055 115.909 157.666C115.729 156.211 115.76 154.738 116 153.292C116.104 152.609 116.257 151.934 116.458 151.273C116.55 150.951 116.661 150.634 116.79 150.324C116.916 150.016 117.007 149.695 117.156 149.409C117.418 148.83 117.718 148.269 118.054 147.728C118.214 147.465 118.38 147.202 118.54 146.951C118.701 146.699 118.906 146.47 119.084 146.23C120.381 144.556 121.994 143.153 123.832 142.102C124.032 141.987 124.227 141.867 124.404 141.764L124.976 141.484C125.348 141.3 125.73 141.138 126.12 140.998L127.184 140.626C127.528 140.524 127.86 140.455 128.174 140.375C128.725 140.234 129.285 140.131 129.85 140.066C130.091 140.066 130.32 139.992 130.525 139.98H131.098L131.858 139.952H132.116H131.858L131.098 140.003L130.525 140.032C130.32 140.032 130.102 140.095 129.856 140.129C129.294 140.2 128.738 140.309 128.191 140.455C127.882 140.535 127.551 140.609 127.207 140.712L126.149 141.095C125.758 141.235 125.375 141.399 125.005 141.587L124.433 141.862C124.238 141.965 124.049 142.09 123.861 142.205C122.041 143.258 120.447 144.659 119.17 146.327C118.992 146.562 118.803 146.785 118.632 147.036C118.46 147.288 118.311 147.551 118.151 147.808C117.825 148.347 117.531 148.904 117.27 149.478C117.127 149.764 117.036 150.05 116.91 150.387C116.784 150.693 116.677 151.006 116.59 151.325C116.391 151.98 116.24 152.649 116.138 153.326C115.909 154.756 115.884 156.212 116.063 157.649C116.12 158.021 116.183 158.392 116.241 158.793C116.298 159.193 116.429 159.53 116.527 159.908L116.675 160.479L116.887 161.051C117.036 161.411 117.144 161.795 117.333 162.149C118.022 163.638 118.941 165.01 120.056 166.214L120.491 166.672C120.632 166.832 120.785 166.981 120.949 167.118L121.916 167.964L122.968 168.725C123.323 168.976 123.718 169.176 124.112 169.405C125.691 170.283 127.401 170.902 129.175 171.241L130.548 171.446L131.95 171.515C132.888 171.515 133.844 171.515 134.81 171.515L134.696 171.629C134.696 170.402 134.683 169.152 134.656 167.878L134.776 167.993L132.636 168.079C132.275 168.104 131.911 168.104 131.549 168.079C131.183 168.076 130.818 168.046 130.457 167.987C128.977 167.814 127.537 167.388 126.201 166.729C123.402 165.395 121.184 163.091 119.959 160.245C119.449 159.054 119.157 157.782 119.095 156.488C118.995 155.212 119.133 153.929 119.501 152.703C119.827 151.478 120.359 150.318 121.075 149.272C121.76 148.242 122.597 147.32 123.557 146.539C124.497 145.767 125.541 145.132 126.658 144.652L127.07 144.469L127.493 144.32C127.779 144.229 128.065 144.115 128.346 144.034C130.046 143.572 131.815 143.421 133.569 143.588C134.137 143.651 134.701 143.748 135.257 143.88C135.537 143.949 135.829 144.006 136.086 144.086L136.887 144.366C137.153 144.454 137.413 144.559 137.665 144.681C137.917 144.801 138.174 144.909 138.42 145.035C138.908 145.295 139.38 145.583 139.833 145.899C140.726 146.512 141.539 147.234 142.253 148.048C143.633 149.613 144.585 151.508 145.016 153.549C145.111 154.036 145.172 154.529 145.199 155.024C145.199 155.27 145.199 155.516 145.239 155.762C145.238 155.991 145.275 156.219 145.348 156.437C145.422 156.65 145.539 156.845 145.69 157.012C145.841 157.179 146.025 157.314 146.229 157.409C146.43 157.496 146.649 157.536 146.868 157.526C147.087 157.516 147.301 157.457 147.493 157.352C147.874 157.133 148.157 156.777 148.283 156.357C148.373 155.93 148.388 155.491 148.329 155.059C148.295 154.201 148.19 153.348 148.014 152.508C147.664 150.949 147.086 149.45 146.298 148.06L145.726 147.111C145.525 146.808 145.291 146.539 145.079 146.242L144.753 145.818C144.644 145.687 144.519 145.561 144.404 145.435L143.706 144.692C142.07 143.098 140.122 141.858 137.985 141.05C137.2 140.763 136.398 140.526 135.583 140.341C134.868 140.226 134.261 140.123 133.769 140.072L132.625 140.003L132.202 139.963Z" fill="#1A2E35"/>
<g opacity="0.3">
<path d="M129.725 219.157L126.864 229.255H266.035V219.157H129.725Z" fill="black"/>
</g>
<path d="M138.3 212.702C138.3 212.702 138.506 212.702 138.912 212.702H140.697H147.562L173.048 212.833L258.363 213.348L258.243 213.462V201.78C258.243 165.403 258.243 132.473 258.277 108.634C258.277 96.7181 258.306 87.0719 258.317 80.4048C258.317 77.0769 258.317 74.4923 258.317 72.7312C258.317 71.8563 258.317 71.1873 258.317 70.7356C258.317 70.2839 258.317 70.0552 258.317 70.0552C258.317 70.0552 258.317 70.2839 258.317 70.7356C258.317 71.1873 258.317 71.8792 258.317 72.7312C258.317 74.4923 258.317 77.0769 258.317 80.4048C258.317 87.0719 258.317 96.7181 258.352 108.634C258.352 132.473 258.352 165.403 258.386 201.78V213.588H258.271L173.048 213.016L147.562 212.816L140.697 212.747H138.912L138.3 212.702Z" fill="#1A2E35"/>
<path d="M136.326 210.763H145.588L171.017 210.82L256.201 211.101L256.086 211.215C256.086 207.293 256.086 203.118 256.086 198.904C256.138 162.406 256.183 129.373 256.218 105.455C256.246 93.5045 256.269 83.8298 256.281 77.1398C256.281 73.8005 256.281 71.2044 256.315 69.4433C256.315 68.5627 256.315 67.8937 256.315 67.4363C256.315 66.9788 256.315 66.7559 256.315 66.7559C256.315 66.7559 256.315 66.9903 256.315 67.4363C256.315 67.8823 256.315 68.5799 256.315 69.4433C256.315 71.2044 256.315 73.8005 256.315 77.1398C256.315 83.8298 256.315 93.5045 256.315 105.455C256.315 129.373 256.281 162.406 256.252 198.904C256.252 203.118 256.252 207.293 256.252 211.215V211.335H256.132L170.949 210.981L145.588 210.843L138.723 210.798H136.939L136.326 210.763Z" fill="#1A2E35"/>
<path d="M140.073 214.56H140.68H142.471H149.336L174.782 214.692L259.885 215.201L259.77 215.315C259.77 211.884 259.77 208.219 259.81 204.525C259.959 168.462 260.102 135.818 260.199 112.185C260.262 100.372 260.308 90.8172 260.342 84.2072C260.342 80.9022 260.382 78.3405 260.394 76.5966C260.394 75.7331 260.394 75.0699 260.394 74.6182C260.394 74.1664 260.394 73.9435 260.394 73.9435C260.394 73.9435 260.394 74.1722 260.394 74.6182C260.394 75.0642 260.394 75.7331 260.394 76.5966C260.394 78.312 260.394 80.9022 260.394 84.2072C260.394 90.8172 260.354 100.372 260.319 112.185C260.239 135.818 260.125 168.462 259.999 204.525C259.999 208.219 259.971 211.884 259.959 215.321V215.435H259.839L174.73 214.863L149.29 214.663L142.425 214.594H140.634L140.073 214.56Z" fill="#1A2E35"/>
<path d="M256.338 79.6614H267.516L271.498 84.1328L268.031 89.4563H256.332L256.338 79.6614Z" fill="#375A64"/>
<path d="M36.3207 153.829C35.9222 153.771 35.5626 153.559 35.3196 153.238C35.0766 152.917 34.9697 152.513 35.022 152.114L36.8927 138.9C36.9527 138.568 37.1416 138.274 37.4182 138.081C37.6948 137.888 38.0365 137.812 38.3687 137.871L39.6101 138.048C39.8508 138.09 40.0985 138.065 40.3257 137.975C40.553 137.885 40.7508 137.734 40.8973 137.539L41.2406 137.036C41.3836 136.837 41.5791 136.681 41.8053 136.586C42.0315 136.491 42.2796 136.461 42.522 136.498L48.4145 137.35C48.6363 137.378 48.8473 137.462 49.0276 137.594C49.2078 137.726 49.3513 137.902 49.4442 138.105L49.6673 138.608C49.7626 138.811 49.9074 138.986 50.0884 139.118C50.2693 139.25 50.4807 139.334 50.7028 139.363L58.22 140.398C58.3876 140.414 58.5504 140.462 58.699 140.542C58.8476 140.621 58.9789 140.729 59.0854 140.859C59.1918 140.989 59.2713 141.14 59.3192 141.301C59.367 141.462 59.3823 141.631 59.3641 141.799L57.4248 155.293C57.3666 155.692 57.1539 156.051 56.8328 156.294C56.5117 156.537 56.1078 156.644 55.7085 156.591L36.3207 153.829Z" fill="#375A64"/>
<g opacity="0.3">
<path d="M36.3207 153.829C35.9222 153.771 35.5626 153.559 35.3196 153.238C35.0766 152.917 34.9697 152.513 35.022 152.114L36.8927 138.9C36.9527 138.568 37.1416 138.274 37.4182 138.081C37.6948 137.888 38.0365 137.812 38.3687 137.871L39.6101 138.048C39.8508 138.09 40.0985 138.065 40.3257 137.975C40.553 137.885 40.7508 137.734 40.8973 137.539L41.2406 137.036C41.3836 136.837 41.5791 136.681 41.8053 136.586C42.0315 136.491 42.2796 136.461 42.522 136.498L48.4145 137.35C48.6363 137.378 48.8473 137.462 49.0276 137.594C49.2078 137.726 49.3513 137.902 49.4442 138.105L49.6673 138.608C49.7626 138.811 49.9074 138.986 50.0884 139.118C50.2693 139.25 50.4807 139.334 50.7028 139.363L58.22 140.398C58.3876 140.414 58.5504 140.462 58.699 140.542C58.8476 140.621 58.9789 140.729 59.0854 140.859C59.1918 140.989 59.2713 141.14 59.3192 141.301C59.367 141.462 59.3823 141.631 59.3641 141.799L57.4248 155.293C57.3666 155.692 57.1539 156.051 56.8328 156.294C56.5117 156.537 56.1078 156.644 55.7085 156.591L36.3207 153.829Z" fill="black"/>
</g>
<path d="M49.9648 139.254L45.1879 138.562L44.879 137.699C44.7713 137.419 44.59 137.174 44.3544 136.989C44.1188 136.804 43.8375 136.685 43.5403 136.647L38.8664 135.972C38.6752 135.937 38.479 135.941 38.2891 135.982C38.0992 136.024 37.9194 136.102 37.7599 136.213C37.6005 136.324 37.4645 136.466 37.3599 136.629C37.2552 136.793 37.184 136.976 37.1501 137.167L37.0701 137.71L35.0106 152.04C34.9859 152.258 35.0045 152.479 35.0654 152.69C35.1263 152.901 35.2282 153.098 35.3653 153.269C35.5024 153.441 35.672 153.583 35.8644 153.689C36.0568 153.795 36.2682 153.862 36.4865 153.887L55.4625 156.608C55.8994 156.685 56.3488 156.585 56.7123 156.331C57.0758 156.077 57.3237 155.689 57.4019 155.253L59.3469 141.724C59.368 141.581 59.3603 141.434 59.3245 141.293C59.2887 141.152 59.2254 141.02 59.1382 140.903C59.051 140.787 58.9417 140.689 58.8165 140.615C58.6913 140.541 58.5527 140.492 58.4087 140.472L49.9648 139.254Z" fill="#375A64"/>
<path d="M56.7598 145.28L45.4666 143.684L44.7946 148.434L56.0878 150.03L56.7598 145.28Z" fill="white"/>
<path d="M51.767 146.962C51.767 147.008 50.0164 146.791 47.8768 146.482C45.7372 146.173 44.0038 145.91 44.0095 145.847C44.0153 145.784 45.7258 146.024 47.8997 146.327C50.0736 146.631 51.767 146.922 51.767 146.962Z" fill="#1A2E35"/>
<path d="M51.6067 147.974C51.6067 148.014 49.8904 147.803 47.7165 147.494C45.5426 147.185 43.8435 146.922 43.8493 146.859C43.855 146.796 45.5998 147.031 47.7394 147.339C49.879 147.648 51.6124 147.934 51.6067 147.974Z" fill="#1A2E35"/>
<path d="M60.5256 136.258C60.2601 136.296 59.9906 136.226 59.7761 136.066C59.5616 135.905 59.4197 135.665 59.3814 135.4L58.1343 126.732C58.1215 126.623 58.1306 126.512 58.1608 126.406C58.191 126.3 58.2419 126.201 58.3105 126.115C58.3791 126.029 58.464 125.957 58.5604 125.904C58.6568 125.851 58.7628 125.818 58.8722 125.805L59.6846 125.691C59.844 125.67 59.9945 125.606 60.1196 125.505C60.2448 125.404 60.3397 125.271 60.394 125.119L60.5198 124.742C60.572 124.591 60.6656 124.457 60.7899 124.356C60.9143 124.255 61.0645 124.19 61.2235 124.17L65.0965 123.598C65.2424 123.576 65.3915 123.591 65.5304 123.641C65.6692 123.69 65.7934 123.774 65.8917 123.884L66.1263 124.159C66.2223 124.27 66.3454 124.355 66.4836 124.405C66.6219 124.455 66.7707 124.469 66.9157 124.445L71.8528 123.736C72.0672 123.697 72.2883 123.743 72.4689 123.865C72.6495 123.987 72.7754 124.174 72.8196 124.387L74.0782 133.279C74.0976 133.41 74.091 133.544 74.0586 133.672C74.0263 133.801 73.9688 133.921 73.8896 134.028C73.8104 134.134 73.711 134.224 73.5971 134.291C73.4832 134.359 73.357 134.404 73.2258 134.422L60.5256 136.258Z" fill="#FF735D"/>
<g opacity="0.3">
<path d="M60.5256 136.258C60.2601 136.296 59.9906 136.226 59.7761 136.066C59.5616 135.905 59.4197 135.665 59.3814 135.4L58.1343 126.732C58.1215 126.623 58.1306 126.512 58.1608 126.406C58.191 126.3 58.2419 126.201 58.3105 126.115C58.3791 126.029 58.464 125.957 58.5604 125.904C58.6568 125.851 58.7628 125.818 58.8722 125.805L59.6846 125.691C59.844 125.67 59.9945 125.606 60.1196 125.505C60.2448 125.404 60.3397 125.271 60.394 125.119L60.5198 124.742C60.572 124.591 60.6656 124.457 60.7899 124.356C60.9143 124.255 61.0645 124.19 61.2235 124.17L65.0965 123.598C65.2424 123.576 65.3915 123.591 65.5304 123.641C65.6692 123.69 65.7934 123.774 65.8917 123.884L66.1263 124.159C66.2223 124.27 66.3454 124.355 66.4836 124.405C66.6219 124.455 66.7707 124.469 66.9157 124.445L71.8528 123.736C72.0672 123.697 72.2883 123.743 72.4689 123.865C72.6495 123.987 72.7754 124.174 72.8196 124.387L74.0782 133.279C74.0976 133.41 74.091 133.544 74.0586 133.672C74.0263 133.801 73.9688 133.921 73.8896 134.028C73.8104 134.134 73.711 134.224 73.5971 134.291C73.4832 134.359 73.357 134.404 73.2258 134.422L60.5256 136.258Z" fill="black"/>
</g>
<path d="M66.4294 124.519L63.2886 124.965L62.9282 124.479C62.8095 124.322 62.6505 124.201 62.4682 124.127C62.2859 124.054 62.087 124.031 61.8927 124.062L58.8207 124.502C58.5653 124.531 58.3317 124.659 58.1709 124.86C58.0102 125.06 57.9352 125.316 57.9625 125.571L58.014 125.931L59.3756 135.349C59.4286 135.635 59.5921 135.889 59.8307 136.056C60.0694 136.223 60.3641 136.289 60.6513 136.241L73.1227 134.44C73.412 134.407 73.6765 134.261 73.8586 134.034C74.0408 133.807 74.1258 133.517 74.0953 133.227L72.8081 124.33C72.7954 124.236 72.7642 124.145 72.7161 124.063C72.668 123.98 72.6041 123.908 72.528 123.851C72.4519 123.793 72.3652 123.752 72.2729 123.728C72.1805 123.704 72.0844 123.699 71.99 123.713L66.4294 124.519Z" fill="#F94553"/>
<path d="M66.4365 127.97L59.0115 129.019L59.4528 132.139L66.8778 131.089L66.4365 127.97Z" fill="white"/>
<path d="M68.9923 129.065C68.9923 129.065 67.8481 129.276 66.4522 129.482C65.0563 129.688 63.895 129.825 63.895 129.797C63.895 129.768 65.0392 129.585 66.4351 129.379C67.8309 129.173 68.9866 129.036 68.9923 129.065Z" fill="#1A2E35"/>
<path d="M69.0896 129.728C69.0896 129.728 67.9454 129.94 66.5438 130.146C65.1422 130.351 63.9923 130.489 63.9866 130.466C63.9809 130.443 65.1308 130.248 66.5324 130.043C67.934 129.837 69.0838 129.7 69.0896 129.728Z" fill="#1A2E35"/>
<path d="M182.453 63.2052L185.428 63.5825C186.323 65.1059 187.627 66.3479 189.192 67.1677C191.1 68.1714 193.291 68.5003 195.408 68.1006C197.526 67.701 199.447 66.5966 200.856 64.9671C202.266 63.3376 203.082 61.279 203.172 59.1267C203.262 56.9743 202.621 54.8548 201.352 53.1134C200.083 51.3721 198.261 50.1115 196.184 49.5368C194.107 48.962 191.896 49.107 189.912 49.9483C187.928 50.7895 186.287 52.2774 185.257 54.1696C184.227 56.0618 183.868 58.2469 184.238 60.3691V60.3691L182.453 63.2052Z" fill="white"/>
<path d="M184.215 60.3804H184.255C184.25 60.3846 184.243 60.3868 184.235 60.3868C184.228 60.3868 184.221 60.3846 184.215 60.3804Z" fill="#1A2E35"/>
<path d="M191.023 57.0067H192.328C192.327 56.8576 192.356 56.71 192.414 56.5724C192.471 56.4349 192.556 56.3103 192.663 56.2062C192.769 56.1022 192.896 56.0207 193.035 55.9667C193.174 55.9127 193.323 55.8871 193.472 55.8917C193.691 55.8844 193.906 55.9454 194.089 56.0664C194.271 56.1873 194.412 56.3621 194.49 56.5664C194.561 56.7362 194.589 56.9206 194.573 57.1037C194.557 57.2869 194.497 57.4635 194.399 57.6186C194.227 57.8662 193.981 58.0524 193.695 58.1502C193.41 58.2479 193.101 58.252 192.814 58.1618V61.0952H194.101V59.3798C194.636 59.2293 195.106 58.9058 195.437 58.4598C195.768 58.0138 195.942 57.4706 195.932 56.9153C195.933 56.5991 195.87 56.286 195.747 55.9948C195.623 55.7035 195.442 55.4402 195.215 55.2207C194.987 55.0011 194.717 54.8298 194.422 54.7171C194.126 54.6045 193.811 54.5528 193.495 54.5651C193.164 54.5286 192.829 54.5665 192.514 54.6758C192.2 54.7852 191.914 54.9634 191.677 55.1974C191.44 55.4313 191.258 55.7152 191.145 56.0283C191.032 56.3413 190.991 56.6755 191.023 57.0067V57.0067Z" fill="#1A2E35"/>
<path d="M194.118 61.7012H192.808V62.9191H194.118V61.7012Z" fill="#1A2E35"/>
<path d="M75.5141 113.037L72.1731 113.003C70.5047 114.695 68.3219 115.785 65.9668 116.104C63.6118 116.422 61.2174 115.951 59.159 114.764C57.1006 113.577 55.4944 111.74 54.5922 109.543C53.6899 107.345 53.5425 104.911 54.1731 102.62C54.8037 100.33 56.1766 98.3138 58.0768 96.8871C59.9769 95.4604 62.2969 94.7041 64.6733 94.7366C67.0496 94.7691 69.348 95.5887 71.2084 97.0669C73.0687 98.5451 74.3859 100.598 74.9535 102.905C75.5263 105.213 75.3108 107.646 74.3413 109.818V109.818L75.5141 113.037Z" fill="white"/>
<path d="M75.514 113.037L75.4282 112.82C75.371 112.671 75.2909 112.465 75.1937 112.202C74.982 111.631 74.6845 110.859 74.2955 109.83H74.3813C74.3726 109.836 74.3619 109.84 74.3509 109.84C74.3399 109.84 74.3291 109.837 74.3201 109.83C74.3112 109.824 74.3045 109.815 74.3011 109.805C74.2977 109.794 74.2977 109.783 74.3012 109.772C75.0046 108.153 75.2992 106.386 75.1593 104.626C75.0686 103.488 74.7903 102.374 74.3355 101.327C73.8326 100.135 73.1151 99.0461 72.2188 98.1134C71.2311 97.0878 70.0486 96.2694 68.7406 95.7061C67.324 95.1021 65.7952 94.8058 64.2555 94.837C62.5849 94.8822 60.9484 95.3199 59.4785 96.1146C58.0086 96.9093 56.7465 98.0387 55.7944 99.4114C55.6685 99.5944 55.5426 99.7716 55.4282 99.9832L55.1193 100.555L54.9648 100.835L54.839 101.132L54.5873 101.704C54.3028 102.503 54.1109 103.332 54.0152 104.174C53.8242 105.805 54.0081 107.458 54.5529 109.006C55.0752 110.461 55.9089 111.784 56.9957 112.883C57.9856 113.886 59.1645 114.684 60.4643 115.23C61.7641 115.776 63.1592 116.059 64.5691 116.063C65.979 116.067 67.3758 115.793 68.6789 115.255C69.9821 114.717 71.1657 113.926 72.1616 112.929C72.168 112.926 72.1748 112.925 72.1817 112.925C72.1885 112.925 72.1953 112.926 72.2017 112.929L74.6731 112.986H75.3195H75.5426C75.4742 112.993 75.4052 112.993 75.3367 112.986H72.1731H72.2074C70.9605 114.27 69.4102 115.22 67.6994 115.748C65.0368 116.561 62.1632 116.323 59.6714 115.081C57.1795 113.84 55.2594 111.69 54.3069 109.075C53.7418 107.493 53.5462 105.803 53.7349 104.134C53.8384 103.273 54.0419 102.427 54.3413 101.613L54.5987 101.007L54.7303 100.698L54.8847 100.406L55.2051 99.8345C55.3195 99.6458 55.4511 99.4628 55.5712 99.2627C56.672 97.66 58.1845 96.3833 59.9498 95.567C61.715 94.7506 63.6676 94.4249 65.6024 94.6238C67.5372 94.8228 69.3826 95.5391 70.9445 96.6976C72.5065 97.856 73.7273 99.4136 74.4786 101.207C74.9318 102.275 75.2062 103.411 75.2909 104.569C75.4228 106.357 75.1062 108.149 74.3699 109.784L74.2841 109.727C74.2944 109.718 74.3076 109.713 74.3212 109.713C74.3349 109.713 74.3481 109.718 74.3584 109.727V109.727C74.7246 110.779 75.0106 111.591 75.2051 112.157C75.2966 112.414 75.3653 112.62 75.4168 112.769C75.4568 112.855 75.4894 112.945 75.514 113.037V113.037Z" fill="#1A2E35"/>
<path d="M63.9751 107.805C63.1396 107.806 62.3315 107.507 61.6976 106.963C61.0638 106.419 60.6464 105.666 60.5212 104.84C60.396 104.014 60.5714 103.171 61.0155 102.464C61.4596 101.756 62.1428 101.232 62.9412 100.985C63.7395 100.738 64.5998 100.786 65.3657 101.12C66.1317 101.454 66.7525 102.051 67.1152 102.803C67.478 103.555 67.5586 104.413 67.3424 105.22C67.1263 106.026 66.6277 106.729 65.9374 107.199C65.3589 107.593 64.6752 107.805 63.9751 107.805V107.805ZM63.9751 101.744C63.571 101.744 63.1725 101.839 62.8117 102.021C62.451 102.204 62.1381 102.468 61.8983 102.793C61.6585 103.118 61.4985 103.495 61.4312 103.894C61.3639 104.292 61.3911 104.701 61.5107 105.086C61.6304 105.472 61.839 105.825 62.1199 106.115C62.4007 106.406 62.7459 106.626 63.1277 106.759C63.5094 106.891 63.917 106.933 64.3176 106.879C64.7182 106.826 65.1006 106.679 65.434 106.45C65.8884 106.139 66.2312 105.69 66.4121 105.17C66.5931 104.65 66.6028 104.086 66.4397 103.56C66.2767 103.034 65.9495 102.574 65.506 102.247C65.0625 101.921 64.5261 101.744 63.9751 101.744V101.744Z" fill="#1A2E35"/>
<path d="M67.688 110.224C67.6133 110.225 67.5396 110.207 67.4737 110.172C67.4077 110.137 67.3516 110.086 67.3104 110.024L65.3024 107.091C65.2646 107.041 65.2373 106.985 65.2221 106.924C65.2069 106.864 65.2042 106.801 65.2141 106.74C65.224 106.679 65.2463 106.62 65.2796 106.567C65.313 106.515 65.3567 106.47 65.4081 106.435C65.4595 106.4 65.5175 106.376 65.5785 106.364C65.6396 106.352 65.7024 106.352 65.7632 106.366C65.824 106.379 65.8814 106.404 65.932 106.44C65.9827 106.477 66.0254 106.523 66.0575 106.576L68.0598 109.509C68.1285 109.609 68.155 109.731 68.1336 109.85C68.1121 109.969 68.0445 110.075 67.9454 110.144C67.8701 110.197 67.78 110.225 67.688 110.224V110.224Z" fill="#1A2E35"/>
<path d="M100.394 115.885L94.4843 120.259C95.0907 122.02 95.699 123.783 96.3092 125.548C97.6339 124.317 98.6827 122.819 99.3868 121.154C100.091 119.488 100.434 117.692 100.394 115.885Z" fill="#1A2E35"/>
<path d="M86.664 105.364C88.2761 104.558 90.118 104.335 91.8757 104.735C93.6193 105.143 95.2848 105.833 96.807 106.776C97.6992 107.237 98.4984 107.859 99.164 108.611C100.308 110.047 101.452 112.397 101.538 114.221C101.624 115.696 101.058 119.367 100.434 120.734C99.8619 121.963 97.1789 122.901 95.8574 123.204L83.7178 109.092C83.9365 108.306 84.3097 107.572 84.8156 106.931C85.3214 106.291 85.9498 105.758 86.664 105.364V105.364Z" fill="#1A2E35"/>
<path d="M84.5529 107.268L87.4591 106.747C85.8687 110.538 85.4397 119.196 84.53 123.204C83.4545 121.649 80.966 116.914 81.0976 115.021C81.2291 113.129 81.0918 106.948 84.5529 107.268Z" fill="#1A2E35"/>
<path d="M98.3515 113.575C98.2989 112.513 97.9072 111.496 97.2339 110.672C96.5605 109.849 95.641 109.263 94.6101 109L87.9053 107.285C85.0106 106.971 83.0769 110.533 82.8881 113.438C82.6765 116.668 82.5449 120.07 82.9225 122.483C83.6833 127.327 87.3961 127.956 87.3961 127.956C87.3961 127.956 87.3961 130.243 87.3961 131.672L89.6387 140.952L97.1158 132.89L98.363 113.626C98.3687 113.552 98.3572 113.683 98.3515 113.575Z" fill="#FFBF9D"/>
<path d="M84.3414 117.103C84.3394 117.261 84.3973 117.413 84.5035 117.53C84.6096 117.647 84.7561 117.719 84.9134 117.732C84.9941 117.742 85.076 117.734 85.1535 117.71C85.231 117.685 85.3025 117.645 85.3631 117.591C85.4237 117.537 85.4721 117.47 85.5051 117.396C85.538 117.322 85.5548 117.241 85.5542 117.16C85.5548 117.003 85.4964 116.851 85.3905 116.734C85.2846 116.618 85.1389 116.545 84.9821 116.531C84.9024 116.526 84.8226 116.537 84.7473 116.564C84.6719 116.59 84.6025 116.631 84.543 116.684C84.4834 116.737 84.435 116.801 84.4004 116.873C84.3658 116.945 84.3457 117.023 84.3414 117.103V117.103Z" fill="#1A2E35"/>
<path d="M83.6148 115.342C83.6892 115.422 84.1869 115.073 84.8333 115.079C85.4798 115.084 85.9775 115.416 86.0633 115.336C86.1491 115.256 86.0233 115.153 85.8059 114.999C85.5173 114.797 85.1738 114.689 84.8219 114.69C84.4743 114.689 84.1356 114.799 83.8551 115.004C83.6491 115.159 83.5747 115.307 83.6148 115.342Z" fill="#1A2E35"/>
<path d="M90.1765 117.103C90.1718 117.261 90.2287 117.415 90.3355 117.533C90.4422 117.65 90.5903 117.722 90.7486 117.732C90.8293 117.742 90.9112 117.734 90.9887 117.71C91.0662 117.685 91.1377 117.645 91.1983 117.591C91.2589 117.537 91.3073 117.47 91.3403 117.396C91.3732 117.322 91.39 117.241 91.3894 117.16C91.3914 117.002 91.3334 116.85 91.2272 116.733C91.1211 116.616 90.9746 116.544 90.8173 116.531C90.7366 116.521 90.6548 116.529 90.5772 116.553C90.4997 116.577 90.4282 116.618 90.3676 116.672C90.307 116.726 90.2586 116.793 90.2256 116.867C90.1927 116.941 90.176 117.022 90.1765 117.103Z" fill="#1A2E35"/>
<path d="M89.9648 115.342C90.0449 115.422 90.5369 115.073 91.1834 115.079C91.8298 115.084 92.3276 115.416 92.4134 115.336C92.4992 115.256 92.3733 115.153 92.1616 114.999C91.8715 114.796 91.5258 114.688 91.1719 114.69C90.8245 114.69 90.486 114.8 90.2051 115.004C89.9992 115.159 89.9305 115.307 89.9648 115.342Z" fill="#1A2E35"/>
<path d="M87.8767 120.591C87.5233 120.484 87.1585 120.419 86.7898 120.396C86.6182 120.396 86.458 120.339 86.4294 120.225C86.416 120.049 86.4559 119.874 86.5438 119.722C86.704 119.304 86.8756 118.875 87.0529 118.418C87.5282 117.32 87.9109 116.183 88.1971 115.021C87.6417 116.082 87.1712 117.186 86.7898 118.321C86.6182 118.778 86.4523 119.213 86.2978 119.63C86.1921 119.836 86.1618 120.073 86.212 120.299C86.2368 120.359 86.275 120.412 86.3236 120.455C86.3722 120.497 86.4299 120.528 86.4923 120.545C86.5854 120.572 86.6815 120.587 86.7783 120.591C87.143 120.637 87.5121 120.637 87.8767 120.591V120.591Z" fill="#1A2E35"/>
<path d="M93.8264 126.234C93.8264 126.234 92.2475 129.562 87.3962 129.093V127.95C89.657 127.982 91.8825 127.388 93.8264 126.234V126.234Z" fill="#FF9A6C"/>
<path d="M90.1766 112.952C90.2452 113.129 90.9088 113.049 91.6926 113.14C92.4763 113.232 93.1114 113.455 93.2201 113.289C93.2658 113.215 93.1571 113.043 92.8997 112.866C92.5592 112.648 92.1733 112.511 91.7717 112.466C91.3701 112.42 90.9634 112.467 90.5828 112.603C90.2967 112.7 90.148 112.837 90.1766 112.952Z" fill="#1A2E35"/>
<path d="M83.8321 113.295C83.9522 113.449 84.4042 113.295 84.9762 113.295C85.5483 113.295 86.0003 113.397 86.1204 113.237C86.1662 113.163 86.0918 113.009 85.8916 112.866C85.6177 112.689 85.2961 112.601 84.9705 112.614C84.6449 112.618 84.3288 112.724 84.0666 112.917C83.8435 113.066 83.8035 113.22 83.8321 113.295Z" fill="#1A2E35"/>
<path d="M84.204 109.018C84.3755 108.661 84.6429 108.358 84.9762 108.144C85.3095 107.93 85.6958 107.813 86.0919 107.805C86.8847 107.803 87.6613 108.03 88.3287 108.457C91.1891 110.127 92.6994 114.175 95.5484 115.891C96.2521 116.314 97.1674 115.925 97.7623 116.462C98.0792 116.723 98.3107 117.073 98.427 117.466C98.5432 117.859 98.5389 118.279 98.4145 118.67C98.8229 118.163 99.1563 117.601 99.4042 117C99.5269 116.697 99.5833 116.371 99.5694 116.045C99.5556 115.718 99.472 115.399 99.3241 115.107C99.0781 114.684 98.6434 114.358 98.5232 113.878C98.4938 113.445 98.5073 113.01 98.5633 112.58C98.5154 112.139 98.3645 111.716 98.1228 111.345C97.0477 109.332 95.4461 107.648 93.4889 106.473C92.1966 105.727 90.7249 105.347 89.2326 105.375C87.7355 105.41 86.3004 105.98 85.188 106.982C84.5472 107.554 83.8779 108.189 84.2097 108.995" fill="#1A2E35"/>
<path d="M97.688 117.086C97.7395 116.943 100.268 116.033 100.297 118.721C100.325 121.408 97.6994 120.814 97.6937 120.739C97.688 120.665 97.688 117.086 97.688 117.086Z" fill="#FFBF9D"/>
<path d="M98.4889 119.744C98.4889 119.744 98.5347 119.745 98.6091 119.807C98.7193 119.851 98.8421 119.851 98.9523 119.807C99.1178 119.697 99.2518 119.546 99.3411 119.369C99.4303 119.191 99.4718 118.994 99.4615 118.795C99.4672 118.571 99.4222 118.348 99.3299 118.144C99.3048 118.062 99.2597 117.988 99.1988 117.928C99.1379 117.868 99.063 117.824 98.9809 117.8C98.9292 117.786 98.8742 117.791 98.8259 117.814C98.7776 117.837 98.7392 117.877 98.7178 117.926C98.6834 118.001 98.7177 118.052 98.6834 118.058C98.6491 118.063 98.6262 118.012 98.6491 117.903C98.6638 117.838 98.7001 117.78 98.7521 117.738C98.8229 117.686 98.9104 117.661 98.9981 117.669C99.1061 117.688 99.2073 117.735 99.2916 117.805C99.3759 117.875 99.4404 117.966 99.4786 118.069C99.5937 118.294 99.6508 118.543 99.6445 118.795C99.6669 119.03 99.6163 119.266 99.4996 119.47C99.3828 119.675 99.2057 119.839 98.9924 119.939C98.9226 119.961 98.8486 119.967 98.7762 119.957C98.7037 119.946 98.6348 119.918 98.5747 119.876C98.4946 119.813 98.4775 119.75 98.4889 119.744Z" fill="#FF9A6C"/>
<path d="M98.7234 115.742L98.5689 115.656C98.4659 115.593 98.3115 115.508 98.1284 115.376C97.6146 115.001 97.1428 114.571 96.7211 114.095C96.1077 113.381 95.5347 112.632 95.0048 111.854C94.3658 110.902 93.6462 110.006 92.8538 109.178C92.4298 108.763 91.964 108.393 91.4636 108.074C90.9912 107.788 90.486 107.56 89.9591 107.394C89.0675 107.108 88.13 106.994 87.1959 107.056C86.565 107.095 85.9418 107.216 85.3424 107.417C85.1307 107.485 84.9705 107.554 84.8618 107.599C84.8062 107.623 84.7488 107.642 84.6902 107.657L84.8504 107.577C85.0036 107.499 85.1623 107.432 85.3252 107.377C85.9246 107.154 86.5525 107.017 87.1902 106.971C88.1364 106.899 89.0877 107.008 89.9934 107.291C90.5284 107.457 91.0413 107.687 91.5208 107.977C92.033 108.293 92.5071 108.667 92.9339 109.092C93.7322 109.927 94.4558 110.83 95.0964 111.791C95.6285 112.57 96.2014 113.32 96.8126 114.038C97.2262 114.517 97.6861 114.953 98.1856 115.342C98.363 115.473 98.5117 115.565 98.609 115.633C98.7062 115.702 98.7291 115.736 98.7234 115.742Z" fill="#375A64"/>
<path d="M98.7864 120.202C98.9117 120.188 99.038 120.218 99.1428 120.288C99.2476 120.359 99.324 120.464 99.3584 120.585C99.3864 120.711 99.3663 120.842 99.302 120.954C99.2376 121.065 99.1338 121.149 99.0109 121.187C98.8881 121.226 98.7551 121.218 98.6384 121.163C98.5216 121.109 98.4295 121.013 98.3802 120.894C98.3372 120.772 98.3402 120.638 98.3886 120.518C98.4371 120.398 98.5276 120.3 98.6433 120.242" fill="white"/>
<path d="M98.6777 120.242C98.5679 120.336 98.4866 120.459 98.4431 120.597C98.4257 120.667 98.426 120.742 98.444 120.812C98.4619 120.883 98.497 120.948 98.5461 121.003C98.6069 121.068 98.6841 121.115 98.7697 121.14C98.8552 121.166 98.9459 121.167 99.0324 121.145C99.1164 121.113 99.1904 121.059 99.2467 120.989C99.3029 120.918 99.3395 120.834 99.3527 120.745C99.3613 120.673 99.3516 120.599 99.3247 120.531C99.2977 120.463 99.2543 120.403 99.1983 120.356C99.0846 120.267 98.9474 120.214 98.8035 120.202C98.8035 120.202 98.8436 120.202 98.9237 120.202C99.0416 120.206 99.1555 120.245 99.2498 120.316C99.3231 120.37 99.3812 120.442 99.4183 120.526C99.4554 120.609 99.4703 120.7 99.4614 120.791C99.4515 120.902 99.4095 121.007 99.3404 121.095C99.2713 121.182 99.1781 121.247 99.0724 121.283C98.9651 121.316 98.8504 121.317 98.7425 121.285C98.6347 121.254 98.5385 121.191 98.466 121.105C98.4063 121.038 98.3653 120.956 98.3472 120.868C98.3292 120.779 98.3346 120.688 98.363 120.602C98.3953 120.487 98.4659 120.386 98.5633 120.316C98.6148 120.242 98.6777 120.236 98.6777 120.242Z" fill="#1A2E35"/>
<path d="M98.0655 116.479C98.1712 117.189 98.0843 117.914 97.8138 118.578C97.6659 118.903 97.3982 119.158 97.0667 119.29C96.7352 119.422 96.3655 119.421 96.0346 119.287C95.8058 119.107 95.6202 118.878 95.4915 118.617C95.3628 118.355 95.2943 118.069 95.2909 117.777C95.0392 116.113 94.9305 114.432 94.6674 112.774L98.0655 116.479Z" fill="#1A2E35"/>
<path d="M84.8447 107.805C84.8447 107.805 85.0793 107.765 85.4969 107.748C86.084 107.741 86.6669 107.848 87.2131 108.063C87.5918 108.217 87.954 108.408 88.2944 108.634C88.6831 108.896 89.0557 109.18 89.4099 109.486C90.2317 110.18 90.9656 110.971 91.5953 111.842C91.9271 112.305 92.2246 112.786 92.5392 113.226C92.841 113.658 93.1923 114.053 93.5861 114.404C94.2637 114.978 95.0045 115.473 95.7944 115.879C96.4637 116.234 97.0186 116.451 97.4019 116.651L97.8539 116.84C97.9034 116.868 97.9577 116.888 98.0141 116.897C97.9679 116.864 97.918 116.837 97.8653 116.817L97.4305 116.599C97.053 116.411 96.498 116.153 95.8401 115.788C95.0665 115.373 94.3413 114.875 93.6777 114.301C93.2929 113.963 92.951 113.579 92.6594 113.157C92.3447 112.717 92.053 112.237 91.7154 111.768C91.0772 110.888 90.3315 110.09 89.4958 109.395C89.132 109.088 88.7499 108.803 88.3516 108.543C88.0011 108.313 87.6271 108.122 87.236 107.971C86.6732 107.754 86.0707 107.658 85.4683 107.691C85.3068 107.704 85.1463 107.726 84.9877 107.759L84.8447 107.805Z" fill="#375A64"/>
<path d="M98.1399 114.867C98.1399 114.867 98.22 114.93 98.3687 115.027L99.0323 115.41L99.2555 115.542C99.3419 115.595 99.4401 115.626 99.5415 115.633C99.6035 115.641 99.6664 115.627 99.7188 115.593C99.7468 115.574 99.7701 115.548 99.7869 115.518C99.8037 115.489 99.8137 115.456 99.8161 115.422C99.8104 115.301 99.7663 115.184 99.6902 115.09L98.9236 113.861L98.8207 113.958C99.0744 114.145 99.359 114.286 99.6616 114.375C99.9631 114.469 100.279 114.508 100.594 114.49C100.673 114.484 100.752 114.471 100.829 114.45C100.874 114.436 100.915 114.414 100.951 114.383C100.986 114.353 101.015 114.315 101.035 114.272C101.049 114.228 101.053 114.181 101.045 114.135C101.037 114.089 101.018 114.046 100.989 114.009C100.945 113.949 100.895 113.894 100.84 113.844C100.495 113.504 100.196 113.119 99.9534 112.7C99.733 112.315 99.5418 111.913 99.3813 111.499C99.3895 111.619 99.4166 111.737 99.4614 111.848C99.7168 112.63 100.156 113.34 100.743 113.918C100.84 114.009 100.932 114.118 100.897 114.198C100.863 114.278 100.72 114.318 100.583 114.324C100.283 114.336 99.9837 114.299 99.696 114.215C99.4101 114.13 99.1411 113.997 98.9008 113.821L98.5861 113.592L98.7978 113.918L99.5815 115.136C99.6406 115.208 99.6783 115.295 99.6902 115.387C99.6889 115.405 99.6839 115.422 99.6755 115.438C99.6671 115.453 99.6555 115.467 99.6415 115.478C99.6274 115.489 99.6113 115.496 99.594 115.5C99.5768 115.505 99.5589 115.505 99.5415 115.502C99.3743 115.467 99.2152 115.401 99.0724 115.307L98.3916 114.959C98.3106 114.921 98.2263 114.89 98.1399 114.867V114.867Z" fill="#375A64"/>
<path d="M90.4225 121.826C90.3734 121.627 90.256 121.452 90.0908 121.331C89.9256 121.209 89.7232 121.15 89.5186 121.163C89.3698 121.182 89.228 121.238 89.1054 121.325C88.9829 121.411 88.8832 121.526 88.815 121.66C88.7511 121.796 88.7147 121.943 88.7079 122.093C88.701 122.244 88.7238 122.394 88.7749 122.535V122.598C88.9156 122.754 89.1026 122.861 89.3085 122.903C89.5144 122.945 89.7284 122.92 89.9191 122.832C90.1019 122.743 90.2502 122.596 90.3412 122.414C90.4322 122.232 90.4608 122.026 90.4225 121.826V121.826Z" fill="#FF9A6C"/>
<path d="M88.3058 122.609C88.3058 122.506 88.9809 122.541 89.49 121.986C89.9992 121.431 89.9591 120.711 90.0621 120.711C90.1651 120.711 90.1822 120.877 90.1765 121.18C90.1629 121.576 90.0088 121.955 89.7417 122.249C89.4865 122.531 89.1317 122.703 88.752 122.729C88.466 122.741 88.3001 122.672 88.3058 122.609Z" fill="#1A2E35"/>
<path d="M77.9968 174.426C78.6033 171.286 80.5541 160.702 80.5541 158.57C80.3852 157.956 80.1671 157.358 79.9019 156.78C79.3298 154.87 77.3504 147.843 77.7966 144.143C78.1513 141.181 80.657 137.396 81.4122 135.372C81.7612 134.417 84.5758 133.439 85.514 133.044L87.5106 130.231C87.5106 130.231 87.0758 131.541 88.8378 132.713C89.7919 133.331 90.9179 133.629 92.0529 133.565C93.1784 133.514 94.2813 133.231 95.2924 132.734C96.3035 132.238 97.2008 131.537 97.9282 130.677L98.2543 130.935C104.696 133.01 104.627 133.022 105.869 133.542C107.459 134.211 102.436 150.553 102.436 150.553C102.436 150.553 99.4557 161.583 101.063 165.002C101.967 166.929 105.011 170.108 105.783 171.898C105.783 171.898 107.127 173.774 107.15 174.242C107.173 174.711 99.2154 178.159 92.9339 178.508C81.2863 179.154 77.9968 174.426 77.9968 174.426Z" fill="#F5F5F5"/>
<path d="M125.972 203.113H79.1925C78.0046 203.113 77.0415 204.075 77.0415 205.263V214.257C77.0415 215.444 78.0046 216.407 79.1925 216.407H125.972C127.16 216.407 128.123 215.444 128.123 214.257V205.263C128.123 204.075 127.16 203.113 125.972 203.113Z" fill="#1A2E35"/>
<path d="M122.276 206.286H100.44C100.215 206.286 100.033 206.468 100.033 206.692V213.388C100.033 213.612 100.215 213.794 100.44 213.794H122.276C122.5 213.794 122.682 213.612 122.682 213.388V206.692C122.682 206.468 122.5 206.286 122.276 206.286Z" fill="white"/>
<path d="M88.6891 212.753C90.1898 212.753 91.4065 211.537 91.4065 210.037C91.4065 208.537 90.1898 207.321 88.6891 207.321C87.1883 207.321 85.9717 208.537 85.9717 210.037C85.9717 211.537 87.1883 212.753 88.6891 212.753Z" fill="#1A2E35"/>
<path d="M88.6834 213.211C88.0554 213.211 87.4415 213.024 86.9194 212.676C86.3973 212.327 85.9903 211.831 85.75 211.252C85.5097 210.672 85.4468 210.034 85.5693 209.418C85.6918 208.802 85.9942 208.237 86.4383 207.793C86.8823 207.349 87.448 207.047 88.0639 206.925C88.6798 206.802 89.3182 206.865 89.8984 207.105C90.4786 207.345 90.9744 207.752 91.3233 208.274C91.6722 208.796 91.8584 209.409 91.8584 210.037C91.8569 210.878 91.5219 211.685 90.9268 212.279C90.3317 212.874 89.525 213.209 88.6834 213.211V213.211ZM88.6834 207.779C88.2296 207.779 87.786 207.913 87.4091 208.166C87.0322 208.419 86.7389 208.778 86.5666 209.197C86.3943 209.617 86.3507 210.078 86.4413 210.523C86.532 210.967 86.7528 211.375 87.0757 211.693C87.3985 212.012 87.809 212.227 88.2547 212.312C88.7005 212.397 89.1615 212.348 89.5791 212.171C89.9967 211.993 90.352 211.695 90.6 211.315C90.848 210.936 90.9774 210.491 90.9717 210.037C90.9642 209.436 90.7198 208.861 90.2914 208.438C89.8631 208.016 89.2853 207.779 88.6834 207.779Z" fill="#E1E1E1"/>
<path d="M102.402 207.567C102.554 209.241 102.554 210.925 102.402 212.599C102.242 210.925 102.242 209.24 102.402 207.567V207.567Z" fill="#E1E1E1"/>
<path d="M104.605 207.567C104.757 209.241 104.757 210.925 104.605 212.599C104.444 210.925 104.444 209.24 104.605 207.567V207.567Z" fill="#E1E1E1"/>
<path d="M106.807 207.567C106.967 209.24 106.967 210.925 106.807 212.599C106.647 210.925 106.647 209.24 106.807 207.567Z" fill="#E1E1E1"/>
<path d="M109.009 207.567C109.17 209.24 109.17 210.925 109.009 212.599C108.849 210.925 108.849 209.24 109.009 207.567V207.567Z" fill="#E1E1E1"/>
<path d="M111.212 207.567C111.372 209.24 111.372 210.925 111.212 212.599C111.06 210.925 111.06 209.241 111.212 207.567V207.567Z" fill="#E1E1E1"/>
<path d="M113.414 207.567C113.575 209.24 113.575 210.925 113.414 212.599C113.262 210.925 113.262 209.241 113.414 207.567V207.567Z" fill="#E1E1E1"/>
<path d="M115.623 207.567C115.775 209.241 115.775 210.925 115.623 212.599C115.463 210.925 115.463 209.24 115.623 207.567V207.567Z" fill="#E1E1E1"/>
<path d="M117.825 207.567C117.985 209.24 117.985 210.925 117.825 212.599C117.665 210.925 117.665 209.24 117.825 207.567V207.567Z" fill="#E1E1E1"/>
<path d="M120.028 207.567C120.188 209.24 120.188 210.925 120.028 212.599C119.868 210.925 119.868 209.24 120.028 207.567V207.567Z" fill="#E1E1E1"/>
<path d="M125.972 190.31H79.1925C78.0046 190.31 77.0415 191.273 77.0415 192.46V201.454C77.0415 202.642 78.0046 203.604 79.1925 203.604H125.972C127.16 203.604 128.123 202.642 128.123 201.454V192.46C128.123 191.273 127.16 190.31 125.972 190.31Z" fill="#375A64"/>
<path d="M122.276 193.484H100.44C100.215 193.484 100.033 193.665 100.033 193.89V200.585C100.033 200.809 100.215 200.991 100.44 200.991H122.276C122.5 200.991 122.682 200.809 122.682 200.585V193.89C122.682 193.665 122.5 193.484 122.276 193.484Z" fill="white"/>
<path d="M88.6891 199.951C90.1898 199.951 91.4065 198.735 91.4065 197.235C91.4065 195.735 90.1898 194.519 88.6891 194.519C87.1883 194.519 85.9717 195.735 85.9717 197.235C85.9717 198.735 87.1883 199.951 88.6891 199.951Z" fill="#1A2E35"/>
<path d="M88.6834 200.437C88.0554 200.437 87.4415 200.25 86.9194 199.902C86.3973 199.553 85.9903 199.057 85.75 198.478C85.5097 197.898 85.4468 197.26 85.5693 196.644C85.6918 196.028 85.9942 195.463 86.4383 195.019C86.8823 194.575 87.448 194.273 88.0639 194.151C88.6798 194.028 89.3182 194.091 89.8984 194.331C90.4786 194.571 90.9744 194.978 91.3233 195.5C91.6722 196.022 91.8584 196.635 91.8584 197.263C91.8569 198.104 91.5219 198.911 90.9268 199.505C90.3317 200.1 89.525 200.435 88.6834 200.437ZM88.6834 195.004C88.2308 195.004 87.7883 195.139 87.412 195.39C87.0357 195.641 86.7424 195.998 86.5692 196.416C86.396 196.834 86.3507 197.294 86.439 197.738C86.5273 198.182 86.7452 198.589 87.0653 198.909C87.3853 199.229 87.793 199.447 88.2369 199.535C88.6808 199.623 89.1409 199.578 89.5591 199.405C89.9772 199.232 90.3346 198.938 90.586 198.562C90.8375 198.186 90.9717 197.744 90.9717 197.292C90.9755 196.989 90.9191 196.688 90.8058 196.408C90.6925 196.127 90.5245 195.871 90.3117 195.656C90.0988 195.44 89.8452 195.269 89.5657 195.153C89.2862 195.036 88.9863 194.976 88.6834 194.976V195.004Z" fill="#E1E1E1"/>
<path d="M102.402 194.764C102.554 196.438 102.554 198.122 102.402 199.796C102.242 198.123 102.242 196.438 102.402 194.764V194.764Z" fill="#E1E1E1"/>
<path d="M104.605 194.764C104.757 196.438 104.757 198.122 104.605 199.796C104.444 198.123 104.444 196.438 104.605 194.764V194.764Z" fill="#E1E1E1"/>
<path d="M106.807 194.764C106.967 196.438 106.967 198.123 106.807 199.796C106.647 198.123 106.647 196.438 106.807 194.764Z" fill="#E1E1E1"/>
<path d="M109.009 194.764C109.17 196.438 109.17 198.123 109.009 199.796C108.849 198.123 108.849 196.438 109.009 194.764V194.764Z" fill="#E1E1E1"/>
<path d="M111.212 194.764C111.372 196.438 111.372 198.123 111.212 199.796C111.06 198.122 111.06 196.438 111.212 194.764V194.764Z" fill="#E1E1E1"/>
<path d="M113.414 194.764C113.575 196.438 113.575 198.123 113.414 199.796C113.262 198.122 113.262 196.438 113.414 194.764Z" fill="#E1E1E1"/>
<path d="M115.623 194.764C115.775 196.438 115.775 198.122 115.623 199.796C115.463 198.123 115.463 196.438 115.623 194.764V194.764Z" fill="#E1E1E1"/>
<path d="M117.825 194.764C117.985 196.438 117.985 198.123 117.825 199.796C117.665 198.123 117.665 196.438 117.825 194.764V194.764Z" fill="#E1E1E1"/>
<path d="M120.028 194.764C120.188 196.438 120.188 198.123 120.028 199.796C119.868 198.123 119.868 196.438 120.028 194.764V194.764Z" fill="#E1E1E1"/>
<path d="M125.972 216.476H79.1925C78.0046 216.476 77.0415 217.438 77.0415 218.626V227.62C77.0415 228.807 78.0046 229.77 79.1925 229.77H125.972C127.16 229.77 128.123 228.807 128.123 227.62V218.626C128.123 217.438 127.16 216.476 125.972 216.476Z" fill="#E1E1E1"/>
<path d="M122.276 219.649H100.44C100.215 219.649 100.033 219.831 100.033 220.055V226.751C100.033 226.975 100.215 227.157 100.44 227.157H122.276C122.5 227.157 122.682 226.975 122.682 226.751V220.055C122.682 219.831 122.5 219.649 122.276 219.649Z" fill="white"/>
<path d="M91.4008 223.406C91.4008 222.869 91.2415 222.343 90.9429 221.897C90.6443 221.45 90.2199 221.102 89.7234 220.896C89.2268 220.691 88.6804 220.637 88.1533 220.742C87.6262 220.847 87.142 221.105 86.762 221.485C86.3819 221.865 86.1231 222.349 86.0183 222.876C85.9134 223.403 85.9672 223.949 86.1729 224.445C86.3786 224.941 86.7269 225.366 87.1738 225.664C87.6206 225.962 88.146 226.122 88.6835 226.122C89.4042 226.122 90.0953 225.836 90.6049 225.326C91.1146 224.817 91.4008 224.126 91.4008 223.406V223.406Z" fill="#1A2E35"/>
<path d="M88.6834 226.579C88.0554 226.579 87.4415 226.393 86.9194 226.044C86.3973 225.696 85.9903 225.2 85.75 224.62C85.5097 224.04 85.4468 223.402 85.5693 222.787C85.6918 222.171 85.9942 221.606 86.4383 221.162C86.8823 220.718 87.448 220.416 88.0639 220.293C88.6798 220.171 89.3182 220.234 89.8984 220.474C90.4786 220.714 90.9744 221.121 91.3233 221.643C91.6722 222.165 91.8584 222.778 91.8584 223.406C91.8569 224.247 91.5219 225.053 90.9268 225.648C90.3317 226.243 89.525 226.578 88.6834 226.579ZM88.6834 221.141C88.2308 221.141 87.7883 221.275 87.412 221.527C87.0357 221.778 86.7424 222.135 86.5692 222.553C86.396 222.971 86.3507 223.431 86.439 223.875C86.5273 224.319 86.7452 224.726 87.0653 225.046C87.3853 225.366 87.793 225.584 88.2369 225.672C88.6808 225.76 89.1409 225.715 89.5591 225.542C89.9772 225.369 90.3346 225.075 90.586 224.699C90.8375 224.323 90.9717 223.881 90.9717 223.429C90.9717 222.822 90.7306 222.24 90.3015 221.811C89.8723 221.382 89.2903 221.141 88.6834 221.141V221.141Z" fill="#F5F5F5"/>
<path d="M102.402 220.936C102.554 222.609 102.554 224.294 102.402 225.967C102.242 224.294 102.242 222.609 102.402 220.936V220.936Z" fill="#E1E1E1"/>
<path d="M104.605 220.936C104.757 222.609 104.757 224.294 104.605 225.967C104.444 224.294 104.444 222.609 104.605 220.936V220.936Z" fill="#E1E1E1"/>
<path d="M106.807 220.936C106.967 222.609 106.967 224.294 106.807 225.967C106.647 224.294 106.647 222.609 106.807 220.936V220.936Z" fill="#E1E1E1"/>
<path d="M109.009 220.936C109.17 222.609 109.17 224.294 109.009 225.967C108.849 224.294 108.849 222.609 109.009 220.936V220.936Z" fill="#E1E1E1"/>
<path d="M111.212 220.936C111.372 222.609 111.372 224.294 111.212 225.967C111.06 224.294 111.06 222.609 111.212 220.936V220.936Z" fill="#E1E1E1"/>
<path d="M113.414 220.936C113.575 222.609 113.575 224.294 113.414 225.967C113.262 224.294 113.262 222.609 113.414 220.936Z" fill="#E1E1E1"/>
<path d="M115.623 220.936C115.775 222.609 115.775 224.294 115.623 225.967C115.463 224.294 115.463 222.609 115.623 220.936V220.936Z" fill="#E1E1E1"/>
<path d="M117.825 220.936C117.985 222.609 117.985 224.294 117.825 225.967C117.665 224.294 117.665 222.609 117.825 220.936V220.936Z" fill="#E1E1E1"/>
<path d="M120.028 220.936C120.188 222.609 120.188 224.294 120.028 225.967C119.868 224.294 119.868 222.609 120.028 220.936V220.936Z" fill="#E1E1E1"/>
<path d="M52.5335 202.953L48.7463 211.112C48.7463 211.112 39.3013 209.866 38.4489 211.307L53.8951 219.352L60.3482 206.875L52.5335 202.953Z" fill="#375A64"/>
<path d="M53.7864 212.856C53.9137 212.979 53.9916 213.143 54.0053 213.319C54.019 213.496 53.9676 213.67 53.8607 213.811C53.7436 213.945 53.5792 214.028 53.4021 214.043C53.225 214.058 53.049 214.003 52.9111 213.891C52.7759 213.761 52.694 213.585 52.6813 213.398C52.6686 213.211 52.7261 213.026 52.8424 212.879C52.9765 212.751 53.1548 212.68 53.3402 212.68C53.5255 212.68 53.7038 212.751 53.8379 212.879" fill="#E1E1E1"/>
<path d="M53.9008 219.352L54.4157 218.357L39.267 210.849C39.0858 210.864 38.9096 210.916 38.7493 211.002C38.5889 211.087 38.4478 211.205 38.3345 211.347L53.9008 219.352Z" fill="#1A2E35"/>
<path d="M48.5804 211.089C48.546 211.169 48.9122 211.398 49.1525 211.838C49.3927 212.279 49.4385 212.696 49.5243 212.702C49.6101 212.707 49.7245 212.21 49.4099 211.684C49.0952 211.158 48.5975 211.015 48.5804 211.089Z" fill="#1A2E35"/>
<path d="M46.6182 210.935C46.5667 211.004 46.8299 211.301 46.9271 211.758C47.0244 212.216 46.9271 212.593 47.0015 212.627C47.0758 212.662 47.3447 212.256 47.2189 211.69C47.093 211.124 46.6182 210.866 46.6182 210.935Z" fill="#1A2E35"/>
<path d="M44.6559 212.444C44.7188 212.496 45.022 212.164 45.0334 211.644C45.0449 211.124 44.776 210.78 44.7131 210.826C44.6501 210.872 44.7588 211.209 44.7131 211.638C44.6673 212.067 44.5872 212.387 44.6559 212.444Z" fill="#1A2E35"/>
<path d="M49.6559 209.317C49.6559 209.402 50.0564 209.471 50.4797 209.723C50.9031 209.974 51.1605 210.294 51.2349 210.231C51.3093 210.168 51.1262 209.751 50.6285 209.465C50.1308 209.179 49.6502 209.237 49.6559 209.317Z" fill="#1A2E35"/>
<path d="M50.2566 207.447C50.4792 207.644 50.7493 207.78 51.0403 207.841C51.3495 207.933 51.6681 207.988 51.99 208.007C52.1805 208.018 52.3715 208.018 52.5621 208.007C52.6732 208.002 52.7831 207.981 52.8881 207.944C52.9657 207.915 53.0317 207.861 53.076 207.791C53.1204 207.721 53.1408 207.638 53.1341 207.556C53.122 207.483 53.0936 207.414 53.051 207.353C53.0084 207.293 52.9527 207.243 52.8881 207.207C52.7871 207.155 52.6792 207.119 52.5678 207.098C52.3797 207.055 52.1883 207.029 51.9957 207.018C51.6697 207.003 51.3434 207.04 51.0289 207.127C50.7345 207.182 50.4624 207.321 50.2451 207.527C50.2451 207.573 50.5655 207.424 51.0804 207.333C51.5513 207.246 52.0357 207.263 52.4991 207.384C52.6879 207.424 52.8309 207.493 52.8366 207.59C52.8424 207.687 52.8366 207.636 52.7737 207.67C52.6955 207.694 52.6149 207.709 52.5334 207.716C52.3447 207.716 52.1673 207.744 51.9957 207.744C51.6902 207.739 51.3858 207.707 51.0861 207.647C50.8144 207.562 50.5373 207.495 50.2566 207.447V207.447Z" fill="#1A2E35"/>
<path d="M67.2131 216.07L67.6879 225.053C67.6879 225.053 58.7577 228.363 58.6833 230.033L76.1033 229.919L75.9316 215.892L67.2131 216.07Z" fill="#375A64"/>
<path d="M72.974 224.235C73.1435 224.279 73.291 224.384 73.3889 224.529C73.4868 224.674 73.5285 224.85 73.506 225.024C73.4638 225.196 73.3569 225.344 73.2077 225.439C73.0585 225.534 72.8785 225.567 72.7051 225.533C72.5258 225.481 72.3719 225.365 72.2728 225.206C72.1736 225.048 72.1361 224.859 72.1674 224.675C72.2286 224.499 72.3564 224.355 72.5234 224.272C72.6903 224.19 72.883 224.177 73.0598 224.235" fill="#E1E1E1"/>
<path d="M76.1204 229.919V228.804L59.2211 229.249C59.0717 229.351 58.9442 229.481 58.8459 229.632C58.7476 229.783 58.6807 229.953 58.649 230.13L76.1204 229.919Z" fill="#1A2E35"/>
<path d="M67.5506 225.11C67.5506 225.195 67.9854 225.23 68.4088 225.493C68.8321 225.756 69.0667 226.122 69.1467 226.065C69.2268 226.007 69.0895 225.533 68.5747 225.218C68.0598 224.904 67.5278 225.024 67.5506 225.11Z" fill="#1A2E35"/>
<path d="M65.72 225.905C65.72 225.99 66.0747 226.128 66.3721 226.476C66.6696 226.825 66.7612 227.214 66.847 227.208C66.9328 227.203 66.9786 226.716 66.601 226.282C66.2234 225.847 65.72 225.825 65.72 225.905Z" fill="#1A2E35"/>
<path d="M64.7074 228.129C64.7875 228.129 64.8962 227.717 64.6674 227.248C64.4386 226.779 64.0381 226.602 64.0038 226.676C63.9695 226.751 64.2212 226.991 64.3985 227.38C64.5759 227.769 64.6216 228.123 64.7074 228.129Z" fill="#1A2E35"/>
<path d="M67.6651 223.034C67.7052 223.114 68.0999 222.988 68.5804 223.034C69.061 223.08 69.45 223.206 69.4958 223.131C69.5415 223.057 69.1697 222.76 68.5976 222.737C68.0255 222.714 67.6251 222.971 67.6651 223.034Z" fill="#1A2E35"/>
<path d="M67.3218 221.107C67.6102 221.185 67.9143 221.185 68.2028 221.107C68.5189 221.046 68.8263 220.946 69.1181 220.81C69.2912 220.726 69.4593 220.633 69.6215 220.53C69.7196 220.475 69.8069 220.404 69.879 220.318C69.936 220.257 69.9705 220.179 69.9768 220.095C69.983 220.012 69.9606 219.929 69.9133 219.861C69.8695 219.802 69.8125 219.754 69.747 219.721C69.6814 219.689 69.609 219.672 69.5357 219.672C69.4234 219.675 69.312 219.693 69.2039 219.723C68.7019 219.858 68.2404 220.113 67.8595 220.467C67.4534 220.856 67.3218 221.176 67.3504 221.193C67.379 221.21 67.5849 220.947 67.9968 220.621C68.2356 220.438 68.4971 220.286 68.7749 220.169C68.9349 220.098 69.1016 220.042 69.2726 220.004C69.4614 219.952 69.6215 219.946 69.6673 220.004C69.7131 220.061 69.6673 220.049 69.6673 220.106C69.6091 220.166 69.5438 220.218 69.4728 220.261C69.3254 220.361 69.1726 220.452 69.0151 220.535C68.7438 220.673 68.4604 220.786 68.1685 220.873C67.8798 220.926 67.5965 221.004 67.3218 221.107V221.107Z" fill="#1A2E35"/>
<path d="M107.059 172.939C107.059 172.939 71.395 168.719 69.3412 168.719C64.5129 168.719 62.2474 172.253 61.5266 175.089C60.9946 177.187 50.2509 207.515 50.2509 207.515L58.1742 211.621L69.8275 190.928L75.7943 180.601L106.401 185.324L107.059 172.939Z" fill="#1A2E35"/>
<path d="M74.3298 179.646C74.3298 179.646 69.5472 179.646 66.9614 183.471C65.4454 185.719 65.9774 189.761 65.9488 192.769C65.9031 196.892 66.9042 222.045 66.9042 222.045L76.6868 222.211L78.7349 195.994L78.6147 191.151L98.1456 189.561C98.1456 189.561 99.9248 183.643 95.5484 178.977C94.9877 178.377 74.3298 179.646 74.3298 179.646Z" fill="#1A2E35"/>
<path d="M107.047 173.425C107.047 173.425 110.097 180.458 105.983 186.473C103.266 190.442 98.0542 189.532 98.0542 189.532L91.1377 180.875L96.6583 172.253L107.047 173.425Z" fill="#1A2E35"/>
<path d="M66.9043 222.045H67.0759H69.5302L76.6869 222.125L76.6011 222.205C76.9787 216.944 77.4878 209.865 78.0485 202.089C78.2373 199.556 78.4146 197.097 78.6205 194.764C78.5862 193.518 78.5576 192.317 78.5347 191.151V191.042H78.6377C84.1926 190.596 88.9352 190.196 92.2647 189.898C93.9352 189.744 95.2624 189.618 96.1663 189.515C96.6183 189.469 96.9672 189.418 97.2018 189.389C97.4363 189.361 97.5507 189.321 97.5565 189.327C97.4427 189.367 97.326 189.4 97.2075 189.424C96.9729 189.464 96.6354 189.532 96.1778 189.584C95.2739 189.71 93.9524 189.858 92.2819 190.03C88.9409 190.373 84.2098 190.802 78.6549 191.265L78.7578 191.156C78.7922 192.3 78.8208 193.529 78.8551 194.77C78.6835 197.103 78.5061 199.562 78.3173 202.095C77.7453 209.866 77.2018 216.962 76.807 222.211V222.291H76.727L69.5302 222.165L67.5851 222.108H67.0759C67.0161 222.095 66.9583 222.074 66.9043 222.045V222.045Z" fill="#375A64"/>
<path d="M98.0542 189.532L97.9226 189.464L97.5336 189.281L96.029 188.6L90.4798 186.13L82.2361 182.488L77.3677 180.344C76.9443 180.161 76.5324 179.955 76.0748 179.772C75.6245 179.614 75.1612 179.495 74.6903 179.417C73.7237 179.273 72.7419 179.264 71.7727 179.389C70.7999 179.505 69.8519 179.776 68.9638 180.189C68.5338 180.399 68.1367 180.671 67.7853 180.995C67.4223 181.327 67.1134 181.712 66.8699 182.139C66.4106 182.94 66.1332 183.832 66.0576 184.752C66.0175 185.204 66.0576 185.638 66.0576 186.073V187.365C66.0919 190.75 66.132 193.804 66.1606 196.371C66.1892 198.938 66.2235 200.997 66.2464 202.444C66.2464 203.153 66.2578 203.702 66.2807 204.09V204.519C66.2758 204.569 66.2758 204.618 66.2807 204.668C66.2856 204.618 66.2856 204.569 66.2807 204.519C66.2807 204.416 66.2807 204.273 66.2807 204.09V202.444C66.2807 200.997 66.2807 198.927 66.2807 196.371C66.2807 193.815 66.2407 190.75 66.2178 187.36C66.2178 186.936 66.2178 186.508 66.2178 186.073C66.2178 185.638 66.2178 185.198 66.2178 184.769C66.2956 183.877 66.567 183.013 67.013 182.236C67.2414 181.841 67.5289 181.482 67.8654 181.173C68.2104 180.87 68.5954 180.616 69.0095 180.418C69.8781 180.016 70.8049 179.753 71.7555 179.64C72.7045 179.509 73.667 179.509 74.6159 179.64C75.0769 179.718 75.5305 179.835 75.9718 179.989C76.4066 180.132 76.8299 180.349 77.2532 180.527L82.1274 182.659L90.3825 186.262L95.9603 188.68L97.4821 189.327L97.8768 189.487C97.9325 189.513 97.9927 189.528 98.0542 189.532V189.532Z" fill="#375A64"/>
<path d="M80.4054 154.436C80.4021 154.243 80.3772 154.051 80.331 153.864C80.2624 153.498 80.188 152.972 80.1136 152.314C80.0392 151.657 79.9878 150.873 79.9763 150.027C79.9741 149.083 80.0257 148.14 80.1308 147.202C80.2438 146.263 80.4119 145.331 80.6342 144.412C80.8459 143.571 81.0747 142.816 81.2978 142.199C81.5209 141.581 81.7212 141.055 81.8699 140.741C81.9569 140.569 82.0277 140.389 82.0816 140.203C81.9727 140.364 81.8789 140.534 81.8013 140.712C81.6354 141.038 81.418 141.53 81.1777 142.148C80.8974 142.875 80.6586 143.617 80.4626 144.372C80.2311 145.296 80.0572 146.234 79.942 147.179C79.8362 148.129 79.7903 149.083 79.8047 150.038C79.8183 150.815 79.8775 151.59 79.982 152.36C80.0488 152.879 80.1423 153.394 80.2624 153.904C80.2966 154.084 80.3444 154.262 80.4054 154.436V154.436Z" fill="#1A2E35"/>
<path d="M87.5105 130.231V128.79L85.7943 131.546L82.3618 132.816C81.2806 134.062 77.7851 148.106 78.4774 150.433L79.7073 164.156L76.2119 169.405L82.5048 170.074C82.5048 170.074 83.8492 168.748 83.5117 165.231C82.6593 156.322 83.5117 146.156 83.6719 143.909C83.8378 140.529 87.5105 130.231 87.5105 130.231Z" fill="#E56A20"/>
<path d="M85.8001 131.546C85.8001 131.546 80.1479 133.393 79.4042 134.457C77.3905 137.356 65.2566 157.163 71.212 163.047C75.1136 166.918 80.5941 158.753 80.5941 158.753L85.8001 131.546Z" fill="#E56A20"/>
<path d="M71.9385 155.196C72.1147 155.183 72.2891 155.153 72.4591 155.104L73.8664 154.801C75.062 154.55 76.7268 154.195 78.6662 153.909L78.5632 153.847C78.752 154.327 78.9465 154.819 79.1353 155.328C79.633 156.58 80.0964 157.763 80.5083 158.804V158.718L78.3801 161.371L77.808 162.132C77.7353 162.22 77.6703 162.313 77.6135 162.412C77.7017 162.338 77.7822 162.256 77.8538 162.166L78.4831 161.44C79.0552 160.777 79.7817 159.885 80.6627 158.833L80.6971 158.793V158.741C80.2909 157.701 79.8275 156.511 79.3412 155.253C79.141 154.75 78.9465 154.252 78.7691 153.778V153.704H78.6948C76.7554 154.007 75.0849 154.384 73.8893 154.67C73.3172 154.813 72.8195 154.939 72.4934 155.03C72.3044 155.071 72.1189 155.126 71.9385 155.196V155.196Z" fill="#1A2E35"/>
<path d="M77.751 153.612C77.7527 153.401 77.7336 153.19 77.6938 152.983C77.6423 152.543 77.5736 151.965 77.4878 151.268C77.2247 149.391 77.1615 147.491 77.299 145.601C77.4884 143.716 78.0196 141.881 78.8665 140.186C79.1812 139.529 79.473 139.014 79.6732 138.66C79.7853 138.475 79.8865 138.284 79.9764 138.088C79.9764 138.088 79.9306 138.128 79.8677 138.214L79.6045 138.608C79.3871 138.951 79.0782 139.454 78.7407 140.106C77.848 141.804 77.2924 143.658 77.1045 145.567C76.9641 147.476 77.0448 149.395 77.3448 151.285C77.4478 152.005 77.5508 152.589 77.6194 153C77.6496 153.207 77.6935 153.411 77.751 153.612V153.612Z" fill="#1A2E35"/>
<path d="M82.8482 151.262C82.8559 151.186 82.8559 151.109 82.8482 151.033C82.8482 150.868 82.8482 150.65 82.7967 150.387C82.7452 149.815 82.6766 148.998 82.5851 148.009C82.4935 147.019 82.3734 145.807 82.2475 144.486C82.1789 143.823 82.1102 143.125 82.0416 142.405C81.994 142.045 81.9749 141.682 81.9844 141.319C81.9842 140.953 82.0851 140.595 82.2761 140.284C82.3808 140.111 82.5276 139.968 82.7028 139.868C82.8779 139.768 83.0756 139.714 83.2773 139.712H83.632L83.3345 139.512L81.8471 138.511V138.637L84.7532 133.656C85.0965 133.05 85.3768 132.558 85.577 132.198L85.7944 131.809C85.8219 131.765 85.843 131.717 85.8574 131.667C85.8574 131.667 85.823 131.707 85.7658 131.792L85.5256 132.17C85.3082 132.524 85.0107 132.999 84.6503 133.594L81.6869 138.54L81.6411 138.614L81.7155 138.665L83.1972 139.672L83.2601 139.494C83.0288 139.499 82.8025 139.563 82.6024 139.679C82.4023 139.795 82.2349 139.959 82.1159 140.158C81.9026 140.501 81.7878 140.897 81.7841 141.301C81.7772 141.684 81.7983 142.066 81.8471 142.445C81.9272 143.165 81.9958 143.863 82.0702 144.526C82.2132 145.847 82.3391 147.036 82.4477 148.048L82.7223 150.422L82.8082 151.062C82.8166 151.129 82.8299 151.196 82.8482 151.262V151.262Z" fill="#1A2E35"/>
<path d="M97.3104 129.128L98.998 130.94L105.291 132.93C105.081 137.531 104.587 142.114 103.809 146.653C102.425 154.395 101.687 162.281 101.647 162.401C101.338 161.829 104.799 166.575 106.71 171.235C108.214 174.9 109.038 182.551 109.038 182.551L93.2372 187.388L90.5598 158.764L91.2406 145.544L97.3104 129.128Z" fill="#E56A20"/>
<path d="M91.2406 152.623C91.2866 152.546 91.3267 152.466 91.3607 152.383L91.6639 151.697C91.9328 151.096 92.3161 150.227 92.8081 149.169C94.1022 146.404 95.5342 143.706 97.0987 141.084L97.5335 140.398L97.5907 140.301L97.4877 140.261L95.7086 139.523V139.683C96.2814 139.206 96.9569 138.867 97.6822 138.694H97.7452V138.631C97.858 137.572 98.0492 136.523 98.3173 135.492C98.5404 134.554 98.7292 133.731 98.8379 133.039C98.9303 132.5 98.9838 131.956 98.998 131.409C98.998 131.215 98.998 131.072 98.998 130.975C99.0068 130.923 99.0068 130.871 98.998 130.82C98.998 130.82 98.998 131.026 98.958 131.392C98.9189 131.933 98.8482 132.472 98.7463 133.004C98.6205 133.691 98.4202 134.508 98.1742 135.446C97.9012 136.482 97.71 137.537 97.6022 138.602L97.6708 138.522C96.9157 138.699 96.2123 139.049 95.617 139.546L95.4912 139.643L95.6399 139.706L97.4191 140.444L97.3733 140.301C97.2246 140.541 97.0816 140.781 96.9385 141.021C95.3634 143.644 93.9441 146.357 92.688 149.146C92.2074 150.216 91.8413 151.09 91.5953 151.702C91.4809 151.988 91.3951 152.223 91.3207 152.406C91.2879 152.476 91.2612 152.548 91.2406 152.623V152.623Z" fill="#1A2E35"/>
<path d="M104.21 172.253C104.25 172.321 104.296 172.386 104.347 172.447L104.77 172.973L106.315 174.86L106.355 174.746L98.8493 176.158L98.9465 176.198L98.8264 176.032L96.7326 173.122L96.6697 173.265L102.07 172.567L103.638 172.35L104.061 172.281L104.21 172.253C104.164 172.245 104.118 172.245 104.072 172.253L103.655 172.287L102.099 172.453L96.6468 173.082H96.4923L96.5838 173.213L98.6662 176.129L98.7864 176.295L98.8207 176.347H98.8836L106.378 174.877H106.498L106.418 174.791C105.749 174.014 105.205 173.379 104.805 172.922L104.364 172.424C104.267 172.298 104.21 172.241 104.21 172.253Z" fill="#1A2E35"/>
<g opacity="0.3">
<path d="M105.4 175.003L105.897 175.969L98.8551 177.485L97.0988 173.785L98.8665 176.255L105.4 175.003Z" fill="black"/>
</g>
<path d="M52.9454 152.2L56.8012 171.103H90.2394C90.4169 171.103 90.5872 171.033 90.7127 170.908C90.8382 170.782 90.9088 170.612 90.9088 170.434C90.9088 170.257 90.8382 170.087 90.7127 169.961C90.5872 169.836 90.4169 169.765 90.2394 169.765H83.506L79.9362 152.188C79.9 152.027 79.8102 151.883 79.6814 151.779C79.5525 151.675 79.3923 151.618 79.2268 151.617L53.6719 151.336C53.5644 151.336 53.4582 151.36 53.3608 151.405C53.2633 151.451 53.177 151.517 53.1078 151.599C53.0386 151.681 52.9882 151.778 52.9601 151.882C52.9321 151.985 52.927 152.094 52.9454 152.2V152.2Z" fill="#E1E1E1"/>
<path d="M52.9454 152.2C52.9454 152.2 52.9454 152.2 52.9454 152.143C52.9368 152.086 52.9368 152.028 52.9454 151.971C52.9539 151.855 52.9899 151.742 53.0506 151.643C53.1113 151.543 53.1949 151.46 53.2944 151.399C53.3637 151.359 53.4391 151.33 53.5175 151.314C53.6048 151.302 53.6934 151.302 53.7807 151.314H54.3528H55.8573L65.5255 151.405L72.2589 151.474L76.0347 151.514H78.0141H79.0267H79.2841C79.3736 151.523 79.4606 151.549 79.5415 151.588C79.7062 151.667 79.8364 151.803 79.9077 151.971C79.9422 152.054 79.9671 152.14 79.982 152.228L80.0335 152.486L80.1365 152.995C80.2052 153.338 80.2738 153.681 80.3482 154.03C80.4855 154.721 80.6285 155.419 80.7772 156.128C81.0633 157.552 81.3493 158.987 81.6582 160.485C82.2647 163.447 82.8882 166.529 83.5347 169.708L83.4889 169.668H90.1136C90.1993 169.663 90.2853 169.663 90.3711 169.668C90.5491 169.707 90.7062 169.811 90.8116 169.96C90.9133 170.111 90.9561 170.294 90.9317 170.474C90.9134 170.583 90.871 170.686 90.8076 170.776C90.7443 170.866 90.6616 170.941 90.5656 170.995C90.4681 171.046 90.3608 171.075 90.2509 171.08H72.4992H56.8013H56.7669V171.052C55.6228 165.243 54.6331 160.514 53.9695 157.237C53.6434 155.602 53.3974 154.327 53.2086 153.463C53.1228 153.029 53.0599 152.703 53.0141 152.48C52.9683 152.257 52.9512 152.143 52.9512 152.143C52.9512 152.143 52.9512 152.251 53.0255 152.474C53.0999 152.697 53.1399 153.046 53.2315 153.458L54.0095 157.232C54.6788 160.508 55.6514 165.237 56.8699 171.041L56.8356 171.012H72.5335H90.2967C90.3926 171.007 90.4863 170.982 90.5713 170.938C90.6551 170.891 90.7274 170.826 90.7828 170.748C90.8383 170.67 90.8755 170.58 90.8917 170.486C90.9128 170.328 90.8762 170.167 90.7887 170.034C90.6971 169.905 90.5603 169.815 90.4054 169.782C90.3255 169.774 90.245 169.774 90.1651 169.782H83.4717V169.748C82.8253 166.569 82.2017 163.458 81.5953 160.525C81.2978 159.044 81.0232 157.592 80.7143 156.168C80.5713 155.459 80.4283 154.761 80.291 154.069C80.2166 153.721 80.148 153.378 80.0793 153.035L79.9763 152.526L79.9248 152.268C79.9107 152.187 79.8896 152.106 79.8619 152.028C79.7939 151.879 79.6768 151.758 79.5301 151.685C79.4595 151.646 79.3815 151.623 79.3013 151.617H79.0496H78.037H76.0576L72.2818 151.571L65.5484 151.491L55.8802 151.376H54.3756H53.8036C53.7181 151.365 53.6315 151.365 53.5461 151.376C53.4692 151.392 53.3955 151.421 53.3287 151.462C53.2325 151.519 53.1506 151.597 53.0891 151.69C53.0276 151.783 52.9883 151.889 52.974 152C52.9569 152.065 52.9473 152.132 52.9454 152.2V152.2Z" fill="#1A2E35"/>
<path d="M67.2532 161.955C67.863 161.955 68.3573 161.461 68.3573 160.851C68.3573 160.242 67.863 159.747 67.2532 159.747C66.6434 159.747 66.149 160.242 66.149 160.851C66.149 161.461 66.6434 161.955 67.2532 161.955Z" fill="white"/>
<path d="M52.974 152.348H54.7303H59.5129L75.2852 152.457H77.5735H78.1456C78.2408 152.449 78.3365 152.449 78.4317 152.457C78.5283 152.479 78.621 152.515 78.7063 152.566C78.8713 152.674 78.9913 152.839 79.0438 153.029C79.0838 153.212 79.1182 153.389 79.1525 153.566C79.4385 154.99 79.7246 156.362 79.9706 157.672C80.4854 160.291 80.9545 162.646 81.3436 164.631L82.2646 169.319C82.3676 169.891 82.4534 170.297 82.5106 170.595C82.5106 170.738 82.5564 170.846 82.5678 170.926C82.5793 171.006 82.5678 171.041 82.5678 171.041C82.5678 171.041 82.5678 171 82.5678 170.926L82.4935 170.6C82.4362 170.303 82.3447 169.874 82.236 169.325C82.0072 168.216 81.6639 166.615 81.2864 164.642C80.9088 162.669 80.4168 160.308 79.8905 157.689C79.6273 156.38 79.3527 155.007 79.0724 153.584C79.0324 153.406 79.0037 153.223 78.9637 153.052C78.9171 152.883 78.8089 152.738 78.6605 152.646C78.5868 152.599 78.5055 152.566 78.4202 152.549C78.3307 152.543 78.2409 152.543 78.1513 152.549H77.5793H75.2909L59.5186 152.411L54.736 152.36H53.4374H53.0999L52.974 152.348Z" fill="#1A2E35"/>
<path d="M87.5106 160.725L87.5678 160.76L87.5106 160.725Z" fill="#FFBF9D"/>
<path d="M80.8974 165.448C81.521 164.551 85.783 162.492 85.783 162.492L84.7361 162.115L83.4946 162.475C83.3577 162.867 83.1393 163.225 82.8539 163.527C82.3448 164.099 81.7097 163.361 81.7097 163.361L82.4935 161.028L85.0049 159.885C85.8528 160.106 86.6875 160.375 87.5049 160.691L88.3459 161.663C88.7178 162.035 89.7589 163.453 90.0622 163.527C90.1594 163.527 93.1228 162.584 93.1228 162.584L94.347 168.01L89.8276 168.405L87.0816 168.822C86.3301 169.034 85.5657 169.199 84.7933 169.314C83.8894 169.394 83.323 169.039 83.3573 168.547C83.3917 168.056 84.0839 168.084 84.0839 168.084C84.6967 167.934 85.2987 167.743 85.8859 167.512C86.321 167.288 86.6958 166.963 86.9786 166.563H86.0175C86.0175 166.563 83.8322 167.707 83.0255 168.039C82.2189 168.37 82.156 167.593 82.1274 167.352C82.0988 167.112 84.6846 165.117 84.6846 165.117C84.6846 165.117 82.3162 166.22 81.8757 166.518C81.4351 166.815 80.8345 166.844 80.7315 166.603C80.6285 166.363 80.2795 166.346 80.8974 165.448Z" fill="#FFBF9D"/>
<path d="M91.8127 166.964C91.8201 166.912 91.8201 166.86 91.8127 166.809C91.8189 166.748 91.8189 166.687 91.8127 166.626C91.8206 166.545 91.8206 166.462 91.8127 166.38C91.7441 165.912 91.5764 165.464 91.3207 165.065C91.0758 164.656 90.7903 164.273 90.4683 163.922C90.3432 163.774 90.2054 163.639 90.0564 163.516C90.1679 163.674 90.2903 163.825 90.4225 163.967C90.7233 164.328 90.9968 164.71 91.2406 165.111C91.4897 165.5 91.6624 165.933 91.7498 166.386C91.781 166.577 91.802 166.77 91.8127 166.964V166.964Z" fill="#FF9A6C"/>
<path d="M85.8801 162.429C86.1039 162.489 86.3384 162.494 86.5649 162.447C86.7914 162.399 87.0036 162.299 87.1845 162.155C87.1845 162.155 86.9042 162.28 86.5437 162.355C86.1833 162.429 85.8858 162.401 85.8801 162.429Z" fill="#FF9A6C"/>
<path d="M84.9133 164.985C85.2702 164.932 85.6223 164.849 85.966 164.739C86.3171 164.659 86.6599 164.546 86.99 164.402C86.6331 164.455 86.2811 164.538 85.9374 164.648C85.5871 164.731 85.2446 164.844 84.9133 164.985Z" fill="#FF9A6C"/>
<path d="M86.8756 166.563C87.0611 166.546 87.2437 166.506 87.4191 166.443C87.5998 166.412 87.7763 166.36 87.9454 166.289C87.7524 166.269 87.5574 166.29 87.3733 166.352C87.1952 166.389 87.0261 166.461 86.8756 166.563V166.563Z" fill="#FF9A6C"/>
<path d="M85.2166 165.185C85.2166 165.214 85.4225 165.323 85.5712 165.574C85.6465 165.733 85.7022 165.9 85.7371 166.072C85.7371 166.072 85.7715 166.009 85.7658 165.906C85.7577 165.773 85.7185 165.644 85.6513 165.528C85.584 165.411 85.4875 165.312 85.371 165.242C85.2852 165.191 85.2223 165.174 85.2166 165.185Z" fill="#FF9A6C"/>
<path d="M84.4614 163.613C84.4614 163.613 84.6102 163.75 84.7017 163.962C84.7452 164.098 84.7758 164.237 84.7932 164.379C84.8298 164.309 84.8489 164.232 84.8489 164.153C84.8489 164.075 84.8298 163.997 84.7932 163.927C84.6788 163.682 84.4671 163.59 84.4614 163.613Z" fill="#FF9A6C"/>
<path d="M85.085 161.034C85.085 161.034 85.1365 161 85.1765 160.914C85.2241 160.804 85.2417 160.684 85.2276 160.566C85.2136 160.447 85.1683 160.335 85.0964 160.239C85.0392 160.171 84.9877 160.142 84.982 160.148C84.9763 160.154 85.1079 160.331 85.1307 160.577C85.1357 160.73 85.1203 160.884 85.085 161.034V161.034Z" fill="#63367D"/>
<path d="M105.274 132.93C106.19 133.336 107.002 133.943 107.651 134.707C108.3 135.47 108.768 136.37 109.021 137.339C109.021 137.339 109.69 139.403 110.165 141.725C111.372 147.351 113.546 156.946 113.649 159.748C113.838 164.814 110.171 166.255 108.111 166.695C106.052 167.135 93.2829 168.719 93.2829 168.719L91.0518 162.429L104.072 156.768C104.072 156.768 101.59 148.249 101.012 145.584" fill="#E56A20"/>
<path d="M101.035 145.544C101.035 145.544 101.035 145.607 101.092 145.738L101.241 146.31L101.813 148.523C102.339 150.45 103.134 153.24 104.147 156.7V156.768L104.078 156.797L91.0689 162.486L91.1319 162.349L93.3687 168.639L93.2429 168.565C96.5609 168.147 100.108 167.701 103.741 167.204C105.211 166.992 106.675 166.803 108.088 166.535C109.475 166.271 110.758 165.621 111.79 164.659C112.749 163.69 113.338 162.415 113.455 161.057C113.455 160.891 113.495 160.725 113.506 160.559V160.068C113.511 159.739 113.496 159.411 113.46 159.084C113.392 158.432 113.3 157.786 113.197 157.152C112.785 154.613 112.282 152.217 111.818 149.975C111.355 147.734 110.903 145.647 110.497 143.743C110.291 142.794 110.096 141.885 109.925 141.027C109.753 140.169 109.524 139.374 109.313 138.631C109.101 137.888 108.901 137.19 108.689 136.573C108.479 136.009 108.188 135.48 107.825 135C107.327 134.323 106.711 133.742 106.006 133.285C105.76 133.136 105.571 133.027 105.434 132.964L105.234 132.862C105.307 132.882 105.377 132.909 105.445 132.942C105.642 133.03 105.834 133.131 106.017 133.245C106.74 133.68 107.374 134.246 107.888 134.914C108.263 135.397 108.563 135.933 108.781 136.504C109.009 137.133 109.21 137.819 109.433 138.562C109.656 139.306 109.862 140.106 110.062 140.964L110.663 143.68C111.08 145.584 111.532 147.682 112.019 149.907C112.505 152.131 112.997 154.544 113.42 157.089C113.523 157.729 113.615 158.375 113.689 159.033C113.724 159.367 113.74 159.703 113.735 160.039V160.542C113.735 160.714 113.701 160.885 113.683 161.051C113.566 162.46 112.959 163.783 111.967 164.791C110.905 165.787 109.582 166.463 108.151 166.741C106.715 167.015 105.262 167.198 103.786 167.41C100.142 167.907 96.6067 168.353 93.2829 168.765H93.1914V168.679C92.4191 166.5 91.6753 164.39 90.966 162.389L90.9316 162.292L91.0232 162.252L104.055 156.614L104.009 156.711C103.014 153.24 102.247 150.421 101.721 148.512C101.469 147.545 101.281 146.796 101.149 146.287C101.086 146.03 101.052 145.836 101.023 145.716C101.024 145.658 101.028 145.601 101.035 145.544V145.544Z" fill="#1A2E35"/>
<path d="M100.491 143.16C100.448 143.029 100.425 142.892 100.423 142.754C100.377 142.374 100.359 141.992 100.371 141.61C100.414 139.095 101.247 136.657 102.751 134.64C102.976 134.337 103.221 134.048 103.483 133.776C103.672 133.582 103.781 133.485 103.792 133.496C103.804 133.508 103.426 133.96 102.888 134.737C102.192 135.75 101.636 136.852 101.235 138.014C100.845 139.178 100.61 140.39 100.537 141.616C100.485 142.571 100.537 143.16 100.491 143.16Z" fill="#1A2E35"/>
</g>
<defs>
<filter id="filter0_d_65_648" x="-4" y="0" width="329" height="258" filterUnits="userSpaceOnUse" color-interpolation-filters="sRGB">
<feFlood flood-opacity="0" result="BackgroundImageFix"/>
<feColorMatrix in="SourceAlpha" type="matrix" values="0 0 0 0 0 0 0 0 0 0 0 0 0 0 0 0 0 0 127 0" result="hardAlpha"/>
<feOffset dy="4"/>
<feGaussianBlur stdDeviation="2"/>
<feComposite in2="hardAlpha" operator="out"/>
<feColorMatrix type="matrix" values="0 0 0 0 0 0 0 0 0 0 0 0 0 0 0 0 0 0 0.25 0"/>
<feBlend mode="normal" in2="BackgroundImageFix" result="effect1_dropShadow_65_648"/>
<feBlend mode="normal" in="SourceGraphic" in2="effect1_dropShadow_65_648" result="shape"/>
</filter>
</defs>
</svg>
