<svg width="327" height="253" viewBox="0 0 327 253" fill="none" xmlns="http://www.w3.org/2000/svg">
<g filter="url(#filter0_d_65_538)">
<rect x="10" y="3" width="313" height="242" rx="41.343" fill="#FFF4F5"/>
<path d="M253.087 198.313C248.898 202.575 244.236 206.348 239.192 209.559C203.189 233.527 162.027 226.591 149.322 224.242C128.794 220.43 111.464 217.746 96.579 204.332C62.7504 173.881 64.3997 110.306 90.2468 70.957C93.3098 66.2586 119.11 28.143 160.343 22.7985C161.35 22.6693 162.11 22.593 162.764 22.5225C169.143 21.853 208.673 18.294 240.906 45.2216C248.252 51.3759 254.632 58.5937 259.832 66.6345C285.031 105.355 285.137 165.406 253.087 198.313Z" fill="#FFE4D7"/>
<path d="M136.407 117C141.358 107.325 150.567 100.508 161.266 99.2903L162 52.7262C162.001 52.6314 161.984 52.5372 161.949 52.4492C161.914 52.3611 161.862 52.281 161.796 52.2134C161.73 52.1458 161.651 52.0921 161.564 52.0555C161.477 52.0188 161.384 52 161.289 52C131.113 52.3338 104.49 71.2148 92.0663 99.1849C92.0238 99.2814 92.0012 99.3857 92 99.4913C91.9989 99.5968 92.019 99.7016 92.0594 99.7991C92.0997 99.8966 92.1593 99.9848 92.2346 100.058C92.3098 100.132 92.3992 100.189 92.4973 100.227L136.407 117Z" fill="#E56A20"/>
<path d="M196.496 139C196.193 138.993 195.895 139.084 195.649 139.262C195.402 139.44 195.219 139.693 195.128 139.985C194.607 141.658 193.659 144.876 193.502 145.289C192.75 147.269 191.853 149.189 190.817 151.035C188.92 154.487 186.399 157.551 183.383 160.069C175.68 166.357 164.596 167.53 155.355 164.412L154.571 164.135C154.339 164.046 154.082 164.045 153.849 164.131C153.616 164.218 153.421 164.387 153.302 164.607L130 207.427C141.318 213.144 151.963 214.635 165.322 213.774C204.135 211.27 234.613 179.517 238 140.108L196.496 139Z" fill="#7C95F2"/>
<path d="M196.625 139C194.078 154.498 182.521 166.606 166.82 167.132C162.184 167.204 157.577 166.38 153.259 164.706C153.062 164.631 152.845 164.628 152.646 164.698C152.447 164.767 152.279 164.905 152.174 165.086L128 206.249C139.672 212.065 152.699 214.687 165.735 213.846C204.867 211.363 235.586 178.918 239 139.871L196.625 139Z" fill="#E56A20"/>
<path d="M123.745 200.156L146.913 158.657C146.991 158.515 147.018 158.349 146.988 158.19C146.958 158.03 146.874 157.886 146.749 157.781C139.615 151.783 133.895 143.742 133.895 133.309C133.895 130.736 132.755 126.995 133.275 124.556L89.7045 109C87.2346 117.071 85.986 125.465 86.0001 133.904C86.0001 161.913 100.905 186.548 121.367 200.71C121.557 200.84 121.771 200.929 121.997 200.972C122.223 201.014 122.455 201.009 122.679 200.957C122.903 200.905 123.113 200.806 123.297 200.669C123.48 200.531 123.633 200.356 123.745 200.156V200.156Z" fill="#EA8A59"/>
<path d="M121.065 199L144.83 157.594C144.975 157.339 145.03 157.041 144.984 156.75C144.939 156.459 144.797 156.193 144.581 155.997C141.034 152.773 138.203 148.813 136.279 144.384C134.355 139.954 133.382 135.157 133.425 130.312C133.425 127.766 133.691 125.227 134.217 122.738L90.3146 106.043C90.232 106.011 90.1438 105.997 90.0556 106.001C89.9673 106.005 89.8808 106.028 89.8015 106.067C89.7222 106.107 89.6519 106.163 89.5949 106.232C89.5379 106.301 89.4954 106.381 89.4702 106.468C87.1559 114.408 85.987 122.648 86.0001 130.931C86.0001 159.917 100.054 184.876 121.065 199Z" fill="#E56A20"/>
<path d="M179.485 103.039C193.314 105.05 204.241 116.397 206.349 130.811C206.401 131.184 206.586 131.526 206.87 131.775C207.153 132.025 207.517 132.164 207.895 132.169L274.595 133.021L275.112 132.502C273.762 76.9429 232.795 30.1615 179.102 24.9645L179.485 103.039Z" fill="#63367D"/>
<path d="M209 73C217.837 73 225 65.6127 225 56.5C225 47.3873 217.837 40 209 40C200.163 40 193 47.3873 193 56.5C193 65.6127 200.163 73 209 73Z" fill="#E56A20"/>
<path d="M223.647 58.9103C224.946 50.9104 219.511 43.3725 211.507 42.0739C203.503 40.7753 195.962 46.2078 194.663 54.2078C193.363 62.2077 198.799 69.7457 206.802 71.0443C214.806 72.3429 222.348 66.9103 223.647 58.9103Z" fill="white"/>
<path d="M201.149 70.9202C201.378 69.8477 201.56 69.162 201.56 69.162L197.455 62.2524C197.455 62.2524 196.136 63.5945 195.345 69.414C195.319 69.6039 195.334 69.7972 195.389 69.9807C195.444 70.1643 195.537 70.334 195.663 70.4784C195.79 70.6227 195.945 70.7384 196.12 70.8177C196.294 70.8969 196.484 70.9379 196.676 70.9378L201.149 70.9202Z" fill="#7C95F2"/>
<path d="M223.219 69.3729C222.088 64.327 220.071 61.9769 220.071 61.9769L217.514 70.4337C217.514 70.4337 217.59 70.5978 217.708 70.9201H221.982C222.172 70.9194 222.36 70.8761 222.531 70.7934C222.702 70.7107 222.852 70.5908 222.971 70.4424C223.09 70.294 223.174 70.1209 223.217 69.9358C223.26 69.7507 223.26 69.5584 223.219 69.3729V69.3729Z" fill="#7C95F2"/>
<path d="M201.114 70.9202C205.312 72.4615 211.012 72.2446 217.661 70.9202C217.819 70.2755 218.03 69.5839 218.312 68.7869L220.071 61.9711C217.608 59.7675 214.149 59.0408 212.818 58.8357C210.608 58.3939 208.336 58.3641 206.116 58.7478C202.965 59.0674 199.97 60.2746 197.479 62.229L200.516 69.1327C200.756 69.7143 200.956 70.3115 201.114 70.9202V70.9202Z" fill="#7C95F2"/>
<path d="M206.743 55.4189L206.638 58.8592C206.633 59.025 206.681 59.1879 206.775 59.3248C206.868 59.4617 207.003 59.5653 207.159 59.621C208.579 60.1613 210.137 60.219 211.592 59.7851C211.761 59.7226 211.903 59.604 211.995 59.4494C212.086 59.2947 212.122 59.1132 212.096 58.9353L211.575 55.4189H206.743Z" fill="url(#paint0_linear_65_538)"/>
<path d="M205.494 49.6405C205.494 49.6405 205.699 54.2879 206.509 56.0871C207.318 57.8863 209.341 57.9039 209.54 57.9039C210.157 57.79 210.744 57.552 211.266 57.2045C211.788 56.8569 212.234 56.407 212.577 55.882C213.586 54.2645 213.99 49.0076 213.99 49.0076C213.99 49.0076 212.173 46.9857 209.745 46.7864C207.318 46.5872 205.494 48.6266 205.494 49.6405Z" fill="url(#paint1_linear_65_538)"/>
<path d="M213.081 51.3166C213.081 51.3166 214.008 49.9276 214.471 50.3906C214.934 50.8536 214.008 53.866 213.081 53.866C212.155 53.866 213.081 51.3166 213.081 51.3166Z" fill="url(#paint2_linear_65_538)"/>
<path d="M206.116 51.551C206.116 51.551 204.943 49.9277 204.491 50.3789C204.04 50.8302 205.189 53.8543 206.116 53.8543V51.551Z" fill="url(#paint3_linear_65_538)"/>
<path d="M214.536 48.5036C214.536 48.1871 214.536 47.8589 214.506 47.4897C214.497 47.1195 214.516 46.7492 214.565 46.3821C214.577 46.1311 214.53 45.8809 214.428 45.6513C214.326 45.4217 214.172 45.2191 213.978 45.0597C213.783 44.9002 213.554 44.7884 213.309 44.7331C213.064 44.6778 212.809 44.6805 212.565 44.7411C212.489 44.767 212.407 44.767 212.331 44.7411C212.237 44.7059 212.196 44.6004 212.155 44.5067C211.936 43.9022 211.514 43.3922 210.962 43.0631C210.409 42.7341 209.76 42.6064 209.124 42.7016C208.576 42.7696 208.055 42.9751 207.609 43.299C207.163 43.6229 206.807 44.0545 206.573 44.5536C206.552 44.6128 206.515 44.6653 206.467 44.706C206.414 44.721 206.357 44.721 206.303 44.706C205.758 44.706 205.131 44.5946 204.661 44.9287C204.461 45.0682 204.294 45.2504 204.172 45.4621C204.051 45.6739 203.977 45.9101 203.958 46.1535C203.971 46.6918 204.12 47.2179 204.392 47.6831C204.485 47.8172 204.55 47.9693 204.581 48.1298C204.613 48.2903 204.61 48.4555 204.574 48.6149C204.538 48.7087 204.48 48.7908 204.439 48.8787C203.94 49.8691 205.248 50.8419 205.488 51.7269C205.67 52.4008 205.858 53.0748 206.039 53.7487C206.121 53.3182 206.145 52.8787 206.11 52.4419C206.008 51.8468 205.943 51.2459 205.916 50.6427C205.929 50.2103 206.037 49.786 206.233 49.4003C206.421 49.0252 206.772 48.861 207.036 48.5387C207.256 48.7883 207.546 48.9659 207.869 49.0486C208.068 49.0644 208.268 49.0365 208.455 48.9666C208.754 48.8728 209.182 48.5329 209.475 48.5095C209.769 48.486 209.868 48.7908 210.062 48.9549C210.355 49.179 210.701 49.3245 211.066 49.3779C211.431 49.4312 211.804 49.3905 212.149 49.2596C211.997 49.3241 212.864 50.9416 212.894 51.0881C213.058 51.9489 213.158 52.8205 213.193 53.696C213.263 53.7488 213.339 53.6433 213.363 53.5612C213.493 52.9806 213.595 52.3938 213.668 51.8031C213.814 51.1387 214.01 50.4862 214.254 49.8515C214.421 49.4205 214.516 48.9652 214.536 48.5036Z" fill="url(#paint4_linear_65_538)"/>
<path d="M241.5 63C249.508 63 256 56.5081 256 48.5C256 40.4919 249.508 34 241.5 34C233.492 34 227 40.4919 227 48.5C227 56.5081 233.492 63 241.5 63Z" fill="#E56A20"/>
<path d="M241.5 62C248.956 62 255 55.9558 255 48.5C255 41.0442 248.956 35 241.5 35C234.044 35 228 41.0442 228 48.5C228 55.9558 234.044 62 241.5 62Z" fill="white"/>
<path d="M238.277 45.4385C237.427 45.4385 236.518 45.5498 236.213 44.5242C235.585 42.5902 236.635 39.7068 238.365 38.6637C238.962 38.3424 239.611 38.1263 240.282 38.0249C240.999 37.8156 241.768 37.8803 242.44 38.2065C243.091 38.5582 243.724 37.9956 244.392 38.4468C244.96 38.8536 245.414 39.3982 245.712 40.0292C246.083 40.8368 246.345 41.6901 246.491 42.5668C246.542 42.7578 246.554 42.9571 246.527 43.1529C246.48 43.3154 246.405 43.4683 246.304 43.6041C246.016 44.1448 245.589 44.5994 245.068 44.9217C244.547 45.2439 243.95 45.4223 243.337 45.4385H238.277Z" fill="url(#paint5_linear_65_538)"/>
<path d="M238.107 42.0394C238.107 42.0394 238.265 42.3618 237.257 42.8658C236.7 43.1471 235.615 43.5632 235.468 44.7763C235.392 45.4034 235.152 46.9447 234.554 47.0444C233.07 47.2788 231.065 48.2164 230.877 50.0097C230.666 52.0727 231.258 53.1569 232.314 53.4265C233.088 53.6257 233.281 53.8367 233.123 54.6513C232.965 55.4659 233.568 58.2438 234.882 58.9588C237.814 60.5646 240.317 53.2565 240.317 53.2565L240.904 43.8152L238.107 42.0394Z" fill="url(#paint6_linear_65_538)"/>
<path d="M244.779 41.213C244.779 41.213 244.627 41.5588 245.647 42.0921C246.233 42.3851 247.324 42.8306 247.471 44.114C247.547 44.7763 247.723 45.7081 248.327 45.8077C249.839 46.0597 251.593 47.5307 251.962 50.3906C252.249 52.5708 251.628 54.9092 250.555 55.1963C249.769 55.4073 249.828 54.9912 249.968 55.8527C250.109 56.7142 249.763 56.3625 248.444 57.1244C245.483 58.8239 242.528 53.0982 242.528 53.0982L241.941 43.0943L244.779 41.213Z" fill="url(#paint7_linear_65_538)"/>
<path d="M240.804 51.6976C240.804 51.6976 243.05 51.1115 243.525 51.8324C243.765 53.0045 243.888 54.1766 243.888 54.1766L241.302 54.6631L239.59 54.2704L239.18 54.036L239.01 52.3481C239.573 52.0456 240.178 51.8264 240.804 51.6976V51.6976Z" fill="url(#paint8_linear_65_538)"/>
<path d="M238.113 45.6963C238.113 45.6963 237.749 44.6121 237.21 44.9755C236.67 45.3388 238.019 47.6362 238.019 47.6362L238.113 45.6963Z" fill="url(#paint9_linear_65_538)"/>
<path d="M243.525 45.6963C243.525 45.6963 243.525 44.073 244.428 44.9755C245.331 45.878 243.525 47.1381 243.525 47.1381V45.6963Z" fill="url(#paint10_linear_65_538)"/>
<path d="M252.027 60.4474C251.27 56.7962 250.185 53.948 249.845 53.7839L247.793 58.8533C247.524 59.9599 247.396 61.096 247.412 62.2348H250.567C250.788 62.2349 251.006 62.1859 251.206 62.0913C251.405 61.9966 251.581 61.8588 251.721 61.6877C251.861 61.5165 251.961 61.3164 252.014 61.1019C252.067 60.8874 252.071 60.6638 252.027 60.4474V60.4474Z" fill="#F97B3D"/>
<path d="M236.254 62.2348C236.348 60.6056 236.307 59.58 236.307 59.58L233.416 54.8916C233.061 56.6145 232.82 58.3588 232.695 60.1133C232.695 60.2891 232.66 60.4708 232.648 60.6525C232.631 60.8534 232.656 61.0558 232.721 61.2466C232.786 61.4373 232.891 61.6124 233.028 61.7607C233.164 61.909 233.331 62.0272 233.516 62.1078C233.7 62.1884 233.9 62.2297 234.102 62.229L236.254 62.2348Z" fill="#F97B3D"/>
<path d="M240.253 62.2465H243.396L244.246 53.2857C244.246 53.2857 243.525 53.0982 243.167 51.8381C242.89 50.5897 242.708 49.3222 242.622 48.0464L239.373 48.7672C239.373 48.7672 239.737 52.2015 239.016 53.8307L240.253 62.2465Z" fill="url(#paint11_linear_65_538)"/>
<path d="M245.09 62.2465L245.547 56.5911C242.252 58.5602 238.863 58.4665 235.427 57.4174L236.4 62.2465H245.09Z" fill="url(#paint12_linear_65_538)"/>
<path d="M241.021 62.2347C240.048 57.5463 239.016 52.3773 239.016 52.3773L238.47 53.4556L233.416 54.909C233.662 56.0811 234.419 59.24 235.175 62.2347H241.021Z" fill="#F97B3D"/>
<path d="M248.245 62.2347C248.514 60.793 248.749 59.6678 248.749 59.6678L249.845 53.8072C249.499 53.4615 244.105 52.7231 244.105 52.7231L243.519 51.8616C243.519 51.8616 242.798 57.095 242.182 62.2582L248.245 62.2347Z" fill="#F97B3D"/>
<path d="M237.743 43.1704C237.743 43.1704 237.561 47.5014 238.107 48.2222C238.652 48.943 239.367 50.5664 240.634 50.7481C241.9 50.9297 243.882 47.3197 243.882 47.138C243.882 46.9563 243.7 42.2679 243.7 42.2679C243.7 42.2679 239.913 39.1911 237.743 43.1704Z" fill="url(#paint13_linear_65_538)"/>
<path d="M237.028 42.4496C237.028 42.4496 236.307 44.6121 238.47 43.8913L240.64 43.1704C240.64 43.1704 242.803 41.9046 243.167 42.4496C243.476 43.0462 243.718 43.6751 243.888 44.3249C243.888 44.3249 244.609 42.4496 243.888 41.3947C243.167 40.3398 238.652 39.3787 237.028 42.4496Z" fill="url(#paint14_linear_65_538)"/>
<path d="M216 109C225.389 109 233 101.613 233 92.5C233 83.3873 225.389 76 216 76C206.611 76 199 83.3873 199 92.5C199 101.613 206.611 109 216 109Z" fill="#E56A20"/>
<path d="M216 108C224.284 108 231 101.06 231 92.5C231 83.9396 224.284 77 216 77C207.716 77 201 83.9396 201 92.5C201 101.06 207.716 108 216 108Z" fill="white"/>
<path d="M216.254 90.8635C218.993 90.8635 221.214 88.6438 221.214 85.9055C221.214 83.1673 218.993 80.9475 216.254 80.9475C213.514 80.9475 211.293 83.1673 211.293 85.9055C211.293 88.6438 213.514 90.8635 216.254 90.8635Z" fill="url(#paint15_linear_65_538)"/>
<path d="M211.492 84.5165C209.311 92.0531 207.828 98.91 208.068 100.832L214.424 100.164L215.163 86.2219L211.492 84.5165Z" fill="url(#paint16_linear_65_538)"/>
<path d="M218.529 83.7312L217.655 100.768L224.849 104.601C224.697 98.7752 221.718 83.8073 220.505 83.4088L218.529 83.7312Z" fill="url(#paint17_linear_65_538)"/>
<path d="M218.529 92.9674L218.74 97.609L214.237 98.2888L213.955 93.4187L218.529 92.9674Z" fill="url(#paint18_linear_65_538)"/>
<path d="M220.663 90.1778C220.663 90.1778 219.584 95.001 216.664 95.5753C213.744 96.1497 212.882 91.6195 212.724 91.2913C212.724 91.2913 212.073 91.596 211.926 90.9513C211.78 90.3067 211.012 88.6658 212.46 88.7009C212.46 88.7009 212.179 87.0776 212.677 86.2864C213.175 85.4952 214.196 83.573 216.283 84.1063C218.37 84.6396 221.707 86.386 220.663 90.1778Z" fill="url(#paint19_linear_65_538)"/>
<path d="M218.669 96.0383L221.525 97.5503L217.784 101.653L210.871 97.3042C211.848 96.8579 212.863 96.4971 213.902 96.2258L218.669 96.0383Z" fill="url(#paint20_linear_65_538)"/>
<path d="M212.624 84.3876C211.651 85.7473 212.419 86.9604 212.155 87.9391C213.816 87.4699 215.53 87.2139 217.256 87.1772C217.45 86.5267 217.063 85.419 216.863 84.581C217.174 85.3956 217.889 86.6381 217.813 87.2828C219.103 87.3414 218.839 87.3589 220.288 87.9391L219.156 84.0067C216.635 82.8287 214.471 82.9811 212.624 84.3876Z" fill="url(#paint21_linear_65_538)"/>
<path d="M217.432 79.7578C217.432 80.7072 216.541 81.768 215.896 81.768C215.368 81.768 214.366 80.7072 214.366 79.7578C214.343 79.5427 214.365 79.3253 214.432 79.1195C214.498 78.9137 214.607 78.7242 214.752 78.5633C214.896 78.4024 215.073 78.2738 215.271 78.1857C215.469 78.0976 215.683 78.0521 215.899 78.0521C216.115 78.0521 216.329 78.0976 216.527 78.1857C216.725 78.2738 216.901 78.4024 217.046 78.5633C217.191 78.7242 217.3 78.9137 217.366 79.1195C217.433 79.3253 217.455 79.5427 217.432 79.7578V79.7578Z" fill="url(#paint22_linear_65_538)"/>
<path d="M223.571 107.842L225.148 99.1035C223.008 97.6442 221.044 96.9527 218.699 96.0619C217.966 97.5798 214.629 97.4274 213.932 96.2494C211.659 96.864 209.504 97.8544 207.558 99.1797L209.71 107.818L223.571 107.842Z" fill="#F97B3D"/>
<path d="M227.887 106.3C226.614 100.856 225.148 99.1034 225.148 99.1034L222.803 106.259C223.05 106.774 223.269 107.303 223.46 107.841H226.673C226.862 107.84 227.047 107.797 227.217 107.714C227.386 107.631 227.535 107.511 227.651 107.363C227.768 107.215 227.85 107.042 227.89 106.858C227.931 106.674 227.93 106.484 227.887 106.3Z" fill="#F97B3D"/>
<path d="M209.839 107.841C210.118 106.839 210.473 105.86 210.9 104.911L207.529 99.1913C206.364 101.447 205.617 103.895 205.324 106.417C205.302 106.594 205.317 106.774 205.37 106.945C205.422 107.115 205.51 107.272 205.629 107.406C205.747 107.54 205.892 107.647 206.055 107.72C206.218 107.793 206.395 107.83 206.573 107.83L209.839 107.841Z" fill="#F97B3D"/>
<path d="M219.009 84.0887C220.68 88.3083 221.513 100.199 220.493 106.488C222.088 100.996 224.075 94.0341 221.038 84.6689L219.009 84.0887Z" fill="url(#paint23_linear_65_538)"/>
<path d="M251 95C259.284 95 266 88.2843 266 80C266 71.7157 259.284 65 251 65C242.716 65 236 71.7157 236 80C236 88.2843 242.716 95 251 95Z" fill="#E56A20"/>
<path d="M251 94C258.732 94 265 87.732 265 80C265 72.268 258.732 66 251 66C243.268 66 237 72.268 237 80C237 87.732 243.268 94 251 94Z" fill="white"/>
<path d="M260.024 95.1768C260.205 95.1768 260.385 95.1409 260.552 95.0713C260.719 95.0016 260.871 94.8995 260.999 94.771C261.126 94.6424 261.227 94.4899 261.295 94.3221C261.363 94.1544 261.398 93.9748 261.396 93.7937C261.396 91.6136 261.338 89.6913 261.238 88.6364C260.974 85.9347 259.543 85.0791 259.543 85.0791L258.81 95.1768H260.024Z" fill="url(#paint24_linear_65_538)"/>
<path d="M256.506 95.1768C256.401 89.5155 256.295 84.8388 256.295 84.8388C253.733 83.2623 244.269 83.4616 244.269 83.4616C244.269 83.4616 243.612 88.9178 242.862 95.1827L256.506 95.1768Z" fill="#F97B3D"/>
<path d="M240.868 95.1768H249.664C249.382 92.4399 247.107 82.3187 247.107 82.3187L240.071 84.4813C240.071 84.4813 240.628 90.7931 240.628 92.7622C240.616 93.2135 240.739 94.0867 240.868 95.1768Z" fill="url(#paint25_linear_65_538)"/>
<path d="M241.138 95.1768C241.138 91.8421 241.109 85.6886 240.059 84.493C240.059 84.493 238.693 85.1904 237.315 89.7206C236.916 91.0334 236.553 92.2699 236.219 93.4538C236.162 93.655 236.152 93.8668 236.19 94.0724C236.229 94.278 236.315 94.4719 236.441 94.6388C236.567 94.8058 236.73 94.9412 236.917 95.0345C237.105 95.1278 237.311 95.1766 237.52 95.1768H241.138Z" fill="url(#paint26_linear_65_538)"/>
<path d="M259.28 95.1768C259.538 90.377 259.76 85.2724 259.549 85.0615C259.151 84.6629 254.413 83.1216 254.413 83.1216C254.413 83.1216 251.329 92.5512 250.613 95.1768H259.28Z" fill="url(#paint27_linear_65_538)"/>
<path d="M247.418 83.9949L248.59 79.8574H252.929L253.516 84.5868C253.516 84.5868 249.781 85.5714 247.418 83.9949Z" fill="url(#paint28_linear_65_538)"/>
<path d="M247.418 74.4833C247.418 74.4833 247.822 78.4391 248.508 79.9863C248.748 80.4618 249.117 80.8595 249.574 81.1334C250.031 81.4073 250.556 81.546 251.088 81.5335C251.612 81.4358 252.11 81.2334 252.554 80.9383C252.997 80.6432 253.376 80.2616 253.668 79.8163C254.524 78.4391 254.841 73.9558 254.841 73.9558C253.883 72.9393 252.611 72.2746 251.229 72.0687C249.2 71.9105 247.418 73.6218 247.418 74.4833Z" fill="url(#paint29_linear_65_538)"/>
<path d="M254.12 75.9132C254.12 75.9132 254.905 74.7411 255.292 75.1279C255.679 75.5146 254.894 78.0581 254.12 78.0581C253.346 78.0581 254.12 75.9132 254.12 75.9132Z" fill="url(#paint30_linear_65_538)"/>
<path d="M248.203 76.1124C248.203 76.1124 247.218 74.7351 246.826 75.1278C246.433 75.5205 247.412 78.0581 248.203 78.0581V76.1124Z" fill="url(#paint31_linear_65_538)"/>
<path d="M256.143 73.569C256.347 73.0192 256.414 72.4275 256.336 71.846C256.236 70.9669 255.75 69.3435 255.116 68.693C255.298 68.8805 253.533 69.6248 253.258 69.6014C253.791 69.1677 254.43 68.6754 254.477 67.9194C253.833 68.2918 253.118 68.5272 252.378 68.6109C250.561 68.9333 248.602 68.863 247.201 70.2402C246.891 70.5305 246.654 70.89 246.509 71.2892C246.364 71.6884 246.316 72.1161 246.368 72.5375C246.48 73.1236 247.377 73.7799 246.825 74.3367C246.433 74.7352 247.623 75.4502 247.816 76.5696C247.826 76.6508 247.842 76.7311 247.863 76.8098C247.863 76.2238 247.629 75.6377 247.641 75.0517C247.67 73.8796 249.4 73.8268 250.232 73.7506C251.352 73.651 252.578 73.6627 253.545 73.0063C253.938 72.7426 254.19 74.8935 254.208 74.9989C254.341 75.6185 254.379 76.255 254.319 76.886H254.589C254.665 76.1593 254.589 75.4619 255.128 74.9345C255.394 74.689 255.636 74.4182 255.849 74.1257C255.966 73.9505 256.064 73.764 256.143 73.569Z" fill="url(#paint32_linear_65_538)"/>
<path d="M248.391 80.5899C248.297 81.3436 248.134 82.0871 247.904 82.8111C247.641 83.5964 247.834 84.6923 247.852 85.5186C247.852 86.6907 248.772 87.939 248.573 89.0759C248.069 87.6636 246.538 86.5618 245.747 85.2431C244.955 83.9245 244.433 82.8989 245.313 81.7268C245.852 80.9474 248.403 80.5196 248.391 80.5899Z" fill="url(#paint33_linear_65_538)"/>
<path d="M253.035 84.3817C253.14 86.7845 252.671 87.2768 252.284 89.7089C252.8 88.0621 253.955 87.2007 254.87 85.7355C255.785 84.2704 256.043 82.4946 254.589 81.5335C254.489 81.4632 253.064 80.8068 253.07 80.9474C253.088 81.2873 252.988 83.3385 253.035 84.3817Z" fill="url(#paint34_linear_65_538)"/>
<path d="M115.5 101C121.299 101 126 96.299 126 90.5C126 84.701 121.299 80 115.5 80C109.701 80 105 84.701 105 90.5C105 96.299 109.701 101 115.5 101Z" fill="url(#paint35_linear_65_538)"/>
<path d="M115 101C120.523 101 125 96.5228 125 91C125 85.4772 120.523 81 115 81C109.477 81 105 85.4772 105 91C105 96.5228 109.477 101 115 101Z" fill="#63367D"/>
<path opacity="0.7" d="M107.097 87H107.05C107.028 86.9858 107.012 86.9627 107.005 86.9353C106.997 86.908 106.999 86.8783 107.009 86.8523C107.908 84.8007 109.359 83.139 111.146 82.1152C112.933 81.0915 114.959 80.7607 116.922 81.1721C116.934 81.1737 116.946 81.1782 116.957 81.1852C116.967 81.1923 116.976 81.2018 116.983 81.2132C116.991 81.2246 116.996 81.2376 116.998 81.2513C117.001 81.265 117.001 81.2792 116.998 81.2929C116.997 81.3069 116.993 81.3204 116.987 81.3325C116.981 81.3446 116.972 81.3551 116.962 81.3633C116.953 81.3716 116.941 81.3773 116.929 81.3802C116.917 81.3831 116.905 81.3831 116.893 81.3802C116.352 81.2702 115.804 81.214 115.255 81.2124C113.577 81.2075 111.931 81.7415 110.502 82.7545C109.074 83.7674 107.918 85.2191 107.167 86.9463C107.16 86.9613 107.15 86.9741 107.138 86.9834C107.126 86.9928 107.111 86.9985 107.097 87V87Z" fill="white"/>
<path d="M115.5 99C120.194 99 124 95.1944 124 90.5C124 85.8056 120.194 82 115.5 82C110.806 82 107 85.8056 107 90.5C107 95.1944 110.806 99 115.5 99Z" fill="#FFE4D7"/>
<path d="M118 87.6938C118 89.2815 116.866 91 115.5 91C114.134 91 113 89.2815 113 87.6938C113.043 86.9631 113.325 86.2785 113.789 85.7784C114.253 85.2782 114.865 85 115.5 85C116.135 85 116.747 85.2782 117.211 85.7784C117.675 86.2785 117.957 86.9631 118 87.6938Z" fill="#E56A20"/>
<path d="M111.794 96H118.123C118.449 96.0007 118.766 95.8911 119.029 95.687C119.292 95.4828 119.487 95.1947 119.587 94.8643L119.928 93.7286C120.047 93.3273 120.018 92.8921 119.845 92.5135C119.672 92.1349 119.369 91.842 118.999 91.6957C116.415 90.7368 113.599 90.7701 111.036 91.7898C110.668 91.9224 110.361 92.2003 110.178 92.5666C109.996 92.933 109.951 93.3599 110.054 93.76L110.319 94.7953C110.407 95.1406 110.6 95.4455 110.866 95.6631C111.133 95.8806 111.458 95.999 111.794 96V96Z" fill="#E56A20"/>
<path d="M134 85C139.523 85 144 80.299 144 74.5C144 68.701 139.523 64 134 64C128.477 64 124 68.701 124 74.5C124 80.299 128.477 85 134 85Z" fill="url(#paint36_linear_65_538)"/>
<path d="M143.659 76.2515C144.541 70.8202 140.851 65.7026 135.417 64.821C129.983 63.9394 124.862 67.6276 123.98 73.0589C123.098 78.4901 126.788 83.6078 132.222 84.4894C137.656 85.371 142.777 81.6828 143.659 76.2515Z" fill="#63367D"/>
<path opacity="0.7" d="M126.093 70.9958C126.079 71.0014 126.065 71.0014 126.052 70.9958C126.041 70.9901 126.031 70.9818 126.023 70.9714C126.015 70.9611 126.008 70.9489 126.004 70.9356C126.001 70.9223 125.999 70.9083 126 70.8944C126.002 70.8805 126.005 70.8669 126.011 70.8547C126.777 69.0905 127.954 67.6078 129.411 66.5734C130.868 65.539 132.546 64.9941 134.257 65C134.815 65.0009 135.373 65.0593 135.922 65.1746C135.935 65.1762 135.946 65.1807 135.957 65.1877C135.967 65.1948 135.976 65.2044 135.983 65.2158C135.991 65.2271 135.996 65.2401 135.998 65.2538C136.001 65.2675 136.001 65.2818 135.998 65.2955C135.996 65.3097 135.991 65.3233 135.985 65.3354C135.978 65.3476 135.969 65.358 135.959 65.3662C135.949 65.3743 135.937 65.38 135.925 65.3829C135.912 65.3857 135.9 65.3857 135.887 65.3828C135.349 65.2731 134.804 65.2169 134.257 65.2149C132.581 65.2093 130.937 65.7429 129.51 66.7559C128.083 67.7689 126.93 69.221 126.18 70.9487C126.17 70.965 126.157 70.978 126.142 70.9862C126.127 70.9945 126.109 70.9978 126.093 70.9958V70.9958Z" fill="white"/>
<path d="M142.362 76.2256C143.108 71.6282 139.985 67.2963 135.385 66.55C130.785 65.8038 126.451 68.9258 125.705 73.5232C124.958 78.1206 128.082 82.4525 132.681 83.1988C137.281 83.945 141.615 80.823 142.362 76.2256Z" fill="#FFE4D7"/>
<path d="M137 71.7249C137 73.2977 135.641 75 134.003 75C132.366 75 131 73.2977 131 71.7249C131.037 70.9905 131.369 70.2978 131.927 69.7904C132.486 69.2831 133.228 69 134 69C134.772 69 135.514 69.2831 136.073 69.7904C136.631 70.2978 136.963 70.9905 137 71.7249V71.7249Z" fill="#E56A20"/>
<path d="M130.795 80H137.125C137.45 80.0004 137.766 79.8906 138.028 79.6863C138.29 79.4821 138.485 79.1941 138.583 78.8641L138.924 77.7281C139.047 77.3275 139.02 76.8916 138.848 76.5122C138.675 76.1328 138.372 75.8396 138.001 75.6946C135.415 74.7371 132.597 74.7704 130.031 75.7888C129.663 75.9226 129.358 76.2011 129.177 76.5674C128.995 76.9337 128.952 77.3601 129.055 77.7595L129.319 78.795C129.406 79.1416 129.598 79.4476 129.865 79.6656C130.132 79.8835 130.459 80.0011 130.795 80V80Z" fill="#E56A20"/>
<path d="M137.5 109C143.299 109 148 104.299 148 98.5C148 92.701 143.299 88 137.5 88C131.701 88 127 92.701 127 98.5C127 104.299 131.701 109 137.5 109Z" fill="url(#paint37_linear_65_538)"/>
<path d="M138 108C143.523 108 148 103.523 148 98C148 92.4772 143.523 88 138 88C132.477 88 128 92.4772 128 98C128 103.523 132.477 108 138 108Z" fill="#63367D"/>
<path opacity="0.7" d="M128.277 97.9999C128.238 97.9994 128.2 97.9971 128.165 97.993C128.13 97.989 128.099 97.9834 128.074 97.9766C128.048 97.9697 128.028 97.9617 128.016 97.9531C128.003 97.9444 127.998 97.9353 128.001 97.9262C128.057 97.6348 128.198 97.3446 128.424 97.0578C128.428 97.0488 128.44 97.0401 128.46 97.0323C128.479 97.0244 128.505 97.0176 128.536 97.0123C128.568 97.007 128.603 97.0033 128.641 97.0014C128.678 96.9995 128.717 96.9995 128.755 97.0014C128.793 97.0024 128.83 97.0053 128.863 97.0099C128.896 97.0145 128.925 97.0207 128.948 97.028C128.97 97.0354 128.986 97.0437 128.994 97.0526C129.002 97.0615 129.002 97.0706 128.994 97.0795C128.782 97.3667 128.647 97.6567 128.589 97.9478C128.569 97.9635 128.527 97.9771 128.471 97.9865C128.414 97.9959 128.346 98.0006 128.277 97.9999V97.9999Z" fill="white"/>
<path opacity="0.7" d="M129.093 94H129.052C129.041 93.9947 129.031 93.9872 129.023 93.9781C129.014 93.9689 129.008 93.9583 129.004 93.9468C129.001 93.9353 128.999 93.9232 129 93.9112C129.002 93.8992 129.005 93.8876 129.011 93.877C129.778 92.4082 130.956 91.1738 132.413 90.3123C133.869 89.4508 135.547 88.9964 137.258 89C137.817 89.0007 138.374 89.0494 138.924 89.1454C138.947 89.1519 138.968 89.166 138.982 89.1854C138.996 89.2048 139.002 89.2283 139 89.2517C138.997 89.2635 138.993 89.2749 138.986 89.285C138.979 89.2951 138.971 89.3038 138.96 89.3106C138.95 89.3174 138.938 89.3221 138.926 89.3245C138.914 89.3268 138.901 89.3268 138.889 89.3244C136.966 88.9893 134.981 89.2596 133.231 90.095C131.48 90.9305 130.058 92.2863 129.174 93.9609C129.165 93.9732 129.153 93.9831 129.139 93.99C129.124 93.9968 129.109 94.0002 129.093 94V94Z" fill="white"/>
<path d="M137.5 107C142.194 107 146 103.194 146 98.5C146 93.8056 142.194 90 137.5 90C132.806 90 129 93.8056 129 98.5C129 103.194 132.806 107 137.5 107Z" fill="#FFE4D7"/>
<path d="M140 95.2424C140 96.5696 138.866 98 137.5 98C136.134 98 135 96.5696 135 95.2424C135.043 94.6342 135.325 94.0642 135.789 93.6479C136.253 93.2316 136.865 93 137.5 93C138.135 93 138.747 93.2316 139.211 93.6479C139.675 94.0642 139.957 94.6342 140 95.2424V95.2424Z" fill="#E56A20"/>
<path d="M134.798 104H141.129C141.453 103.999 141.769 103.889 142.031 103.685C142.293 103.481 142.487 103.194 142.587 102.865L142.928 101.723C143.047 101.322 143.018 100.887 142.845 100.509C142.672 100.131 142.369 99.8377 141.999 99.6914C139.414 98.7382 136.599 98.7715 134.034 99.7855C133.667 99.9219 133.361 100.201 133.179 100.568C132.997 100.934 132.952 101.36 133.052 101.761L133.317 102.79C133.404 103.137 133.597 103.444 133.865 103.663C134.133 103.881 134.461 104 134.798 104Z" fill="#E56A20"/>
<path d="M154.538 98C154.538 98 151.718 99.3845 151.201 100.98C150.783 102.253 147.667 102.423 147.36 104.934C147.292 105.563 147.022 106.151 146.591 106.609C146.16 107.067 145.592 107.369 144.975 107.468C141.789 107.961 136.886 109.633 136.096 115.218C135.516 119.483 137.652 121.084 139.909 121.671C140.709 121.859 141.407 122.352 141.858 123.047C142.308 123.742 142.477 124.585 142.329 125.402C142.009 127.027 142.491 128.922 145.271 130.383C151.503 133.709 157.729 122.51 157.729 122.51L159 102.951L154.538 98Z" fill="url(#paint38_linear_65_538)"/>
<path d="M189.224 93C189.224 93 176.333 112.897 161 116.747C161 116.747 164.006 125.049 166.291 126C166.291 126 185.154 110.638 190 95.8282L189.224 93Z" fill="url(#paint39_linear_65_538)"/>
<path d="M158.199 181L158.829 184.756C158.829 184.756 156.716 206.428 156.345 215.099C156.285 216.456 156.63 217.801 157.334 218.957L161 225L151.685 219.416L151.497 218.264L153.021 216.138L151.026 191.863C150.907 190.436 151.197 189.005 151.862 187.742L153.786 184.07L158.199 181Z" fill="url(#paint40_linear_65_538)"/>
<path d="M145 183.506C145 183.506 132.823 206.455 130.897 211.695C129.671 214.936 128.786 218.296 128.259 221.719C128.218 222.365 127.407 222.988 125.18 222.988C124.796 223.029 124.408 222.967 124.057 222.807C123.706 222.648 123.405 222.398 123.185 222.083C123.072 221.895 123.009 221.682 123.001 221.463C122.993 221.244 123.04 221.027 123.139 220.832C123.84 219.414 126.073 214.888 126.902 212.836C127.894 210.386 130.016 199.278 131.182 195.416C132.347 191.554 133.663 187.346 138.72 183.506C138.737 183.506 142.222 180.117 145 183.506Z" fill="url(#paint41_linear_65_538)"/>
<path d="M152.828 145.095C155.975 131.668 148 124.071 148 124.071C153.032 119.212 162.205 117 162.205 117C162.205 117 170.93 123.438 169.918 128.478C169.337 131.404 163.764 146.166 163.764 146.166C161.985 146.862 160.069 147.128 158.169 146.942C156.269 146.756 154.44 146.123 152.828 145.095V145.095Z" fill="#E56A20"/>
<path d="M145.696 151.552C147.027 147.725 152.956 145 152.956 145C154.633 146.014 156.536 146.638 158.512 146.822C160.488 147.005 162.481 146.743 164.331 146.056C164.331 146.056 165.541 150.414 164.706 154.467C163.871 158.519 158.704 184.558 158.704 184.558C150.542 186.139 138 182.97 138 182.97C143.191 174.173 144.359 155.384 145.696 151.552Z" fill="url(#paint42_linear_65_538)"/>
<path d="M156.754 108.065L154.042 119.227C153.783 120.209 154.763 120.045 155.848 119.859C157.623 119.554 159.915 118.922 160.68 117.657C160.755 117.525 160.803 117.381 160.821 117.234L161.986 109.493C162.03 109.194 161.967 108.889 161.806 108.625C161.645 108.362 161.394 108.153 161.093 108.031L158.849 107.122C158.646 107.038 158.425 106.997 158.202 107C157.979 107.004 157.76 107.052 157.56 107.142C157.36 107.232 157.184 107.362 157.044 107.521C156.905 107.681 156.806 107.866 156.754 108.065V108.065Z" fill="url(#paint43_linear_65_538)"/>
<path d="M161.717 97.4009C161.717 97.4009 164.463 99.2171 165.639 103.826C166.816 108.435 164.902 110.109 162.94 109.995C160.979 109.88 158.128 109.303 155.663 105.997C153.198 102.69 158.14 95.1906 161.717 97.4009Z" fill="url(#paint44_linear_65_538)"/>
<path d="M157.776 104.306C157.776 104.306 156.721 97.5724 162.613 98.6026L163.803 99.7665C163.803 99.7665 166.691 96.6878 163.496 94.354C160.302 92.0202 155.875 92.608 153.428 96.8624C150.982 101.117 150.087 104.085 152.141 106.721C154.195 109.358 155.74 107.1 155.74 107.1C155.74 107.1 154.796 104.818 155.58 103.841C156.365 102.863 157.371 104.423 157.371 104.423L157.776 104.306Z" fill="url(#paint45_linear_65_538)"/>
<path d="M157 104.544C157 104.544 156.488 101.209 154.655 102.176C152.823 103.143 155.312 105.272 156.313 106L157 104.544Z" fill="url(#paint46_linear_65_538)"/>
<path d="M189.008 97.6866C189.05 98.1029 187.496 98.3883 187 96.616C187.137 95.8428 187.376 92.4529 187.968 91.9473C191.129 89.158 196.764 86 196.764 86C196.946 86.2376 197.028 86.5371 196.991 86.8341C196.954 87.1311 196.802 87.4018 196.567 87.588L193.758 89.4792C194.144 90.416 194.401 91.4002 194.523 92.4053C194.556 93.2471 194.258 94.0685 193.692 94.695C193.066 95.4224 192.401 96.1172 191.703 96.7766C191.352 97.1217 190.927 97.3831 190.461 97.5407C189.994 97.6983 189.497 97.7482 189.008 97.6866V97.6866Z" fill="url(#paint47_linear_65_538)"/>
<path d="M190.71 96L190.307 95.815C190.363 95.6731 191.626 92.2878 192.235 91.5848C192.42 91.4106 192.539 91.1666 192.57 90.9003C192.558 90.7859 192.508 90.6804 192.43 90.6044L190.302 91.8377L189.363 93.4594L189 93.2004L190 91.4738L192.492 90L192.603 90.0987C192.715 90.1848 192.808 90.2967 192.877 90.4267C192.945 90.5566 192.987 90.7013 193 90.851C192.995 91.0501 192.953 91.2459 192.875 91.4255C192.797 91.6051 192.685 91.7645 192.547 91.8931C192.089 92.4481 191.067 95.0442 190.71 96Z" fill="url(#paint48_linear_65_538)"/>
<path d="M155.984 152H156.042H178.985C179.254 152 179.512 151.895 179.703 151.707C179.893 151.52 180 151.265 180 151C180 150.735 179.893 150.481 179.703 150.293C179.512 150.106 179.254 150 178.985 150H156.042C155.773 149.993 155.512 150.092 155.316 150.275C155.121 150.458 155.007 150.709 155 150.974C154.993 151.239 155.094 151.496 155.279 151.689C155.465 151.881 155.72 151.993 155.989 152H155.984Z" fill="url(#paint49_linear_65_538)"/>
<path d="M199.474 131H180.219C179.526 130.998 178.846 131.195 178.258 131.567C177.671 131.94 177.199 132.473 176.898 133.106L168 152H191.921C192.367 152.002 192.803 151.869 193.172 151.617C193.542 151.366 193.829 151.008 193.996 150.59L200.896 133.1C200.986 132.866 201.018 132.614 200.99 132.364C200.962 132.115 200.873 131.877 200.733 131.67C200.593 131.463 200.405 131.293 200.186 131.177C199.966 131.06 199.722 130.999 199.474 131Z" fill="url(#paint50_linear_65_538)"/>
<path d="M188.979 141.673C189.4 140.397 189.098 139.151 188.304 138.89C187.511 138.628 186.527 139.45 186.106 140.726C185.685 142.002 185.987 143.248 186.781 143.509C187.574 143.771 188.559 142.948 188.979 141.673Z" fill="#8FB0F8"/>
<path d="M147.888 124C144.632 127.167 140.496 141.214 142.549 143.561C144.371 146.295 150.506 150 156.362 150H165C161.355 146.283 158.871 145.317 155.888 147.94C153.525 146.962 150.458 143.199 148.417 141.501C148.027 141.18 147.768 140.737 147.685 140.25C147.601 139.762 147.699 139.262 147.961 138.838C149.583 136.186 151.606 133.465 152.268 130.825C152.389 127.764 150.014 124.222 147.888 124Z" fill="url(#paint51_linear_65_538)"/>
<path d="M189.217 225.998C189.103 225.991 188.993 225.963 188.891 225.914C188.789 225.864 188.698 225.796 188.623 225.712C186.462 223.256 170.606 203.934 188.207 183.9C204.912 164.887 212.825 160.651 213.14 150.179C213.15 149.915 213.246 149.661 213.415 149.456C213.584 149.25 213.815 149.104 214.076 149.038C214.336 148.973 214.611 148.992 214.859 149.092C215.108 149.192 215.317 149.369 215.455 149.596C220.204 157.466 228.034 176.07 207.833 190.154C185.554 205.69 188.623 220.683 190.077 224.901C190.124 225.03 190.137 225.168 190.116 225.302C190.095 225.437 190.04 225.564 189.957 225.673C189.873 225.782 189.763 225.869 189.637 225.925C189.511 225.982 189.373 226.007 189.234 225.998H189.217Z" fill="#FC986D"/>
<path d="M191.981 213.998C191.719 213.988 191.468 213.895 191.268 213.735C191.067 213.574 190.928 213.355 190.872 213.111C190.042 209.719 187.665 196.987 197.31 192.871C207.926 188.348 217.494 197.394 224.921 189.241C224.999 189.135 225.113 189.057 225.244 189.022C225.375 188.986 225.515 188.994 225.64 189.046C225.766 189.097 225.869 189.187 225.932 189.302C225.995 189.417 226.015 189.549 225.988 189.677C225.585 193.691 223.131 203.093 209.13 205.959C194.144 209.017 192.573 210.798 193.042 212.834C193.073 212.98 193.069 213.131 193.029 213.275C192.989 213.419 192.915 213.553 192.812 213.665C192.71 213.778 192.581 213.867 192.437 213.924C192.293 213.982 192.137 214.007 191.981 213.998V213.998Z" fill="#FC986D"/>
<path d="M213 161.228C212.873 161.995 212.691 162.752 212.455 163.492C212.226 164.228 211.958 164.951 211.65 165.657C211.044 167.075 210.319 168.438 209.483 169.732C207.798 172.338 205.751 174.69 203.404 176.716C202.233 177.711 201.011 178.644 199.742 179.51C198.528 180.349 197.367 181.263 196.266 182.246C194.065 184.215 192.096 186.429 190.396 188.846C186.936 193.689 184.844 199.38 184.34 205.319C184.122 208.286 184.329 211.269 184.955 214.177C185.603 217.098 186.603 219.928 187.933 222.606C187.958 222.672 187.958 222.746 187.933 222.812C187.908 222.879 187.859 222.934 187.796 222.967C187.734 223 187.661 223.009 187.592 222.991C187.523 222.974 187.463 222.932 187.423 222.873C185.911 220.208 184.754 217.355 183.981 214.387C183.596 212.896 183.321 211.379 183.158 209.847C183.002 208.31 182.961 206.763 183.037 205.22C183.192 202.121 183.799 199.061 184.839 196.14C185.887 193.225 187.303 190.457 189.051 187.904C190.798 185.351 192.843 183.018 195.141 180.954C196.29 179.91 197.501 178.938 198.769 178.043C199.99 177.243 201.17 176.38 202.303 175.459C204.578 173.57 206.612 171.406 208.359 169.016C209.232 167.818 210.02 166.56 210.717 165.25C211.422 163.949 212.004 162.585 212.455 161.176V161.176C212.478 161.115 212.521 161.064 212.578 161.033C212.635 161.002 212.701 160.992 212.764 161.007C212.827 161.021 212.883 161.058 212.921 161.11C212.959 161.163 212.977 161.227 212.971 161.292L213 161.228Z" fill="#E56A20"/>
<path d="M191.19 211.672C191.217 211.549 191.217 211.421 191.19 211.298L191.155 210.929L191.089 210.198C191.054 209.712 191.024 209.221 191.012 208.735C190.982 207.758 191.012 206.775 191.048 205.809C191.141 203.84 191.503 201.891 192.123 200.017C192.728 198.089 193.887 196.376 195.46 195.084C196.282 194.468 197.212 194.007 198.204 193.727C199.19 193.457 200.21 193.331 201.233 193.352C205.218 193.51 209.144 193.937 213.069 194.288C215.005 194.507 216.962 194.458 218.884 194.142C219.349 194.039 219.806 193.9 220.25 193.727C220.686 193.545 221.104 193.322 221.497 193.06C222.285 192.514 222.982 191.851 223.563 191.094V191.094C223.603 191.043 223.661 191.01 223.725 191.002C223.789 190.994 223.854 191.011 223.905 191.05C223.956 191.089 223.99 191.146 223.998 191.209C224.006 191.272 223.989 191.336 223.949 191.386C223.354 192.199 222.633 192.914 221.811 193.504C221.392 193.797 220.944 194.047 220.475 194.253C220.004 194.451 219.517 194.611 219.02 194.733C217.041 195.084 215.022 195.159 213.022 194.955C211.038 194.827 209.078 194.61 207.113 194.446C205.147 194.283 203.169 194.125 201.221 194.043C200.266 194.011 199.31 194.121 198.388 194.37C197.471 194.614 196.611 195.029 195.852 195.593C194.348 196.789 193.228 198.388 192.628 200.198C191.987 202.02 191.6 203.92 191.475 205.844C191.398 206.804 191.368 207.775 191.38 208.77C191.38 209.256 191.38 209.741 191.434 210.221L191.481 210.947L191.517 211.309C191.515 211.431 191.543 211.552 191.6 211.661C191.631 211.71 191.641 211.77 191.628 211.827C191.614 211.884 191.579 211.933 191.529 211.965C191.504 211.981 191.476 211.992 191.447 211.997C191.418 212.002 191.388 212.001 191.359 211.994C191.33 211.988 191.303 211.976 191.279 211.959C191.255 211.941 191.235 211.92 191.22 211.895C191.187 211.842 191.176 211.779 191.19 211.719V211.672Z" fill="#E56A20"/>
<path d="M127.995 221.284L127.6 224.632C127.564 224.941 127.428 225.229 127.213 225.449C126.998 225.67 126.716 225.809 126.414 225.845C124.96 226.025 123.491 226.048 122.032 225.916C121.861 225.898 121.696 225.842 121.549 225.75C121.403 225.659 121.278 225.535 121.185 225.387C121.091 225.24 121.031 225.072 121.009 224.898C120.987 224.724 121.004 224.546 121.058 224.38C121.465 223.084 122.204 221.143 123.258 220H126.889C127.046 220.005 127.2 220.043 127.342 220.111C127.484 220.179 127.61 220.276 127.714 220.397C127.817 220.517 127.896 220.658 127.944 220.811C127.993 220.963 128.01 221.124 127.995 221.284V221.284Z" fill="url(#paint52_linear_65_538)"/>
<path d="M161.108 225.997H158.064C157.782 226 157.504 225.944 157.251 225.835C156.997 225.726 156.777 225.567 156.606 225.369C155.66 224.304 153.695 222.174 152.755 222.094C151.489 222.02 151.646 225.997 151.646 225.997H150.941L150.043 221.056C149.931 220.45 150.039 219.829 150.351 219.28C150.662 218.731 151.162 218.283 151.778 218C151.778 218 152.068 219.89 153.635 220.726C155.202 221.562 160.023 224.559 160.023 224.559C160.433 224.508 160.849 224.508 161.258 224.559C161.365 224.568 161.469 224.595 161.564 224.64C161.659 224.684 161.743 224.744 161.811 224.817C161.88 224.89 161.932 224.974 161.963 225.065C161.995 225.155 162.006 225.25 161.997 225.345C161.987 225.439 161.956 225.531 161.906 225.615C161.856 225.699 161.787 225.773 161.705 225.833C161.622 225.894 161.527 225.94 161.425 225.968C161.322 225.996 161.214 226.006 161.108 225.997V225.997Z" fill="url(#paint53_linear_65_538)"/>
</g>
<defs>
<filter id="filter0_d_65_538" x="-4" y="0" width="331" height="253" filterUnits="userSpaceOnUse" color-interpolation-filters="sRGB">
<feFlood flood-opacity="0" result="BackgroundImageFix"/>
<feColorMatrix in="SourceAlpha" type="matrix" values="0 0 0 0 0 0 0 0 0 0 0 0 0 0 0 0 0 0 127 0" result="hardAlpha"/>
<feOffset dy="4"/>
<feGaussianBlur stdDeviation="2"/>
<feComposite in2="hardAlpha" operator="out"/>
<feColorMatrix type="matrix" values="0 0 0 0 0 0 0 0 0 0 0 0 0 0 0 0 0 0 0.25 0"/>
<feBlend mode="normal" in2="BackgroundImageFix" result="effect1_dropShadow_65_538"/>
<feBlend mode="normal" in="SourceGraphic" in2="effect1_dropShadow_65_538" result="shape"/>
</filter>
<linearGradient id="paint0_linear_65_538" x1="208.889" y1="51.5451" x2="209.791" y2="65.4875" gradientUnits="userSpaceOnUse">
<stop stop-color="#C2421B"/>
<stop offset="1" stop-color="#5C0E16"/>
</linearGradient>
<linearGradient id="paint1_linear_65_538" x1="208.959" y1="58.8299" x2="210.119" y2="44.1608" gradientUnits="userSpaceOnUse">
<stop stop-color="#C2421B"/>
<stop offset="1" stop-color="#5C0E16"/>
</linearGradient>
<linearGradient id="paint2_linear_65_538" x1="213.07" y1="59.1522" x2="214.224" y2="44.4831" gradientUnits="userSpaceOnUse">
<stop stop-color="#C2421B"/>
<stop offset="1" stop-color="#5C0E16"/>
</linearGradient>
<linearGradient id="paint3_linear_65_538" x1="204.761" y1="58.4958" x2="205.921" y2="43.8267" gradientUnits="userSpaceOnUse">
<stop stop-color="#C2421B"/>
<stop offset="1" stop-color="#5C0E16"/>
</linearGradient>
<linearGradient id="paint4_linear_65_538" x1="209.053" y1="44.7411" x2="210.934" y2="59.3106" gradientUnits="userSpaceOnUse">
<stop stop-color="#090056"/>
<stop offset="1" stop-color="#020038"/>
</linearGradient>
<linearGradient id="paint5_linear_65_538" x1="241.672" y1="36.8586" x2="240.201" y2="60.5998" gradientUnits="userSpaceOnUse">
<stop stop-color="#09005C"/>
<stop offset="1" stop-color="#1B0E8F"/>
</linearGradient>
<linearGradient id="paint6_linear_65_538" x1="236.524" y1="36.5422" x2="235.059" y2="60.2775" gradientUnits="userSpaceOnUse">
<stop stop-color="#09005C"/>
<stop offset="1" stop-color="#1B0E8F"/>
</linearGradient>
<linearGradient id="paint7_linear_65_538" x1="247.594" y1="37.2278" x2="246.123" y2="60.9631" gradientUnits="userSpaceOnUse">
<stop stop-color="#09005C"/>
<stop offset="1" stop-color="#1B0E8F"/>
</linearGradient>
<linearGradient id="paint8_linear_65_538" x1="237.374" y1="26.8017" x2="238.862" y2="36.554" gradientUnits="userSpaceOnUse">
<stop stop-color="#FD908C"/>
<stop offset="1" stop-color="#FB7062"/>
</linearGradient>
<linearGradient id="paint9_linear_65_538" x1="237.86" y1="45.4326" x2="241.721" y2="33.0891" gradientUnits="userSpaceOnUse">
<stop stop-color="#FCB9B8"/>
<stop offset="1" stop-color="#FD908C"/>
</linearGradient>
<linearGradient id="paint10_linear_65_538" x1="243.572" y1="47.2201" x2="247.432" y2="34.8766" gradientUnits="userSpaceOnUse">
<stop stop-color="#FCB9B8"/>
<stop offset="1" stop-color="#FD908C"/>
</linearGradient>
<linearGradient id="paint11_linear_65_538" x1="240.974" y1="58.232" x2="242.761" y2="46.3055" gradientUnits="userSpaceOnUse">
<stop stop-color="#FCB9B8"/>
<stop offset="1" stop-color="#FD908C"/>
</linearGradient>
<linearGradient id="paint12_linear_65_538" x1="240.112" y1="60.8107" x2="240.973" y2="55.0613" gradientUnits="userSpaceOnUse">
<stop stop-color="#09005C"/>
<stop offset="1" stop-color="#1B0E8F"/>
</linearGradient>
<linearGradient id="paint13_linear_65_538" x1="240.476" y1="46.253" x2="244.336" y2="33.9097" gradientUnits="userSpaceOnUse">
<stop stop-color="#FCB9B8"/>
<stop offset="1" stop-color="#FD908C"/>
</linearGradient>
<linearGradient id="paint14_linear_65_538" x1="236.524" y1="36.2667" x2="252.168" y2="61.2103" gradientUnits="userSpaceOnUse">
<stop stop-color="#09005C"/>
<stop offset="1" stop-color="#1B0E8F"/>
</linearGradient>
<linearGradient id="paint15_linear_65_538" x1="217.79" y1="80.0391" x2="211.229" y2="105.089" gradientUnits="userSpaceOnUse">
<stop stop-color="#09005C"/>
<stop offset="1" stop-color="#1B0E8F"/>
</linearGradient>
<linearGradient id="paint16_linear_65_538" x1="216.259" y1="79.6346" x2="209.698" y2="104.69" gradientUnits="userSpaceOnUse">
<stop stop-color="#09005C"/>
<stop offset="1" stop-color="#1B0E8F"/>
</linearGradient>
<linearGradient id="paint17_linear_65_538" x1="224.908" y1="81.9027" x2="218.347" y2="106.952" gradientUnits="userSpaceOnUse">
<stop stop-color="#09005C"/>
<stop offset="1" stop-color="#1B0E8F"/>
</linearGradient>
<linearGradient id="paint18_linear_65_538" x1="213.182" y1="76.6595" x2="219.445" y2="92.3047" gradientUnits="userSpaceOnUse">
<stop stop-color="#FCB9B8"/>
<stop offset="1" stop-color="#FD908C"/>
</linearGradient>
<linearGradient id="paint19_linear_65_538" x1="214.817" y1="97.1342" x2="219.099" y2="73.2811" gradientUnits="userSpaceOnUse">
<stop stop-color="#FCB9B8"/>
<stop offset="1" stop-color="#FD908C"/>
</linearGradient>
<linearGradient id="paint20_linear_65_538" x1="214.665" y1="86.4564" x2="216.984" y2="103.159" gradientUnits="userSpaceOnUse">
<stop stop-color="#FCB9B8"/>
<stop offset="1" stop-color="#FD908C"/>
</linearGradient>
<linearGradient id="paint21_linear_65_538" x1="210.392" y1="76.9182" x2="229.022" y2="109.301" gradientUnits="userSpaceOnUse">
<stop stop-color="#09005C"/>
<stop offset="1" stop-color="#1B0E8F"/>
</linearGradient>
<linearGradient id="paint22_linear_65_538" x1="214.301" y1="76.9565" x2="222.064" y2="90.4566" gradientUnits="userSpaceOnUse">
<stop stop-color="#09005C"/>
<stop offset="1" stop-color="#1B0E8F"/>
</linearGradient>
<linearGradient id="paint23_linear_65_538" x1="208.76" y1="78.533" x2="230.259" y2="109.088" gradientUnits="userSpaceOnUse">
<stop stop-color="#09005C"/>
<stop offset="1" stop-color="#1B0E8F"/>
</linearGradient>
<linearGradient id="paint24_linear_65_538" x1="258.816" y1="90.125" x2="261.402" y2="90.125" gradientUnits="userSpaceOnUse">
<stop stop-color="#4F52FD"/>
<stop offset="1" stop-color="#4142E0"/>
</linearGradient>
<linearGradient id="paint25_linear_65_538" x1="240.059" y1="88.7478" x2="249.675" y2="88.7478" gradientUnits="userSpaceOnUse">
<stop stop-color="#4F52FD"/>
<stop offset="1" stop-color="#4142E0"/>
</linearGradient>
<linearGradient id="paint26_linear_65_538" x1="236.166" y1="89.832" x2="241.144" y2="89.832" gradientUnits="userSpaceOnUse">
<stop stop-color="#4F52FD"/>
<stop offset="1" stop-color="#4142E0"/>
</linearGradient>
<linearGradient id="paint27_linear_65_538" x1="250.613" y1="89.1462" x2="259.631" y2="89.1462" gradientUnits="userSpaceOnUse">
<stop stop-color="#4F52FD"/>
<stop offset="1" stop-color="#4142E0"/>
</linearGradient>
<linearGradient id="paint28_linear_65_538" x1="253.621" y1="69.7774" x2="248.724" y2="92.3706" gradientUnits="userSpaceOnUse">
<stop stop-color="#FCB9B8"/>
<stop offset="1" stop-color="#FD908C"/>
</linearGradient>
<linearGradient id="paint29_linear_65_538" x1="250.678" y1="77.0678" x2="253.812" y2="62.0642" gradientUnits="userSpaceOnUse">
<stop stop-color="#FCB9B8"/>
<stop offset="1" stop-color="#FD908C"/>
</linearGradient>
<linearGradient id="paint30_linear_65_538" x1="254.313" y1="77.8237" x2="257.453" y2="62.826" gradientUnits="userSpaceOnUse">
<stop stop-color="#FCB9B8"/>
<stop offset="1" stop-color="#FD908C"/>
</linearGradient>
<linearGradient id="paint31_linear_65_538" x1="247.535" y1="76.4113" x2="250.669" y2="61.4077" gradientUnits="userSpaceOnUse">
<stop stop-color="#FCB9B8"/>
<stop offset="1" stop-color="#FD908C"/>
</linearGradient>
<linearGradient id="paint32_linear_65_538" x1="251.059" y1="69.9296" x2="252.523" y2="81.2464" gradientUnits="userSpaceOnUse">
<stop stop-color="#090056"/>
<stop offset="1" stop-color="#020038"/>
</linearGradient>
<linearGradient id="paint33_linear_65_538" x1="246.966" y1="82.0961" x2="246.14" y2="95.3057" gradientUnits="userSpaceOnUse">
<stop stop-color="#4F52FD"/>
<stop offset="1" stop-color="#4142E0"/>
</linearGradient>
<linearGradient id="paint34_linear_65_538" x1="254.196" y1="82.7407" x2="253.393" y2="95.5343" gradientUnits="userSpaceOnUse">
<stop stop-color="#4F52FD"/>
<stop offset="1" stop-color="#4142E0"/>
</linearGradient>
<linearGradient id="paint35_linear_65_538" x1="188.17" y1="-52.9224" x2="173.764" y2="-24.4864" gradientUnits="userSpaceOnUse">
<stop stop-color="#FD908C"/>
<stop offset="1" stop-color="#FB7062"/>
</linearGradient>
<linearGradient id="paint36_linear_65_538" x1="193.261" y1="-48.2986" x2="178.444" y2="-20.4457" gradientUnits="userSpaceOnUse">
<stop stop-color="#FD908C"/>
<stop offset="1" stop-color="#FB7062"/>
</linearGradient>
<linearGradient id="paint37_linear_65_538" x1="208.718" y1="-42.0614" x2="194.312" y2="-13.6254" gradientUnits="userSpaceOnUse">
<stop stop-color="#FD908C"/>
<stop offset="1" stop-color="#FB7062"/>
</linearGradient>
<linearGradient id="paint38_linear_65_538" x1="159.499" y1="86.5957" x2="150.979" y2="107.733" gradientUnits="userSpaceOnUse">
<stop stop-color="#09005C"/>
<stop offset="1" stop-color="#1B0E8F"/>
</linearGradient>
<linearGradient id="paint39_linear_65_538" x1="186.867" y1="102.354" x2="164.277" y2="134.428" gradientUnits="userSpaceOnUse">
<stop stop-color="#FCB9B8"/>
<stop offset="1" stop-color="#FD908C"/>
</linearGradient>
<linearGradient id="paint40_linear_65_538" x1="159.376" y1="251.497" x2="148.724" y2="128.792" gradientUnits="userSpaceOnUse">
<stop stop-color="#FCB9B8"/>
<stop offset="1" stop-color="#FD908C"/>
</linearGradient>
<linearGradient id="paint41_linear_65_538" x1="138.227" y1="251.591" x2="128.146" y2="133.086" gradientUnits="userSpaceOnUse">
<stop stop-color="#FCB9B8"/>
<stop offset="1" stop-color="#FD908C"/>
</linearGradient>
<linearGradient id="paint42_linear_65_538" x1="129.705" y1="131.747" x2="154.54" y2="173.4" gradientUnits="userSpaceOnUse">
<stop stop-color="#4F52FD"/>
<stop offset="1" stop-color="#4142E0"/>
</linearGradient>
<linearGradient id="paint43_linear_65_538" x1="160.501" y1="131.139" x2="158.789" y2="117.459" gradientUnits="userSpaceOnUse">
<stop stop-color="#FCB9B8"/>
<stop offset="1" stop-color="#FD908C"/>
</linearGradient>
<linearGradient id="paint44_linear_65_538" x1="164.404" y1="102.255" x2="154.047" y2="70.2664" gradientUnits="userSpaceOnUse">
<stop stop-color="#FCB9B8"/>
<stop offset="1" stop-color="#FD908C"/>
</linearGradient>
<linearGradient id="paint45_linear_65_538" x1="165.79" y1="76.2345" x2="153.849" y2="95.8257" gradientUnits="userSpaceOnUse">
<stop stop-color="#09005C"/>
<stop offset="1" stop-color="#1B0E8F"/>
</linearGradient>
<linearGradient id="paint46_linear_65_538" x1="160.193" y1="103.396" x2="150.569" y2="71.9475" gradientUnits="userSpaceOnUse">
<stop stop-color="#FCB9B8"/>
<stop offset="1" stop-color="#FD908C"/>
</linearGradient>
<linearGradient id="paint47_linear_65_538" x1="189.545" y1="105.02" x2="166.5" y2="137.101" gradientUnits="userSpaceOnUse">
<stop stop-color="#FCB9B8"/>
<stop offset="1" stop-color="#FD908C"/>
</linearGradient>
<linearGradient id="paint48_linear_65_538" x1="189" y1="93.0092" x2="193" y2="93.0092" gradientUnits="userSpaceOnUse">
<stop stop-color="#FCB9B8"/>
<stop offset="1" stop-color="#FD908C"/>
</linearGradient>
<linearGradient id="paint49_linear_65_538" x1="155.505" y1="149.071" x2="173.681" y2="155.134" gradientUnits="userSpaceOnUse">
<stop stop-color="#09005C"/>
<stop offset="1" stop-color="#1B0E8F"/>
</linearGradient>
<linearGradient id="paint50_linear_65_538" x1="176.851" y1="133.784" x2="190.155" y2="147.675" gradientUnits="userSpaceOnUse">
<stop stop-color="#09005C"/>
<stop offset="1" stop-color="#1B0E8F"/>
</linearGradient>
<linearGradient id="paint51_linear_65_538" x1="123.584" y1="150.246" x2="165.077" y2="132.234" gradientUnits="userSpaceOnUse">
<stop stop-color="#FCB9B8"/>
<stop offset="1" stop-color="#FD908C"/>
</linearGradient>
<linearGradient id="paint52_linear_65_538" x1="128.006" y1="223.002" x2="121.007" y2="223.002" gradientUnits="userSpaceOnUse">
<stop stop-color="#09005C"/>
<stop offset="1" stop-color="#1B0E8F"/>
</linearGradient>
<linearGradient id="paint53_linear_65_538" x1="161.915" y1="221.998" x2="150.001" y2="221.998" gradientUnits="userSpaceOnUse">
<stop stop-color="#09005C"/>
<stop offset="1" stop-color="#1B0E8F"/>
</linearGradient>
</defs>
</svg>
